<?xml version="1.0" encoding="UTF-8"?>
<svg width="220px" height="21px" viewBox="0 0 220 21" version="1.1" xmlns="http://www.w3.org/2000/svg" xmlns:xlink="http://www.w3.org/1999/xlink">
    <!-- Generator: Sketch 42 (36781) - http://www.bohemiancoding.com/sketch -->
    <title>Back to the home pag</title>
    <desc>Created with Sketch.</desc>
    <defs></defs>
    <g id="Website" stroke="none" stroke-width="1" fill="none" fill-rule="evenodd">
        <g id="Color" transform="translate(-611.000000, -844.000000)" fill="#E8E8E8">
            <path d="M616.902,859.306 C617.51067,859.306 618.034998,859.236334 618.475,859.097 C618.915002,858.957666 619.276165,858.761501 619.5585,858.5085 C619.840835,858.255499 620.047999,857.954835 620.18,857.6065 C620.312001,857.258165 620.378,856.875002 620.378,856.457 C620.378,855.642996 620.088336,854.999502 619.509,854.5265 C618.929664,854.053498 618.060672,853.817 616.902,853.817 L613.492,853.817 L613.492,859.306 L616.902,859.306 Z M613.492,846.92 L613.492,852.299 L616.308,852.299 C616.909336,852.299 617.431831,852.233001 617.8755,852.101 C618.319169,851.968999 618.685832,851.785668 618.9755,851.551 C619.265168,851.316332 619.479666,851.032168 619.619,850.6985 C619.758334,850.364832 619.828,850.000002 619.828,849.604 C619.828,848.672662 619.549336,847.992502 618.992,847.5635 C618.434664,847.134498 617.569339,846.92 616.396,846.92 L613.492,846.92 Z M616.396,845.237 C617.364005,845.237 618.198163,845.332332 618.8985,845.523 C619.598837,845.713668 620.174498,845.984998 620.6255,846.337 C621.076502,846.689002 621.408332,847.119831 621.621,847.6295 C621.833668,848.139169 621.94,848.712997 621.94,849.351 C621.94,849.739669 621.879501,850.111832 621.7585,850.4675 C621.637499,850.823168 621.456001,851.154998 621.214,851.463 C620.971999,851.771002 620.665835,852.047832 620.2955,852.2935 C619.925165,852.539168 619.490669,852.738999 618.992,852.893 C620.150672,853.113001 621.021497,853.525497 621.6045,854.1305 C622.187503,854.735503 622.479,855.529328 622.479,856.512 C622.479,857.179337 622.356168,857.787997 622.1105,858.338 C621.864832,858.888003 621.505502,859.360998 621.0325,859.757 C620.559498,860.153002 619.978337,860.459166 619.289,860.6755 C618.599663,860.891834 617.815004,861 616.935,861 L611.369,861 L611.369,845.237 L616.396,845.237 Z M631.169,855.984 C630.266995,856.013333 629.498837,856.084833 628.8645,856.1985 C628.230163,856.312167 627.713169,856.460666 627.3135,856.644 C626.913831,856.827334 626.624168,857.043665 626.4445,857.293 C626.264832,857.542335 626.175,857.820998 626.175,858.129 C626.175,858.422335 626.222666,858.675332 626.318,858.888 C626.413334,859.100668 626.543499,859.274833 626.7085,859.4105 C626.873501,859.546167 627.067832,859.645166 627.2915,859.7075 C627.515168,859.769834 627.755332,859.801 628.012,859.801 C628.356668,859.801 628.671999,859.766167 628.958,859.6965 C629.244001,859.626833 629.513499,859.526001 629.7665,859.394 C630.019501,859.261999 630.261499,859.104334 630.4925,858.921 C630.723501,858.737666 630.948999,858.528668 631.169,858.294 L631.169,855.984 Z M624.844,851.43 C625.460003,850.835997 626.123663,850.392335 626.835,850.099 C627.546337,849.805665 628.334662,849.659 629.2,849.659 C629.823336,849.659 630.376998,849.761666 630.861,849.967 C631.345002,850.172334 631.751998,850.458331 632.082,850.825 C632.412002,851.191668 632.661332,851.635331 632.83,852.156 C632.998668,852.676669 633.083,853.248664 633.083,853.872 L633.083,861 L632.214,861 C632.023332,861 631.876667,860.968834 631.774,860.9065 C631.671333,860.844166 631.590667,860.721334 631.532,860.538 L631.312,859.482 C631.018665,859.753335 630.732668,859.993499 630.454,860.2025 C630.175332,860.411501 629.882002,860.587499 629.574,860.7305 C629.265998,860.873501 628.937835,860.9835 628.5895,861.0605 C628.241165,861.1375 627.854335,861.176 627.429,861.176 C626.996331,861.176 626.589335,861.115501 626.208,860.9945 C625.826665,860.873499 625.494835,860.692001 625.2125,860.45 C624.930165,860.207999 624.706501,859.901835 624.5415,859.5315 C624.376499,859.161165 624.294,858.723003 624.294,858.217 C624.294,857.776998 624.414999,857.353502 624.657,856.9465 C624.899001,856.539498 625.291331,856.178335 625.834,855.863 C626.376669,855.547665 627.084329,855.289168 627.957,855.0875 C628.829671,854.885832 629.900327,854.770333 631.169,854.741 L631.169,853.872 C631.169,853.006662 630.982002,852.352169 630.608,851.9085 C630.233998,851.464831 629.68767,851.243 628.969,851.243 C628.484998,851.243 628.079835,851.303499 627.7535,851.4245 C627.427165,851.545501 627.144835,851.681166 626.9065,851.8315 C626.668165,851.981834 626.462834,852.117499 626.2905,852.2385 C626.118166,852.359501 625.947668,852.42 625.779,852.42 C625.646999,852.42 625.533334,852.385167 625.438,852.3155 C625.342666,852.245833 625.262,852.159667 625.196,852.057 L624.844,851.43 Z M643.819,851.837 C643.760333,851.917667 643.701667,851.98 643.643,852.024 C643.584333,852.068 643.503667,852.09 643.401,852.09 C643.290999,852.09 643.170001,852.044167 643.038,851.9525 C642.905999,851.860833 642.742834,851.760001 642.5485,851.65 C642.354166,851.539999 642.115835,851.439167 641.8335,851.3475 C641.551165,851.255833 641.204669,851.21 640.794,851.21 C640.243997,851.21 639.760002,851.307166 639.342,851.5015 C638.923998,851.695834 638.573835,851.976332 638.2915,852.343 C638.009165,852.709669 637.796501,853.153331 637.6535,853.674 C637.510499,854.194669 637.439,854.777663 637.439,855.423 C637.439,856.09767 637.515999,856.697164 637.67,857.2215 C637.824001,857.745836 638.042165,858.185832 638.3245,858.5415 C638.606835,858.897168 638.947831,859.168499 639.3475,859.3555 C639.747169,859.542501 640.196331,859.636 640.695,859.636 C641.171669,859.636 641.563998,859.579167 641.872,859.4655 C642.180002,859.351833 642.434832,859.225334 642.6365,859.086 C642.838168,858.946666 643.006833,858.820167 643.1425,858.7065 C643.278167,858.592833 643.411999,858.536 643.544,858.536 C643.705334,858.536 643.83,858.598333 643.918,858.723 L644.468,859.438 C644.225999,859.738668 643.951002,859.995332 643.643,860.208 C643.334998,860.420668 643.003168,860.598499 642.6475,860.7415 C642.291832,860.884501 641.919669,860.989 641.531,861.055 C641.142331,861.121 640.746335,861.154 640.343,861.154 C639.64633,861.154 638.99917,861.025668 638.4015,860.769 C637.80383,860.512332 637.285002,860.140169 636.845,859.6525 C636.404998,859.164831 636.060335,858.565337 635.811,857.854 C635.561665,857.142663 635.437,856.332338 635.437,855.423 C635.437,854.594329 635.552499,853.828004 635.7835,853.124 C636.014501,852.419996 636.351831,851.813169 636.7955,851.3035 C637.239169,850.793831 637.785497,850.396001 638.4345,850.11 C639.083503,849.823999 639.829662,849.681 640.673,849.681 C641.457671,849.681 642.14883,849.807499 642.7465,850.0605 C643.34417,850.313501 643.873998,850.670998 644.336,851.133 L643.819,851.837 Z M648.538,844.797 L648.538,854.334 L649.044,854.334 C649.190667,854.334 649.3135,854.313834 649.4125,854.2735 C649.5115,854.233166 649.615999,854.150667 649.726,854.026 L653.246,850.253 C653.348667,850.128333 653.456833,850.031167 653.5705,849.9615 C653.684167,849.891833 653.836332,849.857 654.027,849.857 L655.798,849.857 L651.695,854.224 C651.496999,854.473335 651.284334,854.667666 651.057,854.807 C651.189001,854.895 651.308166,854.995833 651.4145,855.1095 C651.520834,855.223167 651.621666,855.353333 651.717,855.5 L656.073,861 L654.324,861 C654.155332,861 654.010501,860.9725 653.8895,860.9175 C653.768499,860.8625 653.664,860.761667 653.576,860.615 L649.913,856.05 C649.802999,855.895999 649.694834,855.795167 649.5885,855.7475 C649.482166,855.699833 649.319001,855.676 649.099,855.676 L648.538,855.676 L648.538,861 L646.569,861 L646.569,844.797 L648.538,844.797 Z M666.798,861.176 C665.917996,861.176 665.241502,860.930336 664.7685,860.439 C664.295498,859.947664 664.059,859.240005 664.059,858.316 L664.059,851.496 L662.717,851.496 C662.599666,851.496 662.500667,851.461167 662.42,851.3915 C662.339333,851.321833 662.299,851.213667 662.299,851.067 L662.299,850.286 L664.125,850.055 L664.576,846.612 C664.598,846.501999 664.6475,846.412167 664.7245,846.3425 C664.8015,846.272833 664.902333,846.238 665.027,846.238 L666.017,846.238 L666.017,850.077 L669.24,850.077 L669.24,851.496 L666.017,851.496 L666.017,858.184 C666.017,858.653336 666.130666,859.001666 666.358,859.229 C666.585334,859.456334 666.878665,859.57 667.238,859.57 C667.443334,859.57 667.621166,859.5425 667.7715,859.4875 C667.921834,859.4325 668.051999,859.372 668.162,859.306 C668.272001,859.24 668.3655,859.1795 668.4425,859.1245 C668.5195,859.0695 668.587333,859.042 668.646,859.042 C668.748667,859.042 668.840333,859.104333 668.921,859.229 L669.493,860.164 C669.155665,860.479335 668.748669,860.726832 668.272,860.9065 C667.795331,861.086168 667.304003,861.176 666.798,861.176 Z M675.961,849.681 C676.775004,849.681 677.50833,849.816665 678.161,850.088 C678.81367,850.359335 679.370998,850.744331 679.833,851.243 C680.295002,851.741669 680.648832,852.34483 680.8945,853.0525 C681.140168,853.76017 681.263,854.550329 681.263,855.423 C681.263,856.303004 681.140168,857.094996 680.8945,857.799 C680.648832,858.503004 680.295002,859.104331 679.833,859.603 C679.370998,860.101669 678.81367,860.484832 678.161,860.7525 C677.50833,861.020168 676.775004,861.154 675.961,861.154 C675.139663,861.154 674.400837,861.020168 673.7445,860.7525 C673.088163,860.484832 672.529002,860.101669 672.067,859.603 C671.604998,859.104331 671.251168,858.503004 671.0055,857.799 C670.759832,857.094996 670.637,856.303004 670.637,855.423 C670.637,854.550329 670.759832,853.76017 671.0055,853.0525 C671.251168,852.34483 671.604998,851.741669 672.067,851.243 C672.529002,850.744331 673.088163,850.359335 673.7445,850.088 C674.400837,849.816665 675.139663,849.681 675.961,849.681 Z M675.961,859.625 C677.061005,859.625 677.882331,859.256504 678.425,858.5195 C678.967669,857.782496 679.239,856.754007 679.239,855.434 C679.239,854.10666 678.967669,853.07267 678.425,852.332 C677.882331,851.59133 677.061005,851.221 675.961,851.221 C675.403664,851.221 674.917835,851.316332 674.5035,851.507 C674.089165,851.697668 673.744501,851.972665 673.4695,852.332 C673.194499,852.691335 672.989167,853.133164 672.8535,853.6575 C672.717833,854.181836 672.65,854.773997 672.65,855.434 C672.65,856.754007 672.923164,857.782496 673.4695,858.5195 C674.015836,859.256504 674.846328,859.625 675.961,859.625 Z M692.791,861.176 C691.910996,861.176 691.234502,860.930336 690.7615,860.439 C690.288498,859.947664 690.052,859.240005 690.052,858.316 L690.052,851.496 L688.71,851.496 C688.592666,851.496 688.493667,851.461167 688.413,851.3915 C688.332333,851.321833 688.292,851.213667 688.292,851.067 L688.292,850.286 L690.118,850.055 L690.569,846.612 C690.591,846.501999 690.6405,846.412167 690.7175,846.3425 C690.7945,846.272833 690.895333,846.238 691.02,846.238 L692.01,846.238 L692.01,850.077 L695.233,850.077 L695.233,851.496 L692.01,851.496 L692.01,858.184 C692.01,858.653336 692.123666,859.001666 692.351,859.229 C692.578334,859.456334 692.871665,859.57 693.231,859.57 C693.436334,859.57 693.614166,859.5425 693.7645,859.4875 C693.914834,859.4325 694.044999,859.372 694.155,859.306 C694.265001,859.24 694.3585,859.1795 694.4355,859.1245 C694.5125,859.0695 694.580333,859.042 694.639,859.042 C694.741667,859.042 694.833333,859.104333 694.914,859.229 L695.486,860.164 C695.148665,860.479335 694.741669,860.726832 694.265,860.9065 C693.788331,861.086168 693.297003,861.176 692.791,861.176 Z M699.226,851.342 C699.702669,850.835997 700.230664,850.432668 700.81,850.132 C701.389336,849.831332 702.056663,849.681 702.812,849.681 C703.42067,849.681 703.957831,849.781832 704.4235,849.9835 C704.889169,850.185168 705.277832,850.471165 705.5895,850.8415 C705.901168,851.211835 706.137666,851.657331 706.299,852.178 C706.460334,852.698669 706.541,853.27433 706.541,853.905 L706.541,861 L704.572,861 L704.572,853.905 C704.572,853.061662 704.379502,852.407169 703.9945,851.9415 C703.609498,851.475831 703.024671,851.243 702.24,851.243 C701.660664,851.243 701.119836,851.382332 700.6175,851.661 C700.115164,851.939668 699.651335,852.317331 699.226,852.794 L699.226,861 L697.257,861 L697.257,844.797 L699.226,844.797 L699.226,851.342 Z M716.991,854.213 C716.991,853.758331 716.926834,853.342169 716.7985,852.9645 C716.670166,852.586831 716.483168,852.260501 716.2375,851.9855 C715.991832,851.710499 715.693002,851.497834 715.341,851.3475 C714.988998,851.197166 714.589336,851.122 714.142,851.122 C713.203329,851.122 712.460836,851.395164 711.9145,851.9415 C711.368164,852.487836 711.029001,853.244995 710.897,854.213 L716.991,854.213 Z M718.575,859.438 C718.332999,859.731335 718.043335,859.986166 717.706,860.2025 C717.368665,860.418834 717.007502,860.596666 716.6225,860.736 C716.237498,860.875334 715.839669,860.979833 715.429,861.0495 C715.018331,861.119167 714.611335,861.154 714.208,861.154 C713.437996,861.154 712.728503,861.023835 712.0795,860.7635 C711.430497,860.503165 710.869502,860.121836 710.3965,859.6195 C709.923498,859.117164 709.555001,858.49567 709.291,857.755 C709.026999,857.01433 708.895,856.163671 708.895,855.203 C708.895,854.425663 709.014165,853.69967 709.2525,853.025 C709.490835,852.35033 709.833664,851.765502 710.281,851.2705 C710.728336,850.775498 711.274663,850.386835 711.92,850.1045 C712.565337,849.822165 713.291329,849.681 714.098,849.681 C714.765337,849.681 715.383164,849.792832 715.9515,850.0165 C716.519836,850.240168 717.011165,850.562831 717.4255,850.9845 C717.839835,851.406169 718.164332,851.92683 718.399,852.5465 C718.633668,853.16617 718.751,853.871996 718.751,854.664 C718.751,854.972002 718.718,855.177333 718.652,855.28 C718.586,855.382667 718.461334,855.434 718.278,855.434 L710.831,855.434 C710.853,856.138004 710.950166,856.750331 711.1225,857.271 C711.294834,857.791669 711.534998,858.226165 711.843,858.5745 C712.151002,858.922835 712.517665,859.183166 712.943,859.3555 C713.368335,859.527834 713.844997,859.614 714.373,859.614 C714.864336,859.614 715.287832,859.557167 715.6435,859.4435 C715.999168,859.329833 716.305332,859.207001 716.562,859.075 C716.818668,858.942999 717.033166,858.820167 717.2055,858.7065 C717.377834,858.592833 717.526333,858.536 717.651,858.536 C717.812334,858.536 717.937,858.598333 718.025,858.723 L718.575,859.438 Z M728.75,851.342 C729.226669,850.835997 729.754664,850.432668 730.334,850.132 C730.913336,849.831332 731.580663,849.681 732.336,849.681 C732.94467,849.681 733.481831,849.781832 733.9475,849.9835 C734.413169,850.185168 734.801832,850.471165 735.1135,850.8415 C735.425168,851.211835 735.661666,851.657331 735.823,852.178 C735.984334,852.698669 736.065,853.27433 736.065,853.905 L736.065,861 L734.096,861 L734.096,853.905 C734.096,853.061662 733.903502,852.407169 733.5185,851.9415 C733.133498,851.475831 732.548671,851.243 731.764,851.243 C731.184664,851.243 730.643836,851.382332 730.1415,851.661 C729.639164,851.939668 729.175335,852.317331 728.75,852.794 L728.75,861 L726.781,861 L726.781,844.797 L728.75,844.797 L728.75,851.342 Z M743.754,849.681 C744.568004,849.681 745.30133,849.816665 745.954,850.088 C746.60667,850.359335 747.163998,850.744331 747.626,851.243 C748.088002,851.741669 748.441832,852.34483 748.6875,853.0525 C748.933168,853.76017 749.056,854.550329 749.056,855.423 C749.056,856.303004 748.933168,857.094996 748.6875,857.799 C748.441832,858.503004 748.088002,859.104331 747.626,859.603 C747.163998,860.101669 746.60667,860.484832 745.954,860.7525 C745.30133,861.020168 744.568004,861.154 743.754,861.154 C742.932663,861.154 742.193837,861.020168 741.5375,860.7525 C740.881163,860.484832 740.322002,860.101669 739.86,859.603 C739.397998,859.104331 739.044168,858.503004 738.7985,857.799 C738.552832,857.094996 738.43,856.303004 738.43,855.423 C738.43,854.550329 738.552832,853.76017 738.7985,853.0525 C739.044168,852.34483 739.397998,851.741669 739.86,851.243 C740.322002,850.744331 740.881163,850.359335 741.5375,850.088 C742.193837,849.816665 742.932663,849.681 743.754,849.681 Z M743.754,859.625 C744.854006,859.625 745.675331,859.256504 746.218,858.5195 C746.760669,857.782496 747.032,856.754007 747.032,855.434 C747.032,854.10666 746.760669,853.07267 746.218,852.332 C745.675331,851.59133 744.854006,851.221 743.754,851.221 C743.196664,851.221 742.710835,851.316332 742.2965,851.507 C741.882165,851.697668 741.537501,851.972665 741.2625,852.332 C740.987499,852.691335 740.782167,853.133164 740.6465,853.6575 C740.510833,854.181836 740.443,854.773997 740.443,855.434 C740.443,856.754007 740.716164,857.782496 741.2625,858.5195 C741.808836,859.256504 742.639328,859.625 743.754,859.625 Z M751.531,861 L751.531,849.857 L752.708,849.857 C752.986668,849.857 753.159,849.992665 753.225,850.264 L753.368,851.408 C753.778669,850.901997 754.240664,850.487668 754.754,850.165 C755.267336,849.842332 755.86133,849.681 756.536,849.681 C757.284004,849.681 757.890831,849.889998 758.3565,850.308 C758.822169,850.726002 759.157666,851.290663 759.363,852.002 C759.524334,851.598665 759.731499,851.250335 759.9845,850.957 C760.237501,850.663665 760.521665,850.421668 760.837,850.231 C761.152335,850.040332 761.487832,849.901 761.8435,849.813 C762.199168,849.725 762.560332,849.681 762.927,849.681 C763.51367,849.681 764.036164,849.774499 764.4945,849.9615 C764.952836,850.148501 765.341498,850.421665 765.6605,850.781 C765.979502,851.140335 766.223332,851.582164 766.392,852.1065 C766.560668,852.630836 766.645,853.23033 766.645,853.905 L766.645,861 L764.676,861 L764.676,853.905 C764.676,853.032329 764.485335,852.370502 764.104,851.9195 C763.722665,851.468498 763.17267,851.243 762.454,851.243 C762.131332,851.243 761.825168,851.299833 761.5355,851.4135 C761.245832,851.527167 760.991001,851.693999 760.771,851.914 C760.550999,852.134001 760.376834,852.410832 760.2485,852.7445 C760.120166,853.078168 760.056,853.464998 760.056,853.905 L760.056,861 L758.087,861 L758.087,853.905 C758.087,853.010329 757.907335,852.343002 757.548,851.903 C757.188665,851.462998 756.664337,851.243 755.975,851.243 C755.490998,851.243 755.043669,851.373165 754.633,851.6335 C754.222331,851.893835 753.844668,852.247664 753.5,852.695 L753.5,861 L751.531,861 Z M777.084,854.213 C777.084,853.758331 777.019834,853.342169 776.8915,852.9645 C776.763166,852.586831 776.576168,852.260501 776.3305,851.9855 C776.084832,851.710499 775.786002,851.497834 775.434,851.3475 C775.081998,851.197166 774.682336,851.122 774.235,851.122 C773.296329,851.122 772.553836,851.395164 772.0075,851.9415 C771.461164,852.487836 771.122001,853.244995 770.99,854.213 L777.084,854.213 Z M778.668,859.438 C778.425999,859.731335 778.136335,859.986166 777.799,860.2025 C777.461665,860.418834 777.100502,860.596666 776.7155,860.736 C776.330498,860.875334 775.932669,860.979833 775.522,861.0495 C775.111331,861.119167 774.704335,861.154 774.301,861.154 C773.530996,861.154 772.821503,861.023835 772.1725,860.7635 C771.523497,860.503165 770.962502,860.121836 770.4895,859.6195 C770.016498,859.117164 769.648001,858.49567 769.384,857.755 C769.119999,857.01433 768.988,856.163671 768.988,855.203 C768.988,854.425663 769.107165,853.69967 769.3455,853.025 C769.583835,852.35033 769.926664,851.765502 770.374,851.2705 C770.821336,850.775498 771.367663,850.386835 772.013,850.1045 C772.658337,849.822165 773.384329,849.681 774.191,849.681 C774.858337,849.681 775.476164,849.792832 776.0445,850.0165 C776.612836,850.240168 777.104165,850.562831 777.5185,850.9845 C777.932835,851.406169 778.257332,851.92683 778.492,852.5465 C778.726668,853.16617 778.844,853.871996 778.844,854.664 C778.844,854.972002 778.811,855.177333 778.745,855.28 C778.679,855.382667 778.554334,855.434 778.371,855.434 L770.924,855.434 C770.946,856.138004 771.043166,856.750331 771.2155,857.271 C771.387834,857.791669 771.627998,858.226165 771.936,858.5745 C772.244002,858.922835 772.610665,859.183166 773.036,859.3555 C773.461335,859.527834 773.937997,859.614 774.466,859.614 C774.957336,859.614 775.380832,859.557167 775.7365,859.4435 C776.092168,859.329833 776.398332,859.207001 776.655,859.075 C776.911668,858.942999 777.126166,858.820167 777.2985,858.7065 C777.470834,858.592833 777.619333,858.536 777.744,858.536 C777.905334,858.536 778.03,858.598333 778.118,858.723 L778.668,859.438 Z M788.843,858.316 C789.202335,858.800002 789.594665,859.140999 790.02,859.339 C790.445335,859.537001 790.921997,859.636 791.45,859.636 C792.491339,859.636 793.290664,859.26567 793.848,858.525 C794.405336,857.78433 794.684,856.72834 794.684,855.357 C794.684,854.630996 794.619834,854.007669 794.4915,853.487 C794.363166,852.966331 794.178001,852.539168 793.936,852.2055 C793.693999,851.871832 793.397002,851.628001 793.045,851.474 C792.692998,851.319999 792.293336,851.243 791.846,851.243 C791.207997,851.243 790.648836,851.389665 790.1685,851.683 C789.688164,851.976335 789.246335,852.390664 788.843,852.926 L788.843,858.316 Z M788.744,851.584 C789.213336,851.004664 789.755997,850.539002 790.372,850.187 C790.988003,849.834998 791.691996,849.659 792.484,849.659 C793.129337,849.659 793.712331,849.781832 794.233,850.0275 C794.753669,850.273168 795.197332,850.636164 795.564,851.1165 C795.930669,851.596836 796.212999,852.192663 796.411,852.904 C796.609001,853.615337 796.708,854.432995 796.708,855.357 C796.708,856.178337 796.598001,856.94283 796.378,857.6505 C796.157999,858.35817 795.840835,858.970497 795.4265,859.4875 C795.012165,860.004503 794.50617,860.411499 793.9085,860.7085 C793.31083,861.005501 792.638004,861.154 791.89,861.154 C791.207997,861.154 790.623169,861.038501 790.1355,860.8075 C789.647831,860.576499 789.217002,860.255669 788.843,859.845 L788.843,864.773 L786.874,864.773 L786.874,849.857 L788.051,849.857 C788.329668,849.857 788.502,849.992665 788.568,850.264 L788.744,851.584 Z M805.244,855.984 C804.341995,856.013333 803.573837,856.084833 802.9395,856.1985 C802.305163,856.312167 801.788169,856.460666 801.3885,856.644 C800.988831,856.827334 800.699168,857.043665 800.5195,857.293 C800.339832,857.542335 800.25,857.820998 800.25,858.129 C800.25,858.422335 800.297666,858.675332 800.393,858.888 C800.488334,859.100668 800.618499,859.274833 800.7835,859.4105 C800.948501,859.546167 801.142832,859.645166 801.3665,859.7075 C801.590168,859.769834 801.830332,859.801 802.087,859.801 C802.431668,859.801 802.746999,859.766167 803.033,859.6965 C803.319001,859.626833 803.588499,859.526001 803.8415,859.394 C804.094501,859.261999 804.336499,859.104334 804.5675,858.921 C804.798501,858.737666 805.023999,858.528668 805.244,858.294 L805.244,855.984 Z M798.919,851.43 C799.535003,850.835997 800.198663,850.392335 800.91,850.099 C801.621337,849.805665 802.409662,849.659 803.275,849.659 C803.898336,849.659 804.451998,849.761666 804.936,849.967 C805.420002,850.172334 805.826998,850.458331 806.157,850.825 C806.487002,851.191668 806.736332,851.635331 806.905,852.156 C807.073668,852.676669 807.158,853.248664 807.158,853.872 L807.158,861 L806.289,861 C806.098332,861 805.951667,860.968834 805.849,860.9065 C805.746333,860.844166 805.665667,860.721334 805.607,860.538 L805.387,859.482 C805.093665,859.753335 804.807668,859.993499 804.529,860.2025 C804.250332,860.411501 803.957002,860.587499 803.649,860.7305 C803.340998,860.873501 803.012835,860.9835 802.6645,861.0605 C802.316165,861.1375 801.929335,861.176 801.504,861.176 C801.071331,861.176 800.664335,861.115501 800.283,860.9945 C799.901665,860.873499 799.569835,860.692001 799.2875,860.45 C799.005165,860.207999 798.781501,859.901835 798.6165,859.5315 C798.451499,859.161165 798.369,858.723003 798.369,858.217 C798.369,857.776998 798.489999,857.353502 798.732,856.9465 C798.974001,856.539498 799.366331,856.178335 799.909,855.863 C800.451669,855.547665 801.159329,855.289168 802.032,855.0875 C802.904671,854.885832 803.975327,854.770333 805.244,854.741 L805.244,853.872 C805.244,853.006662 805.057002,852.352169 804.683,851.9085 C804.308998,851.464831 803.76267,851.243 803.044,851.243 C802.559998,851.243 802.154835,851.303499 801.8285,851.4245 C801.502165,851.545501 801.219835,851.681166 800.9815,851.8315 C800.743165,851.981834 800.537834,852.117499 800.3655,852.2385 C800.193166,852.359501 800.022668,852.42 799.854,852.42 C799.721999,852.42 799.608334,852.385167 799.513,852.3155 C799.417666,852.245833 799.337,852.159667 799.271,852.057 L798.919,851.43 Z M814.022,855.555 C814.418002,855.555 814.766332,855.500001 815.067,855.39 C815.367668,855.279999 815.620666,855.126001 815.826,854.928 C816.031334,854.729999 816.185333,854.493501 816.288,854.2185 C816.390667,853.943499 816.442,853.641002 816.442,853.311 C816.442,852.628997 816.234835,852.086335 815.8205,851.683 C815.406165,851.279665 814.806671,851.078 814.022,851.078 C813.229996,851.078 812.626835,851.279665 812.2125,851.683 C811.798165,852.086335 811.591,852.628997 811.591,853.311 C811.591,853.641002 811.644166,853.943499 811.7505,854.2185 C811.856834,854.493501 812.012666,854.729999 812.218,854.928 C812.423334,855.126001 812.676332,855.279999 812.977,855.39 C813.277668,855.500001 813.625998,855.555 814.022,855.555 Z M817.553,861.605 C817.553,861.333665 817.476001,861.113668 817.322,860.945 C817.167999,860.776332 816.960835,860.644334 816.7005,860.549 C816.440165,860.453666 816.137668,860.385834 815.793,860.3455 C815.448332,860.305166 815.083502,860.274 814.6985,860.252 C814.313498,860.23 813.923002,860.208 813.527,860.186 C813.130998,860.164 812.749669,860.127334 812.383,860.076 C811.972331,860.266668 811.636835,860.506832 811.3765,860.7965 C811.116165,861.086168 810.986,861.425331 810.986,861.814 C810.986,862.063335 811.050166,862.296166 811.1785,862.5125 C811.306834,862.728834 811.502999,862.915833 811.767,863.0735 C812.031001,863.231167 812.362831,863.355833 812.7625,863.4475 C813.162169,863.539167 813.633331,863.585 814.176,863.585 C814.704003,863.585 815.176998,863.537334 815.595,863.442 C816.013002,863.346666 816.366832,863.211001 816.6565,863.035 C816.946168,862.858999 817.167999,862.650001 817.322,862.408 C817.476001,862.165999 817.553,861.898335 817.553,861.605 Z M819.544,850.297 L819.544,851.023 C819.544,851.265001 819.390002,851.419 819.082,851.485 L817.817,851.65 C818.066335,852.134002 818.191,852.66933 818.191,853.256 C818.191,853.798669 818.086501,854.291831 817.8775,854.7355 C817.668499,855.179169 817.380668,855.558665 817.014,855.874 C816.647332,856.189335 816.207336,856.431332 815.694,856.6 C815.180664,856.768668 814.623336,856.853 814.022,856.853 C813.501331,856.853 813.010002,856.790667 812.548,856.666 C812.313332,856.812667 812.133667,856.968499 812.009,857.1335 C811.884333,857.298501 811.822,857.465332 811.822,857.634 C811.822,857.898001 811.930166,858.097833 812.1465,858.2335 C812.362834,858.369167 812.646998,858.466333 812.999,858.525 C813.351002,858.583667 813.752498,858.620333 814.2035,858.635 C814.654502,858.649667 815.116498,858.6735 815.5895,858.7065 C816.062502,858.7395 816.524498,858.796333 816.9755,858.877 C817.426502,858.957667 817.827998,859.089666 818.18,859.273 C818.532002,859.456334 818.816166,859.709332 819.0325,860.032 C819.248834,860.354668 819.357,860.772664 819.357,861.286 C819.357,861.762669 819.237835,862.224664 818.9995,862.672 C818.761165,863.119336 818.418336,863.517165 817.971,863.8655 C817.523664,864.213835 816.975503,864.492499 816.3265,864.7015 C815.677497,864.910501 814.946004,865.015 814.132,865.015 C813.317996,865.015 812.60667,864.934334 811.998,864.773 C811.38933,864.611666 810.883335,864.395335 810.48,864.124 C810.076665,863.852665 809.774168,863.539168 809.5725,863.1835 C809.370832,862.827832 809.27,862.455669 809.27,862.067 C809.27,861.516997 809.442332,861.051335 809.787,860.67 C810.131668,860.288665 810.604664,859.984334 811.206,859.757 C810.875998,859.610333 810.613834,859.414168 810.4195,859.1685 C810.225166,858.922832 810.128,858.591002 810.128,858.173 C810.128,858.011666 810.157333,857.844834 810.216,857.6725 C810.274667,857.500166 810.364499,857.327834 810.4855,857.1555 C810.606501,856.983166 810.754999,856.820001 810.931,856.666 C811.107001,856.511999 811.312332,856.376334 811.547,856.259 C810.996997,855.950998 810.568002,855.542169 810.26,855.0325 C809.951998,854.522831 809.798,853.93067 809.798,853.256 C809.798,852.713331 809.902499,852.220169 810.1115,851.7765 C810.320501,851.332831 810.611998,850.955168 810.986,850.6435 C811.360002,850.331832 811.805497,850.091668 812.3225,849.923 C812.839503,849.754332 813.405997,849.67 814.022,849.67 C814.506002,849.67 814.956998,849.723166 815.375,849.8295 C815.793002,849.935834 816.174332,850.091666 816.519,850.297 L819.544,850.297 Z M829.037,854.213 C829.037,853.758331 828.972834,853.342169 828.8445,852.9645 C828.716166,852.586831 828.529168,852.260501 828.2835,851.9855 C828.037832,851.710499 827.739002,851.497834 827.387,851.3475 C827.034998,851.197166 826.635336,851.122 826.188,851.122 C825.249329,851.122 824.506836,851.395164 823.9605,851.9415 C823.414164,852.487836 823.075001,853.244995 822.943,854.213 L829.037,854.213 Z M830.621,859.438 C830.378999,859.731335 830.089335,859.986166 829.752,860.2025 C829.414665,860.418834 829.053502,860.596666 828.6685,860.736 C828.283498,860.875334 827.885669,860.979833 827.475,861.0495 C827.064331,861.119167 826.657335,861.154 826.254,861.154 C825.483996,861.154 824.774503,861.023835 824.1255,860.7635 C823.476497,860.503165 822.915502,860.121836 822.4425,859.6195 C821.969498,859.117164 821.601001,858.49567 821.337,857.755 C821.072999,857.01433 820.941,856.163671 820.941,855.203 C820.941,854.425663 821.060165,853.69967 821.2985,853.025 C821.536835,852.35033 821.879664,851.765502 822.327,851.2705 C822.774336,850.775498 823.320663,850.386835 823.966,850.1045 C824.611337,849.822165 825.337329,849.681 826.144,849.681 C826.811337,849.681 827.429164,849.792832 827.9975,850.0165 C828.565836,850.240168 829.057165,850.562831 829.4715,850.9845 C829.885835,851.406169 830.210332,851.92683 830.445,852.5465 C830.679668,853.16617 830.797,853.871996 830.797,854.664 C830.797,854.972002 830.764,855.177333 830.698,855.28 C830.632,855.382667 830.507334,855.434 830.324,855.434 L822.877,855.434 C822.899,856.138004 822.996166,856.750331 823.1685,857.271 C823.340834,857.791669 823.580998,858.226165 823.889,858.5745 C824.197002,858.922835 824.563665,859.183166 824.989,859.3555 C825.414335,859.527834 825.890997,859.614 826.419,859.614 C826.910336,859.614 827.333832,859.557167 827.6895,859.4435 C828.045168,859.329833 828.351332,859.207001 828.608,859.075 C828.864668,858.942999 829.079166,858.820167 829.2515,858.7065 C829.423834,858.592833 829.572333,858.536 829.697,858.536 C829.858334,858.536 829.983,858.598333 830.071,858.723 L830.621,859.438 Z" id="Back-to-the-home-pag"></path>
        </g>
    </g>
</svg>