<?xml version="1.0" encoding="UTF-8"?>
<svg width="386px" height="89px" viewBox="0 0 386 89" version="1.1" xmlns="http://www.w3.org/2000/svg" xmlns:xlink="http://www.w3.org/1999/xlink">
    <!-- Generator: Sketch 42 (36781) - http://www.bohemiancoding.com/sketch -->
    <title>Connect</title>
    <desc>Created with Sketch.</desc>
    <defs>
        <rect id="path-1" x="0" y="0" width="60" height="60" rx="8.35443038"></rect>
        <mask id="mask-2" maskContentUnits="userSpaceOnUse" maskUnits="objectBoundingBox" x="0" y="0" width="60" height="60" fill="white">
            <use xlink:href="#path-1"></use>
        </mask>
    </defs>
    <g id="Website" stroke="none" stroke-width="1" fill="none" fill-rule="evenodd">
        <g id="Desktop-HD" transform="translate(-968.000000, -481.000000)">
            <g id="Information" transform="translate(968.000000, 423.000000)">
                <g id="Connect" transform="translate(0.000000, 51.000000)">
                    <g id="Wifi" transform="translate(0.000000, 7.000000)">
                        <use id="Rectangle-2" stroke="#EBEBEB" mask="url(#mask-2)" stroke-width="3.03797468" xlink:href="#path-1"></use>
                        <g id="wifi" transform="translate(14.000000, 16.000000)" fill-rule="nonzero" fill="#F1F1F1">
                            <path d="M26.4334473,10.7276451 C27.128473,11.3776027 27.1979756,12.4380599 26.5377011,13.1222258 C26.1901883,13.4985171 25.7384216,13.6695585 25.2519036,13.6695585 C24.8348882,13.6695585 24.4178728,13.5327254 24.07036,13.2248507 C16.3555748,6.2805667 8.05001784,12.8827677 7.70250499,13.1564341 C6.97272802,13.7721834 5.86068692,13.6695585 5.26991508,12.9511843 C4.64439196,12.2328101 4.74864582,11.172353 5.47842279,10.5566036 C9.26631279,7.44364875 18.4406519,3.50969475 26.4334473,10.7276451 Z M16.0775645,20.2375513 C15.2087824,20.2375513 14.3400003,20.5796343 13.7492285,21.1953836 C13.1237054,21.8111329 12.7761925,22.632132 12.7761925,23.4873394 C12.7761925,24.3425468 13.1237054,25.1635459 13.7492285,25.7792952 C14.3747516,26.3950445 15.2087824,26.7371275 16.0775645,26.7371275 C16.9463466,26.7371275 17.8151288,26.3950445 18.4059006,25.7792952 C19.0314237,25.1635459 19.3789366,24.3425468 19.3789366,23.4873394 C19.3789366,22.632132 19.0314237,21.8111329 18.4059006,21.1953836 C17.7803775,20.5796343 16.9463466,20.2375513 16.0775645,20.2375513 Z M31.3681297,6.07531692 C23.1320753,-1.00580026 15.1740311,-0.629509012 9.9265872,0.944072585 C4.3316304,2.62027907 0.68274554,5.90427545 0.543740403,6.07531692 C-0.151285286,6.72527454 -0.18603657,7.7857317 0.474237834,8.46989762 C1.13451224,9.15406353 2.24655334,9.18827182 2.94157903,8.53831421 C2.97633031,8.50410591 6.13869719,5.63060908 10.9691257,4.19386067 C17.3633621,2.27819611 23.4448368,3.78336112 29.1092962,8.64093909 C29.4220578,8.91460546 29.8390732,9.05143864 30.2560886,9.05143864 C30.7426066,9.05143864 31.2291245,8.84618887 31.5766374,8.46989762 C32.1674092,7.7857317 32.0979067,6.69106625 31.3681297,6.07531692 Z M10.2393488,15.4141816 C9.4748205,15.9957226 9.37056664,17.0561798 9.96133848,17.8087623 C10.5521103,18.5613448 11.6641514,18.6639697 12.3939284,18.0824287 C12.5329335,17.9798038 16.2165697,15.1747236 19.3441853,18.0482204 C19.6916981,18.356095 20.1087135,18.4929282 20.5257289,18.4929282 C20.9774956,18.4929282 21.4640136,18.3218867 21.8115265,17.9455955 C22.4718009,17.2614296 22.4370496,16.1667641 21.7072726,15.5510148 C17.5023672,11.7196857 12.3591771,13.8063917 10.2393488,15.4141816 Z" id="XMLID_2134_"></path>
                        </g>
                    </g>
                    <text id="Real-time-connection" font-family="Lato" font-size="26" font-weight="300" fill="#E8E8E8">
                        <tspan x="80" y="26">Real time connection</tspan>
                    </text>
                    <text id="Connect-with-your-ma" font-family="Lato" font-size="16" font-weight="300" fill="#E8E8E8">
                        <tspan x="80" y="55">Connect with your mac to see colors update </tspan>
                        <tspan x="80" y="74">in real time and automatically copy them to </tspan>
                        <tspan x="80" y="93">your clipboard!</tspan>
                    </text>
                </g>
            </g>
        </g>
    </g>
</svg>