<?xml version="1.0" encoding="UTF-8"?>
<svg width="386px" height="89px" viewBox="0 0 386 89" version="1.1" xmlns="http://www.w3.org/2000/svg" xmlns:xlink="http://www.w3.org/1999/xlink">
    <!-- Generator: Sketch 42 (36781) - http://www.bohemiancoding.com/sketch -->
    <title>Connect</title>
    <desc>Created with Sketch.</desc>
    <defs></defs>
    <g id="Website" stroke="none" stroke-width="1" fill="none" fill-rule="evenodd">
        <g id="Desktop-HD" transform="translate(-968.000000, -468.000000)">
            <g id="Information" transform="translate(968.000000, 410.000000)">
                <g id="Connect" transform="translate(0.000000, 51.000000)">
                    <g id="Wifi" transform="translate(0.000000, 7.000000)">
                        <rect id="Rectangle-2" fill="#4F73F6" x="0" y="0" width="60" height="60" rx="8.35443038"></rect>
                        <path d="M40.4334473,26.7276451 C41.128473,27.3776027 41.1979756,28.4380599 40.5377011,29.1222258 C40.1901883,29.4985171 39.7384216,29.6695585 39.2519036,29.6695585 C38.8348882,29.6695585 38.4178728,29.5327254 38.07036,29.2248507 C30.3555748,22.2805667 22.0500178,28.8827677 21.702505,29.1564341 C20.972728,29.7721834 19.8606869,29.6695585 19.2699151,28.9511843 C18.644392,28.2328101 18.7486458,27.172353 19.4784228,26.5566036 C23.2663128,23.4436487 32.4406519,19.5096948 40.4334473,26.7276451 Z M30.0775645,36.2375513 C29.2087824,36.2375513 28.3400003,36.5796343 27.7492285,37.1953836 C27.1237054,37.8111329 26.7761925,38.632132 26.7761925,39.4873394 C26.7761925,40.3425468 27.1237054,41.1635459 27.7492285,41.7792952 C28.3747516,42.3950445 29.2087824,42.7371275 30.0775645,42.7371275 C30.9463466,42.7371275 31.8151288,42.3950445 32.4059006,41.7792952 C33.0314237,41.1635459 33.3789366,40.3425468 33.3789366,39.4873394 C33.3789366,38.632132 33.0314237,37.8111329 32.4059006,37.1953836 C31.7803775,36.5796343 30.9463466,36.2375513 30.0775645,36.2375513 Z M45.3681297,22.0753169 C37.1320753,14.9941997 29.1740311,15.370491 23.9265872,16.9440726 C18.3316304,18.6202791 14.6827455,21.9042754 14.5437404,22.0753169 C13.8487147,22.7252745 13.8139634,23.7857317 14.4742378,24.4698976 C15.1345122,25.1540635 16.2465533,25.1882718 16.941579,24.5383142 C16.9763303,24.5041059 20.1386972,21.6306091 24.9691257,20.1938607 C31.3633621,18.2781961 37.4448368,19.7833611 43.1092962,24.6409391 C43.4220578,24.9146055 43.8390732,25.0514386 44.2560886,25.0514386 C44.7426066,25.0514386 45.2291245,24.8461889 45.5766374,24.4698976 C46.1674092,23.7857317 46.0979067,22.6910662 45.3681297,22.0753169 Z M24.2393488,31.4141816 C23.4748205,31.9957226 23.3705666,33.0561798 23.9613385,33.8087623 C24.5521103,34.5613448 25.6641514,34.6639697 26.3939284,34.0824287 C26.5329335,33.9798038 30.2165697,31.1747236 33.3441853,34.0482204 C33.6916981,34.356095 34.1087135,34.4929282 34.5257289,34.4929282 C34.9774956,34.4929282 35.4640136,34.3218867 35.8115265,33.9455955 C36.4718009,33.2614296 36.4370496,32.1667641 35.7072726,31.5510148 C31.5023672,27.7196857 26.3591771,29.8063917 24.2393488,31.4141816 Z" fill="#32388C" fill-rule="nonzero"></path>
                    </g>
                    <text id="Real-time-connection" font-family="Lato-Light, Lato" font-size="26" font-weight="300" fill="#9EB1FF">
                        <tspan x="80" y="26">Real time connection</tspan>
                    </text>
                    <text id="Connect-with-your-ma" font-family="Lato-Light, Lato" font-size="16" font-weight="300" fill="#CAD4FF">
                        <tspan x="80" y="55">Connect with your mac to see colors update </tspan>
                        <tspan x="80" y="74">in real time and automatically copy them to </tspan>
                        <tspan x="80" y="93">your clipboard</tspan>
                    </text>
                </g>
            </g>
        </g>
    </g>
</svg>