<?xml version="1.0" encoding="UTF-8"?>
<svg width="391px" height="68px" viewBox="0 0 391 68" version="1.1" xmlns="http://www.w3.org/2000/svg" xmlns:xlink="http://www.w3.org/1999/xlink">
    <!-- Generator: Sketch 42 (36781) - http://www.bohemiancoding.com/sketch -->
    <title>Formats</title>
    <desc>Created with Sketch.</desc>
    <defs></defs>
    <g id="Website" stroke="none" stroke-width="1" fill="none" fill-rule="evenodd">
        <g id="Desktop-HD" transform="translate(-968.000000, -613.000000)">
            <g id="Information" transform="translate(968.000000, 410.000000)">
                <g id="Formats" transform="translate(0.000000, 196.000000)">
                    <text id="Multiple-color-forma" font-family="Lato-Light, Lato" font-size="26" font-weight="300" fill="#78FF90">
                        <tspan x="80" y="26">Multiple color formats</tspan>
                    </text>
                    <text id="Instantly-get-the-co" font-family="Lato-Light, Lato" font-size="16" font-weight="300" fill="#D2FFDA">
                        <tspan x="80" y="55">Instantly get the color in hex, rgb, Swift code, </tspan>
                        <tspan x="80" y="74">and more!</tspan>
                    </text>
                    <g id="Clipboard" transform="translate(0.000000, 7.000000)">
                        <rect id="Rectangle-2" fill="#4CE367" x="0" y="0" width="60" height="60" rx="8.35443038"></rect>
                        <path d="M37.3333333,18.4545455 L35.8981389,18.4545455 C35.3936667,17.0253864 34.0403611,16 32.4444444,16 L27.5555556,16 C25.9596389,16 24.6063333,17.0253864 24.1018611,18.4545455 L22.6666667,18.4545455 C20.6408333,18.4545455 19,20.1021591 19,22.1363636 L19,39.3181818 C19,41.3523864 20.6408333,43 22.6666667,43 L37.3333333,43 C39.3591667,43 41,41.3523864 41,39.3181818 L41,22.1363636 C41,20.1021591 39.3591667,18.4545455 37.3333333,18.4545455 Z M27.5555556,18.4545455 L32.4444444,18.4545455 C33.1194167,18.4545455 33.6666667,19.0040568 33.6666667,19.6818182 C33.6666667,20.3595795 33.1194167,20.9090909 32.4444444,20.9090909 L27.5555556,20.9090909 C26.8805833,20.9090909 26.3333333,20.3595795 26.3333333,19.6818182 C26.3333333,19.0040568 26.8805833,18.4545455 27.5555556,18.4545455 Z M38.5555556,39.3181818 C38.5555556,39.99625 38.0086111,40.5454545 37.3333333,40.5454545 L22.6666667,40.5454545 C21.9913889,40.5454545 21.4444444,39.99625 21.4444444,39.3181818 L21.4444444,22.1363636 C21.4444444,21.4582955 21.9913889,20.9090909 22.6666667,20.9090909 L24.1018611,20.9090909 C24.6054167,22.33825 25.9596389,23.3636364 27.5555556,23.3636364 L32.4444444,23.3636364 C34.0403611,23.3636364 35.3936667,22.33825 35.8981389,20.9090909 L37.3333333,20.9090909 C38.0086111,20.9090909 38.5555556,21.4582955 38.5555556,22.1363636 L38.5555556,39.3181818 Z" id="Shape" fill="#368C46" fill-rule="nonzero"></path>
                    </g>
                </g>
            </g>
        </g>
    </g>
</svg>