<?xml version="1.0" encoding="UTF-8"?>
<svg width="430px" height="80px" viewBox="0 0 430 80" version="1.1" xmlns="http://www.w3.org/2000/svg" xmlns:xlink="http://www.w3.org/1999/xlink">
    <!-- Generator: Sketch 42 (36781) - http://www.bohemiancoding.com/sketch -->
    <title>iOS App</title>
    <desc>Created with Sketch.</desc>
    <defs></defs>
    <g id="Website" stroke="none" stroke-width="1" fill="none" fill-rule="evenodd">
        <g id="Color" transform="translate(-940.000000, -175.000000)">
            <g id="iOS-App" transform="translate(940.000000, 175.000000)">
                <rect id="Rectangle-3" fill="#13AEA0" x="0" y="0" width="430" height="80" rx="40"></rect>
                <path d="M170.925,20.0875 L170.925,38 L168.8,38 L168.8,24.8375 C168.8,24.6624991 168.80625,24.475001 168.81875,24.275 C168.83125,24.074999 168.845833,23.8708344 168.8625,23.6625 L162.7125,34.8625 C162.520832,35.2375019 162.229169,35.425 161.8375,35.425 L161.4875,35.425 C161.095831,35.425 160.804168,35.2375019 160.6125,34.8625 L154.3375,23.6125 C154.3875,24.0541689 154.4125,24.4624981 154.4125,24.8375 L154.4125,38 L152.2875,38 L152.2875,20.0875 L154.075,20.0875 C154.291668,20.0875 154.458333,20.1083331 154.575,20.15 C154.691667,20.1916669 154.804166,20.3083324 154.9125,20.5 L161.1,31.525 C161.2,31.725001 161.297916,31.9333323 161.39375,32.15 C161.489584,32.3666678 161.579166,32.5874989 161.6625,32.8125 C161.745834,32.5874989 161.833333,32.3645844 161.925,32.14375 C162.016667,31.9229156 162.116666,31.712501 162.225,31.5125 L168.3,20.5 C168.4,20.3083324 168.510416,20.1916669 168.63125,20.15 C168.752084,20.1083331 168.920832,20.0875 169.1375,20.0875 L170.925,20.0875 Z M181.8375,32.3 C180.812495,32.3333335 179.939587,32.4145827 179.21875,32.54375 C178.497913,32.6729173 177.910419,32.8416656 177.45625,33.05 C177.002081,33.2583344 176.672918,33.5041653 176.46875,33.7875 C176.264582,34.0708348 176.1625,34.3874983 176.1625,34.7375 C176.1625,35.070835 176.216666,35.3583321 176.325,35.6 C176.433334,35.8416679 176.581249,36.0395826 176.76875,36.19375 C176.956251,36.3479174 177.177082,36.4604163 177.43125,36.53125 C177.685418,36.6020837 177.958332,36.6375 178.25,36.6375 C178.641669,36.6375 178.999998,36.5979171 179.325,36.51875 C179.650002,36.4395829 179.956249,36.3250008 180.24375,36.175 C180.531251,36.0249993 180.806249,35.8458344 181.06875,35.6375 C181.331251,35.4291656 181.587499,35.191668 181.8375,34.925 L181.8375,32.3 Z M174.65,27.125 C175.350003,26.4499966 176.104163,25.945835 176.9125,25.6125 C177.720837,25.279165 178.616662,25.1125 179.6,25.1125 C180.308337,25.1125 180.937497,25.2291655 181.4875,25.4625 C182.037503,25.6958345 182.499998,26.0208313 182.875,26.4375 C183.250002,26.8541688 183.533332,27.3583304 183.725,27.95 C183.916668,28.5416696 184.0125,29.1916631 184.0125,29.9 L184.0125,38 L183.025,38 C182.808332,38 182.641667,37.9645837 182.525,37.89375 C182.408333,37.8229163 182.316667,37.6833344 182.25,37.475 L182,36.275 C181.666665,36.5833349 181.341668,36.8562488 181.025,37.09375 C180.708332,37.3312512 180.375002,37.5312492 180.025,37.69375 C179.674998,37.8562508 179.302085,37.9812496 178.90625,38.06875 C178.510415,38.1562504 178.070836,38.2 177.5875,38.2 C177.095831,38.2 176.633335,38.1312507 176.2,37.99375 C175.766664,37.8562493 175.389585,37.6500014 175.06875,37.375 C174.747915,37.0999986 174.493751,36.7520854 174.30625,36.33125 C174.118749,35.9104146 174.025,35.4125029 174.025,34.8375 C174.025,34.3374975 174.162499,33.8562523 174.4375,33.39375 C174.712501,32.9312477 175.15833,32.5208351 175.775,32.1625 C176.39167,31.8041649 177.195828,31.5104178 178.1875,31.28125 C179.179172,31.0520822 180.395826,30.9208335 181.8375,30.8875 L181.8375,29.9 C181.8375,28.9166618 181.625002,28.1729192 181.2,27.66875 C180.774998,27.1645808 180.154171,26.9125 179.3375,26.9125 C178.787497,26.9125 178.327085,26.9812493 177.95625,27.11875 C177.585415,27.2562507 177.264585,27.4104158 176.99375,27.58125 C176.722915,27.7520842 176.489584,27.9062493 176.29375,28.04375 C176.097916,28.1812507 175.904168,28.25 175.7125,28.25 C175.562499,28.25 175.433334,28.2104171 175.325,28.13125 C175.216666,28.0520829 175.125,27.9541673 175.05,27.8375 L174.65,27.125 Z M196.2125,27.5875 C196.145833,27.6791671 196.079167,27.7499998 196.0125,27.8 C195.945833,27.8500003 195.854167,27.875 195.7375,27.875 C195.612499,27.875 195.475001,27.8229172 195.325,27.71875 C195.174999,27.6145828 194.989584,27.5000006 194.76875,27.375 C194.547916,27.2499994 194.277085,27.1354172 193.95625,27.03125 C193.635415,26.9270828 193.241669,26.875 192.775,26.875 C192.149997,26.875 191.600002,26.9854156 191.125,27.20625 C190.649998,27.4270844 190.252085,27.7458313 189.93125,28.1625 C189.610415,28.5791688 189.368751,29.0833304 189.20625,29.675 C189.043749,30.2666696 188.9625,30.929163 188.9625,31.6625 C188.9625,32.4291705 189.049999,33.1104137 189.225,33.70625 C189.400001,34.3020863 189.647915,34.8020813 189.96875,35.20625 C190.289585,35.6104187 190.677081,35.9187489 191.13125,36.13125 C191.585419,36.3437511 192.09583,36.45 192.6625,36.45 C193.204169,36.45 193.649998,36.3854173 194,36.25625 C194.350002,36.1270827 194.639582,35.9833341 194.86875,35.825 C195.097918,35.6666659 195.289583,35.5229173 195.44375,35.39375 C195.597917,35.2645827 195.749999,35.2 195.9,35.2 C196.083334,35.2 196.224999,35.2708326 196.325,35.4125 L196.95,36.225 C196.674999,36.5666684 196.362502,36.8583321 196.0125,37.1 C195.662498,37.3416679 195.285419,37.5437492 194.88125,37.70625 C194.477081,37.8687508 194.054169,37.9874996 193.6125,38.0625 C193.170831,38.1375004 192.720836,38.175 192.2625,38.175 C191.470829,38.175 190.73542,38.0291681 190.05625,37.7375 C189.37708,37.4458319 188.787502,37.0229194 188.2875,36.46875 C187.787497,35.9145806 187.395835,35.2333374 187.1125,34.425 C186.829165,33.6166626 186.6875,32.6958385 186.6875,31.6625 C186.6875,30.7208286 186.818749,29.850004 187.08125,29.05 C187.343751,28.249996 187.727081,27.5604196 188.23125,26.98125 C188.735419,26.4020804 189.356246,25.9500016 190.09375,25.625 C190.831254,25.2999984 191.679162,25.1375 192.6375,25.1375 C193.529171,25.1375 194.31458,25.2812486 194.99375,25.56875 C195.67292,25.8562514 196.274997,26.2624974 196.8,26.7875 L196.2125,27.5875 Z M215.775,31.35 L212.9625,24.0625 C212.879166,23.8458323 212.791667,23.5937514 212.7,23.30625 C212.608333,23.0187486 212.520834,22.7125016 212.4375,22.3875 C212.262499,23.0625034 212.083334,23.6249978 211.9,24.075 L209.0875,31.35 L215.775,31.35 Z M220.825,38 L218.95,38 C218.733332,38 218.558334,37.9458339 218.425,37.8375 C218.291666,37.7291661 218.191667,37.5916675 218.125,37.425 L216.45,33.1 L208.4125,33.1 L206.7375,37.425 C206.6875,37.5750008 206.591667,37.7083328 206.45,37.825 C206.308333,37.9416673 206.133334,38 205.925,38 L204.05,38 L211.2125,20.0875 L213.6625,20.0875 L220.825,38 Z M224.9,34.95 C225.308335,35.5000028 225.754164,35.8874989 226.2375,36.1125 C226.720836,36.3375011 227.262497,36.45 227.8625,36.45 C229.045839,36.45 229.954163,36.0291709 230.5875,35.1875 C231.220836,34.3458291 231.5375,33.1458411 231.5375,31.5875 C231.5375,30.7624959 231.464584,30.0541696 231.31875,29.4625 C231.172916,28.8708304 230.962501,28.3854186 230.6875,28.00625 C230.412499,27.6270814 230.075002,27.3500009 229.675,27.175 C229.274998,26.9999991 228.820836,26.9125 228.3125,26.9125 C227.587496,26.9125 226.952086,27.079165 226.40625,27.4125 C225.860414,27.745835 225.358336,28.2166636 224.9,28.825 L224.9,34.95 Z M224.7875,27.3 C225.320836,26.6416634 225.937496,26.112502 226.6375,25.7125 C227.337503,25.312498 228.137495,25.1125 229.0375,25.1125 C229.770837,25.1125 230.43333,25.2520819 231.025,25.53125 C231.61667,25.8104181 232.120831,26.2229139 232.5375,26.76875 C232.954169,27.3145861 233.274999,27.9916626 233.5,28.8 C233.725001,29.6083374 233.8375,30.5374948 233.8375,31.5875 C233.8375,32.520838 233.712501,33.3895793 233.4625,34.19375 C233.212499,34.9979207 232.852086,35.6937471 232.38125,36.28125 C231.910414,36.8687529 231.33542,37.3312483 230.65625,37.66875 C229.97708,38.0062517 229.212504,38.175 228.3625,38.175 C227.587496,38.175 226.922919,38.0437513 226.36875,37.78125 C225.814581,37.5187487 225.325002,37.154169 224.9,36.6875 L224.9,42.2875 L222.6625,42.2875 L222.6625,25.3375 L224,25.3375 C224.316668,25.3375 224.5125,25.4916651 224.5875,25.8 L224.7875,27.3 Z M238.9125,34.95 C239.320835,35.5000028 239.766664,35.8874989 240.25,36.1125 C240.733336,36.3375011 241.274997,36.45 241.875,36.45 C243.058339,36.45 243.966663,36.0291709 244.6,35.1875 C245.233336,34.3458291 245.55,33.1458411 245.55,31.5875 C245.55,30.7624959 245.477084,30.0541696 245.33125,29.4625 C245.185416,28.8708304 244.975001,28.3854186 244.7,28.00625 C244.424999,27.6270814 244.087502,27.3500009 243.6875,27.175 C243.287498,26.9999991 242.833336,26.9125 242.325,26.9125 C241.599996,26.9125 240.964586,27.079165 240.41875,27.4125 C239.872914,27.745835 239.370836,28.2166636 238.9125,28.825 L238.9125,34.95 Z M238.8,27.3 C239.333336,26.6416634 239.949996,26.112502 240.65,25.7125 C241.350003,25.312498 242.149995,25.1125 243.05,25.1125 C243.783337,25.1125 244.44583,25.2520819 245.0375,25.53125 C245.62917,25.8104181 246.133331,26.2229139 246.55,26.76875 C246.966669,27.3145861 247.287499,27.9916626 247.5125,28.8 C247.737501,29.6083374 247.85,30.5374948 247.85,31.5875 C247.85,32.520838 247.725001,33.3895793 247.475,34.19375 C247.224999,34.9979207 246.864586,35.6937471 246.39375,36.28125 C245.922914,36.8687529 245.34792,37.3312483 244.66875,37.66875 C243.98958,38.0062517 243.225004,38.175 242.375,38.175 C241.599996,38.175 240.935419,38.0437513 240.38125,37.78125 C239.827081,37.5187487 239.337502,37.154169 238.9125,36.6875 L238.9125,42.2875 L236.675,42.2875 L236.675,25.3375 L238.0125,25.3375 C238.329168,25.3375 238.525,25.4916651 238.6,25.8 L238.8,27.3 Z M160.6875,52.63 C160.6875,53.435004 160.560001,54.1674967 160.305,54.8275 C160.049999,55.4875033 159.690002,56.0524977 159.225,56.5225 C158.759998,56.9925024 158.201253,57.3562487 157.54875,57.61375 C156.896247,57.8712513 156.175004,58 155.385,58 L151.3725,58 L151.3725,47.2525 L155.385,47.2525 C156.175004,47.2525 156.896247,47.3812487 157.54875,47.63875 C158.201253,47.8962513 158.759998,48.2612476 159.225,48.73375 C159.690002,49.2062524 160.049999,49.7724967 160.305,50.4325 C160.560001,51.0925033 160.6875,51.824996 160.6875,52.63 Z M159.195,52.63 C159.195,51.9699967 159.105001,51.3800026 158.925,50.86 C158.744999,50.3399974 158.490002,49.9000018 158.16,49.54 C157.829998,49.1799982 157.430002,48.905001 156.96,48.715 C156.489998,48.5249991 155.965003,48.43 155.385,48.43 L152.8275,48.43 L152.8275,56.8225 L155.385,56.8225 C155.965003,56.8225 156.489998,56.727501 156.96,56.5375 C157.430002,56.3474991 157.829998,56.0737518 158.16,55.71625 C158.490002,55.3587482 158.744999,54.9200026 158.925,54.4 C159.105001,53.8799974 159.195,53.2900033 159.195,52.63 Z M165.6675,50.2825 C166.222503,50.2825 166.722498,50.3749991 167.1675,50.56 C167.612502,50.7450009 167.992498,51.0074983 168.3075,51.3475 C168.622502,51.6875017 168.863749,52.0987476 169.03125,52.58125 C169.198751,53.0637524 169.2825,53.602497 169.2825,54.1975 C169.2825,54.797503 169.198751,55.3374976 169.03125,55.8175 C168.863749,56.2975024 168.622502,56.7074983 168.3075,57.0475 C167.992498,57.3875017 167.612502,57.6487491 167.1675,57.83125 C166.722498,58.0137509 166.222503,58.105 165.6675,58.105 C165.107497,58.105 164.603752,58.0137509 164.15625,57.83125 C163.708748,57.6487491 163.327502,57.3875017 163.0125,57.0475 C162.697498,56.7074983 162.456251,56.2975024 162.28875,55.8175 C162.121249,55.3374976 162.0375,54.797503 162.0375,54.1975 C162.0375,53.602497 162.121249,53.0637524 162.28875,52.58125 C162.456251,52.0987476 162.697498,51.6875017 163.0125,51.3475 C163.327502,51.0074983 163.708748,50.7450009 164.15625,50.56 C164.603752,50.3749991 165.107497,50.2825 165.6675,50.2825 Z M165.6675,57.0625 C166.417504,57.0625 166.977498,56.8112525 167.3475,56.30875 C167.717502,55.8062475 167.9025,55.1050045 167.9025,54.205 C167.9025,53.2999955 167.717502,52.5950025 167.3475,52.09 C166.977498,51.5849975 166.417504,51.3325 165.6675,51.3325 C165.287498,51.3325 164.956251,51.3974994 164.67375,51.5275 C164.391249,51.6575007 164.156251,51.8449988 163.96875,52.09 C163.781249,52.3350012 163.64125,52.6362482 163.54875,52.99375 C163.45625,53.3512518 163.41,53.7549978 163.41,54.205 C163.41,55.1050045 163.596248,55.8062475 163.96875,56.30875 C164.341252,56.8112525 164.907496,57.0625 165.6675,57.0625 Z M181.4475,50.4025 L178.9875,58 L177.93,58 C177.799999,58 177.71,57.9150009 177.66,57.745 L175.98,52.5925 C175.94,52.4774994 175.9075,52.3612506 175.8825,52.24375 C175.8575,52.1262494 175.8325,52.0100006 175.8075,51.895 C175.7825,52.0100006 175.7575,52.1262494 175.7325,52.24375 C175.7075,52.3612506 175.675,52.4799994 175.635,52.6 L173.925,57.745 C173.88,57.9150009 173.780001,58 173.625,58 L172.62,58 L170.16,50.4025 L171.21,50.4025 C171.315001,50.4025 171.40375,50.4299997 171.47625,50.485 C171.54875,50.5400003 171.5975,50.6049996 171.6225,50.68 L173.0775,55.57 C173.1625,55.9300018 173.23,56.2699984 173.28,56.59 C173.325,56.4249992 173.37125,56.2575009 173.41875,56.0875 C173.46625,55.9174992 173.5175,55.7450009 173.5725,55.57 L175.1775,50.65 C175.2025,50.5749996 175.24625,50.5125003 175.30875,50.4625 C175.37125,50.4124998 175.4475,50.3875 175.5375,50.3875 L176.1225,50.3875 C176.2225,50.3875 176.305,50.4124998 176.37,50.4625 C176.435,50.5125003 176.48,50.5749996 176.505,50.65 L178.0725,55.57 C178.1275,55.7450009 178.1775,55.9174992 178.2225,56.0875 C178.2675,56.2575009 178.31,56.4249992 178.35,56.59 C178.375,56.4249992 178.40625,56.2587508 178.44375,56.09125 C178.48125,55.9237492 178.5225,55.7500009 178.5675,55.57 L180.0525,50.68 C180.0775,50.5999996 180.125,50.5337503 180.195,50.48125 C180.265,50.4287497 180.3475,50.4025 180.4425,50.4025 L181.4475,50.4025 Z M184.0125,51.505 C184.177501,51.3199991 184.352499,51.1525008 184.5375,51.0025 C184.722501,50.8524993 184.918749,50.7237505 185.12625,50.61625 C185.333751,50.5087495 185.553749,50.4262503 185.78625,50.36875 C186.018751,50.3112497 186.269999,50.2825 186.54,50.2825 C186.955002,50.2825 187.321248,50.3512493 187.63875,50.48875 C187.956252,50.6262507 188.221249,50.8212487 188.43375,51.07375 C188.646251,51.3262513 188.807499,51.6299982 188.9175,51.985 C189.027501,52.3400018 189.0825,52.7324979 189.0825,53.1625 L189.0825,58 L187.74,58 L187.74,53.1625 C187.74,52.5874971 187.608751,52.1412516 187.34625,51.82375 C187.083749,51.5062484 186.685003,51.3475 186.15,51.3475 C185.754998,51.3475 185.386252,51.4424991 185.04375,51.6325 C184.701248,51.822501 184.385001,52.0799984 184.095,52.405 L184.095,58 L182.7525,58 L182.7525,50.4025 L183.555,50.4025 C183.745001,50.4025 183.8625,50.4949991 183.9075,50.68 L184.0125,51.505 Z M192.5025,46.9525 L192.5025,58 L191.1675,58 L191.1675,46.9525 L192.5025,46.9525 Z M197.865,50.2825 C198.420003,50.2825 198.919998,50.3749991 199.365,50.56 C199.810002,50.7450009 200.189998,51.0074983 200.505,51.3475 C200.820002,51.6875017 201.061249,52.0987476 201.22875,52.58125 C201.396251,53.0637524 201.48,53.602497 201.48,54.1975 C201.48,54.797503 201.396251,55.3374976 201.22875,55.8175 C201.061249,56.2975024 200.820002,56.7074983 200.505,57.0475 C200.189998,57.3875017 199.810002,57.6487491 199.365,57.83125 C198.919998,58.0137509 198.420003,58.105 197.865,58.105 C197.304997,58.105 196.801252,58.0137509 196.35375,57.83125 C195.906248,57.6487491 195.525002,57.3875017 195.21,57.0475 C194.894998,56.7074983 194.653751,56.2975024 194.48625,55.8175 C194.318749,55.3374976 194.235,54.797503 194.235,54.1975 C194.235,53.602497 194.318749,53.0637524 194.48625,52.58125 C194.653751,52.0987476 194.894998,51.6875017 195.21,51.3475 C195.525002,51.0074983 195.906248,50.7450009 196.35375,50.56 C196.801252,50.3749991 197.304997,50.2825 197.865,50.2825 Z M197.865,57.0625 C198.615004,57.0625 199.174998,56.8112525 199.545,56.30875 C199.915002,55.8062475 200.1,55.1050045 200.1,54.205 C200.1,53.2999955 199.915002,52.5950025 199.545,52.09 C199.174998,51.5849975 198.615004,51.3325 197.865,51.3325 C197.484998,51.3325 197.153751,51.3974994 196.87125,51.5275 C196.588749,51.6575007 196.353751,51.8449988 196.16625,52.09 C195.978749,52.3350012 195.83875,52.6362482 195.74625,52.99375 C195.65375,53.3512518 195.6075,53.7549978 195.6075,54.205 C195.6075,55.1050045 195.793748,55.8062475 196.16625,56.30875 C196.538752,56.8112525 197.104996,57.0625 197.865,57.0625 Z M207.285,54.58 C206.669997,54.6000001 206.146252,54.6487496 205.71375,54.72625 C205.281248,54.8037504 204.928751,54.9049994 204.65625,55.03 C204.383749,55.1550006 204.186251,55.3024992 204.06375,55.4725 C203.941249,55.6425009 203.88,55.832499 203.88,56.0425 C203.88,56.242501 203.9125,56.4149993 203.9775,56.56 C204.0425,56.7050007 204.131249,56.8237495 204.24375,56.91625 C204.356251,57.0087505 204.488749,57.0762498 204.64125,57.11875 C204.793751,57.1612502 204.957499,57.1825 205.1325,57.1825 C205.367501,57.1825 205.582499,57.1587502 205.7775,57.11125 C205.972501,57.0637498 206.156249,56.9950005 206.32875,56.905 C206.501251,56.8149996 206.666249,56.7075006 206.82375,56.5825 C206.981251,56.4574994 207.134999,56.3150008 207.285,56.155 L207.285,54.58 Z M202.9725,51.475 C203.392502,51.069998 203.844998,50.767501 204.33,50.5675 C204.815002,50.367499 205.352497,50.2675 205.9425,50.2675 C206.367502,50.2675 206.744998,50.3374993 207.075,50.4775 C207.405002,50.6175007 207.682499,50.8124988 207.9075,51.0625 C208.132501,51.3125013 208.302499,51.6149982 208.4175,51.97 C208.532501,52.3250018 208.59,52.7149979 208.59,53.14 L208.59,58 L207.9975,58 C207.867499,58 207.7675,57.9787502 207.6975,57.93625 C207.6275,57.8937498 207.5725,57.8100006 207.5325,57.685 L207.3825,56.965 C207.182499,57.1500009 206.987501,57.3137493 206.7975,57.45625 C206.607499,57.5987507 206.407501,57.7187495 206.1975,57.81625 C205.987499,57.9137505 205.763751,57.9887497 205.52625,58.04125 C205.288749,58.0937503 205.025001,58.12 204.735,58.12 C204.439999,58.12 204.162501,58.0787504 203.9025,57.99625 C203.642499,57.9137496 203.416251,57.7900008 203.22375,57.625 C203.031249,57.4599992 202.878751,57.2512513 202.76625,56.99875 C202.653749,56.7462487 202.5975,56.4475017 202.5975,56.1025 C202.5975,55.8024985 202.679999,55.5137514 202.845,55.23625 C203.010001,54.9587486 203.277498,54.7125011 203.6475,54.4975 C204.017502,54.2824989 204.499997,54.1062507 205.095,53.96875 C205.690003,53.8312493 206.419996,53.7525001 207.285,53.7325 L207.285,53.14 C207.285,52.5499971 207.157501,52.1037515 206.9025,51.80125 C206.647499,51.4987485 206.275002,51.3475 205.785,51.3475 C205.454998,51.3475 205.178751,51.3887496 204.95625,51.47125 C204.733749,51.5537504 204.541251,51.6462495 204.37875,51.74875 C204.216249,51.8512505 204.076251,51.9437496 203.95875,52.02625 C203.841249,52.1087504 203.725001,52.15 203.61,52.15 C203.52,52.15 203.4425,52.1262502 203.3775,52.07875 C203.3125,52.0312498 203.2575,51.9725004 203.2125,51.9025 L202.9725,51.475 Z M215.5725,52.21 C215.322499,51.8749983 215.052501,51.6412507 214.7625,51.50875 C214.472499,51.3762493 214.147502,51.31 213.7875,51.31 C213.082496,51.31 212.540002,51.5624975 212.16,52.0675 C211.779998,52.5725025 211.59,53.2924953 211.59,54.2275 C211.59,54.7225025 211.6325,55.1462482 211.7175,55.49875 C211.8025,55.8512518 211.927499,56.1412489 212.0925,56.36875 C212.257501,56.5962511 212.459999,56.7624995 212.7,56.8675 C212.940001,56.9725005 213.212498,57.025 213.5175,57.025 C213.957502,57.025 214.341248,56.925001 214.66875,56.725 C214.996252,56.524999 215.297499,56.2425018 215.5725,55.8775 L215.5725,52.21 Z M216.9075,46.9525 L216.9075,58 L216.1125,58 C215.922499,58 215.8025,57.9075009 215.7525,57.7225 L215.6325,56.8 C215.307498,57.190002 214.937502,57.5049988 214.5225,57.745 C214.107498,57.9850012 213.627503,58.105 213.0825,58.105 C212.647498,58.105 212.252502,58.0212508 211.8975,57.85375 C211.542498,57.6862492 211.240001,57.4400016 210.99,57.115 C210.739999,56.7899984 210.547501,56.3850024 210.4125,55.9 C210.277499,55.4149976 210.21,54.8575032 210.21,54.2275 C210.21,53.6674972 210.284999,53.1462524 210.435,52.66375 C210.585001,52.1812476 210.799999,51.7625018 211.08,51.4075 C211.360001,51.0524982 211.703748,50.773751 212.11125,50.57125 C212.518752,50.368749 212.977497,50.2675 213.4875,50.2675 C213.952502,50.2675 214.351248,50.3462492 214.68375,50.50375 C215.016252,50.6612508 215.312499,50.8799986 215.5725,51.16 L215.5725,46.9525 L216.9075,46.9525 Z M224.1225,51.505 C224.287501,51.3199991 224.462499,51.1525008 224.6475,51.0025 C224.832501,50.8524993 225.028749,50.7237505 225.23625,50.61625 C225.443751,50.5087495 225.663749,50.4262503 225.89625,50.36875 C226.128751,50.3112497 226.379999,50.2825 226.65,50.2825 C227.065002,50.2825 227.431248,50.3512493 227.74875,50.48875 C228.066252,50.6262507 228.331249,50.8212487 228.54375,51.07375 C228.756251,51.3262513 228.917499,51.6299982 229.0275,51.985 C229.137501,52.3400018 229.1925,52.7324979 229.1925,53.1625 L229.1925,58 L227.85,58 L227.85,53.1625 C227.85,52.5874971 227.718751,52.1412516 227.45625,51.82375 C227.193749,51.5062484 226.795003,51.3475 226.26,51.3475 C225.864998,51.3475 225.496252,51.4424991 225.15375,51.6325 C224.811248,51.822501 224.495001,52.0799984 224.205,52.405 L224.205,58 L222.8625,58 L222.8625,50.4025 L223.665,50.4025 C223.855001,50.4025 223.9725,50.4949991 224.0175,50.68 L224.1225,51.505 Z M234.435,50.2825 C234.990003,50.2825 235.489998,50.3749991 235.935,50.56 C236.380002,50.7450009 236.759998,51.0074983 237.075,51.3475 C237.390002,51.6875017 237.631249,52.0987476 237.79875,52.58125 C237.966251,53.0637524 238.05,53.602497 238.05,54.1975 C238.05,54.797503 237.966251,55.3374976 237.79875,55.8175 C237.631249,56.2975024 237.390002,56.7074983 237.075,57.0475 C236.759998,57.3875017 236.380002,57.6487491 235.935,57.83125 C235.489998,58.0137509 234.990003,58.105 234.435,58.105 C233.874997,58.105 233.371252,58.0137509 232.92375,57.83125 C232.476248,57.6487491 232.095002,57.3875017 231.78,57.0475 C231.464998,56.7074983 231.223751,56.2975024 231.05625,55.8175 C230.888749,55.3374976 230.805,54.797503 230.805,54.1975 C230.805,53.602497 230.888749,53.0637524 231.05625,52.58125 C231.223751,52.0987476 231.464998,51.6875017 231.78,51.3475 C232.095002,51.0074983 232.476248,50.7450009 232.92375,50.56 C233.371252,50.3749991 233.874997,50.2825 234.435,50.2825 Z M234.435,57.0625 C235.185004,57.0625 235.744998,56.8112525 236.115,56.30875 C236.485002,55.8062475 236.67,55.1050045 236.67,54.205 C236.67,53.2999955 236.485002,52.5950025 236.115,52.09 C235.744998,51.5849975 235.185004,51.3325 234.435,51.3325 C234.054998,51.3325 233.723751,51.3974994 233.44125,51.5275 C233.158749,51.6575007 232.923751,51.8449988 232.73625,52.09 C232.548749,52.3350012 232.40875,52.6362482 232.31625,52.99375 C232.22375,53.3512518 232.1775,53.7549978 232.1775,54.205 C232.1775,55.1050045 232.363748,55.8062475 232.73625,56.30875 C233.108752,56.8112525 233.674996,57.0625 234.435,57.0625 Z M250.215,50.4025 L247.755,58 L246.6975,58 C246.567499,58 246.4775,57.9150009 246.4275,57.745 L244.7475,52.5925 C244.7075,52.4774994 244.675,52.3612506 244.65,52.24375 C244.625,52.1262494 244.6,52.0100006 244.575,51.895 C244.55,52.0100006 244.525,52.1262494 244.5,52.24375 C244.475,52.3612506 244.4425,52.4799994 244.4025,52.6 L242.6925,57.745 C242.6475,57.9150009 242.547501,58 242.3925,58 L241.3875,58 L238.9275,50.4025 L239.9775,50.4025 C240.082501,50.4025 240.17125,50.4299997 240.24375,50.485 C240.31625,50.5400003 240.365,50.6049996 240.39,50.68 L241.845,55.57 C241.93,55.9300018 241.9975,56.2699984 242.0475,56.59 C242.0925,56.4249992 242.13875,56.2575009 242.18625,56.0875 C242.23375,55.9174992 242.285,55.7450009 242.34,55.57 L243.945,50.65 C243.97,50.5749996 244.01375,50.5125003 244.07625,50.4625 C244.13875,50.4124998 244.215,50.3875 244.305,50.3875 L244.89,50.3875 C244.99,50.3875 245.0725,50.4124998 245.1375,50.4625 C245.2025,50.5125003 245.2475,50.5749996 245.2725,50.65 L246.84,55.57 C246.895,55.7450009 246.945,55.9174992 246.99,56.0875 C247.035,56.2575009 247.0775,56.4249992 247.1175,56.59 C247.1425,56.4249992 247.17375,56.2587508 247.21125,56.09125 C247.24875,55.9237492 247.29,55.7500009 247.335,55.57 L248.82,50.68 C248.845,50.5999996 248.8925,50.5337503 248.9625,50.48125 C249.0325,50.4287497 249.115,50.4025 249.21,50.4025 L250.215,50.4025 Z" id="Mac-App-Download-now" fill="#E8E8E8"></path>
                <path d="M98.5384615,65 L78.4615385,65 C75.9976538,65 74,63.0532609 74,60.6521739 L74,19.3478261 C74,16.9467391 75.9976538,15 78.4615385,15 L98.5384615,15 C101.002346,15 103,16.9467391 103,19.3478261 L103,60.6521739 C103,63.0532609 101.002346,65 98.5384615,65 Z M100.769231,19.3478261 C100.769231,18.1478261 99.7698462,17.173913 98.5384615,17.173913 L78.4615385,17.173913 C77.2301538,17.173913 76.2307692,18.1478261 76.2307692,19.3478261 L76.2307692,23.6956522 L100.769231,23.6956522 L100.769231,19.3478261 Z M100.769231,25.8695652 L76.2307692,25.8695652 L76.2307692,54.1304348 L100.769231,54.1304348 L100.769231,25.8695652 Z M100.769231,56.3043478 L76.2307692,56.3043478 L76.2307692,60.6521739 C76.2307692,61.8521739 77.2301538,62.826087 78.4615385,62.826087 L98.5384615,62.826087 C99.7698462,62.826087 100.769231,61.8521739 100.769231,60.6521739 L100.769231,56.3043478 Z M88.5,61.7391304 C87.2686154,61.7391304 86.2692308,60.7652174 86.2692308,59.5652174 C86.2692308,58.3652174 87.2686154,57.3913043 88.5,57.3913043 C89.7313846,57.3913043 90.7307692,58.3652174 90.7307692,59.5652174 C90.7307692,60.7652174 89.7313846,61.7391304 88.5,61.7391304 Z M85.1538462,19.3478261 L91.8461538,19.3478261 C92.4629615,19.3478261 92.9615385,19.8347826 92.9615385,20.4347826 C92.9615385,21.0347826 92.4629615,21.5217391 91.8461538,21.5217391 L85.1538462,21.5217391 C84.5370385,21.5217391 84.0384615,21.0347826 84.0384615,20.4347826 C84.0384615,19.8347826 84.5370385,19.3478261 85.1538462,19.3478261 Z" id="Phone" fill="#F5F5F5" fill-rule="nonzero"></path>
            </g>
        </g>
    </g>
</svg>