<?xml version="1.0" encoding="UTF-8"?>
<svg width="400px" height="89px" viewBox="0 0 400 89" version="1.1" xmlns="http://www.w3.org/2000/svg" xmlns:xlink="http://www.w3.org/1999/xlink">
    <!-- Generator: Sketch 42 (36781) - http://www.bohemiancoding.com/sketch -->
    <title>Organize</title>
    <desc>Created with Sketch.</desc>
    <defs>
        <rect id="path-1" x="0" y="0" width="60" height="60" rx="8.35443038"></rect>
        <mask id="mask-2" maskContentUnits="userSpaceOnUse" maskUnits="objectBoundingBox" x="0" y="0" width="60" height="60" fill="white">
            <use xlink:href="#path-1"></use>
        </mask>
    </defs>
    <g id="Website" stroke="none" stroke-width="1" fill="none" fill-rule="evenodd">
        <g id="Desktop-HD" transform="translate(-968.000000, -749.000000)">
            <g id="Information" transform="translate(968.000000, 423.000000)">
                <g id="Organize" transform="translate(0.000000, 319.000000)">
                    <text id="Organize-your-cabine" font-family="Lato-Light, Lato" font-size="26" font-weight="300" fill="#E8E8E8">
                        <tspan x="80" y="26">Organize your cabinet</tspan>
                    </text>
                    <text id="Save-colors-on-the-g" font-family="Lato-Light, Lato" font-size="16" font-weight="300" fill="#E8E8E8">
                        <tspan x="80" y="55">Save colors on the go, organize them however </tspan>
                        <tspan x="80" y="74">you want, and even export them to your </tspan>
                        <tspan x="80" y="93">computer!</tspan>
                    </text>
                    <g id="Folder" transform="translate(0.000000, 7.000000)">
                        <use id="Rectangle-2" stroke="#EBEBEB" mask="url(#mask-2)" stroke-width="3.03797468" xlink:href="#path-1"></use>
                        <g id="folder" transform="translate(15.000000, 16.000000)" fill-rule="nonzero" fill="#F3F3F3">
                            <path d="M11.3911364,5.547825 L12.1765909,6.75 L13.6363636,6.75 L25.9090909,6.75 C26.6611364,6.75 27.2727273,7.355475 27.2727273,8.1 L27.2727273,22.95 C27.2727273,23.694525 26.6611364,24.3 25.9090909,24.3 L4.09090909,24.3 C3.33886364,24.3 2.72727273,23.694525 2.72727273,22.95 L2.72727273,4.05 C2.72727273,3.305475 3.33886364,2.7 4.09090909,2.7 L9.54545455,2.7 L11.3911364,5.547825 Z M10.9090909,0 L4.09090909,0 C1.83068182,0 0,1.812375 0,4.05 L0,22.95 C0,25.187625 1.83068182,27 4.09090909,27 L25.9090909,27 C28.1693182,27 30,25.187625 30,22.95 L30,8.1 C30,5.862375 28.1693182,4.05 25.9090909,4.05 L13.6363636,4.05 L10.9090909,0 L10.9090909,0 Z" id="Shape"></path>
                        </g>
                    </g>
                </g>
            </g>
        </g>
    </g>
</svg>