<?xml version="1.0" encoding="UTF-8"?>
<svg width="400px" height="89px" viewBox="0 0 400 89" version="1.1" xmlns="http://www.w3.org/2000/svg" xmlns:xlink="http://www.w3.org/1999/xlink">
    <!-- Generator: Sketch 42 (36781) - http://www.bohemiancoding.com/sketch -->
    <title>Organize</title>
    <desc>Created with Sketch.</desc>
    <defs></defs>
    <g id="Website" stroke="none" stroke-width="1" fill="none" fill-rule="evenodd">
        <g id="Desktop-HD" transform="translate(-968.000000, -736.000000)">
            <g id="Information" transform="translate(968.000000, 410.000000)">
                <g id="Organize" transform="translate(0.000000, 319.000000)">
                    <text id="Organize-your-cabine" font-family="Lato-Light, Lato" font-size="26" font-weight="300" fill="#FFDC67">
                        <tspan x="80" y="26">Organize your cabinet</tspan>
                    </text>
                    <text id="Save-colors-on-the-g" font-family="Lato-Light, Lato" font-size="16" font-weight="300" fill="#FFEFBC">
                        <tspan x="80" y="55">Save colors on the go, organize them however </tspan>
                        <tspan x="80" y="74">you want, and even export them to your </tspan>
                        <tspan x="80" y="93">computer!</tspan>
                    </text>
                    <g id="Folder" transform="translate(0.000000, 7.000000)">
                        <rect id="Rectangle-2" fill="#FFCE2E" x="0" y="0" width="60" height="60" rx="8.35443038"></rect>
                        <path d="M26.3911364,21.547825 L27.1765909,22.75 L28.6363636,22.75 L40.9090909,22.75 C41.6611364,22.75 42.2727273,23.355475 42.2727273,24.1 L42.2727273,38.95 C42.2727273,39.694525 41.6611364,40.3 40.9090909,40.3 L19.0909091,40.3 C18.3388636,40.3 17.7272727,39.694525 17.7272727,38.95 L17.7272727,20.05 C17.7272727,19.305475 18.3388636,18.7 19.0909091,18.7 L24.5454545,18.7 L26.3911364,21.547825 Z M25.9090909,16 L19.0909091,16 C16.8306818,16 15,17.812375 15,20.05 L15,38.95 C15,41.187625 16.8306818,43 19.0909091,43 L40.9090909,43 C43.1693182,43 45,41.187625 45,38.95 L45,24.1 C45,21.862375 43.1693182,20.05 40.9090909,20.05 L28.6363636,20.05 L25.9090909,16 L25.9090909,16 Z" id="Shape" fill="#A58724" fill-rule="nonzero"></path>
                    </g>
                </g>
            </g>
        </g>
    </g>
</svg>