<?xml version="1.0" standalone="no"?>
<!DOCTYPE svg PUBLIC "-//W3C//DTD SVG 20010904//EN"
 "http://www.w3.org/TR/2001/REC-SVG-20010904/DTD/svg10.dtd">
<svg version="1.0" xmlns="http://www.w3.org/2000/svg"
 width="16.000000pt" height="16.000000pt" viewBox="0 0 16.000000 16.000000"
 preserveAspectRatio="xMidYMid meet">
<metadata>
Created by potrace 1.11, written by Peter Selinger 2001-2013
</metadata>
<g transform="translate(0.000000,16.000000) scale(0.002413,-0.002413)"
fill="#000000" stroke="none">
<path d="M500 6554 c-162 -35 -305 -147 -380 -299 -64 -129 -60 69 -58 -2972
l3 -2768 22 -66 c58 -169 200 -309 368 -362 l70 -22 2790 0 2790 0 70 22 c171
54 314 197 368 368 l22 70 0 2790 0 2790 -22 70 c-53 168 -193 310 -362 368
l-66 22 -2775 2 c-2358 1 -2785 -1 -2840 -13z m4972 -1082 l33 -32 3 -913 c2
-628 0 -924 -8 -949 -6 -20 -22 -46 -37 -57 -26 -21 -33 -21 -965 -21 l-940 0
-29 29 -29 29 0 939 c0 851 2 941 16 962 37 52 10 51 1001 48 l923 -2 32 -33z
m-2391 18 c50 -27 49 0 49 -996 l0 -926 -34 -34 -34 -34 -926 0 c-996 0 -969
-1 -996 49 -7 13 -10 333 -10 956 l0 937 29 29 29 29 937 0 c623 0 943 -3 956
-10z m15 -2394 l34 -34 0 -926 c0 -696 -3 -932 -12 -951 -26 -57 13 -55 -998
-55 l-932 0 -29 29 -29 29 0 934 c1 755 3 938 14 957 29 52 -7 50 990 51 l928
0 34 -34z m2367 14 c15 -12 31 -38 37 -58 6 -24 10 -349 10 -932 0 -832 -1
-897 -18 -930 -36 -74 19 -70 -982 -70 -583 0 -908 4 -932 10 -20 6 -46 22
-58 37 -20 25 -20 34 -20 964 l0 937 31 31 31 31 937 0 c930 0 939 0 964 -20z"/>
</g>
</svg>
