<?xml version="1.0" encoding="UTF-8"?>
<svg width="430px" height="80px" viewBox="0 0 430 80" version="1.1" xmlns="http://www.w3.org/2000/svg" xmlns:xlink="http://www.w3.org/1999/xlink">
    <!-- Generator: Sketch 42 (36781) - http://www.bohemiancoding.com/sketch -->
    <title>Sketch Plugin</title>
    <desc>Created with Sketch.</desc>
    <defs></defs>
    <g id="Website" stroke="none" stroke-width="1" fill="none" fill-rule="evenodd">
        <g id="Plain" transform="translate(-940.000000, -280.000000)">
            <g id="Sketch-Plugin" transform="translate(940.000000, 280.000000)">
                <rect id="Rectangle-3" fill="#F7BD00" x="0" y="0" width="430" height="80" rx="40"></rect>
                <path d="M161.45,22.8875 C161.375,23.0125006 161.29375,23.1062497 161.20625,23.16875 C161.11875,23.2312503 161.012501,23.2625 160.8875,23.2625 C160.745833,23.2625 160.579168,23.1916674 160.3875,23.05 C160.195832,22.9083326 159.956251,22.7520842 159.66875,22.58125 C159.381249,22.4104158 159.035419,22.2541674 158.63125,22.1125 C158.227081,21.9708326 157.737503,21.9 157.1625,21.9 C156.620831,21.9 156.143752,21.9729159 155.73125,22.11875 C155.318748,22.2645841 154.972918,22.4624988 154.69375,22.7125 C154.414582,22.9625013 154.204167,23.2562483 154.0625,23.59375 C153.920833,23.9312517 153.85,24.2958314 153.85,24.6875 C153.85,25.1875025 153.972915,25.6020817 154.21875,25.93125 C154.464585,26.2604183 154.789581,26.5416655 155.19375,26.775 C155.597919,27.0083345 156.056247,27.2104158 156.56875,27.38125 C157.081253,27.5520842 157.606247,27.7291658 158.14375,27.9125 C158.681253,28.0958343 159.206247,28.3020822 159.71875,28.53125 C160.231253,28.7604178 160.689581,29.0499983 161.09375,29.4 C161.497919,29.7500018 161.822915,30.1791641 162.06875,30.6875 C162.314585,31.1958359 162.4375,31.8208296 162.4375,32.5625 C162.4375,33.3458373 162.304168,34.0812466 162.0375,34.76875 C161.770832,35.4562534 161.381253,36.0541641 160.86875,36.5625 C160.356247,37.0708359 159.727087,37.4708319 158.98125,37.7625 C158.235413,38.0541681 157.387505,38.2 156.4375,38.2 C155.270827,38.2 154.212505,37.9895854 153.2625,37.56875 C152.312495,37.1479146 151.500003,36.5791703 150.825,35.8625 L151.525,34.7125 C151.591667,34.6208329 151.672916,34.5437503 151.76875,34.48125 C151.864584,34.4187497 151.970833,34.3875 152.0875,34.3875 C152.195834,34.3875 152.318749,34.4312496 152.45625,34.51875 C152.593751,34.6062504 152.749999,34.716666 152.925,34.85 C153.100001,34.983334 153.299999,35.1291659 153.525,35.2875 C153.750001,35.4458341 154.006249,35.591666 154.29375,35.725 C154.581251,35.858334 154.908331,35.9687496 155.275,36.05625 C155.641668,36.1437504 156.054164,36.1875 156.5125,36.1875 C157.087503,36.1875 157.599998,36.1083341 158.05,35.95 C158.500002,35.7916659 158.881248,35.5687514 159.19375,35.28125 C159.506252,34.9937486 159.745832,34.650002 159.9125,34.25 C160.079167,33.849998 160.1625,33.4041691 160.1625,32.9125 C160.1625,32.3708306 160.039585,31.9270851 159.79375,31.58125 C159.547915,31.2354149 159.225002,30.9458345 158.825,30.7125 C158.424998,30.4791655 157.966669,30.2812508 157.45,30.11875 C156.933331,29.9562492 156.408336,29.7895842 155.875,29.61875 C155.341664,29.4479158 154.816669,29.2500011 154.3,29.025 C153.783331,28.7999989 153.325002,28.5083351 152.925,28.15 C152.524998,27.7916649 152.202085,27.3437527 151.95625,26.80625 C151.710415,26.2687473 151.5875,25.6041706 151.5875,24.8125 C151.5875,24.1791635 151.710415,23.5666696 151.95625,22.975 C152.202085,22.3833304 152.560414,21.8583356 153.03125,21.4 C153.502086,20.9416644 154.081247,20.5750014 154.76875,20.3 C155.456253,20.0249986 156.245829,19.8875 157.1375,19.8875 C158.137505,19.8875 159.047913,20.0458318 159.86875,20.3625 C160.689587,20.6791683 161.412497,21.137497 162.0375,21.7375 L161.45,22.8875 Z M167.5625,19.5875 L167.5625,30.425 L168.1375,30.425 C168.304167,30.425 168.443749,30.4020836 168.55625,30.35625 C168.668751,30.3104164 168.787499,30.2166674 168.9125,30.075 L172.9125,25.7875 C173.029167,25.6458326 173.152083,25.5354171 173.28125,25.45625 C173.410417,25.3770829 173.583332,25.3375 173.8,25.3375 L175.8125,25.3375 L171.15,30.3 C170.924999,30.5833348 170.683335,30.8041659 170.425,30.9625 C170.575001,31.0625005 170.710416,31.1770827 170.83125,31.30625 C170.952084,31.4354173 171.066666,31.5833325 171.175,31.75 L176.125,38 L174.1375,38 C173.945832,38 173.781251,37.9687503 173.64375,37.90625 C173.506249,37.8437497 173.3875,37.7291675 173.2875,37.5625 L169.125,32.375 C168.999999,32.1999991 168.877084,32.0854169 168.75625,32.03125 C168.635416,31.9770831 168.450001,31.95 168.2,31.95 L167.5625,31.95 L167.5625,38 L165.325,38 L165.325,19.5875 L167.5625,19.5875 Z M186.5,30.2875 C186.5,29.7708308 186.427084,29.2979188 186.28125,28.86875 C186.135416,28.4395812 185.922918,28.0687516 185.64375,27.75625 C185.364582,27.4437484 185.025002,27.2020842 184.625,27.03125 C184.224998,26.8604158 183.770836,26.775 183.2625,26.775 C182.195828,26.775 181.352086,27.0854136 180.73125,27.70625 C180.110414,28.3270864 179.725001,29.1874945 179.575,30.2875 L186.5,30.2875 Z M188.3,36.225 C188.024999,36.558335 187.695835,36.8479154 187.3125,37.09375 C186.929165,37.3395846 186.518752,37.5416659 186.08125,37.7 C185.643748,37.8583341 185.191669,37.9770829 184.725,38.05625 C184.258331,38.1354171 183.795836,38.175 183.3375,38.175 C182.462496,38.175 181.656254,38.0270848 180.91875,37.73125 C180.181246,37.4354152 179.543753,37.0020862 179.00625,36.43125 C178.468747,35.8604138 178.050001,35.1541709 177.75,34.3125 C177.449998,33.4708291 177.3,32.5041721 177.3,31.4125 C177.3,30.5291623 177.435415,29.7041705 177.70625,28.9375 C177.977085,28.1708295 178.366664,27.5062528 178.875,26.94375 C179.383336,26.3812472 180.004163,25.9395849 180.7375,25.61875 C181.470837,25.2979151 182.295829,25.1375 183.2125,25.1375 C183.970837,25.1375 184.672913,25.2645821 185.31875,25.51875 C185.964587,25.7729179 186.522914,26.1395809 186.99375,26.61875 C187.464586,27.0979191 187.833332,27.6895798 188.1,28.39375 C188.366668,29.0979202 188.5,29.8999955 188.5,30.8 C188.5,31.1500018 188.4625,31.3833328 188.3875,31.5 C188.3125,31.6166673 188.170834,31.675 187.9625,31.675 L179.5,31.675 C179.525,32.475004 179.635416,33.1708304 179.83125,33.7625 C180.027084,34.3541696 180.299998,34.8479147 180.65,35.24375 C181.000002,35.6395853 181.416664,35.9354157 181.9,36.13125 C182.383336,36.3270843 182.924997,36.425 183.525,36.425 C184.083336,36.425 184.564581,36.3604173 184.96875,36.23125 C185.372919,36.1020827 185.720832,35.9625008 186.0125,35.8125 C186.304168,35.6624993 186.547916,35.5229173 186.74375,35.39375 C186.939584,35.2645827 187.108333,35.2 187.25,35.2 C187.433334,35.2 187.574999,35.2708326 187.675,35.4125 L188.3,36.225 Z M195.1125,38.2 C194.112495,38.2 193.343753,37.9208361 192.80625,37.3625 C192.268747,36.8041639 192,36.0000053 192,34.95 L192,27.2 L190.475,27.2 C190.341666,27.2 190.229167,27.1604171 190.1375,27.08125 C190.045833,27.0020829 190,26.8791675 190,26.7125 L190,25.825 L192.075,25.5625 L192.5875,21.65 C192.6125,21.5249994 192.66875,21.4229171 192.75625,21.34375 C192.84375,21.2645829 192.958333,21.225 193.1,21.225 L194.225,21.225 L194.225,25.5875 L197.8875,25.5875 L197.8875,27.2 L194.225,27.2 L194.225,34.8 C194.225,35.333336 194.354165,35.7291654 194.6125,35.9875 C194.870835,36.2458346 195.204165,36.375 195.6125,36.375 C195.845834,36.375 196.047916,36.3437503 196.21875,36.28125 C196.389584,36.2187497 196.537499,36.1500004 196.6625,36.075 C196.787501,35.9999996 196.89375,35.9312503 196.98125,35.86875 C197.06875,35.8062497 197.145833,35.775 197.2125,35.775 C197.329167,35.775 197.433333,35.8458326 197.525,35.9875 L198.175,37.05 C197.791665,37.4083351 197.329169,37.6895823 196.7875,37.89375 C196.245831,38.0979177 195.687503,38.2 195.1125,38.2 Z M209,27.5875 C208.933333,27.6791671 208.866667,27.7499998 208.8,27.8 C208.733333,27.8500003 208.641667,27.875 208.525,27.875 C208.399999,27.875 208.262501,27.8229172 208.1125,27.71875 C207.962499,27.6145828 207.777084,27.5000006 207.55625,27.375 C207.335416,27.2499994 207.064585,27.1354172 206.74375,27.03125 C206.422915,26.9270828 206.029169,26.875 205.5625,26.875 C204.937497,26.875 204.387502,26.9854156 203.9125,27.20625 C203.437498,27.4270844 203.039585,27.7458313 202.71875,28.1625 C202.397915,28.5791688 202.156251,29.0833304 201.99375,29.675 C201.831249,30.2666696 201.75,30.929163 201.75,31.6625 C201.75,32.4291705 201.837499,33.1104137 202.0125,33.70625 C202.187501,34.3020863 202.435415,34.8020813 202.75625,35.20625 C203.077085,35.6104187 203.464581,35.9187489 203.91875,36.13125 C204.372919,36.3437511 204.88333,36.45 205.45,36.45 C205.991669,36.45 206.437498,36.3854173 206.7875,36.25625 C207.137502,36.1270827 207.427082,35.9833341 207.65625,35.825 C207.885418,35.6666659 208.077083,35.5229173 208.23125,35.39375 C208.385417,35.2645827 208.537499,35.2 208.6875,35.2 C208.870834,35.2 209.012499,35.2708326 209.1125,35.4125 L209.7375,36.225 C209.462499,36.5666684 209.150002,36.8583321 208.8,37.1 C208.449998,37.3416679 208.072919,37.5437492 207.66875,37.70625 C207.264581,37.8687508 206.841669,37.9874996 206.4,38.0625 C205.958331,38.1375004 205.508336,38.175 205.05,38.175 C204.258329,38.175 203.52292,38.0291681 202.84375,37.7375 C202.16458,37.4458319 201.575002,37.0229194 201.075,36.46875 C200.574997,35.9145806 200.183335,35.2333374 199.9,34.425 C199.616665,33.6166626 199.475,32.6958385 199.475,31.6625 C199.475,30.7208286 199.606249,29.850004 199.86875,29.05 C200.131251,28.249996 200.514581,27.5604196 201.01875,26.98125 C201.522919,26.4020804 202.143746,25.9500016 202.88125,25.625 C203.618754,25.2999984 204.466662,25.1375 205.425,25.1375 C206.316671,25.1375 207.10208,25.2812486 207.78125,25.56875 C208.46042,25.8562514 209.062497,26.2624974 209.5875,26.7875 L209,27.5875 Z M214.3625,27.025 C214.904169,26.4499971 215.504163,25.9916684 216.1625,25.65 C216.820837,25.3083316 217.579162,25.1375 218.4375,25.1375 C219.12917,25.1375 219.739581,25.2520822 220.26875,25.48125 C220.797919,25.7104178 221.239582,26.0354146 221.59375,26.45625 C221.947918,26.8770854 222.216666,27.3833304 222.4,27.975 C222.583334,28.5666696 222.675,29.2208298 222.675,29.9375 L222.675,38 L220.4375,38 L220.4375,29.9375 C220.4375,28.9791619 220.218752,28.2354193 219.78125,27.70625 C219.343748,27.1770807 218.679171,26.9125 217.7875,26.9125 C217.129163,26.9125 216.514586,27.0708318 215.94375,27.3875 C215.372914,27.7041683 214.845836,28.1333306 214.3625,28.675 L214.3625,38 L212.125,38 L212.125,19.5875 L214.3625,19.5875 L214.3625,27.025 Z M238.2875,29.375 C238.97917,29.375 239.589581,29.2833343 240.11875,29.1 C240.647919,28.9166658 241.093748,28.6604183 241.45625,28.33125 C241.818752,28.0020817 242.091666,27.6083356 242.275,27.15 C242.458334,26.6916644 242.55,26.1875028 242.55,25.6375 C242.55,24.4958276 242.19792,23.6041699 241.49375,22.9625 C240.78958,22.3208301 239.72084,22 238.2875,22 L235.4125,22 L235.4125,29.375 L238.2875,29.375 Z M238.2875,20.0875 C239.420839,20.0875 240.406246,20.2187487 241.24375,20.48125 C242.081254,20.7437513 242.774997,21.1166643 243.325,21.6 C243.875003,22.0833358 244.285415,22.6666633 244.55625,23.35 C244.827085,24.0333368 244.9625,24.7958291 244.9625,25.6375 C244.9625,26.4708375 244.816668,27.2333299 244.525,27.925 C244.233332,28.6166701 243.806253,29.2124975 243.24375,29.7125 C242.681247,30.2125025 241.985421,30.6020819 241.15625,30.88125 C240.327079,31.1604181 239.370839,31.3 238.2875,31.3 L235.4125,31.3 L235.4125,38 L233,38 L233,20.0875 L238.2875,20.0875 Z M249.7875,19.5875 L249.7875,38 L247.5625,38 L247.5625,19.5875 L249.7875,19.5875 Z M263.8,25.3375 L263.8,38 L262.475,38 C262.158332,38 261.958334,37.8458349 261.875,37.5375 L261.7,36.175 C261.149997,36.7833364 260.533337,37.2729148 259.85,37.64375 C259.166663,38.0145852 258.383338,38.2 257.5,38.2 C256.80833,38.2 256.197919,38.0854178 255.66875,37.85625 C255.139581,37.6270822 254.695835,37.3041688 254.3375,36.8875 C253.979165,36.4708313 253.710418,35.9666696 253.53125,35.375 C253.352082,34.7833304 253.2625,34.1291703 253.2625,33.4125 L253.2625,25.3375 L255.4875,25.3375 L255.4875,33.4125 C255.4875,34.3708381 255.706248,35.1124974 256.14375,35.6375 C256.581252,36.1625026 257.249995,36.425 258.15,36.425 C258.808337,36.425 259.422914,36.2687516 259.99375,35.95625 C260.564586,35.6437484 261.091664,35.2125028 261.575,34.6625 L261.575,25.3375 L263.8,25.3375 Z M271.7375,31.8125 C272.187502,31.8125 272.583332,31.7500006 272.925,31.625 C273.266668,31.4999994 273.554165,31.3250011 273.7875,31.1 C274.020834,30.8749989 274.195833,30.6062516 274.3125,30.29375 C274.429167,29.9812484 274.4875,29.6375019 274.4875,29.2625 C274.4875,28.4874961 274.252086,27.8708356 273.78125,27.4125 C273.310414,26.9541644 272.629171,26.725 271.7375,26.725 C270.837495,26.725 270.152086,26.9541644 269.68125,27.4125 C269.210414,27.8708356 268.975,28.4874961 268.975,29.2625 C268.975,29.6375019 269.035416,29.9812484 269.15625,30.29375 C269.277084,30.6062516 269.454165,30.8749989 269.6875,31.1 C269.920834,31.3250011 270.208332,31.4999994 270.55,31.625 C270.891668,31.7500006 271.287498,31.8125 271.7375,31.8125 Z M275.75,38.6875 C275.75,38.3791651 275.662501,38.1291676 275.4875,37.9375 C275.312499,37.7458324 275.077085,37.5958339 274.78125,37.4875 C274.485415,37.3791661 274.141669,37.3020836 273.75,37.25625 C273.358331,37.2104164 272.943752,37.1750001 272.50625,37.15 C272.068748,37.1249999 271.625002,37.1000001 271.175,37.075 C270.724998,37.0499999 270.291669,37.0083336 269.875,36.95 C269.408331,37.1666678 269.027085,37.4395817 268.73125,37.76875 C268.435415,38.0979183 268.2875,38.4833311 268.2875,38.925 C268.2875,39.2083348 268.360416,39.4729154 268.50625,39.71875 C268.652084,39.9645846 268.874998,40.1770824 269.175,40.35625 C269.475001,40.5354176 269.852081,40.6770828 270.30625,40.78125 C270.760419,40.8854172 271.29583,40.9375 271.9125,40.9375 C272.512503,40.9375 273.049998,40.8833339 273.525,40.775 C274.000002,40.6666661 274.402082,40.512501 274.73125,40.3125 C275.060418,40.112499 275.312499,39.8750014 275.4875,39.6 C275.662501,39.3249986 275.75,39.020835 275.75,38.6875 Z M278.0125,25.8375 L278.0125,26.6625 C278.0125,26.9375014 277.837502,27.1124996 277.4875,27.1875 L276.05,27.375 C276.333335,27.9250028 276.475,28.53333 276.475,29.2 C276.475,29.8166698 276.356251,30.3770808 276.11875,30.88125 C275.881249,31.3854192 275.554169,31.8166649 275.1375,32.175 C274.720831,32.5333351 274.220836,32.8083324 273.6375,33 C273.054164,33.1916676 272.420837,33.2875 271.7375,33.2875 C271.14583,33.2875 270.587503,33.2166674 270.0625,33.075 C269.795832,33.2416675 269.591667,33.4187491 269.45,33.60625 C269.308333,33.7937509 269.2375,33.9833324 269.2375,34.175 C269.2375,34.4750015 269.360415,34.7020826 269.60625,34.85625 C269.852085,35.0104174 270.174998,35.120833 270.575,35.1875 C270.975002,35.254167 271.431247,35.2958333 271.94375,35.3125 C272.456253,35.3291668 272.981247,35.3562498 273.51875,35.39375 C274.056253,35.4312502 274.581247,35.4958329 275.09375,35.5875 C275.606253,35.6791671 276.062498,35.8291656 276.4625,36.0375 C276.862502,36.2458344 277.185415,36.5333315 277.43125,36.9 C277.677085,37.2666685 277.8,37.7416638 277.8,38.325 C277.8,38.8666694 277.664585,39.3916641 277.39375,39.9 C277.122915,40.4083359 276.733336,40.8604147 276.225,41.25625 C275.716664,41.6520853 275.093754,41.9687488 274.35625,42.20625 C273.618746,42.4437512 272.787505,42.5625 271.8625,42.5625 C270.937495,42.5625 270.12917,42.4708343 269.4375,42.2875 C268.74583,42.1041658 268.170836,41.8583349 267.7125,41.55 C267.254164,41.2416651 266.910418,40.8854187 266.68125,40.48125 C266.452082,40.0770813 266.3375,39.6541689 266.3375,39.2125 C266.3375,38.5874969 266.533331,38.0583355 266.925,37.625 C267.316669,37.1916645 267.854163,36.8458346 268.5375,36.5875 C268.162498,36.4208325 267.864584,36.1979181 267.64375,35.91875 C267.422916,35.6395819 267.3125,35.2625024 267.3125,34.7875 C267.3125,34.6041658 267.345833,34.4145843 267.4125,34.21875 C267.479167,34.0229157 267.581249,33.8270843 267.71875,33.63125 C267.856251,33.4354157 268.024999,33.2500009 268.225,33.075 C268.425001,32.8999991 268.658332,32.745834 268.925,32.6125 C268.299997,32.2624983 267.812502,31.7979196 267.4625,31.21875 C267.112498,30.6395804 266.9375,29.9666705 266.9375,29.2 C266.9375,28.5833303 267.056249,28.0229192 267.29375,27.51875 C267.531251,27.0145808 267.862498,26.5854184 268.2875,26.23125 C268.712502,25.8770816 269.218747,25.6041676 269.80625,25.4125 C270.393753,25.2208324 271.037496,25.125 271.7375,25.125 C272.287503,25.125 272.799998,25.1854161 273.275,25.30625 C273.750002,25.4270839 274.183331,25.6041655 274.575,25.8375 L278.0125,25.8375 Z M282.675,25.3375 L282.675,38 L280.45,38 L280.45,25.3375 L282.675,25.3375 Z M283.15,21.3625 C283.15,21.5791678 283.10625,21.7812491 283.01875,21.96875 C282.93125,22.1562509 282.814584,22.3229159 282.66875,22.46875 C282.522916,22.6145841 282.352084,22.7291663 282.15625,22.8125 C281.960416,22.8958338 281.754168,22.9375 281.5375,22.9375 C281.320832,22.9375 281.118751,22.8958338 280.93125,22.8125 C280.743749,22.7291663 280.579167,22.6145841 280.4375,22.46875 C280.295833,22.3229159 280.183334,22.1562509 280.1,21.96875 C280.016666,21.7812491 279.975,21.5791678 279.975,21.3625 C279.975,21.1458323 280.016666,20.9395843 280.1,20.74375 C280.183334,20.5479157 280.295833,20.3770841 280.4375,20.23125 C280.579167,20.0854159 280.743749,19.9708338 280.93125,19.8875 C281.118751,19.8041663 281.320832,19.7625 281.5375,19.7625 C281.754168,19.7625 281.960416,19.8041663 282.15625,19.8875 C282.352084,19.9708338 282.522916,20.0854159 282.66875,20.23125 C282.814584,20.3770841 282.93125,20.5479157 283.01875,20.74375 C283.10625,20.9395843 283.15,21.1458323 283.15,21.3625 Z M288.425,27.175 C288.700001,26.8666651 288.991665,26.5875013 289.3,26.3375 C289.608335,26.0874988 289.935415,25.8729176 290.28125,25.69375 C290.627085,25.5145824 290.993748,25.3770838 291.38125,25.28125 C291.768752,25.1854162 292.187498,25.1375 292.6375,25.1375 C293.32917,25.1375 293.939581,25.2520822 294.46875,25.48125 C294.997919,25.7104178 295.439582,26.0354146 295.79375,26.45625 C296.147918,26.8770854 296.416666,27.3833304 296.6,27.975 C296.783334,28.5666696 296.875,29.2208298 296.875,29.9375 L296.875,38 L294.6375,38 L294.6375,29.9375 C294.6375,28.9791619 294.418752,28.2354193 293.98125,27.70625 C293.543748,27.1770807 292.879171,26.9125 291.9875,26.9125 C291.329163,26.9125 290.714586,27.0708318 290.14375,27.3875 C289.572914,27.7041683 289.045836,28.1333306 288.5625,28.675 L288.5625,38 L286.325,38 L286.325,25.3375 L287.6625,25.3375 C287.979168,25.3375 288.175,25.4916651 288.25,25.8 L288.425,27.175 Z M158.9175,55.78 C158.9975,55.78 159.0675,55.8124997 159.1275,55.8775 L159.705,56.5 C159.264998,57.0100026 158.731253,57.4074986 158.10375,57.6925 C157.476247,57.9775014 156.717504,58.12 155.8275,58.12 C155.057496,58.12 154.357503,57.9862513 153.7275,57.71875 C153.097497,57.4512487 152.560002,57.0762524 152.115,56.59375 C151.669998,56.1112476 151.325001,55.5325034 151.08,54.8575 C150.834999,54.1824966 150.7125,53.4400041 150.7125,52.63 C150.7125,51.819996 150.839999,51.0775034 151.095,50.4025 C151.350001,49.7274966 151.708748,49.1475024 152.17125,48.6625 C152.633752,48.1774976 153.187497,47.8012513 153.8325,47.53375 C154.477503,47.2662487 155.189996,47.1325 155.97,47.1325 C156.735004,47.1325 157.409997,47.2549988 157.995,47.5 C158.580003,47.7450012 159.094998,48.0774979 159.54,48.4975 L159.06,49.165 C159.03,49.2150003 158.99125,49.2562498 158.94375,49.28875 C158.89625,49.3212502 158.8325,49.3375 158.7525,49.3375 C158.6625,49.3375 158.552501,49.2887505 158.4225,49.19125 C158.292499,49.0937495 158.122501,48.9850006 157.9125,48.865 C157.702499,48.7449994 157.440002,48.6362505 157.125,48.53875 C156.809998,48.4412495 156.422502,48.3925 155.9625,48.3925 C155.407497,48.3925 154.900002,48.488749 154.44,48.68125 C153.979998,48.873751 153.583752,49.1524982 153.25125,49.5175 C152.918748,49.8825018 152.660001,50.3274974 152.475,50.8525 C152.289999,51.3775026 152.1975,51.9699967 152.1975,52.63 C152.1975,53.3000034 152.293749,53.8974974 152.48625,54.4225 C152.678751,54.9475026 152.941248,55.3912482 153.27375,55.75375 C153.606252,56.1162518 153.998748,56.3924991 154.45125,56.5825 C154.903752,56.772501 155.392497,56.8675 155.9175,56.8675 C156.237502,56.8675 156.526249,56.8487502 156.78375,56.81125 C157.041251,56.7737498 157.278749,56.7150004 157.49625,56.635 C157.713751,56.5549996 157.916249,56.4537506 158.10375,56.33125 C158.291251,56.2087494 158.477499,56.0625009 158.6625,55.8925 C158.7475,55.8174996 158.8325,55.78 158.9175,55.78 Z M164.28,50.2825 C164.835003,50.2825 165.334998,50.3749991 165.78,50.56 C166.225002,50.7450009 166.604998,51.0074983 166.92,51.3475 C167.235002,51.6875017 167.476249,52.0987476 167.64375,52.58125 C167.811251,53.0637524 167.895,53.602497 167.895,54.1975 C167.895,54.797503 167.811251,55.3374976 167.64375,55.8175 C167.476249,56.2975024 167.235002,56.7074983 166.92,57.0475 C166.604998,57.3875017 166.225002,57.6487491 165.78,57.83125 C165.334998,58.0137509 164.835003,58.105 164.28,58.105 C163.719997,58.105 163.216252,58.0137509 162.76875,57.83125 C162.321248,57.6487491 161.940002,57.3875017 161.625,57.0475 C161.309998,56.7074983 161.068751,56.2975024 160.90125,55.8175 C160.733749,55.3374976 160.65,54.797503 160.65,54.1975 C160.65,53.602497 160.733749,53.0637524 160.90125,52.58125 C161.068751,52.0987476 161.309998,51.6875017 161.625,51.3475 C161.940002,51.0074983 162.321248,50.7450009 162.76875,50.56 C163.216252,50.3749991 163.719997,50.2825 164.28,50.2825 Z M164.28,57.0625 C165.030004,57.0625 165.589998,56.8112525 165.96,56.30875 C166.330002,55.8062475 166.515,55.1050045 166.515,54.205 C166.515,53.2999955 166.330002,52.5950025 165.96,52.09 C165.589998,51.5849975 165.030004,51.3325 164.28,51.3325 C163.899998,51.3325 163.568751,51.3974994 163.28625,51.5275 C163.003749,51.6575007 162.768751,51.8449988 162.58125,52.09 C162.393749,52.3350012 162.25375,52.6362482 162.16125,52.99375 C162.06875,53.3512518 162.0225,53.7549978 162.0225,54.205 C162.0225,55.1050045 162.208748,55.8062475 162.58125,56.30875 C162.953752,56.8112525 163.519996,57.0625 164.28,57.0625 Z M169.5825,58 L169.5825,50.4025 L170.385,50.4025 C170.575001,50.4025 170.6925,50.4949991 170.7375,50.68 L170.835,51.46 C171.115001,51.1149983 171.429998,50.8325011 171.78,50.6125 C172.130002,50.3924989 172.534998,50.2825 172.995,50.2825 C173.505003,50.2825 173.918748,50.4249986 174.23625,50.71 C174.553752,50.9950014 174.782499,51.3799976 174.9225,51.865 C175.032501,51.5899986 175.173749,51.352501 175.34625,51.1525 C175.518751,50.952499 175.712499,50.7875007 175.9275,50.6575 C176.142501,50.5274994 176.371249,50.4325003 176.61375,50.3725 C176.856251,50.3124997 177.102499,50.2825 177.3525,50.2825 C177.752502,50.2825 178.108748,50.3462494 178.42125,50.47375 C178.733752,50.6012506 178.998749,50.7874988 179.21625,51.0325 C179.433751,51.2775012 179.599999,51.5787482 179.715,51.93625 C179.830001,52.2937518 179.8875,52.7024977 179.8875,53.1625 L179.8875,58 L178.545,58 L178.545,53.1625 C178.545,52.567497 178.415001,52.1162515 178.155,51.80875 C177.894999,51.5012485 177.520002,51.3475 177.03,51.3475 C176.809999,51.3475 176.601251,51.3862496 176.40375,51.46375 C176.206249,51.5412504 176.032501,51.6549993 175.8825,51.805 C175.732499,51.9550008 175.61375,52.1437489 175.52625,52.37125 C175.43875,52.5987511 175.395,52.8624985 175.395,53.1625 L175.395,58 L174.0525,58 L174.0525,53.1625 C174.0525,52.552497 173.930001,52.0975015 173.685,51.7975 C173.439999,51.4974985 173.082502,51.3475 172.6125,51.3475 C172.282498,51.3475 171.977501,51.4362491 171.6975,51.61375 C171.417499,51.7912509 171.160001,52.0324985 170.925,52.3375 L170.925,58 L169.5825,58 Z M183.33,50.4025 L183.33,58 L181.995,58 L181.995,50.4025 L183.33,50.4025 Z M183.615,48.0175 C183.615,48.1475007 183.58875,48.2687494 183.53625,48.38125 C183.48375,48.4937506 183.41375,48.5937496 183.32625,48.68125 C183.23875,48.7687504 183.136251,48.8374998 183.01875,48.8875 C182.901249,48.9375003 182.777501,48.9625 182.6475,48.9625 C182.517499,48.9625 182.396251,48.9375003 182.28375,48.8875 C182.171249,48.8374998 182.0725,48.7687504 181.9875,48.68125 C181.9025,48.5937496 181.835,48.4937506 181.785,48.38125 C181.735,48.2687494 181.71,48.1475007 181.71,48.0175 C181.71,47.8874994 181.735,47.7637506 181.785,47.64625 C181.835,47.5287494 181.9025,47.4262504 181.9875,47.33875 C182.0725,47.2512496 182.171249,47.1825003 182.28375,47.1325 C182.396251,47.0824998 182.517499,47.0575 182.6475,47.0575 C182.777501,47.0575 182.901249,47.0824998 183.01875,47.1325 C183.136251,47.1825003 183.23875,47.2512496 183.32625,47.33875 C183.41375,47.4262504 183.48375,47.5287494 183.53625,47.64625 C183.58875,47.7637506 183.615,47.8874994 183.615,48.0175 Z M186.78,51.505 C186.945001,51.3199991 187.119999,51.1525008 187.305,51.0025 C187.490001,50.8524993 187.686249,50.7237505 187.89375,50.61625 C188.101251,50.5087495 188.321249,50.4262503 188.55375,50.36875 C188.786251,50.3112497 189.037499,50.2825 189.3075,50.2825 C189.722502,50.2825 190.088748,50.3512493 190.40625,50.48875 C190.723752,50.6262507 190.988749,50.8212487 191.20125,51.07375 C191.413751,51.3262513 191.574999,51.6299982 191.685,51.985 C191.795001,52.3400018 191.85,52.7324979 191.85,53.1625 L191.85,58 L190.5075,58 L190.5075,53.1625 C190.5075,52.5874971 190.376251,52.1412516 190.11375,51.82375 C189.851249,51.5062484 189.452503,51.3475 188.9175,51.3475 C188.522498,51.3475 188.153752,51.4424991 187.81125,51.6325 C187.468748,51.822501 187.152501,52.0799984 186.8625,52.405 L186.8625,58 L185.52,58 L185.52,50.4025 L186.3225,50.4025 C186.512501,50.4025 186.63,50.4949991 186.675,50.68 L186.78,51.505 Z M196.5375,54.2875 C196.807501,54.2875 197.044999,54.2500004 197.25,54.175 C197.455001,54.0999996 197.627499,53.9950007 197.7675,53.86 C197.907501,53.7249993 198.0125,53.5637509 198.0825,53.37625 C198.1525,53.1887491 198.1875,52.9825011 198.1875,52.7575 C198.1875,52.2924977 198.046251,51.9225014 197.76375,51.6475 C197.481249,51.3724986 197.072503,51.235 196.5375,51.235 C195.997497,51.235 195.586251,51.3724986 195.30375,51.6475 C195.021249,51.9225014 194.88,52.2924977 194.88,52.7575 C194.88,52.9825011 194.91625,53.1887491 194.98875,53.37625 C195.06125,53.5637509 195.167499,53.7249993 195.3075,53.86 C195.447501,53.9950007 195.619999,54.0999996 195.825,54.175 C196.030001,54.2500004 196.267499,54.2875 196.5375,54.2875 Z M198.945,58.4125 C198.945,58.2274991 198.892501,58.0775006 198.7875,57.9625 C198.682499,57.8474994 198.541251,57.7575003 198.36375,57.6925 C198.186249,57.6274997 197.980001,57.5812501 197.745,57.55375 C197.509999,57.5262499 197.261251,57.5050001 196.99875,57.49 C196.736249,57.4749999 196.470001,57.4600001 196.2,57.445 C195.929999,57.4299999 195.670001,57.4050002 195.42,57.37 C195.139999,57.5000007 194.911251,57.663749 194.73375,57.86125 C194.556249,58.058751 194.4675,58.2899987 194.4675,58.555 C194.4675,58.7250009 194.51125,58.8837493 194.59875,59.03125 C194.68625,59.1787507 194.819999,59.3062495 195,59.41375 C195.180001,59.5212505 195.406249,59.6062497 195.67875,59.66875 C195.951251,59.7312503 196.272498,59.7625 196.6425,59.7625 C197.002502,59.7625 197.324999,59.7300003 197.61,59.665 C197.895001,59.5999997 198.136249,59.5075006 198.33375,59.3875 C198.531251,59.2674994 198.682499,59.1250008 198.7875,58.96 C198.892501,58.7949992 198.945,58.612501 198.945,58.4125 Z M200.3025,50.7025 L200.3025,51.1975 C200.3025,51.3625008 200.197501,51.4674998 199.9875,51.5125 L199.125,51.625 C199.295001,51.9550017 199.38,52.319998 199.38,52.72 C199.38,53.0900019 199.308751,53.4262485 199.16625,53.72875 C199.023749,54.0312515 198.827501,54.2899989 198.5775,54.505 C198.327499,54.7200011 198.027502,54.8849994 197.6775,55 C197.327498,55.1150006 196.947502,55.1725 196.5375,55.1725 C196.182498,55.1725 195.847502,55.1300004 195.5325,55.045 C195.372499,55.1450005 195.25,55.2512494 195.165,55.36375 C195.08,55.4762506 195.0375,55.5899994 195.0375,55.705 C195.0375,55.8850009 195.111249,56.0212495 195.25875,56.11375 C195.406251,56.2062505 195.599999,56.2724998 195.84,56.3125 C196.080001,56.3525002 196.353748,56.3775 196.66125,56.3875 C196.968752,56.3975001 197.283748,56.4137499 197.60625,56.43625 C197.928752,56.4587501 198.243748,56.4974997 198.55125,56.5525 C198.858752,56.6075003 199.132499,56.6974994 199.3725,56.8225 C199.612501,56.9475006 199.806249,57.1199989 199.95375,57.34 C200.101251,57.5600011 200.175,57.8449983 200.175,58.195 C200.175,58.5200016 200.093751,58.8349985 199.93125,59.14 C199.768749,59.4450015 199.535002,59.7162488 199.23,59.95375 C198.924998,60.1912512 198.551252,60.3812493 198.10875,60.52375 C197.666248,60.6662507 197.167503,60.7375 196.6125,60.7375 C196.057497,60.7375 195.572502,60.6825006 195.1575,60.5725 C194.742498,60.4624995 194.397501,60.3150009 194.1225,60.13 C193.847499,59.9449991 193.641251,59.7312512 193.50375,59.48875 C193.366249,59.2462488 193.2975,58.9925013 193.2975,58.7275 C193.2975,58.3524981 193.414999,58.0350013 193.65,57.775 C193.885001,57.5149987 194.207498,57.3075008 194.6175,57.1525 C194.392499,57.0524995 194.213751,56.9187508 194.08125,56.75125 C193.948749,56.5837492 193.8825,56.3575014 193.8825,56.0725 C193.8825,55.9624995 193.9025,55.8487506 193.9425,55.73125 C193.9825,55.6137494 194.04375,55.4962506 194.12625,55.37875 C194.20875,55.2612494 194.309999,55.1500005 194.43,55.045 C194.550001,54.9399995 194.689999,54.8475004 194.85,54.7675 C194.474998,54.557499 194.182501,54.2787517 193.9725,53.93125 C193.762499,53.5837483 193.6575,53.1800023 193.6575,52.72 C193.6575,52.3499982 193.728749,52.0137515 193.87125,51.71125 C194.013751,51.4087485 194.212499,51.1512511 194.4675,50.93875 C194.722501,50.7262489 195.026248,50.5625006 195.37875,50.4475 C195.731252,50.3324994 196.117498,50.275 196.5375,50.275 C196.867502,50.275 197.174999,50.3112496 197.46,50.38375 C197.745001,50.4562504 198.004999,50.5624993 198.24,50.7025 L200.3025,50.7025 Z M211.3425,48.9325 C211.2975,49.0075004 211.24875,49.0637498 211.19625,49.10125 C211.14375,49.1387502 211.08,49.1575 211.005,49.1575 C210.92,49.1575 210.820001,49.1150004 210.705,49.03 C210.589999,48.9449996 210.446251,48.8512505 210.27375,48.74875 C210.101249,48.6462495 209.893751,48.5525004 209.65125,48.4675 C209.408749,48.3824996 209.115002,48.34 208.77,48.34 C208.444998,48.34 208.158751,48.3837496 207.91125,48.47125 C207.663749,48.5587504 207.456251,48.6774993 207.28875,48.8275 C207.121249,48.9775008 206.995,49.153749 206.91,49.35625 C206.825,49.558751 206.7825,49.7774988 206.7825,50.0125 C206.7825,50.3125015 206.856249,50.561249 207.00375,50.75875 C207.151251,50.956251 207.346249,51.1249993 207.58875,51.265 C207.831251,51.4050007 208.106248,51.5262495 208.41375,51.62875 C208.721252,51.7312505 209.036248,51.8374995 209.35875,51.9475 C209.681252,52.0575006 209.996248,52.1812493 210.30375,52.31875 C210.611252,52.4562507 210.886249,52.629999 211.12875,52.84 C211.371251,53.0500011 211.566249,53.3074985 211.71375,53.6125 C211.861251,53.9175015 211.935,54.2924978 211.935,54.7375 C211.935,55.2075024 211.855001,55.6487479 211.695,56.06125 C211.534999,56.4737521 211.301252,56.8324985 210.99375,57.1375 C210.686248,57.4425015 210.308752,57.6824991 209.86125,57.8575 C209.413748,58.0325009 208.905003,58.12 208.335,58.12 C207.634996,58.12 207.000003,57.9937513 206.43,57.74125 C205.859997,57.4887487 205.372502,57.1475022 204.9675,56.7175 L205.3875,56.0275 C205.4275,55.9724997 205.47625,55.9262502 205.53375,55.88875 C205.59125,55.8512498 205.655,55.8325 205.725,55.8325 C205.79,55.8325 205.86375,55.8587497 205.94625,55.91125 C206.02875,55.9637503 206.122499,56.0299996 206.2275,56.11 C206.332501,56.1900004 206.452499,56.2774995 206.5875,56.3725 C206.722501,56.4675005 206.876249,56.5549996 207.04875,56.635 C207.221251,56.7150004 207.417499,56.7812497 207.6375,56.83375 C207.857501,56.8862503 208.104999,56.9125 208.38,56.9125 C208.725002,56.9125 209.032499,56.8650005 209.3025,56.77 C209.572501,56.6749995 209.801249,56.5412509 209.98875,56.36875 C210.176251,56.1962491 210.319999,55.9900012 210.42,55.75 C210.52,55.5099988 210.57,55.2425015 210.57,54.9475 C210.57,54.6224984 210.496251,54.356251 210.34875,54.14875 C210.201249,53.941249 210.007501,53.7675007 209.7675,53.6275 C209.527499,53.4874993 209.252502,53.3687505 208.9425,53.27125 C208.632498,53.1737495 208.317502,53.0737505 207.9975,52.97125 C207.677498,52.8687495 207.362502,52.7500007 207.0525,52.615 C206.742498,52.4799993 206.467501,52.3050011 206.2275,52.09 C205.987499,51.8749989 205.793751,51.6062516 205.64625,51.28375 C205.498749,50.9612484 205.425,50.5625024 205.425,50.0875 C205.425,49.7074981 205.498749,49.3400018 205.64625,48.985 C205.793751,48.6299982 206.008749,48.3150014 206.29125,48.04 C206.573751,47.7649986 206.921248,47.5450008 207.33375,47.38 C207.746252,47.2149992 208.219997,47.1325 208.755,47.1325 C209.355003,47.1325 209.901248,47.2274991 210.39375,47.4175 C210.886252,47.607501 211.319998,47.8824982 211.695,48.2425 L211.3425,48.9325 Z M216.87,50.2825 C217.425003,50.2825 217.924998,50.3749991 218.37,50.56 C218.815002,50.7450009 219.194998,51.0074983 219.51,51.3475 C219.825002,51.6875017 220.066249,52.0987476 220.23375,52.58125 C220.401251,53.0637524 220.485,53.602497 220.485,54.1975 C220.485,54.797503 220.401251,55.3374976 220.23375,55.8175 C220.066249,56.2975024 219.825002,56.7074983 219.51,57.0475 C219.194998,57.3875017 218.815002,57.6487491 218.37,57.83125 C217.924998,58.0137509 217.425003,58.105 216.87,58.105 C216.309997,58.105 215.806252,58.0137509 215.35875,57.83125 C214.911248,57.6487491 214.530002,57.3875017 214.215,57.0475 C213.899998,56.7074983 213.658751,56.2975024 213.49125,55.8175 C213.323749,55.3374976 213.24,54.797503 213.24,54.1975 C213.24,53.602497 213.323749,53.0637524 213.49125,52.58125 C213.658751,52.0987476 213.899998,51.6875017 214.215,51.3475 C214.530002,51.0074983 214.911248,50.7450009 215.35875,50.56 C215.806252,50.3749991 216.309997,50.2825 216.87,50.2825 Z M216.87,57.0625 C217.620004,57.0625 218.179998,56.8112525 218.55,56.30875 C218.920002,55.8062475 219.105,55.1050045 219.105,54.205 C219.105,53.2999955 218.920002,52.5950025 218.55,52.09 C218.179998,51.5849975 217.620004,51.3325 216.87,51.3325 C216.489998,51.3325 216.158751,51.3974994 215.87625,51.5275 C215.593749,51.6575007 215.358751,51.8449988 215.17125,52.09 C214.983749,52.3350012 214.84375,52.6362482 214.75125,52.99375 C214.65875,53.3512518 214.6125,53.7549978 214.6125,54.205 C214.6125,55.1050045 214.798748,55.8062475 215.17125,56.30875 C215.543752,56.8112525 216.109996,57.0625 216.87,57.0625 Z M225.375,50.2825 C225.930003,50.2825 226.429998,50.3749991 226.875,50.56 C227.320002,50.7450009 227.699998,51.0074983 228.015,51.3475 C228.330002,51.6875017 228.571249,52.0987476 228.73875,52.58125 C228.906251,53.0637524 228.99,53.602497 228.99,54.1975 C228.99,54.797503 228.906251,55.3374976 228.73875,55.8175 C228.571249,56.2975024 228.330002,56.7074983 228.015,57.0475 C227.699998,57.3875017 227.320002,57.6487491 226.875,57.83125 C226.429998,58.0137509 225.930003,58.105 225.375,58.105 C224.814997,58.105 224.311252,58.0137509 223.86375,57.83125 C223.416248,57.6487491 223.035002,57.3875017 222.72,57.0475 C222.404998,56.7074983 222.163751,56.2975024 221.99625,55.8175 C221.828749,55.3374976 221.745,54.797503 221.745,54.1975 C221.745,53.602497 221.828749,53.0637524 221.99625,52.58125 C222.163751,52.0987476 222.404998,51.6875017 222.72,51.3475 C223.035002,51.0074983 223.416248,50.7450009 223.86375,50.56 C224.311252,50.3749991 224.814997,50.2825 225.375,50.2825 Z M225.375,57.0625 C226.125004,57.0625 226.684998,56.8112525 227.055,56.30875 C227.425002,55.8062475 227.61,55.1050045 227.61,54.205 C227.61,53.2999955 227.425002,52.5950025 227.055,52.09 C226.684998,51.5849975 226.125004,51.3325 225.375,51.3325 C224.994998,51.3325 224.663751,51.3974994 224.38125,51.5275 C224.098749,51.6575007 223.863751,51.8449988 223.67625,52.09 C223.488749,52.3350012 223.34875,52.6362482 223.25625,52.99375 C223.16375,53.3512518 223.1175,53.7549978 223.1175,54.205 C223.1175,55.1050045 223.303748,55.8062475 223.67625,56.30875 C224.048752,56.8112525 224.614996,57.0625 225.375,57.0625 Z M231.9375,51.505 C232.102501,51.3199991 232.277499,51.1525008 232.4625,51.0025 C232.647501,50.8524993 232.843749,50.7237505 233.05125,50.61625 C233.258751,50.5087495 233.478749,50.4262503 233.71125,50.36875 C233.943751,50.3112497 234.194999,50.2825 234.465,50.2825 C234.880002,50.2825 235.246248,50.3512493 235.56375,50.48875 C235.881252,50.6262507 236.146249,50.8212487 236.35875,51.07375 C236.571251,51.3262513 236.732499,51.6299982 236.8425,51.985 C236.952501,52.3400018 237.0075,52.7324979 237.0075,53.1625 L237.0075,58 L235.665,58 L235.665,53.1625 C235.665,52.5874971 235.533751,52.1412516 235.27125,51.82375 C235.008749,51.5062484 234.610003,51.3475 234.075,51.3475 C233.679998,51.3475 233.311252,51.4424991 232.96875,51.6325 C232.626248,51.822501 232.310001,52.0799984 232.02,52.405 L232.02,58 L230.6775,58 L230.6775,50.4025 L231.48,50.4025 C231.670001,50.4025 231.7875,50.4949991 231.8325,50.68 L231.9375,51.505 Z" id="Sketch-Plugin-Coming" fill="#262626"></path>
                <g id="Sketch" transform="translate(61.000000, 15.000000)" stroke-width="2" stroke="#272727">
                    <polygon id="Path-2" points="27.5 50.5 55 18 43 1.5 28 0 12 1.5 0.5 17.5"></polygon>
                    <path d="M1,17.5 L55,18" id="Path-3"></path>
                    <polyline id="Path-4" points="27.5 50 11 18 12 2"></polyline>
                    <polyline id="Path-5" points="27.5 50 44 17.5 43 1.5"></polyline>
                    <polyline id="Path-6" points="11.5 17.5 27.5 1 43.5 17.5"></polyline>
                </g>
            </g>
        </g>
    </g>
</svg>