<?xml version="1.0" encoding="UTF-8"?>
<svg width="56px" height="15px" viewBox="0 0 56 15" version="1.1" xmlns="http://www.w3.org/2000/svg" xmlns:xlink="http://www.w3.org/1999/xlink">
    <!-- Generator: Sketch 42 (36781) - http://www.bohemiancoding.com/sketch -->
    <title>Support</title>
    <desc>Created with Sketch.</desc>
    <defs></defs>
    <g id="Website" stroke="none" stroke-width="1" fill="none" fill-rule="evenodd">
        <g id="Color" transform="translate(-1358.000000, -838.000000)" fill="#B597F1">
            <path d="M1365.16,840.328 C1365.112,840.408 1365.06,840.468 1365.004,840.508 C1364.948,840.548 1364.88,840.568 1364.8,840.568 C1364.70933,840.568 1364.60267,840.522667 1364.48,840.432 C1364.35733,840.341333 1364.204,840.241334 1364.02,840.132 C1363.836,840.022666 1363.61467,839.922667 1363.356,839.832 C1363.09733,839.741333 1362.784,839.696 1362.416,839.696 C1362.06933,839.696 1361.764,839.742666 1361.5,839.836 C1361.236,839.929334 1361.01467,840.055999 1360.836,840.216 C1360.65733,840.376001 1360.52267,840.563999 1360.432,840.78 C1360.34133,840.996001 1360.296,841.229332 1360.296,841.48 C1360.296,841.800002 1360.37467,842.065332 1360.532,842.276 C1360.68933,842.486668 1360.89733,842.666666 1361.156,842.816 C1361.41467,842.965334 1361.708,843.094666 1362.036,843.204 C1362.364,843.313334 1362.7,843.426666 1363.044,843.544 C1363.388,843.661334 1363.724,843.793333 1364.052,843.94 C1364.38,844.086667 1364.67333,844.271999 1364.932,844.496 C1365.19067,844.720001 1365.39867,844.994665 1365.556,845.32 C1365.71333,845.645335 1365.792,846.045331 1365.792,846.52 C1365.792,847.021336 1365.70667,847.491998 1365.536,847.932 C1365.36533,848.372002 1365.116,848.754665 1364.788,849.08 C1364.46,849.405335 1364.05734,849.661332 1363.58,849.848 C1363.10266,850.034668 1362.56,850.128 1361.952,850.128 C1361.20533,850.128 1360.528,849.993335 1359.92,849.724 C1359.312,849.454665 1358.792,849.090669 1358.36,848.632 L1358.808,847.896 C1358.85067,847.837333 1358.90267,847.788 1358.964,847.748 C1359.02533,847.708 1359.09333,847.688 1359.168,847.688 C1359.23733,847.688 1359.316,847.716 1359.404,847.772 C1359.492,847.828 1359.592,847.898666 1359.704,847.984 C1359.816,848.069334 1359.944,848.162666 1360.088,848.264 C1360.232,848.365334 1360.396,848.458666 1360.58,848.544 C1360.764,848.629334 1360.97333,848.7 1361.208,848.756 C1361.44267,848.812 1361.70667,848.84 1362,848.84 C1362.368,848.84 1362.696,848.789334 1362.984,848.688 C1363.272,848.586666 1363.516,848.444001 1363.716,848.26 C1363.916,848.075999 1364.06933,847.856001 1364.176,847.6 C1364.28267,847.343999 1364.336,847.058668 1364.336,846.744 C1364.336,846.397332 1364.25733,846.113334 1364.1,845.892 C1363.94267,845.670666 1363.736,845.485334 1363.48,845.336 C1363.224,845.186666 1362.93067,845.060001 1362.6,844.956 C1362.26933,844.851999 1361.93334,844.745334 1361.592,844.636 C1361.25066,844.526666 1360.91467,844.400001 1360.584,844.256 C1360.25333,844.111999 1359.96,843.925334 1359.704,843.696 C1359.448,843.466666 1359.24133,843.180002 1359.084,842.836 C1358.92667,842.491998 1358.848,842.066669 1358.848,841.56 C1358.848,841.154665 1358.92667,840.762669 1359.084,840.384 C1359.24133,840.005331 1359.47067,839.669335 1359.772,839.376 C1360.07333,839.082665 1360.444,838.848001 1360.884,838.672 C1361.324,838.495999 1361.82933,838.408 1362.4,838.408 C1363.04,838.408 1363.62266,838.509332 1364.148,838.712 C1364.67334,838.914668 1365.136,839.207998 1365.536,839.592 L1365.16,840.328 Z M1374.304,841.896 L1374.304,850 L1373.456,850 C1373.25333,850 1373.12533,849.901334 1373.072,849.704 L1372.96,848.832 C1372.608,849.221335 1372.21334,849.534665 1371.776,849.772 C1371.33866,850.009335 1370.83734,850.128 1370.272,850.128 C1369.82933,850.128 1369.43867,850.054667 1369.1,849.908 C1368.76133,849.761333 1368.47733,849.554668 1368.248,849.288 C1368.01867,849.021332 1367.84667,848.698669 1367.732,848.32 C1367.61733,847.941331 1367.56,847.522669 1367.56,847.064 L1367.56,841.896 L1368.984,841.896 L1368.984,847.064 C1368.984,847.677336 1369.124,848.151998 1369.404,848.488 C1369.684,848.824002 1370.112,848.992 1370.688,848.992 C1371.10934,848.992 1371.50266,848.892001 1371.868,848.692 C1372.23334,848.491999 1372.57067,848.216002 1372.88,847.864 L1372.88,841.896 L1374.304,841.896 Z M1377.992,848.048 C1378.25333,848.400002 1378.53867,848.647999 1378.848,848.792 C1379.15733,848.936001 1379.504,849.008 1379.888,849.008 C1380.64534,849.008 1381.22666,848.738669 1381.632,848.2 C1382.03734,847.661331 1382.24,846.893338 1382.24,845.896 C1382.24,845.367997 1382.19333,844.914669 1382.1,844.536 C1382.00667,844.157331 1381.872,843.846668 1381.696,843.604 C1381.52,843.361332 1381.304,843.184001 1381.048,843.072 C1380.792,842.959999 1380.50133,842.904 1380.176,842.904 C1379.712,842.904 1379.30534,843.010666 1378.956,843.224 C1378.60666,843.437334 1378.28533,843.738665 1377.992,844.128 L1377.992,848.048 Z M1377.92,843.152 C1378.26134,842.730665 1378.656,842.392001 1379.104,842.136 C1379.552,841.879999 1380.064,841.752 1380.64,841.752 C1381.10934,841.752 1381.53333,841.841332 1381.912,842.02 C1382.29067,842.198668 1382.61333,842.462665 1382.88,842.812 C1383.14667,843.161335 1383.352,843.594664 1383.496,844.112 C1383.64,844.629336 1383.712,845.223997 1383.712,845.896 C1383.712,846.493336 1383.632,847.049331 1383.472,847.564 C1383.312,848.078669 1383.08133,848.523998 1382.78,848.9 C1382.47867,849.276002 1382.11067,849.571999 1381.676,849.788 C1381.24133,850.004001 1380.752,850.112 1380.208,850.112 C1379.712,850.112 1379.28667,850.028001 1378.932,849.86 C1378.57733,849.691999 1378.264,849.458668 1377.992,849.16 L1377.992,852.744 L1376.56,852.744 L1376.56,841.896 L1377.416,841.896 C1377.61867,841.896 1377.744,841.994666 1377.792,842.192 L1377.92,843.152 Z M1386.96,848.048 C1387.22133,848.400002 1387.50667,848.647999 1387.816,848.792 C1388.12533,848.936001 1388.472,849.008 1388.856,849.008 C1389.61334,849.008 1390.19466,848.738669 1390.6,848.2 C1391.00534,847.661331 1391.208,846.893338 1391.208,845.896 C1391.208,845.367997 1391.16133,844.914669 1391.068,844.536 C1390.97467,844.157331 1390.84,843.846668 1390.664,843.604 C1390.488,843.361332 1390.272,843.184001 1390.016,843.072 C1389.76,842.959999 1389.46933,842.904 1389.144,842.904 C1388.68,842.904 1388.27334,843.010666 1387.924,843.224 C1387.57466,843.437334 1387.25333,843.738665 1386.96,844.128 L1386.96,848.048 Z M1386.888,843.152 C1387.22934,842.730665 1387.624,842.392001 1388.072,842.136 C1388.52,841.879999 1389.032,841.752 1389.608,841.752 C1390.07734,841.752 1390.50133,841.841332 1390.88,842.02 C1391.25867,842.198668 1391.58133,842.462665 1391.848,842.812 C1392.11467,843.161335 1392.32,843.594664 1392.464,844.112 C1392.608,844.629336 1392.68,845.223997 1392.68,845.896 C1392.68,846.493336 1392.6,847.049331 1392.44,847.564 C1392.28,848.078669 1392.04933,848.523998 1391.748,848.9 C1391.44667,849.276002 1391.07867,849.571999 1390.644,849.788 C1390.20933,850.004001 1389.72,850.112 1389.176,850.112 C1388.68,850.112 1388.25467,850.028001 1387.9,849.86 C1387.54533,849.691999 1387.232,849.458668 1386.96,849.16 L1386.96,852.744 L1385.528,852.744 L1385.528,841.896 L1386.384,841.896 C1386.58667,841.896 1386.712,841.994666 1386.76,842.192 L1386.888,843.152 Z M1397.912,841.768 C1398.504,841.768 1399.03733,841.866666 1399.512,842.064 C1399.98667,842.261334 1400.392,842.541332 1400.728,842.904 C1401.064,843.266668 1401.32133,843.705331 1401.5,844.22 C1401.67867,844.734669 1401.768,845.30933 1401.768,845.944 C1401.768,846.584003 1401.67867,847.159997 1401.5,847.672 C1401.32133,848.184003 1401.064,848.621332 1400.728,848.984 C1400.392,849.346668 1399.98667,849.625332 1399.512,849.82 C1399.03733,850.014668 1398.504,850.112 1397.912,850.112 C1397.31466,850.112 1396.77734,850.014668 1396.3,849.82 C1395.82266,849.625332 1395.416,849.346668 1395.08,848.984 C1394.744,848.621332 1394.48667,848.184003 1394.308,847.672 C1394.12933,847.159997 1394.04,846.584003 1394.04,845.944 C1394.04,845.30933 1394.12933,844.734669 1394.308,844.22 C1394.48667,843.705331 1394.744,843.266668 1395.08,842.904 C1395.416,842.541332 1395.82266,842.261334 1396.3,842.064 C1396.77734,841.866666 1397.31466,841.768 1397.912,841.768 Z M1397.912,849 C1398.712,849 1399.30933,848.732003 1399.704,848.196 C1400.09867,847.659997 1400.296,846.912005 1400.296,845.952 C1400.296,844.986662 1400.09867,844.234669 1399.704,843.696 C1399.30933,843.157331 1398.712,842.888 1397.912,842.888 C1397.50666,842.888 1397.15333,842.957333 1396.852,843.096 C1396.55067,843.234667 1396.3,843.434665 1396.1,843.696 C1395.9,843.957335 1395.75067,844.278665 1395.652,844.66 C1395.55333,845.041335 1395.504,845.471998 1395.504,845.952 C1395.504,846.912005 1395.70266,847.659997 1396.1,848.196 C1396.49734,848.732003 1397.10133,849 1397.912,849 Z M1404.92,843.52 C1405.176,842.965331 1405.49066,842.532002 1405.864,842.22 C1406.23734,841.907998 1406.69333,841.752 1407.232,841.752 C1407.40267,841.752 1407.56667,841.770666 1407.724,841.808 C1407.88133,841.845334 1408.02133,841.904 1408.144,841.984 L1408.04,843.048 C1408.008,843.181334 1407.928,843.248 1407.8,843.248 C1407.72533,843.248 1407.616,843.232 1407.472,843.2 C1407.328,843.168 1407.16533,843.152 1406.984,843.152 C1406.728,843.152 1406.5,843.189333 1406.3,843.264 C1406.1,843.338667 1405.92133,843.449333 1405.764,843.596 C1405.60667,843.742667 1405.46533,843.923999 1405.34,844.14 C1405.21467,844.356001 1405.10133,844.602665 1405,844.88 L1405,850 L1403.568,850 L1403.568,841.896 L1404.384,841.896 C1404.53867,841.896 1404.64533,841.925333 1404.704,841.984 C1404.76267,842.042667 1404.80267,842.143999 1404.824,842.288 L1404.92,843.52 Z M1411.88,850.128 C1411.24,850.128 1410.748,849.949335 1410.404,849.592 C1410.06,849.234665 1409.888,848.720003 1409.888,848.048 L1409.888,843.088 L1408.912,843.088 C1408.82667,843.088 1408.75467,843.062667 1408.696,843.012 C1408.63733,842.961333 1408.608,842.882667 1408.608,842.776 L1408.608,842.208 L1409.936,842.04 L1410.264,839.536 C1410.28,839.456 1410.316,839.390667 1410.372,839.34 C1410.428,839.289333 1410.50133,839.264 1410.592,839.264 L1411.312,839.264 L1411.312,842.056 L1413.656,842.056 L1413.656,843.088 L1411.312,843.088 L1411.312,847.952 C1411.312,848.293335 1411.39467,848.546666 1411.56,848.712 C1411.72533,848.877334 1411.93867,848.96 1412.2,848.96 C1412.34933,848.96 1412.47867,848.94 1412.588,848.9 C1412.69733,848.86 1412.792,848.816 1412.872,848.768 C1412.952,848.72 1413.02,848.676 1413.076,848.636 C1413.132,848.596 1413.18133,848.576 1413.224,848.576 C1413.29867,848.576 1413.36533,848.621333 1413.424,848.712 L1413.84,849.392 C1413.59467,849.621334 1413.29867,849.801333 1412.952,849.932 C1412.60533,850.062667 1412.248,850.128 1411.88,850.128 Z" id="Support"></path>
        </g>
    </g>
</svg>