<?xml version="1.0" encoding="UTF-8"?>
<svg width="370px" height="66px" viewBox="0 0 370 66" version="1.1" xmlns="http://www.w3.org/2000/svg" xmlns:xlink="http://www.w3.org/1999/xlink">
    <!-- Generator: Sketch 42 (36781) - http://www.bohemiancoding.com/sketch -->
    <title>Mac App</title>
    <desc>Created with Sketch.</desc>
    <defs></defs>
    <g id="Website" stroke="none" stroke-width="1" fill="none" fill-rule="evenodd">
        <g id="Color" transform="translate(-535.000000, -480.000000)">
            <g id="Mac-App" transform="translate(535.000000, 480.000000)">
                <rect id="Rectangle-3" fill="#5654F1" x="0" y="0" width="370" height="66" rx="33"></rect>
                <path d="M152.646,39.856 C152.795334,39.856 152.925999,39.9166661 153.038,40.038 L154.116,41.2 C153.294663,42.1520048 152.298339,42.8939973 151.127,43.426 C149.955661,43.9580027 148.539342,44.224 146.878,44.224 C145.440659,44.224 144.134006,43.9743358 142.958,43.475 C141.781994,42.9756642 140.778671,42.2756712 139.948,41.375 C139.117329,40.4743288 138.473336,39.3940063 138.016,38.134 C137.558664,36.8739937 137.33,35.4880076 137.33,33.976 C137.33,32.4639924 137.567998,31.0780063 138.044,29.818 C138.520002,28.5579937 139.189662,27.4753379 140.053,26.57 C140.916338,25.6646621 141.949994,24.9623358 143.154,24.463 C144.358006,23.9636642 145.687993,23.714 147.144,23.714 C148.572007,23.714 149.831995,23.9426644 150.924,24.4 C152.016005,24.8573356 152.977329,25.4779961 153.808,26.262 L152.912,27.508 C152.856,27.6013338 152.783667,27.678333 152.695,27.739 C152.606333,27.799667 152.487334,27.83 152.338,27.83 C152.169999,27.83 151.964668,27.7390009 151.722,27.557 C151.479332,27.3749991 151.162002,27.1720011 150.77,26.948 C150.377998,26.7239989 149.888003,26.5210009 149.3,26.339 C148.711997,26.1569991 147.988671,26.066 147.13,26.066 C146.093995,26.066 145.146671,26.2456649 144.288,26.605 C143.429329,26.9643351 142.68967,27.4846633 142.069,28.166 C141.44833,28.8473367 140.965335,29.6779951 140.62,30.658 C140.274665,31.6380049 140.102,32.7439938 140.102,33.976 C140.102,35.2266729 140.281665,36.3419951 140.641,37.322 C141.000335,38.3020049 141.49033,39.13033 142.111,39.807 C142.73167,40.4836701 143.464329,40.9993316 144.309,41.354 C145.153671,41.7086684 146.065995,41.886 147.046,41.886 C147.643336,41.886 148.182331,41.8510003 148.663,41.781 C149.143669,41.7109996 149.586998,41.6013341 149.993,41.452 C150.399002,41.3026659 150.776998,41.1136678 151.127,40.885 C151.477002,40.6563322 151.824665,40.3833349 152.17,40.066 C152.328667,39.9259993 152.487333,39.856 152.646,39.856 Z M162.656,29.594 C163.692005,29.594 164.625329,29.7666649 165.456,30.112 C166.286671,30.4573351 166.995997,30.9473302 167.584,31.582 C168.172003,32.2166698 168.622332,32.9843288 168.935,33.885 C169.247668,34.7856712 169.404,35.7913278 169.404,36.902 C169.404,38.0220056 169.247668,39.0299955 168.935,39.926 C168.622332,40.8220045 168.172003,41.5873302 167.584,42.222 C166.995997,42.8566698 166.286671,43.3443316 165.456,43.685 C164.625329,44.0256684 163.692005,44.196 162.656,44.196 C161.610661,44.196 160.670338,44.0256684 159.835,43.685 C158.999662,43.3443316 158.288003,42.8566698 157.7,42.222 C157.111997,41.5873302 156.661668,40.8220045 156.349,39.926 C156.036332,39.0299955 155.88,38.0220056 155.88,36.902 C155.88,35.7913278 156.036332,34.7856712 156.349,33.885 C156.661668,32.9843288 157.111997,32.2166698 157.7,31.582 C158.288003,30.9473302 158.999662,30.4573351 159.835,30.112 C160.670338,29.7666649 161.610661,29.594 162.656,29.594 Z M162.656,42.25 C164.056007,42.25 165.10133,41.7810047 165.792,40.843 C166.48267,39.9049953 166.828,38.5960084 166.828,36.916 C166.828,35.2266582 166.48267,33.9106714 165.792,32.968 C165.10133,32.0253286 164.056007,31.554 162.656,31.554 C161.946663,31.554 161.328336,31.6753321 160.801,31.918 C160.273664,32.1606679 159.835002,32.5106644 159.485,32.968 C159.134998,33.4253356 158.873668,33.9876633 158.701,34.655 C158.528332,35.3223367 158.442,36.0759958 158.442,36.916 C158.442,38.5960084 158.789663,39.9049953 159.485,40.843 C160.180337,41.7810047 161.237326,42.25 162.656,42.25 Z M174.906,31.876 C175.214002,31.5306649 175.540665,31.2180014 175.886,30.938 C176.231335,30.6579986 176.597665,30.4176677 176.985,30.217 C177.372335,30.0163323 177.782998,29.8623339 178.217,29.755 C178.651002,29.6476661 179.119997,29.594 179.624,29.594 C180.398671,29.594 181.08233,29.722332 181.675,29.979 C182.26767,30.2356679 182.762331,30.5996643 183.159,31.071 C183.555669,31.5423357 183.856666,32.10933 184.062,32.772 C184.267334,33.43467 184.37,34.1673293 184.37,34.97 L184.37,44 L181.864,44 L181.864,34.97 C181.864,33.8966613 181.619002,33.0636696 181.129,32.471 C180.638998,31.8783304 179.894672,31.582 178.896,31.582 C178.158663,31.582 177.470337,31.7593316 176.831,32.114 C176.191663,32.4686684 175.601336,32.9493303 175.06,33.556 L175.06,44 L172.554,44 L172.554,29.818 L174.052,29.818 C174.406668,29.818 174.626,29.9906649 174.71,30.336 L174.906,31.876 Z M192.532,44.224 C191.411994,44.224 190.551003,43.9113365 189.949,43.286 C189.346997,42.6606635 189.046,41.7600059 189.046,40.584 L189.046,31.904 L187.338,31.904 C187.188666,31.904 187.062667,31.8596671 186.96,31.771 C186.857333,31.6823329 186.806,31.5446676 186.806,31.358 L186.806,30.364 L189.13,30.07 L189.704,25.688 C189.732,25.5479993 189.795,25.4336671 189.893,25.345 C189.991,25.2563329 190.119333,25.212 190.278,25.212 L191.538,25.212 L191.538,30.098 L195.64,30.098 L195.64,31.904 L191.538,31.904 L191.538,40.416 C191.538,41.0133363 191.682665,41.4566652 191.972,41.746 C192.261335,42.0353348 192.634664,42.18 193.092,42.18 C193.353335,42.18 193.579666,42.1450004 193.771,42.075 C193.962334,42.0049997 194.127999,41.9280004 194.268,41.844 C194.408001,41.7599996 194.527,41.6830004 194.625,41.613 C194.723,41.5429996 194.809333,41.508 194.884,41.508 C195.014667,41.508 195.131333,41.5873325 195.234,41.746 L195.962,42.936 C195.532665,43.3373353 195.01467,43.6523322 194.408,43.881 C193.80133,44.1096678 193.176003,44.224 192.532,44.224 Z M205.902,37.616 C204.753994,37.6533335 203.776337,37.7443326 202.969,37.889 C202.161663,38.0336674 201.503669,38.2226655 200.995,38.456 C200.486331,38.6893345 200.117668,38.9646651 199.889,39.282 C199.660332,39.5993349 199.546,39.953998 199.546,40.346 C199.546,40.7193352 199.606666,41.041332 199.728,41.312 C199.849334,41.582668 200.014999,41.8043325 200.225,41.977 C200.435001,42.1496675 200.682332,42.2756663 200.967,42.355 C201.251668,42.4343337 201.557332,42.474 201.884,42.474 C202.322669,42.474 202.723998,42.4296671 203.088,42.341 C203.452002,42.2523329 203.794998,42.1240008 204.117,41.956 C204.439002,41.7879992 204.746999,41.5873345 205.041,41.354 C205.335001,41.1206655 205.621999,40.8546682 205.902,40.556 L205.902,37.616 Z M197.852,31.82 C198.636004,31.0639962 199.480662,30.4993352 200.386,30.126 C201.291338,29.7526648 202.294661,29.566 203.396,29.566 C204.189337,29.566 204.893997,29.6966654 205.51,29.958 C206.126003,30.2193346 206.643998,30.583331 207.064,31.05 C207.484002,31.516669 207.801332,32.08133 208.016,32.744 C208.230668,33.40667 208.338,34.1346627 208.338,34.928 L208.338,44 L207.232,44 C206.989332,44 206.802667,43.9603337 206.672,43.881 C206.541333,43.8016663 206.438667,43.6453345 206.364,43.412 L206.084,42.068 C205.710665,42.4133351 205.346668,42.7189987 204.992,42.985 C204.637332,43.2510013 204.264002,43.4749991 203.872,43.657 C203.479998,43.8390009 203.062336,43.9789995 202.619,44.077 C202.175664,44.1750005 201.683336,44.224 201.142,44.224 C200.591331,44.224 200.073336,44.1470008 199.588,43.993 C199.102664,43.8389992 198.680335,43.6080015 198.321,43.3 C197.961665,42.9919985 197.677001,42.6023357 197.467,42.131 C197.256999,41.6596643 197.152,41.1020032 197.152,40.458 C197.152,39.8979972 197.305998,39.3590026 197.614,38.841 C197.922002,38.3229974 198.42133,37.8633353 199.112,37.462 C199.80267,37.0606647 200.703328,36.731668 201.814,36.475 C202.924672,36.2183321 204.287325,36.0713335 205.902,36.034 L205.902,34.928 C205.902,33.8266612 205.664002,32.9936695 205.188,32.429 C204.711998,31.8643305 204.016671,31.582 203.102,31.582 C202.485997,31.582 201.970335,31.6589992 201.555,31.813 C201.139665,31.9670008 200.780335,32.1396657 200.477,32.331 C200.173665,32.5223343 199.912334,32.6949992 199.693,32.849 C199.473666,33.0030008 199.256668,33.08 199.042,33.08 C198.873999,33.08 198.729334,33.0356671 198.608,32.947 C198.486666,32.8583329 198.384,32.7486673 198.3,32.618 L197.852,31.82 Z M222.002,32.338 C221.927333,32.4406672 221.852667,32.5199997 221.778,32.576 C221.703333,32.6320003 221.600667,32.66 221.47,32.66 C221.329999,32.66 221.176001,32.6016672 221.008,32.485 C220.839999,32.3683328 220.632335,32.2400007 220.385,32.1 C220.137665,31.9599993 219.834335,31.8316673 219.475,31.715 C219.115665,31.5983327 218.674669,31.54 218.152,31.54 C217.451996,31.54 216.836003,31.6636654 216.304,31.911 C215.771997,32.1583346 215.326335,32.515331 214.967,32.982 C214.607665,33.448669 214.337001,34.01333 214.155,34.676 C213.972999,35.33867 213.882,36.0806626 213.882,36.902 C213.882,37.760671 213.979999,38.5236633 214.176,39.191 C214.372001,39.8583367 214.649665,40.4183311 215.009,40.871 C215.368335,41.3236689 215.802331,41.6689988 216.311,41.907 C216.819669,42.1450012 217.39133,42.264 218.026,42.264 C218.63267,42.264 219.131998,42.1916674 219.524,42.047 C219.916002,41.9023326 220.240332,41.7413342 220.497,41.564 C220.753668,41.3866658 220.968332,41.2256674 221.141,41.081 C221.313668,40.9363326 221.483999,40.864 221.652,40.864 C221.857334,40.864 222.015999,40.9433325 222.128,41.102 L222.828,42.012 C222.519998,42.3946686 222.170002,42.721332 221.778,42.992 C221.385998,43.262668 220.963669,43.4889991 220.511,43.671 C220.058331,43.8530009 219.584669,43.9859996 219.09,44.07 C218.595331,44.1540004 218.091336,44.196 217.578,44.196 C216.691329,44.196 215.86767,44.0326683 215.107,43.706 C214.34633,43.3793317 213.686003,42.9056698 213.126,42.285 C212.565997,41.6643302 212.127335,40.9013379 211.81,39.996 C211.492665,39.0906621 211.334,38.0593391 211.334,36.902 C211.334,35.8473281 211.480999,34.8720045 211.775,33.976 C212.069001,33.0799955 212.498331,32.3076699 213.063,31.659 C213.627669,31.0103301 214.322996,30.5040018 215.149,30.14 C215.975004,29.7759982 216.924661,29.594 217.998,29.594 C218.996672,29.594 219.87633,29.7549984 220.637,30.077 C221.39767,30.3990016 222.071997,30.8539971 222.66,31.442 L222.002,32.338 Z M229.856,44.224 C228.735994,44.224 227.875003,43.9113365 227.273,43.286 C226.670997,42.6606635 226.37,41.7600059 226.37,40.584 L226.37,31.904 L224.662,31.904 C224.512666,31.904 224.386667,31.8596671 224.284,31.771 C224.181333,31.6823329 224.13,31.5446676 224.13,31.358 L224.13,30.364 L226.454,30.07 L227.028,25.688 C227.056,25.5479993 227.119,25.4336671 227.217,25.345 C227.315,25.2563329 227.443333,25.212 227.602,25.212 L228.862,25.212 L228.862,30.098 L232.964,30.098 L232.964,31.904 L228.862,31.904 L228.862,40.416 C228.862,41.0133363 229.006665,41.4566652 229.296,41.746 C229.585335,42.0353348 229.958664,42.18 230.416,42.18 C230.677335,42.18 230.903666,42.1450004 231.095,42.075 C231.286334,42.0049997 231.451999,41.9280004 231.592,41.844 C231.732001,41.7599996 231.851,41.6830004 231.949,41.613 C232.047,41.5429996 232.133333,41.508 232.208,41.508 C232.338667,41.508 232.455333,41.5873325 232.558,41.746 L233.286,42.936 C232.856665,43.3373353 232.33867,43.6523322 231.732,43.881 C231.12533,44.1096678 230.500003,44.224 229.856,44.224 Z" id="Contact" fill="#E8E8E8"></path>
            </g>
        </g>
    </g>
</svg>