<?xml version="1.0" encoding="UTF-8" standalone="no"?>
<svg width="518px" height="294px" viewBox="0 0 518 294" version="1.1" xmlns="http://www.w3.org/2000/svg" xmlns:xlink="http://www.w3.org/1999/xlink">
    <!-- Generator: Sketch 3.6 (26304) - http://www.bohemiancoding.com/sketch -->
    <title>Transparent</title>
    <desc>Created with Sketch.</desc>
    <defs></defs>
    <g id="Page-1" stroke="none" stroke-width="1" fill="none" fill-rule="evenodd">
        <g id="robotics" transform="translate(-20.000000, -324.000000)" fill="#252222">
            <g id="Page-1">
                <g id="Logo">
                    <path d="M41.3671058,589.296549 L41.5732744,557.165543 C41.5732744,557.165543 33.2216057,567.941534 33.2216057,572.760724 C33.2216056,577.579914 41.3671058,589.296549 41.3671058,589.296549 L41.3671058,589.296549 L41.3671058,589.296549 L41.3671058,589.296549 L41.3671058,589.296549 Z M20.4409938,449.696483 C20.4409938,449.696483 19.0357372,550.574336 24.1741178,551.670779 C29.3124985,552.767222 40.5111383,528.568854 43.7085929,521.975139 C46.9060475,515.381424 51.5227497,469.124191 51.5227497,469.124191 L20.4409938,449.696483 L20.4409938,449.696483 L20.4409938,449.696483 L20.4409938,449.696483 L20.4409938,449.696483 Z M66.5031068,478.272922 C64.2714041,479.995036 63.1376036,502.201166 65.143228,504.556615 C67.1488524,506.912065 86.0423156,491.557487 85.7301688,488.058567 C85.4180219,484.559647 68.7348095,476.550808 66.5031068,478.272922 L66.5031068,478.272922 L66.5031068,478.272922 L66.5031068,478.272922 L66.5031068,478.272922 Z M31.1102184,431.855536 C37.0197126,442.41889 56.2038812,448.96937 56.2038812,448.96937 L66.0318643,431.855536 C66.0318643,431.855536 45.1611977,417.904181 38.8249734,417.904181 C32.4887491,417.904182 25.2007241,421.292183 31.1102184,431.855536 L31.1102184,431.855536 L31.1102184,431.855536 L31.1102184,431.855536 L31.1102184,431.855536 Z M82.9395296,439.062233 L72.6200553,458.740289 L110.188759,474.84721 L122.006637,455.356915 L82.9395296,439.062233 L82.9395296,439.062233 L82.9395296,439.062233 L82.9395296,439.062233 L82.9395296,439.062233 Z M61.0357078,527.817942 C59.117951,532.125955 59.0967864,602.28883 59.0967864,602.28883 C84.6857261,614.518755 204.705246,626.888177 232.209854,606.744722 C259.714462,586.601267 275.053455,568.892955 278.327182,531.512765 L107.682169,493.491785 C107.682169,493.491785 62.9534646,523.509928 61.0357078,527.817942 L61.0357078,527.817942 L61.0357078,527.817942 L61.0357078,527.817942 L61.0357078,527.817942 Z M137.302828,396.355858 L129.347633,437.377214 C129.347633,437.377214 72.1994097,424.663823 60.0937695,409.844505 C75.8728573,393.782979 137.302828,396.355858 137.302828,396.355858 L137.302828,396.355858 L137.302828,396.355858 L137.302828,396.355858 L137.302828,396.355858 Z M158.276806,398.846614 L146.370181,444.426032 L217.444591,458.032281 C213.300677,453.963978 200.401993,445.818903 202.96055,398.303025 L158.276806,398.846614 L158.276806,398.846614 L158.276806,398.846614 L158.276806,398.846614 L158.276806,398.846614 Z M321.557182,324.114534 C321.557182,324.114534 370.270398,352.952087 344.504669,374.929129 C336.116231,385.528266 279.82648,355.030479 321.557182,324.114534 L321.557182,324.114534 L321.557182,324.114534 L321.557182,324.114534 L321.557182,324.114534 Z M60.5116675,371.115057 C53.9886438,373.145226 39.6018336,381.586202 39.6018336,381.586202 C39.6018336,381.586202 37.9579907,387.209435 38.0898086,390.032309 C38.1968189,392.323929 40.3183181,396.929685 40.3183181,396.929685 C40.3183181,396.929685 55.0888638,390.893944 62.6907419,388.805027 C70.7332261,386.595037 87.2514053,384.032963 87.2514053,384.032963 C87.2514053,384.032963 87.3589457,376.705557 87.2514052,375.009179 C87.0009266,371.058051 86.1773481,367.090447 86.1773481,367.090447 C86.1773481,367.090447 69.5138153,368.313307 60.5116675,371.115057 L60.5116675,371.115057 L60.5116675,371.115057 L60.5116675,371.115057 L60.5116675,371.115057 Z M480.423722,456.349863 C482.145134,456.349863 537.265365,479.447421 537.265366,483.70032 C537.265366,487.953218 497.423638,499.892755 488.874997,493.393972 C480.326357,486.895188 478.702309,456.349863 480.423722,456.349863 L480.423722,456.349863 L480.423722,456.349863 L480.423722,456.349863 L480.423722,456.349863 Z M138.60689,460.466951 L126.952842,475.91671 C126.952842,475.91671 244.262777,513.323423 285.130172,509.590299 L292.493336,497.437397 C292.493336,497.437397 265.197044,496.656717 260.088615,494.724065 C254.980186,492.791414 234.613344,477.411432 234.613344,477.411432 C234.613344,477.411432 149.736312,471.852243 138.60689,460.466951 L138.60689,460.466951 L138.60689,460.466951 L138.60689,460.466951 L138.60689,460.466951 Z" id="Transparent"></path>
                </g>
            </g>
        </g>
    </g>
</svg>