<?xml version="1.0" encoding="UTF-8"?>
<svg width="30px" height="31px" viewBox="0 0 30 31" version="1.1" xmlns="http://www.w3.org/2000/svg" xmlns:xlink="http://www.w3.org/1999/xlink">
    <!-- Generator: Sketch 42 (36781) - http://www.bohemiancoding.com/sketch -->
    <title>Clipboard</title>
    <desc>Created with Sketch.</desc>
    <defs>
        <rect id="path-1" x="0" y="0" width="30" height="30.0722892" rx="4.17721519"></rect>
        <mask id="mask-2" maskContentUnits="userSpaceOnUse" maskUnits="objectBoundingBox" x="0" y="0" width="30" height="30.0722892" fill="white">
            <use xlink:href="#path-1"></use>
        </mask>
    </defs>
    <g id="Website" stroke="none" stroke-width="1" fill="none" fill-rule="evenodd">
        <g id="Desktop-HD" transform="translate(-60.000000, -630.000000)">
            <g id="Information" transform="translate(60.000000, 554.000000)">
                <g id="Formats" transform="translate(0.000000, 73.236145)">
                    <g id="Clipboard" transform="translate(0.000000, 3.508434)">
                        <use id="Rectangle-2" stroke="#EBEBEB" mask="url(#mask-2)" stroke-width="1.51898734" xlink:href="#path-1"></use>
                        <g id="clipboard" transform="translate(9.500000, 8.019277)" fill-rule="nonzero" fill="#F3F3F3">
                            <path d="M9.16666667,1.23023001 L8.44906944,1.23023001 C8.19683333,0.513928587 7.52018056,0 6.72222222,0 L4.27777778,0 C3.47981944,0 2.80316667,0.513928587 2.55093056,1.23023001 L1.83333333,1.23023001 C0.820416667,1.23023001 0,2.05602191 0,3.07557503 L0,11.6871851 C0,12.7067382 0.820416667,13.5325301 1.83333333,13.5325301 L9.16666667,13.5325301 C10.1795833,13.5325301 11,12.7067382 11,11.6871851 L11,3.07557503 C11,2.05602191 10.1795833,1.23023001 9.16666667,1.23023001 Z M4.27777778,1.23023001 L6.72222222,1.23023001 C7.05970833,1.23023001 7.33333333,1.50564775 7.33333333,1.84534502 C7.33333333,2.18504228 7.05970833,2.46046002 6.72222222,2.46046002 L4.27777778,2.46046002 C3.94029167,2.46046002 3.66666667,2.18504228 3.66666667,1.84534502 C3.66666667,1.50564775 3.94029167,1.23023001 4.27777778,1.23023001 Z M9.77777778,11.6871851 C9.77777778,12.0270361 9.50430556,12.3023001 9.16666667,12.3023001 L1.83333333,12.3023001 C1.49569444,12.3023001 1.22222222,12.0270361 1.22222222,11.6871851 L1.22222222,3.07557503 C1.22222222,2.73572399 1.49569444,2.46046002 1.83333333,2.46046002 L2.55093056,2.46046002 C2.80270833,3.17676145 3.47981944,3.69069003 4.27777778,3.69069003 L6.72222222,3.69069003 C7.52018056,3.69069003 8.19683333,3.17676145 8.44906944,2.46046002 L9.16666667,2.46046002 C9.50430556,2.46046002 9.77777778,2.73572399 9.77777778,3.07557503 L9.77777778,11.6871851 Z" id="Shape"></path>
                        </g>
                    </g>
                </g>
            </g>
        </g>
    </g>
</svg>