<?xml version="1.0" encoding="UTF-8"?>
<svg width="391px" height="68px" viewBox="0 0 391 68" version="1.1" xmlns="http://www.w3.org/2000/svg" xmlns:xlink="http://www.w3.org/1999/xlink">
    <!-- Generator: Sketch 42 (36781) - http://www.bohemiancoding.com/sketch -->
    <title>Formats</title>
    <desc>Created with Sketch.</desc>
    <defs>
        <rect id="path-1" x="0" y="0" width="60" height="60" rx="8.35443038"></rect>
        <mask id="mask-2" maskContentUnits="userSpaceOnUse" maskUnits="objectBoundingBox" x="0" y="0" width="60" height="60" fill="white">
            <use xlink:href="#path-1"></use>
        </mask>
    </defs>
    <g id="Website" stroke="none" stroke-width="1" fill="none" fill-rule="evenodd">
        <g id="Desktop-HD" transform="translate(-968.000000, -626.000000)">
            <g id="Information" transform="translate(968.000000, 423.000000)">
                <g id="Formats" transform="translate(0.000000, 196.000000)">
                    <text id="Multiple-color-forma" font-family="Lato-Light, Lato" font-size="26" font-weight="300" fill="#E8E8E8">
                        <tspan x="80" y="26">Multiple color formats</tspan>
                    </text>
                    <text id="Instantly-get-the-co" font-family="Lato-Light, Lato" font-size="16" font-weight="300" fill="#E8E8E8">
                        <tspan x="80" y="55">Instantly get the color in hex, rgb, Swift code, </tspan>
                        <tspan x="80" y="74">and more!</tspan>
                    </text>
                    <g id="Clipboard" transform="translate(0.000000, 7.000000)">
                        <use id="Rectangle-2" stroke="#EBEBEB" mask="url(#mask-2)" stroke-width="3.03797468" xlink:href="#path-1"></use>
                        <g id="clipboard" transform="translate(19.000000, 16.000000)" fill-rule="nonzero" fill="#F3F3F3">
                            <path d="M18.3333333,2.45454545 L16.8981389,2.45454545 C16.3936667,1.02538636 15.0403611,0 13.4444444,0 L8.55555556,0 C6.95963889,0 5.60633333,1.02538636 5.10186111,2.45454545 L3.66666667,2.45454545 C1.64083333,2.45454545 0,4.10215909 0,6.13636364 L0,23.3181818 C0,25.3523864 1.64083333,27 3.66666667,27 L18.3333333,27 C20.3591667,27 22,25.3523864 22,23.3181818 L22,6.13636364 C22,4.10215909 20.3591667,2.45454545 18.3333333,2.45454545 Z M8.55555556,2.45454545 L13.4444444,2.45454545 C14.1194167,2.45454545 14.6666667,3.00405682 14.6666667,3.68181818 C14.6666667,4.35957955 14.1194167,4.90909091 13.4444444,4.90909091 L8.55555556,4.90909091 C7.88058333,4.90909091 7.33333333,4.35957955 7.33333333,3.68181818 C7.33333333,3.00405682 7.88058333,2.45454545 8.55555556,2.45454545 Z M19.5555556,23.3181818 C19.5555556,23.99625 19.0086111,24.5454545 18.3333333,24.5454545 L3.66666667,24.5454545 C2.99138889,24.5454545 2.44444444,23.99625 2.44444444,23.3181818 L2.44444444,6.13636364 C2.44444444,5.45829545 2.99138889,4.90909091 3.66666667,4.90909091 L5.10186111,4.90909091 C5.60541667,6.33825 6.95963889,7.36363636 8.55555556,7.36363636 L13.4444444,7.36363636 C15.0403611,7.36363636 16.3936667,6.33825 16.8981389,4.90909091 L18.3333333,4.90909091 C19.0086111,4.90909091 19.5555556,5.45829545 19.5555556,6.13636364 L19.5555556,23.3181818 Z" id="Shape"></path>
                        </g>
                    </g>
                </g>
            </g>
        </g>
    </g>
</svg>