<?xml version="1.0" encoding="UTF-8"?>
<svg width="396px" height="69px" viewBox="0 0 396 69" version="1.1" xmlns="http://www.w3.org/2000/svg" xmlns:xlink="http://www.w3.org/1999/xlink">
    <!-- Generator: Sketch 42 (36781) - http://www.bohemiancoding.com/sketch -->
    <title>Formats</title>
    <desc>Created with Sketch.</desc>
    <defs></defs>
    <g id="Website" stroke="none" stroke-width="1" fill="none" fill-rule="evenodd">
        <g id="Color" transform="translate(-968.000000, -612.000000)">
            <g id="Information" transform="translate(968.000000, 410.000000)">
                <g id="Formats" transform="translate(0.000000, 202.000000)">
                    <path d="M101.762,1.371 L101.762,20 L99.552,20 L99.552,6.311 C99.552,6.12899909 99.5584999,5.93400104 99.5715,5.726 C99.5845001,5.51799896 99.5996666,5.30566775 99.617,5.089 L93.221,16.737 C93.0216657,17.127002 92.7183354,17.322 92.311,17.322 L91.947,17.322 C91.5396646,17.322 91.2363343,17.127002 91.037,16.737 L84.511,5.037 C84.5630003,5.49633563 84.589,5.92099805 84.589,6.311 L84.589,20 L82.379,20 L82.379,1.371 L84.238,1.371 C84.4633345,1.371 84.6366661,1.39266645 84.758,1.436 C84.8793339,1.47933355 84.9963328,1.60066567 85.109,1.8 L91.544,13.266 C91.6480005,13.474001 91.7498328,13.6906655 91.8495,13.916 C91.9491672,14.1413345 92.0423329,14.3709988 92.129,14.605 C92.2156671,14.3709988 92.3066662,14.1391678 92.402,13.9095 C92.4973338,13.6798322 92.6013328,13.461001 92.714,13.253 L99.032,1.8 C99.1360005,1.60066567 99.2508327,1.47933355 99.3765,1.436 C99.5021673,1.39266645 99.6776655,1.371 99.903,1.371 L101.762,1.371 Z M116.803,6.831 L116.803,20 L115.425,20 C115.095665,20 114.887667,19.8396683 114.801,19.519 L114.619,18.102 C114.046997,18.7346698 113.40567,19.2438314 112.695,19.6295 C111.98433,20.0151686 111.169671,20.208 110.251,20.208 C109.531663,20.208 108.896836,20.0888345 108.3465,19.8505 C107.796164,19.6121655 107.334669,19.2763355 106.962,18.843 C106.589331,18.4096645 106.309834,17.8853364 106.1235,17.27 C105.937166,16.6546636 105.844,15.9743371 105.844,15.229 L105.844,6.831 L108.158,6.831 L108.158,15.229 C108.158,16.2256717 108.385498,16.9969973 108.8405,17.543 C109.295502,18.0890027 109.990995,18.362 110.927,18.362 C111.61167,18.362 112.25083,18.1995016 112.8445,17.8745 C113.43817,17.5494984 113.986331,17.1010029 114.489,16.529 L114.489,6.831 L116.803,6.831 Z M122.861,0.851 L122.861,20 L120.547,20 L120.547,0.851 L122.861,0.851 Z M138.825,20 L136.511,20 L136.511,8.768 L129.725,8.768 L129.725,16.672 C129.725,17.2266694 129.859332,17.638332 130.128,17.907 C130.396668,18.175668 130.743331,18.31 131.168,18.31 C131.410668,18.31 131.620832,18.2775003 131.7985,18.2125 C131.976168,18.1474997 132.129999,18.0760004 132.26,17.998 C132.390001,17.9199996 132.5005,17.8485003 132.5915,17.7835 C132.6825,17.7184997 132.762666,17.686 132.832,17.686 C132.953334,17.686 133.061666,17.7596659 133.157,17.907 L133.833,19.012 C133.434331,19.3846685 132.953336,19.6771656 132.39,19.8895 C131.826664,20.1018344 131.246003,20.208 130.648,20.208 C129.607995,20.208 128.808503,19.9176696 128.2495,19.337 C127.690497,18.7563304 127.411,17.9200055 127.411,16.828 L127.411,8.768 L125.825,8.768 C125.686333,8.768 125.569334,8.72683375 125.474,8.6445 C125.378666,8.56216626 125.331,8.4343342 125.331,8.261 L125.331,7.338 L127.489,7.052 L128.022,2.996 C128.048,2.86599935 128.1065,2.75983375 128.1975,2.6775 C128.2885,2.59516626 128.407666,2.554 128.555,2.554 L129.725,2.554 L129.725,7.091 L138.825,7.091 L138.825,20 Z M139.397,2.606 C139.397,2.83133446 139.3515,3.04149903 139.2605,3.2365 C139.1695,3.43150098 139.048167,3.60266593 138.8965,3.75 C138.744833,3.89733407 138.569334,4.0143329 138.37,4.101 C138.170666,4.1876671 137.958334,4.231 137.733,4.231 C137.507666,4.231 137.297501,4.1876671 137.1025,4.101 C136.907499,4.0143329 136.736334,3.89733407 136.589,3.75 C136.441666,3.60266593 136.324667,3.43150098 136.238,3.2365 C136.151333,3.04149903 136.108,2.83133446 136.108,2.606 C136.108,2.38066554 136.151333,2.16616769 136.238,1.9625 C136.324667,1.75883232 136.441666,1.58116743 136.589,1.4295 C136.736334,1.27783258 136.907499,1.1586671 137.1025,1.072 C137.297501,0.9853329 137.507666,0.942 137.733,0.942 C137.958334,0.942 138.170666,0.9853329 138.37,1.072 C138.569334,1.1586671 138.744833,1.27783258 138.8965,1.4295 C139.048167,1.58116743 139.1695,1.75883232 139.2605,1.9625 C139.3515,2.16616769 139.397,2.38066554 139.397,2.606 Z M144.948,16.828 C145.372669,17.4000029 145.836331,17.8029988 146.339,18.037 C146.841669,18.2710012 147.404997,18.388 148.029,18.388 C149.259673,18.388 150.20433,17.9503377 150.863,17.075 C151.52167,16.1996623 151.851,14.9516748 151.851,13.331 C151.851,12.4729957 151.775167,11.7363364 151.6235,11.121 C151.471833,10.5056636 151.253001,10.0008353 150.967,9.6065 C150.680999,9.2121647 150.330002,8.92400091 149.914,8.742 C149.497998,8.55999909 149.025669,8.469 148.497,8.469 C147.742996,8.469 147.08217,8.6423316 146.5145,8.989 C145.94683,9.3356684 145.424669,9.82533017 144.948,10.458 L144.948,16.828 Z M144.831,8.872 C145.385669,8.18732991 146.026996,7.63700208 146.755,7.221 C147.483004,6.80499792 148.314995,6.597 149.251,6.597 C150.01367,6.597 150.702664,6.74216522 151.318,7.0325 C151.933336,7.32283479 152.457665,7.7518305 152.891,8.3195 C153.324336,8.88716951 153.657999,9.59132913 153.892,10.432 C154.126001,11.2726709 154.243,12.2389945 154.243,13.331 C154.243,14.3016715 154.113001,15.2051625 153.853,16.0415 C153.592999,16.8778375 153.218169,17.6014969 152.7285,18.2125 C152.238831,18.8235031 151.640837,19.3044982 150.9345,19.6555 C150.228163,20.0065018 149.433004,20.182 148.549,20.182 C147.742996,20.182 147.051836,20.0455014 146.4755,19.7725 C145.899164,19.4994986 145.390002,19.1203358 144.948,18.635 L144.948,24.459 L142.621,24.459 L142.621,6.831 L144.012,6.831 C144.341335,6.831 144.545,6.99133173 144.623,7.312 L144.831,8.872 Z M159.586,0.851 L159.586,20 L157.272,20 L157.272,0.851 L159.586,0.851 Z M172.144,11.979 C172.144,11.441664 172.068167,10.9498356 171.9165,10.5035 C171.764833,10.0571644 171.543835,9.67150163 171.2535,9.3465 C170.963165,9.02149838 170.610002,8.77016756 170.194,8.5925 C169.777998,8.41483245 169.305669,8.326 168.777,8.326 C167.667661,8.326 166.79017,8.64883011 166.1445,9.2945 C165.49883,9.9401699 165.098001,10.8349943 164.942,11.979 L172.144,11.979 Z M174.016,18.154 C173.729999,18.5006684 173.387669,18.8018321 172.989,19.0575 C172.590331,19.3131679 172.163502,19.5233325 171.7085,19.688 C171.253498,19.8526675 170.783336,19.9761663 170.298,20.0585 C169.812664,20.1408337 169.331669,20.182 168.855,20.182 C167.944995,20.182 167.106504,20.0281682 166.3395,19.7205 C165.572496,19.4128318 164.909503,18.9621696 164.3505,18.3685 C163.791497,17.7748304 163.356002,17.0403377 163.044,16.165 C162.731998,15.2896623 162.576,14.284339 162.576,13.149 C162.576,12.2303287 162.716832,11.3723373 162.9985,10.575 C163.280168,9.77766268 163.685331,9.08650293 164.214,8.5015 C164.742669,7.91649708 165.38833,7.45716834 166.151,7.1235 C166.91367,6.78983167 167.771662,6.623 168.725,6.623 C169.513671,6.623 170.24383,6.75516535 170.9155,7.0195 C171.58717,7.28383466 172.167831,7.66516418 172.6575,8.1635 C173.147169,8.66183583 173.530665,9.27716301 173.808,10.0095 C174.085335,10.741837 174.224,11.5759953 174.224,12.512 C174.224,12.8760018 174.185,13.1186661 174.107,13.24 C174.029,13.3613339 173.881668,13.422 173.665,13.422 L164.864,13.422 C164.89,14.2540042 165.004832,14.9776636 165.2085,15.593 C165.412168,16.2083364 165.695998,16.7218313 166.06,17.1335 C166.424002,17.5451687 166.857331,17.8528323 167.36,18.0565 C167.862669,18.2601677 168.425997,18.362 169.05,18.362 C169.63067,18.362 170.131165,18.294834 170.5515,18.1605 C170.971835,18.026166 171.333665,17.8810008 171.637,17.725 C171.940335,17.5689992 172.193832,17.423834 172.3975,17.2895 C172.601168,17.155166 172.776666,17.088 172.924,17.088 C173.114668,17.088 173.261999,17.1616659 173.366,17.309 L174.016,18.154 Z M192.879,9.171 C192.809666,9.26633381 192.740334,9.33999974 192.671,9.392 C192.601666,9.44400026 192.506334,9.47 192.385,9.47 C192.254999,9.47 192.112001,9.41583388 191.956,9.3075 C191.799999,9.19916613 191.607168,9.08000065 191.3775,8.95 C191.147832,8.81999935 190.866168,8.70083388 190.5325,8.5925 C190.198832,8.48416613 189.789336,8.43 189.304,8.43 C188.653997,8.43 188.082002,8.54483219 187.588,8.7745 C187.093998,9.00416782 186.680168,9.3356645 186.3465,9.769 C186.012832,10.2023355 185.761501,10.7266636 185.5925,11.342 C185.423499,11.9573364 185.339,12.6463295 185.339,13.409 C185.339,14.2063373 185.429999,14.9148302 185.612,15.5345 C185.794001,16.1541698 186.051832,16.6741646 186.3855,17.0945 C186.719168,17.5148354 187.122164,17.8354989 187.5945,18.0565 C188.066836,18.2775011 188.597664,18.388 189.187,18.388 C189.750336,18.388 190.213998,18.320834 190.578,18.1865 C190.942002,18.052166 191.243165,17.9026675 191.4815,17.738 C191.719835,17.5733325 191.919166,17.423834 192.0795,17.2895 C192.239834,17.155166 192.397999,17.088 192.554,17.088 C192.744668,17.088 192.891999,17.1616659 192.996,17.309 L193.646,18.154 C193.359999,18.5093351 193.035002,18.8126654 192.671,19.064 C192.306998,19.3153346 191.914835,19.5254992 191.4945,19.6945 C191.074165,19.8635008 190.634336,19.9869996 190.175,20.065 C189.715664,20.1430004 189.247669,20.182 188.771,20.182 C187.947663,20.182 187.182837,20.0303349 186.4765,19.727 C185.770163,19.4236652 185.157003,18.9838362 184.637,18.4075 C184.116997,17.8311638 183.709668,17.1226709 183.415,16.282 C183.120332,15.4413291 182.973,14.483672 182.973,13.409 C182.973,12.4296618 183.109499,11.5240042 183.3825,10.692 C183.655501,9.85999584 184.054164,9.14283635 184.5785,8.5405 C185.102836,7.93816366 185.748496,7.46800169 186.5155,7.13 C187.282504,6.79199831 188.164328,6.623 189.161,6.623 C190.088338,6.623 190.905163,6.77249851 191.6115,7.0715 C192.317837,7.3705015 192.943997,7.79299727 193.49,8.339 L192.879,9.171 Z M201.68,6.623 C202.642005,6.623 203.508663,6.78333173 204.28,7.104 C205.051337,7.42466827 205.709997,7.87966372 206.256,8.469 C206.802003,9.05833628 207.220165,9.77116249 207.5105,10.6075 C207.800835,11.4438375 207.946,12.3776615 207.946,13.409 C207.946,14.4490052 207.800835,15.3849958 207.5105,16.217 C207.220165,17.0490042 206.802003,17.7596637 206.256,18.349 C205.709997,18.9383363 205.051337,19.3911651 204.28,19.7075 C203.508663,20.0238349 202.642005,20.182 201.68,20.182 C200.709328,20.182 199.836171,20.0238349 199.0605,19.7075 C198.284829,19.3911651 197.624003,18.9383363 197.078,18.349 C196.531997,17.7596637 196.113835,17.0490042 195.8235,16.217 C195.533165,15.3849958 195.388,14.4490052 195.388,13.409 C195.388,12.3776615 195.533165,11.4438375 195.8235,10.6075 C196.113835,9.77116249 196.531997,9.05833628 197.078,8.469 C197.624003,7.87966372 198.284829,7.42466827 199.0605,7.104 C199.836171,6.78333173 200.709328,6.623 201.68,6.623 Z M201.68,18.375 C202.980007,18.375 203.950663,17.9395044 204.592,17.0685 C205.233337,16.1974956 205.554,14.9820078 205.554,13.422 C205.554,11.8533255 205.233337,10.6313377 204.592,9.756 C203.950663,8.88066229 202.980007,8.443 201.68,8.443 C201.02133,8.443 200.447169,8.55566554 199.9575,8.781 C199.467831,9.00633446 199.060502,9.33133121 198.7355,9.756 C198.410498,10.1806688 198.167834,10.7028302 198.0075,11.3225 C197.847166,11.9421698 197.767,12.6419961 197.767,13.422 C197.767,14.9820078 198.08983,16.1974956 198.7355,17.0685 C199.38117,17.9395044 200.36266,18.375 201.68,18.375 Z M213.263,0.851 L213.263,20 L210.949,20 L210.949,0.851 L213.263,0.851 Z M222.558,6.623 C223.520005,6.623 224.386663,6.78333173 225.158,7.104 C225.929337,7.42466827 226.587997,7.87966372 227.134,8.469 C227.680003,9.05833628 228.098165,9.77116249 228.3885,10.6075 C228.678835,11.4438375 228.824,12.3776615 228.824,13.409 C228.824,14.4490052 228.678835,15.3849958 228.3885,16.217 C228.098165,17.0490042 227.680003,17.7596637 227.134,18.349 C226.587997,18.9383363 225.929337,19.3911651 225.158,19.7075 C224.386663,20.0238349 223.520005,20.182 222.558,20.182 C221.587328,20.182 220.714171,20.0238349 219.9385,19.7075 C219.162829,19.3911651 218.502003,18.9383363 217.956,18.349 C217.409997,17.7596637 216.991835,17.0490042 216.7015,16.217 C216.411165,15.3849958 216.266,14.4490052 216.266,13.409 C216.266,12.3776615 216.411165,11.4438375 216.7015,10.6075 C216.991835,9.77116249 217.409997,9.05833628 217.956,8.469 C218.502003,7.87966372 219.162829,7.42466827 219.9385,7.104 C220.714171,6.78333173 221.587328,6.623 222.558,6.623 Z M222.558,18.375 C223.858007,18.375 224.828663,17.9395044 225.47,17.0685 C226.111337,16.1974956 226.432,14.9820078 226.432,13.422 C226.432,11.8533255 226.111337,10.6313377 225.47,9.756 C224.828663,8.88066229 223.858007,8.443 222.558,8.443 C221.89933,8.443 221.325169,8.55566554 220.8355,8.781 C220.345831,9.00633446 219.938502,9.33133121 219.6135,9.756 C219.288498,10.1806688 219.045834,10.7028302 218.8855,11.3225 C218.725166,11.9421698 218.645,12.6419961 218.645,13.422 C218.645,14.9820078 218.96783,16.1974956 219.6135,17.0685 C220.25917,17.9395044 221.24066,18.375 222.558,18.375 Z M233.946,9.47 C234.362002,8.56866216 234.87333,7.86450254 235.48,7.3575 C236.08667,6.85049747 236.827662,6.597 237.703,6.597 C237.980335,6.597 238.246832,6.62733303 238.5025,6.688 C238.758168,6.74866697 238.985666,6.84399935 239.185,6.974 L239.016,8.703 C238.964,8.91966775 238.834001,9.028 238.626,9.028 C238.504666,9.028 238.327001,9.00200026 238.093,8.95 C237.858999,8.89799974 237.594668,8.872 237.3,8.872 C236.883998,8.872 236.513502,8.93266606 236.1885,9.054 C235.863498,9.17533394 235.573168,9.35516548 235.3175,9.5935 C235.061832,9.83183453 234.832168,10.1264982 234.6285,10.4775 C234.424832,10.8285018 234.240667,11.2293311 234.076,11.68 L234.076,20 L231.749,20 L231.749,6.831 L233.075,6.831 C233.326335,6.831 233.499666,6.87866619 233.595,6.974 C233.690334,7.06933381 233.755333,7.23399883 233.79,7.468 L233.946,9.47 Z M248.727,20 L248.727,8.807 L247.271,8.638 C247.088999,8.59466645 246.939501,8.52750046 246.8225,8.4365 C246.705499,8.34549955 246.647,8.2133342 246.647,8.04 L246.647,7.091 L248.727,7.091 L248.727,5.817 C248.727,5.06299623 248.833166,4.39350293 249.0455,3.8085 C249.257834,3.22349708 249.561165,2.72950202 249.9555,2.3265 C250.349835,1.92349799 250.824331,1.61800104 251.379,1.41 C251.933669,1.20199896 252.557663,1.098 253.251,1.098 C253.840336,1.098 254.381998,1.1846658 254.876,1.358 L254.824,2.515 C254.806667,2.72300104 254.691834,2.83566658 254.4795,2.853 C254.267166,2.87033342 253.983335,2.879 253.628,2.879 C253.229331,2.879 252.867502,2.93099948 252.5425,3.035 C252.217498,3.13900052 251.938001,3.30799883 251.704,3.542 C251.469999,3.77600117 251.290167,4.08366476 251.1645,4.465 C251.038833,4.84633524 250.976,5.31866385 250.976,5.882 L250.976,7.091 L254.772,7.091 L254.772,8.768 L251.054,8.768 L251.054,20 L248.727,20 Z M262.533,6.623 C263.495005,6.623 264.361663,6.78333173 265.133,7.104 C265.904337,7.42466827 266.562997,7.87966372 267.109,8.469 C267.655003,9.05833628 268.073165,9.77116249 268.3635,10.6075 C268.653835,11.4438375 268.799,12.3776615 268.799,13.409 C268.799,14.4490052 268.653835,15.3849958 268.3635,16.217 C268.073165,17.0490042 267.655003,17.7596637 267.109,18.349 C266.562997,18.9383363 265.904337,19.3911651 265.133,19.7075 C264.361663,20.0238349 263.495005,20.182 262.533,20.182 C261.562328,20.182 260.689171,20.0238349 259.9135,19.7075 C259.137829,19.3911651 258.477003,18.9383363 257.931,18.349 C257.384997,17.7596637 256.966835,17.0490042 256.6765,16.217 C256.386165,15.3849958 256.241,14.4490052 256.241,13.409 C256.241,12.3776615 256.386165,11.4438375 256.6765,10.6075 C256.966835,9.77116249 257.384997,9.05833628 257.931,8.469 C258.477003,7.87966372 259.137829,7.42466827 259.9135,7.104 C260.689171,6.78333173 261.562328,6.623 262.533,6.623 Z M262.533,18.375 C263.833007,18.375 264.803663,17.9395044 265.445,17.0685 C266.086337,16.1974956 266.407,14.9820078 266.407,13.422 C266.407,11.8533255 266.086337,10.6313377 265.445,9.756 C264.803663,8.88066229 263.833007,8.443 262.533,8.443 C261.87433,8.443 261.300169,8.55566554 260.8105,8.781 C260.320831,9.00633446 259.913502,9.33133121 259.5885,9.756 C259.263498,10.1806688 259.020834,10.7028302 258.8605,11.3225 C258.700166,11.9421698 258.62,12.6419961 258.62,13.422 C258.62,14.9820078 258.94283,16.1974956 259.5885,17.0685 C260.23417,17.9395044 261.21566,18.375 262.533,18.375 Z M273.921,9.47 C274.337002,8.56866216 274.84833,7.86450254 275.455,7.3575 C276.06167,6.85049747 276.802662,6.597 277.678,6.597 C277.955335,6.597 278.221832,6.62733303 278.4775,6.688 C278.733168,6.74866697 278.960666,6.84399935 279.16,6.974 L278.991,8.703 C278.939,8.91966775 278.809001,9.028 278.601,9.028 C278.479666,9.028 278.302001,9.00200026 278.068,8.95 C277.833999,8.89799974 277.569668,8.872 277.275,8.872 C276.858998,8.872 276.488502,8.93266606 276.1635,9.054 C275.838498,9.17533394 275.548168,9.35516548 275.2925,9.5935 C275.036832,9.83183453 274.807168,10.1264982 274.6035,10.4775 C274.399832,10.8285018 274.215667,11.2293311 274.051,11.68 L274.051,20 L271.724,20 L271.724,6.831 L273.05,6.831 C273.301335,6.831 273.474666,6.87866619 273.57,6.974 C273.665334,7.06933381 273.730333,7.23399883 273.765,7.468 L273.921,9.47 Z M281.188,20 L281.188,6.831 L282.579,6.831 C282.908335,6.831 283.112,6.99133173 283.19,7.312 L283.359,8.664 C283.844336,8.06599701 284.39033,7.57633524 284.997,7.195 C285.60367,6.81366476 286.305663,6.623 287.103,6.623 C287.987004,6.623 288.704164,6.86999753 289.2545,7.364 C289.804836,7.85800247 290.201332,8.52532913 290.444,9.366 C290.634668,8.88933095 290.879499,8.4776684 291.1785,8.131 C291.477501,7.7843316 291.813331,7.49833446 292.186,7.273 C292.558669,7.04766554 292.955165,6.88300052 293.3755,6.779 C293.795835,6.67499948 294.222665,6.623 294.656,6.623 C295.349337,6.623 295.966831,6.7334989 296.5085,6.9545 C297.050169,7.17550111 297.509498,7.49833121 297.8865,7.923 C298.263502,8.34766879 298.551666,8.86983024 298.751,9.4895 C298.950334,10.1091698 299.05,10.8176627 299.05,11.615 L299.05,20 L296.723,20 L296.723,11.615 C296.723,10.5836615 296.497669,9.80150267 296.047,9.2685 C295.596331,8.73549734 294.946338,8.469 294.097,8.469 C293.715665,8.469 293.353835,8.536166 293.0115,8.6705 C292.669165,8.80483401 292.368001,9.0019987 292.108,9.262 C291.847999,9.5220013 291.642167,9.8491647 291.4905,10.2435 C291.338833,10.6378353 291.263,11.0949974 291.263,11.615 L291.263,20 L288.936,20 L288.936,11.615 C288.936,10.5576614 288.723669,9.7690026 288.299,9.249 C287.874331,8.7289974 287.254671,8.469 286.44,8.469 C285.867997,8.469 285.339336,8.6228318 284.854,8.9305 C284.368664,9.23816821 283.922335,9.65633069 283.515,10.185 L283.515,20 L281.188,20 Z M309.71,14.072 C308.643995,14.1066668 307.73617,14.191166 306.9865,14.3255 C306.23683,14.459834 305.625836,14.6353323 305.1535,14.852 C304.681164,15.0686678 304.338834,15.3243319 304.1265,15.619 C303.914166,15.9136681 303.808,16.2429982 303.808,16.607 C303.808,16.9536684 303.864333,17.2526654 303.977,17.504 C304.089667,17.7553346 304.243499,17.9611659 304.4385,18.1215 C304.633501,18.2818341 304.863165,18.398833 305.1275,18.4725 C305.391835,18.546167 305.675665,18.583 305.979,18.583 C306.386335,18.583 306.758998,18.5418337 307.097,18.4595 C307.435002,18.3771663 307.753499,18.2580008 308.0525,18.102 C308.351501,17.9459992 308.637499,17.7596678 308.9105,17.543 C309.183501,17.3263323 309.449999,17.0793347 309.71,16.802 L309.71,14.072 Z M302.235,8.69 C302.963004,7.98799649 303.747329,7.4636684 304.588,7.117 C305.428671,6.7703316 306.360328,6.597 307.383,6.597 C308.11967,6.597 308.773997,6.71833212 309.346,6.961 C309.918003,7.20366788 310.398998,7.5416645 310.789,7.975 C311.179002,8.4083355 311.473666,8.93266359 311.673,9.548 C311.872334,10.1633364 311.972,10.8393297 311.972,11.576 L311.972,20 L310.945,20 C310.719666,20 310.546334,19.963167 310.425,19.8895 C310.303666,19.815833 310.208334,19.6706678 310.139,19.454 L309.879,18.206 C309.532332,18.5266683 309.194335,18.8104988 308.865,19.0575 C308.535665,19.3045012 308.189002,19.5124992 307.825,19.6815 C307.460998,19.8505008 307.073169,19.9804995 306.6615,20.0715 C306.249831,20.1625005 305.792669,20.208 305.29,20.208 C304.778664,20.208 304.297669,20.1365007 303.847,19.9935 C303.396331,19.8504993 303.004168,19.6360014 302.6705,19.35 C302.336832,19.0639986 302.072501,18.7021689 301.8775,18.2645 C301.682499,17.8268311 301.585,17.309003 301.585,16.711 C301.585,16.1909974 301.727999,15.6905024 302.014,15.2095 C302.300001,14.7284976 302.763663,14.3016685 303.405,13.929 C304.046337,13.5563315 304.882662,13.2508345 305.914,13.0125 C306.945338,12.7741655 308.210659,12.6376668 309.71,12.603 L309.71,11.576 C309.71,10.5533282 309.489002,9.77983596 309.047,9.2555 C308.604998,8.73116405 307.959338,8.469 307.11,8.469 C306.537997,8.469 306.059169,8.54049929 305.6735,8.6835 C305.287831,8.82650072 304.954168,8.98683245 304.6725,9.1645 C304.390832,9.34216756 304.148168,9.50249929 303.9445,9.6455 C303.740832,9.78850072 303.539334,9.86 303.34,9.86 C303.183999,9.86 303.049667,9.81883375 302.937,9.7365 C302.824333,9.65416626 302.729,9.55233394 302.651,9.431 L302.235,8.69 Z M319.538,20.208 C318.497995,20.208 317.698503,19.9176696 317.1395,19.337 C316.580497,18.7563304 316.301,17.9200055 316.301,16.828 L316.301,8.768 L314.715,8.768 C314.576333,8.768 314.459334,8.72683375 314.364,8.6445 C314.268666,8.56216626 314.221,8.4343342 314.221,8.261 L314.221,7.338 L316.379,7.065 L316.912,2.996 C316.938,2.86599935 316.9965,2.75983375 317.0875,2.6775 C317.1785,2.59516626 317.297666,2.554 317.445,2.554 L318.615,2.554 L318.615,7.091 L322.424,7.091 L322.424,8.768 L318.615,8.768 L318.615,16.672 C318.615,17.2266694 318.749332,17.638332 319.018,17.907 C319.286668,18.175668 319.633331,18.31 320.058,18.31 C320.300668,18.31 320.510832,18.2775003 320.6885,18.2125 C320.866168,18.1474997 321.019999,18.0760004 321.15,17.998 C321.280001,17.9199996 321.3905,17.8485003 321.4815,17.7835 C321.5725,17.7184997 321.652666,17.686 321.722,17.686 C321.843334,17.686 321.951666,17.7596659 322.047,17.907 L322.723,19.012 C322.324331,19.3846685 321.843336,19.6771656 321.28,19.8895 C320.716664,20.1018344 320.136003,20.208 319.538,20.208 Z M332.486,9.002 C332.381999,9.19266762 332.221668,9.288 332.005,9.288 C331.874999,9.288 331.727667,9.24033381 331.563,9.145 C331.398333,9.04966619 331.196835,8.94350059 330.9585,8.8265 C330.720165,8.70949942 330.436335,8.60116717 330.107,8.5015 C329.777665,8.40183284 329.387669,8.352 328.937,8.352 C328.546998,8.352 328.196002,8.40183284 327.884,8.5015 C327.571998,8.60116717 327.305501,8.7376658 327.0845,8.911 C326.863499,9.0843342 326.694501,9.28583219 326.5775,9.5155 C326.460499,9.74516782 326.402,9.99433199 326.402,10.263 C326.402,10.6010017 326.499499,10.8826655 326.6945,11.108 C326.889501,11.3333345 327.147332,11.5283325 327.468,11.693 C327.788668,11.8576675 328.152665,12.0028327 328.56,12.1285 C328.967335,12.2541673 329.385498,12.3884993 329.8145,12.5315 C330.243502,12.6745007 330.661665,12.8326658 331.069,13.006 C331.476335,13.1793342 331.840332,13.3959987 332.161,13.656 C332.481668,13.9160013 332.739499,14.2344981 332.9345,14.6115 C333.129501,14.9885019 333.227,15.4413307 333.227,15.97 C333.227,16.5766697 333.118668,17.1378308 332.902,17.6535 C332.685332,18.1691692 332.364669,18.6154981 331.94,18.9925 C331.515331,19.3695019 330.995336,19.6663323 330.38,19.883 C329.764664,20.0996678 329.054004,20.208 328.248,20.208 C327.329329,20.208 326.497337,20.0585015 325.752,19.7595 C325.006663,19.4604985 324.374003,19.0770023 323.854,18.609 L324.4,17.725 C324.469334,17.6123328 324.551666,17.525667 324.647,17.465 C324.742334,17.404333 324.863666,17.374 325.011,17.374 C325.167001,17.374 325.331666,17.4346661 325.505,17.556 C325.678334,17.6773339 325.888499,17.8116659 326.1355,17.959 C326.382501,18.1063341 326.683665,18.2406661 327.039,18.362 C327.394335,18.4833339 327.836331,18.544 328.365,18.544 C328.815669,18.544 329.209998,18.4855006 329.548,18.3685 C329.886002,18.2514994 330.167666,18.0933343 330.393,17.894 C330.618334,17.6946657 330.785166,17.4650013 330.8935,17.205 C331.001834,16.9449987 331.056,16.6676681 331.056,16.373 C331.056,16.0089982 330.958501,15.7078345 330.7635,15.4695 C330.568499,15.2311655 330.310668,15.0275008 329.99,14.8585 C329.669332,14.6894992 329.303169,14.5421673 328.8915,14.4165 C328.479831,14.2908327 328.059502,14.1586674 327.6305,14.02 C327.201498,13.8813326 326.781169,13.7231676 326.3695,13.5455 C325.957831,13.3678324 325.591668,13.144668 325.271,12.876 C324.950332,12.607332 324.692501,12.2758353 324.4975,11.8815 C324.302499,11.4871647 324.205,11.0083362 324.205,10.445 C324.205,9.94233082 324.308999,9.45916899 324.517,8.9955 C324.725001,8.53183102 325.028331,8.12450176 325.427,7.7735 C325.825669,7.42249825 326.31533,7.14300104 326.896,6.935 C327.47667,6.72699896 328.139663,6.623 328.885,6.623 C329.751671,6.623 330.529497,6.75949864 331.2185,7.0325 C331.907503,7.30550137 332.503331,7.68033095 333.006,8.157 L332.486,9.002 Z" id="Multiple-color-forma" fill="#78FF90"></path>
                    <path d="M83.016,49 L81.464,49 L81.464,37.536 L83.016,37.536 L83.016,49 Z M86.952,42.072 C87.1280009,41.8746657 87.3146657,41.6960008 87.512,41.536 C87.7093343,41.3759992 87.9186656,41.2386672 88.14,41.124 C88.3613344,41.0093328 88.5959988,40.9213336 88.844,40.86 C89.0920012,40.7986664 89.3599986,40.768 89.648,40.768 C90.0906689,40.768 90.4813316,40.8413326 90.82,40.988 C91.1586684,41.1346674 91.4413322,41.3426653 91.668,41.612 C91.8946678,41.8813347 92.0666661,42.2053314 92.184,42.584 C92.3013339,42.9626686 92.36,43.381331 92.36,43.84 L92.36,49 L90.928,49 L90.928,43.84 C90.928,43.2266636 90.7880014,42.7506684 90.508,42.412 C90.2279986,42.0733316 89.8026695,41.904 89.232,41.904 C88.8106646,41.904 88.4173352,42.0053323 88.052,42.208 C87.6866648,42.4106677 87.3493349,42.6853316 87.04,43.032 L87.04,49 L85.608,49 L85.608,40.896 L86.464,40.896 C86.6666677,40.896 86.7919998,40.9946657 86.84,41.192 L86.952,42.072 Z M99.256,42.232 C99.1919997,42.3493339 99.093334,42.408 98.96,42.408 C98.8799996,42.408 98.7893338,42.378667 98.688,42.32 C98.5866662,42.261333 98.4626674,42.1960004 98.316,42.124 C98.1693326,42.0519996 97.9946677,41.9853336 97.792,41.924 C97.5893323,41.8626664 97.3493347,41.832 97.072,41.832 C96.8319988,41.832 96.616001,41.8626664 96.424,41.924 C96.231999,41.9853336 96.0680007,42.0693328 95.932,42.176 C95.7959993,42.2826672 95.6920004,42.406666 95.62,42.548 C95.5479996,42.689334 95.512,42.8426658 95.512,43.008 C95.512,43.216001 95.5719994,43.3893326 95.692,43.528 C95.8120006,43.6666674 95.9706657,43.7866662 96.168,43.888 C96.3653343,43.9893338 96.5893321,44.0786663 96.84,44.156 C97.0906679,44.2333337 97.3479987,44.3159996 97.612,44.404 C97.8760013,44.4920004 98.1333321,44.5893328 98.384,44.696 C98.6346679,44.8026672 98.8586657,44.9359992 99.056,45.096 C99.2533343,45.2560008 99.4119994,45.4519988 99.532,45.684 C99.6520006,45.9160012 99.712,46.194665 99.712,46.52 C99.712,46.8933352 99.645334,47.2386651 99.512,47.556 C99.378666,47.8733349 99.1813346,48.1479988 98.92,48.38 C98.6586654,48.6120012 98.3386686,48.794666 97.96,48.928 C97.5813314,49.061334 97.1440025,49.128 96.648,49.128 C96.0826638,49.128 95.570669,49.0360009 95.112,48.852 C94.653331,48.6679991 94.2640016,48.4320014 93.944,48.144 L94.28,47.6 C94.3226669,47.5306663 94.373333,47.4773335 94.432,47.44 C94.490667,47.4026665 94.5653329,47.384 94.656,47.384 C94.7520005,47.384 94.8533328,47.421333 94.96,47.496 C95.0666672,47.570667 95.1959992,47.6533329 95.348,47.744 C95.5000008,47.8346671 95.6853322,47.917333 95.904,47.992 C96.1226678,48.066667 96.394665,48.104 96.72,48.104 C96.9973347,48.104 97.239999,48.0680004 97.448,47.996 C97.656001,47.9239996 97.8293326,47.8266673 97.968,47.704 C98.1066674,47.5813327 98.209333,47.4400008 98.276,47.28 C98.342667,47.1199992 98.376,46.9493342 98.376,46.768 C98.376,46.5439989 98.3160006,46.3586674 98.196,46.212 C98.0759994,46.0653326 97.9173343,45.9400005 97.72,45.836 C97.5226657,45.7319995 97.2973346,45.6413337 97.044,45.564 C96.7906654,45.4866663 96.5320013,45.4053338 96.268,45.32 C96.0039987,45.2346662 95.7453346,45.1373339 95.492,45.028 C95.2386654,44.9186661 95.0133343,44.7813342 94.816,44.616 C94.6186657,44.4506658 94.4600006,44.2466679 94.34,44.004 C94.2199994,43.7613321 94.16,43.4666684 94.16,43.12 C94.16,42.8106651 94.2239994,42.5133348 94.352,42.228 C94.4800006,41.9426652 94.6666654,41.6920011 94.912,41.476 C95.1573346,41.2599989 95.4586649,41.0880006 95.816,40.96 C96.1733351,40.8319994 96.581331,40.768 97.04,40.768 C97.573336,40.768 98.0519979,40.8519992 98.476,41.02 C98.9000021,41.1880008 99.2666651,41.4186652 99.576,41.712 L99.256,42.232 Z M103.952,49.128 C103.311997,49.128 102.820002,48.9493351 102.476,48.592 C102.131998,48.2346649 101.96,47.7200034 101.96,47.048 L101.96,42.088 L100.984,42.088 C100.898666,42.088 100.826667,42.0626669 100.768,42.012 C100.709333,41.9613331 100.68,41.8826672 100.68,41.776 L100.68,41.208 L102.008,41.04 L102.336,38.536 C102.352,38.4559996 102.388,38.3906669 102.444,38.34 C102.5,38.2893331 102.573333,38.264 102.664,38.264 L103.384,38.264 L103.384,41.056 L105.728,41.056 L105.728,42.088 L103.384,42.088 L103.384,46.952 C103.384,47.293335 103.466666,47.5466658 103.632,47.712 C103.797334,47.8773342 104.010665,47.96 104.272,47.96 C104.421334,47.96 104.550666,47.9400002 104.66,47.9 C104.769334,47.8599998 104.864,47.8160002 104.944,47.768 C105.024,47.7199998 105.092,47.6760002 105.148,47.636 C105.204,47.5959998 105.253333,47.576 105.296,47.576 C105.370667,47.576 105.437333,47.6213329 105.496,47.712 L105.912,48.392 C105.666665,48.6213345 105.370668,48.8013327 105.024,48.932 C104.677332,49.0626673 104.320002,49.128 103.952,49.128 Z M111.592,45.352 C110.935997,45.3733334 110.377336,45.4253329 109.916,45.508 C109.454664,45.5906671 109.078668,45.698666 108.788,45.832 C108.497332,45.965334 108.286667,46.1226658 108.156,46.304 C108.025333,46.4853342 107.96,46.6879989 107.96,46.912 C107.96,47.1253344 107.994666,47.3093326 108.064,47.464 C108.133334,47.6186674 108.227999,47.7453328 108.348,47.844 C108.468001,47.9426672 108.609333,48.0146664 108.772,48.06 C108.934667,48.1053336 109.109332,48.128 109.296,48.128 C109.546668,48.128 109.775999,48.1026669 109.984,48.052 C110.192001,48.0013331 110.387999,47.9280005 110.572,47.832 C110.756001,47.7359995 110.931999,47.621334 111.1,47.488 C111.268001,47.354666 111.431999,47.2026675 111.592,47.032 L111.592,45.352 Z M106.992,42.04 C107.440002,41.6079978 107.922664,41.2853344 108.44,41.072 C108.957336,40.8586656 109.530664,40.752 110.16,40.752 C110.613336,40.752 111.015998,40.8266659 111.368,40.976 C111.720002,41.1253341 112.015999,41.333332 112.256,41.6 C112.496001,41.866668 112.677333,42.1893314 112.8,42.568 C112.922667,42.9466686 112.984,43.3626644 112.984,43.816 L112.984,49 L112.352,49 C112.213333,49 112.106667,48.9773336 112.032,48.932 C111.957333,48.8866664 111.898667,48.797334 111.856,48.664 L111.696,47.896 C111.482666,48.0933343 111.274668,48.2679992 111.072,48.42 C110.869332,48.5720008 110.656001,48.6999995 110.432,48.804 C110.207999,48.9080005 109.969335,48.9879997 109.716,49.044 C109.462665,49.1000003 109.181335,49.128 108.872,49.128 C108.557332,49.128 108.261335,49.0840004 107.984,48.996 C107.706665,48.9079996 107.465334,48.7760009 107.26,48.6 C107.054666,48.4239991 106.892001,48.2013347 106.772,47.932 C106.651999,47.6626653 106.592,47.3440018 106.592,46.976 C106.592,46.6559984 106.679999,46.3480015 106.856,46.052 C107.032001,45.7559985 107.317331,45.4933345 107.712,45.264 C108.106669,45.0346655 108.62133,44.8466674 109.256,44.7 C109.89067,44.5533326 110.669329,44.4693334 111.592,44.448 L111.592,43.816 C111.592,43.1866635 111.456001,42.7106683 111.184,42.388 C110.911999,42.0653317 110.514669,41.904 109.992,41.904 C109.639998,41.904 109.345335,41.9479996 109.108,42.036 C108.870665,42.1240004 108.665334,42.2226661 108.492,42.332 C108.318666,42.4413339 108.169334,42.5399996 108.044,42.628 C107.918666,42.7160004 107.794667,42.76 107.672,42.76 C107.576,42.76 107.493334,42.7346669 107.424,42.684 C107.354666,42.6333331 107.296,42.570667 107.248,42.496 L106.992,42.04 Z M116.496,42.072 C116.672001,41.8746657 116.858666,41.6960008 117.056,41.536 C117.253334,41.3759992 117.462666,41.2386672 117.684,41.124 C117.905334,41.0093328 118.139999,40.9213336 118.388,40.86 C118.636001,40.7986664 118.903999,40.768 119.192,40.768 C119.634669,40.768 120.025332,40.8413326 120.364,40.988 C120.702668,41.1346674 120.985332,41.3426653 121.212,41.612 C121.438668,41.8813347 121.610666,42.2053314 121.728,42.584 C121.845334,42.9626686 121.904,43.381331 121.904,43.84 L121.904,49 L120.472,49 L120.472,43.84 C120.472,43.2266636 120.332001,42.7506684 120.052,42.412 C119.771999,42.0733316 119.34667,41.904 118.776,41.904 C118.354665,41.904 117.961335,42.0053323 117.596,42.208 C117.230665,42.4106677 116.893335,42.6853316 116.584,43.032 L116.584,49 L115.152,49 L115.152,40.896 L116.008,40.896 C116.210668,40.896 116.336,40.9946657 116.384,41.192 L116.496,42.072 Z M126.568,49.128 C125.927997,49.128 125.436002,48.9493351 125.092,48.592 C124.747998,48.2346649 124.576,47.7200034 124.576,47.048 L124.576,42.088 L123.6,42.088 C123.514666,42.088 123.442667,42.0626669 123.384,42.012 C123.325333,41.9613331 123.296,41.8826672 123.296,41.776 L123.296,41.208 L124.624,41.04 L124.952,38.536 C124.968,38.4559996 125.004,38.3906669 125.06,38.34 C125.116,38.2893331 125.189333,38.264 125.28,38.264 L126,38.264 L126,41.056 L128.344,41.056 L128.344,42.088 L126,42.088 L126,46.952 C126,47.293335 126.082666,47.5466658 126.248,47.712 C126.413334,47.8773342 126.626665,47.96 126.888,47.96 C127.037334,47.96 127.166666,47.9400002 127.276,47.9 C127.385334,47.8599998 127.48,47.8160002 127.56,47.768 C127.64,47.7199998 127.708,47.6760002 127.764,47.636 C127.82,47.5959998 127.869333,47.576 127.912,47.576 C127.986667,47.576 128.053333,47.6213329 128.112,47.712 L128.528,48.392 C128.282665,48.6213345 127.986668,48.8013327 127.64,48.932 C127.293332,49.0626673 126.936002,49.128 126.568,49.128 Z M131.288,37.216 L131.288,49 L129.864,49 L129.864,37.216 L131.288,37.216 Z M140.584,40.896 L136.064,51.392 C136.016,51.4986672 135.956,51.5839997 135.884,51.648 C135.812,51.7120003 135.701334,51.744 135.552,51.744 L134.496,51.744 L135.976,48.528 L132.632,40.896 L133.864,40.896 C133.986667,40.896 134.084,40.9266664 134.156,40.988 C134.228,41.0493336 134.277333,41.117333 134.304,41.192 L136.472,46.296 C136.557334,46.5200011 136.629333,46.7546654 136.688,47 C136.762667,46.7493321 136.842666,46.5120011 136.928,46.288 L139.032,41.192 C139.064,41.1066662 139.118666,41.0360003 139.196,40.98 C139.273334,40.9239997 139.36,40.896 139.456,40.896 L140.584,40.896 Z M148.76,45.04 C149.048001,45.04 149.301332,45.0000004 149.52,44.92 C149.738668,44.8399996 149.922666,44.7280007 150.072,44.584 C150.221334,44.4399993 150.333333,44.268001 150.408,44.068 C150.482667,43.867999 150.52,43.6480012 150.52,43.408 C150.52,42.9119975 150.369335,42.5173348 150.068,42.224 C149.766665,41.9306652 149.33067,41.784 148.76,41.784 C148.183997,41.784 147.745335,41.9306652 147.444,42.224 C147.142665,42.5173348 146.992,42.9119975 146.992,43.408 C146.992,43.6480012 147.030666,43.867999 147.108,44.068 C147.185334,44.268001 147.298666,44.4399993 147.448,44.584 C147.597334,44.7280007 147.781332,44.8399996 148,44.92 C148.218668,45.0000004 148.471999,45.04 148.76,45.04 Z M151.328,49.44 C151.328,49.2426657 151.272001,49.0826673 151.16,48.96 C151.047999,48.8373327 150.897334,48.7413337 150.708,48.672 C150.518666,48.6026663 150.298668,48.5533335 150.048,48.524 C149.797332,48.4946665 149.532001,48.4720001 149.252,48.456 C148.971999,48.4399999 148.688001,48.4240001 148.4,48.408 C148.111999,48.3919999 147.834668,48.3653335 147.568,48.328 C147.269332,48.4666674 147.025334,48.6413323 146.836,48.852 C146.646666,49.0626677 146.552,49.3093319 146.552,49.592 C146.552,49.7733342 146.598666,49.9426659 146.692,50.1 C146.785334,50.2573341 146.927999,50.3933328 147.12,50.508 C147.312001,50.6226672 147.553332,50.713333 147.844,50.78 C148.134668,50.846667 148.477331,50.88 148.872,50.88 C149.256002,50.88 149.599998,50.8453337 149.904,50.776 C150.208002,50.7066663 150.465332,50.6080006 150.676,50.48 C150.886668,50.3519994 151.047999,50.2000009 151.16,50.024 C151.272001,49.8479991 151.328,49.6533344 151.328,49.44 Z M152.776,41.216 L152.776,41.744 C152.776,41.9200009 152.664001,42.0319998 152.44,42.08 L151.52,42.2 C151.701334,42.5520018 151.792,42.9413312 151.792,43.368 C151.792,43.7626686 151.716001,44.1213317 151.564,44.444 C151.411999,44.7666683 151.202668,45.0426655 150.936,45.272 C150.669332,45.5013345 150.349335,45.6773327 149.976,45.8 C149.602665,45.9226673 149.197336,45.984 148.76,45.984 C148.381331,45.984 148.024002,45.9386671 147.688,45.848 C147.517332,45.9546672 147.386667,46.0679994 147.296,46.188 C147.205333,46.3080006 147.16,46.4293327 147.16,46.552 C147.16,46.744001 147.238666,46.8893328 147.396,46.988 C147.553334,47.0866672 147.759999,47.1573331 148.016,47.2 C148.272001,47.2426669 148.563998,47.2693333 148.892,47.28 C149.220002,47.2906667 149.555998,47.3079999 149.9,47.332 C150.244002,47.3560001 150.579998,47.397333 150.908,47.456 C151.236002,47.514667 151.527999,47.610666 151.784,47.744 C152.040001,47.877334 152.246666,48.0613322 152.404,48.296 C152.561334,48.5306678 152.64,48.8346648 152.64,49.208 C152.64,49.5546684 152.553334,49.890665 152.38,50.216 C152.206666,50.541335 151.957335,50.8306654 151.632,51.084 C151.306665,51.3373346 150.908002,51.5399992 150.436,51.692 C149.963998,51.8440008 149.432003,51.92 148.84,51.92 C148.247997,51.92 147.730669,51.8613339 147.288,51.744 C146.845331,51.6266661 146.477335,51.4693343 146.184,51.272 C145.890665,51.0746657 145.670667,50.846668 145.524,50.588 C145.377333,50.329332 145.304,50.0586681 145.304,49.776 C145.304,49.375998 145.429332,49.0373347 145.68,48.76 C145.930668,48.4826653 146.274664,48.2613342 146.712,48.096 C146.471999,47.9893328 146.281334,47.8466676 146.14,47.668 C145.998666,47.4893324 145.928,47.2480015 145.928,46.944 C145.928,46.8266661 145.949333,46.705334 145.992,46.58 C146.034667,46.454666 146.1,46.329334 146.188,46.204 C146.276,46.078666 146.383999,45.9600006 146.512,45.848 C146.640001,45.7359994 146.789332,45.6373338 146.96,45.552 C146.559998,45.3279989 146.248001,45.0306685 146.024,44.66 C145.799999,44.2893315 145.688,43.8586691 145.688,43.368 C145.688,42.9733314 145.763999,42.6146683 145.916,42.292 C146.068001,41.9693317 146.279999,41.6946678 146.552,41.468 C146.824001,41.2413322 147.147998,41.0666673 147.524,40.944 C147.900002,40.8213327 148.311998,40.76 148.76,40.76 C149.112002,40.76 149.439998,40.7986663 149.744,40.876 C150.048002,40.9533337 150.325332,41.0666659 150.576,41.216 L152.776,41.216 Z M159.68,44.064 C159.68,43.7333317 159.633334,43.430668 159.54,43.156 C159.446666,42.881332 159.310668,42.644001 159.132,42.444 C158.953332,42.243999 158.736001,42.0893339 158.48,41.98 C158.223999,41.8706661 157.933335,41.816 157.608,41.816 C156.92533,41.816 156.385335,42.0146647 155.988,42.412 C155.590665,42.8093353 155.344,43.3599965 155.248,44.064 L159.68,44.064 Z M160.832,47.864 C160.655999,48.0773344 160.445335,48.2626659 160.2,48.42 C159.954665,48.5773341 159.692001,48.7066662 159.412,48.808 C159.131999,48.9093338 158.842668,48.9853331 158.544,49.036 C158.245332,49.0866669 157.949335,49.112 157.656,49.112 C157.095997,49.112 156.580002,49.0173343 156.108,48.828 C155.635998,48.6386657 155.228002,48.3613352 154.884,47.996 C154.539998,47.6306648 154.272001,47.1786694 154.08,46.64 C153.887999,46.1013306 153.792,45.4826702 153.792,44.784 C153.792,44.2186638 153.878666,43.6906691 154.052,43.2 C154.225334,42.7093309 154.474665,42.2840018 154.8,41.924 C155.125335,41.5639982 155.522664,41.2813344 155.992,41.076 C156.461336,40.8706656 156.98933,40.768 157.576,40.768 C158.061336,40.768 158.510665,40.8493325 158.924,41.012 C159.337335,41.1746675 159.694665,41.4093318 159.996,41.716 C160.297335,42.0226682 160.533332,42.4013311 160.704,42.852 C160.874668,43.3026689 160.96,43.8159971 160.96,44.392 C160.96,44.6160011 160.936,44.765333 160.888,44.84 C160.84,44.914667 160.749334,44.952 160.616,44.952 L155.2,44.952 C155.216,45.4640026 155.286666,45.9093314 155.412,46.288 C155.537334,46.6666686 155.711999,46.9826654 155.936,47.236 C156.160001,47.4893346 156.426665,47.678666 156.736,47.804 C157.045335,47.929334 157.391998,47.992 157.776,47.992 C158.133335,47.992 158.441332,47.9506671 158.7,47.868 C158.958668,47.7853329 159.181332,47.6960005 159.368,47.6 C159.554668,47.5039995 159.710666,47.4146671 159.836,47.332 C159.961334,47.2493329 160.069333,47.208 160.16,47.208 C160.277334,47.208 160.368,47.2533329 160.432,47.344 L160.832,47.864 Z M165.192,49.128 C164.551997,49.128 164.060002,48.9493351 163.716,48.592 C163.371998,48.2346649 163.2,47.7200034 163.2,47.048 L163.2,42.088 L162.224,42.088 C162.138666,42.088 162.066667,42.0626669 162.008,42.012 C161.949333,41.9613331 161.92,41.8826672 161.92,41.776 L161.92,41.208 L163.248,41.04 L163.576,38.536 C163.592,38.4559996 163.628,38.3906669 163.684,38.34 C163.74,38.2893331 163.813333,38.264 163.904,38.264 L164.624,38.264 L164.624,41.056 L166.968,41.056 L166.968,42.088 L164.624,42.088 L164.624,46.952 C164.624,47.293335 164.706666,47.5466658 164.872,47.712 C165.037334,47.8773342 165.250665,47.96 165.512,47.96 C165.661334,47.96 165.790666,47.9400002 165.9,47.9 C166.009334,47.8599998 166.104,47.8160002 166.184,47.768 C166.264,47.7199998 166.332,47.6760002 166.388,47.636 C166.444,47.5959998 166.493333,47.576 166.536,47.576 C166.610667,47.576 166.677333,47.6213329 166.736,47.712 L167.152,48.392 C166.906665,48.6213345 166.610668,48.8013327 166.264,48.932 C165.917332,49.0626673 165.560002,49.128 165.192,49.128 Z M175.024,49.128 C174.383997,49.128 173.892002,48.9493351 173.548,48.592 C173.203998,48.2346649 173.032,47.7200034 173.032,47.048 L173.032,42.088 L172.056,42.088 C171.970666,42.088 171.898667,42.0626669 171.84,42.012 C171.781333,41.9613331 171.752,41.8826672 171.752,41.776 L171.752,41.208 L173.08,41.04 L173.408,38.536 C173.424,38.4559996 173.46,38.3906669 173.516,38.34 C173.572,38.2893331 173.645333,38.264 173.736,38.264 L174.456,38.264 L174.456,41.056 L176.8,41.056 L176.8,42.088 L174.456,42.088 L174.456,46.952 C174.456,47.293335 174.538666,47.5466658 174.704,47.712 C174.869334,47.8773342 175.082665,47.96 175.344,47.96 C175.493334,47.96 175.622666,47.9400002 175.732,47.9 C175.841334,47.8599998 175.936,47.8160002 176.016,47.768 C176.096,47.7199998 176.164,47.6760002 176.22,47.636 C176.276,47.5959998 176.325333,47.576 176.368,47.576 C176.442667,47.576 176.509333,47.6213329 176.568,47.712 L176.984,48.392 C176.738665,48.6213345 176.442668,48.8013327 176.096,48.932 C175.749332,49.0626673 175.392002,49.128 175.024,49.128 Z M179.704,41.976 C180.050668,41.6079982 180.434665,41.3146678 180.856,41.096 C181.277335,40.8773322 181.762664,40.768 182.312,40.768 C182.754669,40.768 183.145332,40.8413326 183.484,40.988 C183.822668,41.1346674 184.105332,41.3426653 184.332,41.612 C184.558668,41.8813347 184.730666,42.2053314 184.848,42.584 C184.965334,42.9626686 185.024,43.381331 185.024,43.84 L185.024,49 L183.592,49 L183.592,43.84 C183.592,43.2266636 183.452001,42.7506684 183.172,42.412 C182.891999,42.0733316 182.46667,41.904 181.896,41.904 C181.474665,41.904 181.081335,42.0053323 180.716,42.208 C180.350665,42.4106677 180.013335,42.6853316 179.704,43.032 L179.704,49 L178.272,49 L178.272,37.216 L179.704,37.216 L179.704,41.976 Z M192.624,44.064 C192.624,43.7333317 192.577334,43.430668 192.484,43.156 C192.390666,42.881332 192.254668,42.644001 192.076,42.444 C191.897332,42.243999 191.680001,42.0893339 191.424,41.98 C191.167999,41.8706661 190.877335,41.816 190.552,41.816 C189.86933,41.816 189.329335,42.0146647 188.932,42.412 C188.534665,42.8093353 188.288,43.3599965 188.192,44.064 L192.624,44.064 Z M193.776,47.864 C193.599999,48.0773344 193.389335,48.2626659 193.144,48.42 C192.898665,48.5773341 192.636001,48.7066662 192.356,48.808 C192.075999,48.9093338 191.786668,48.9853331 191.488,49.036 C191.189332,49.0866669 190.893335,49.112 190.6,49.112 C190.039997,49.112 189.524002,49.0173343 189.052,48.828 C188.579998,48.6386657 188.172002,48.3613352 187.828,47.996 C187.483998,47.6306648 187.216001,47.1786694 187.024,46.64 C186.831999,46.1013306 186.736,45.4826702 186.736,44.784 C186.736,44.2186638 186.822666,43.6906691 186.996,43.2 C187.169334,42.7093309 187.418665,42.2840018 187.744,41.924 C188.069335,41.5639982 188.466664,41.2813344 188.936,41.076 C189.405336,40.8706656 189.93333,40.768 190.52,40.768 C191.005336,40.768 191.454665,40.8493325 191.868,41.012 C192.281335,41.1746675 192.638665,41.4093318 192.94,41.716 C193.241335,42.0226682 193.477332,42.4013311 193.648,42.852 C193.818668,43.3026689 193.904,43.8159971 193.904,44.392 C193.904,44.6160011 193.88,44.765333 193.832,44.84 C193.784,44.914667 193.693334,44.952 193.56,44.952 L188.144,44.952 C188.16,45.4640026 188.230666,45.9093314 188.356,46.288 C188.481334,46.6666686 188.655999,46.9826654 188.88,47.236 C189.104001,47.4893346 189.370665,47.678666 189.68,47.804 C189.989335,47.929334 190.335998,47.992 190.72,47.992 C191.077335,47.992 191.385332,47.9506671 191.644,47.868 C191.902668,47.7853329 192.125332,47.6960005 192.312,47.6 C192.498668,47.5039995 192.654666,47.4146671 192.78,47.332 C192.905334,47.2493329 193.013333,47.208 193.104,47.208 C193.221334,47.208 193.312,47.2533329 193.376,47.344 L193.776,47.864 Z M205.384,42.336 C205.341333,42.394667 205.298667,42.4399998 205.256,42.472 C205.213333,42.5040002 205.154667,42.52 205.08,42.52 C205,42.52 204.912,42.486667 204.816,42.42 C204.72,42.353333 204.601334,42.2800004 204.46,42.2 C204.318666,42.1199996 204.145334,42.046667 203.94,41.98 C203.734666,41.913333 203.482668,41.88 203.184,41.88 C202.783998,41.88 202.432002,41.950666 202.128,42.092 C201.823998,42.233334 201.569334,42.437332 201.364,42.704 C201.158666,42.970668 201.004001,43.2933314 200.9,43.672 C200.795999,44.0506686 200.744,44.4746643 200.744,44.944 C200.744,45.4346691 200.799999,45.8706648 200.912,46.252 C201.024001,46.6333352 201.182666,46.953332 201.388,47.212 C201.593334,47.470668 201.841332,47.6679993 202.132,47.804 C202.422668,47.9400007 202.749332,48.008 203.112,48.008 C203.458668,48.008 203.743999,47.9666671 203.968,47.884 C204.192001,47.8013329 204.377333,47.7093338 204.524,47.608 C204.670667,47.5066662 204.793333,47.4146671 204.892,47.332 C204.990667,47.2493329 205.088,47.208 205.184,47.208 C205.301334,47.208 205.392,47.2533329 205.456,47.344 L205.856,47.864 C205.679999,48.0826678 205.480001,48.2693326 205.256,48.424 C205.031999,48.5786674 204.790668,48.7079995 204.532,48.812 C204.273332,48.9160005 204.002668,48.9919998 203.72,49.04 C203.437332,49.0880002 203.149335,49.112 202.856,49.112 C202.349331,49.112 201.878669,49.0186676 201.444,48.832 C201.009331,48.6453324 200.632002,48.3746684 200.312,48.02 C199.991998,47.6653316 199.741334,47.2293359 199.56,46.712 C199.378666,46.1946641 199.288,45.6053366 199.288,44.944 C199.288,44.3413303 199.371999,43.7840026 199.54,43.272 C199.708001,42.7599974 199.953332,42.3186685 200.276,41.948 C200.598668,41.5773315 200.995998,41.288001 201.468,41.08 C201.940002,40.871999 202.482664,40.768 203.096,40.768 C203.66667,40.768 204.169331,40.8599991 204.604,41.044 C205.038669,41.2280009 205.423998,41.4879983 205.76,41.824 L205.384,42.336 Z M210.8,40.768 C211.392003,40.768 211.925331,40.8666657 212.4,41.064 C212.874669,41.2613343 213.279998,41.5413315 213.616,41.904 C213.952002,42.2666685 214.209332,42.7053308 214.388,43.22 C214.566668,43.7346692 214.656,44.3093302 214.656,44.944 C214.656,45.5840032 214.566668,46.1599974 214.388,46.672 C214.209332,47.1840026 213.952002,47.6213315 213.616,47.984 C213.279998,48.3466685 212.874669,48.6253324 212.4,48.82 C211.925331,49.0146676 211.392003,49.112 210.8,49.112 C210.202664,49.112 209.665336,49.0146676 209.188,48.82 C208.710664,48.6253324 208.304002,48.3466685 207.968,47.984 C207.631998,47.6213315 207.374668,47.1840026 207.196,46.672 C207.017332,46.1599974 206.928,45.5840032 206.928,44.944 C206.928,44.3093302 207.017332,43.7346692 207.196,43.22 C207.374668,42.7053308 207.631998,42.2666685 207.968,41.904 C208.304002,41.5413315 208.710664,41.2613343 209.188,41.064 C209.665336,40.8666657 210.202664,40.768 210.8,40.768 Z M210.8,48 C211.600004,48 212.197331,47.7320027 212.592,47.196 C212.986669,46.6599973 213.184,45.9120048 213.184,44.952 C213.184,43.9866618 212.986669,43.2346694 212.592,42.696 C212.197331,42.1573306 211.600004,41.888 210.8,41.888 C210.394665,41.888 210.041335,41.9573326 209.74,42.096 C209.438665,42.2346674 209.188001,42.4346654 208.988,42.696 C208.787999,42.9573346 208.638667,43.2786648 208.54,43.66 C208.441333,44.0413352 208.392,44.4719976 208.392,44.952 C208.392,45.9120048 208.590665,46.6599973 208.988,47.196 C209.385335,47.7320027 209.989329,48 210.8,48 Z M217.928,37.216 L217.928,49 L216.504,49 L216.504,37.216 L217.928,37.216 Z M223.648,40.768 C224.240003,40.768 224.773331,40.8666657 225.248,41.064 C225.722669,41.2613343 226.127998,41.5413315 226.464,41.904 C226.800002,42.2666685 227.057332,42.7053308 227.236,43.22 C227.414668,43.7346692 227.504,44.3093302 227.504,44.944 C227.504,45.5840032 227.414668,46.1599974 227.236,46.672 C227.057332,47.1840026 226.800002,47.6213315 226.464,47.984 C226.127998,48.3466685 225.722669,48.6253324 225.248,48.82 C224.773331,49.0146676 224.240003,49.112 223.648,49.112 C223.050664,49.112 222.513336,49.0146676 222.036,48.82 C221.558664,48.6253324 221.152002,48.3466685 220.816,47.984 C220.479998,47.6213315 220.222668,47.1840026 220.044,46.672 C219.865332,46.1599974 219.776,45.5840032 219.776,44.944 C219.776,44.3093302 219.865332,43.7346692 220.044,43.22 C220.222668,42.7053308 220.479998,42.2666685 220.816,41.904 C221.152002,41.5413315 221.558664,41.2613343 222.036,41.064 C222.513336,40.8666657 223.050664,40.768 223.648,40.768 Z M223.648,48 C224.448004,48 225.045331,47.7320027 225.44,47.196 C225.834669,46.6599973 226.032,45.9120048 226.032,44.952 C226.032,43.9866618 225.834669,43.2346694 225.44,42.696 C225.045331,42.1573306 224.448004,41.888 223.648,41.888 C223.242665,41.888 222.889335,41.9573326 222.588,42.096 C222.286665,42.2346674 222.036001,42.4346654 221.836,42.696 C221.635999,42.9573346 221.486667,43.2786648 221.388,43.66 C221.289333,44.0413352 221.24,44.4719976 221.24,44.952 C221.24,45.9120048 221.438665,46.6599973 221.836,47.196 C222.233335,47.7320027 222.837329,48 223.648,48 Z M230.656,42.52 C230.912001,41.9653306 231.226665,41.5320016 231.6,41.22 C231.973335,40.9079984 232.429331,40.752 232.968,40.752 C233.138668,40.752 233.302666,40.7706665 233.46,40.808 C233.617334,40.8453335 233.757333,40.9039996 233.88,40.984 L233.776,42.048 C233.744,42.181334 233.664001,42.248 233.536,42.248 C233.461333,42.248 233.352001,42.2320002 233.208,42.2 C233.063999,42.1679998 232.901334,42.152 232.72,42.152 C232.463999,42.152 232.236001,42.189333 232.036,42.264 C231.835999,42.338667 231.657334,42.4493326 231.5,42.596 C231.342666,42.7426674 231.201334,42.9239989 231.076,43.14 C230.950666,43.3560011 230.837334,43.6026653 230.736,43.88 L230.736,49 L229.304,49 L229.304,40.896 L230.12,40.896 C230.274667,40.896 230.381333,40.925333 230.44,40.984 C230.498667,41.042667 230.538667,41.1439993 230.56,41.288 L230.656,42.52 Z M240.728,40.896 L240.728,49 L239.304,49 L239.304,40.896 L240.728,40.896 Z M241.032,38.352 C241.032,38.4906674 241.004,38.6199994 240.948,38.74 C240.892,38.8600006 240.817334,38.9666662 240.724,39.06 C240.630666,39.1533338 240.521334,39.2266664 240.396,39.28 C240.270666,39.3333336 240.138667,39.36 240,39.36 C239.861333,39.36 239.732001,39.3333336 239.612,39.28 C239.491999,39.2266664 239.386667,39.1533338 239.296,39.06 C239.205333,38.9666662 239.133334,38.8600006 239.08,38.74 C239.026666,38.6199994 239,38.4906674 239,38.352 C239,38.2133326 239.026666,38.081334 239.08,37.956 C239.133334,37.830666 239.205333,37.7213338 239.296,37.628 C239.386667,37.5346662 239.491999,37.4613336 239.612,37.408 C239.732001,37.3546664 239.861333,37.328 240,37.328 C240.138667,37.328 240.270666,37.3546664 240.396,37.408 C240.521334,37.4613336 240.630666,37.5346662 240.724,37.628 C240.817334,37.7213338 240.892,37.830666 240.948,37.956 C241.004,38.081334 241.032,38.2133326 241.032,38.352 Z M244.408,42.072 C244.584001,41.8746657 244.770666,41.6960008 244.968,41.536 C245.165334,41.3759992 245.374666,41.2386672 245.596,41.124 C245.817334,41.0093328 246.051999,40.9213336 246.3,40.86 C246.548001,40.7986664 246.815999,40.768 247.104,40.768 C247.546669,40.768 247.937332,40.8413326 248.276,40.988 C248.614668,41.1346674 248.897332,41.3426653 249.124,41.612 C249.350668,41.8813347 249.522666,42.2053314 249.64,42.584 C249.757334,42.9626686 249.816,43.381331 249.816,43.84 L249.816,49 L248.384,49 L248.384,43.84 C248.384,43.2266636 248.244001,42.7506684 247.964,42.412 C247.683999,42.0733316 247.25867,41.904 246.688,41.904 C246.266665,41.904 245.873335,42.0053323 245.508,42.208 C245.142665,42.4106677 244.805335,42.6853316 244.496,43.032 L244.496,49 L243.064,49 L243.064,40.896 L243.92,40.896 C244.122668,40.896 244.248,40.9946657 244.296,41.192 L244.408,42.072 Z M257.52,41.976 C257.866668,41.6079982 258.250665,41.3146678 258.672,41.096 C259.093335,40.8773322 259.578664,40.768 260.128,40.768 C260.570669,40.768 260.961332,40.8413326 261.3,40.988 C261.638668,41.1346674 261.921332,41.3426653 262.148,41.612 C262.374668,41.8813347 262.546666,42.2053314 262.664,42.584 C262.781334,42.9626686 262.84,43.381331 262.84,43.84 L262.84,49 L261.408,49 L261.408,43.84 C261.408,43.2266636 261.268001,42.7506684 260.988,42.412 C260.707999,42.0733316 260.28267,41.904 259.712,41.904 C259.290665,41.904 258.897335,42.0053323 258.532,42.208 C258.166665,42.4106677 257.829335,42.6853316 257.52,43.032 L257.52,49 L256.088,49 L256.088,37.216 L257.52,37.216 L257.52,41.976 Z M270.44,44.064 C270.44,43.7333317 270.393334,43.430668 270.3,43.156 C270.206666,42.881332 270.070668,42.644001 269.892,42.444 C269.713332,42.243999 269.496001,42.0893339 269.24,41.98 C268.983999,41.8706661 268.693335,41.816 268.368,41.816 C267.68533,41.816 267.145335,42.0146647 266.748,42.412 C266.350665,42.8093353 266.104,43.3599965 266.008,44.064 L270.44,44.064 Z M271.592,47.864 C271.415999,48.0773344 271.205335,48.2626659 270.96,48.42 C270.714665,48.5773341 270.452001,48.7066662 270.172,48.808 C269.891999,48.9093338 269.602668,48.9853331 269.304,49.036 C269.005332,49.0866669 268.709335,49.112 268.416,49.112 C267.855997,49.112 267.340002,49.0173343 266.868,48.828 C266.395998,48.6386657 265.988002,48.3613352 265.644,47.996 C265.299998,47.6306648 265.032001,47.1786694 264.84,46.64 C264.647999,46.1013306 264.552,45.4826702 264.552,44.784 C264.552,44.2186638 264.638666,43.6906691 264.812,43.2 C264.985334,42.7093309 265.234665,42.2840018 265.56,41.924 C265.885335,41.5639982 266.282664,41.2813344 266.752,41.076 C267.221336,40.8706656 267.74933,40.768 268.336,40.768 C268.821336,40.768 269.270665,40.8493325 269.684,41.012 C270.097335,41.1746675 270.454665,41.4093318 270.756,41.716 C271.057335,42.0226682 271.293332,42.4013311 271.464,42.852 C271.634668,43.3026689 271.72,43.8159971 271.72,44.392 C271.72,44.6160011 271.696,44.765333 271.648,44.84 C271.6,44.914667 271.509334,44.952 271.376,44.952 L265.96,44.952 C265.976,45.4640026 266.046666,45.9093314 266.172,46.288 C266.297334,46.6666686 266.471999,46.9826654 266.696,47.236 C266.920001,47.4893346 267.186665,47.678666 267.496,47.804 C267.805335,47.929334 268.151998,47.992 268.536,47.992 C268.893335,47.992 269.201332,47.9506671 269.46,47.868 C269.718668,47.7853329 269.941332,47.6960005 270.128,47.6 C270.314668,47.5039995 270.470666,47.4146671 270.596,47.332 C270.721334,47.2493329 270.829333,47.208 270.92,47.208 C271.037334,47.208 271.128,47.2533329 271.192,47.344 L271.592,47.864 Z M280.12,49 L278.752,49 C278.634666,49 278.542667,48.9693336 278.476,48.908 C278.409333,48.8466664 278.354667,48.778667 278.312,48.704 L276.272,45.528 C276.250667,45.602667 276.228,45.6759996 276.204,45.748 C276.18,45.8200004 276.146667,45.885333 276.104,45.944 L274.216,48.704 C274.162666,48.778667 274.105334,48.8466664 274.044,48.908 C273.982666,48.9693336 273.898667,49 273.792,49 L272.52,49 L275.36,44.84 L272.632,40.896 L274,40.896 C274.117334,40.896 274.202666,40.9146665 274.256,40.952 C274.309334,40.9893335 274.357333,41.0426663 274.4,41.112 L276.392,44.152 C276.434667,43.9973326 276.501333,43.8480007 276.592,43.704 L278.336,41.144 C278.384,41.069333 278.436,41.0093336 278.492,40.964 C278.548,40.9186664 278.616,40.896 278.696,40.896 L280.008,40.896 L277.28,44.768 L280.12,49 Z M281.344,50.936 C281.301333,50.8986665 281.272,50.8640002 281.256,50.832 C281.24,50.7999998 281.232,50.7600002 281.232,50.712 C281.232,50.6746665 281.244,50.6373335 281.268,50.6 C281.292,50.5626665 281.32,50.5280002 281.352,50.496 C281.405334,50.437333 281.473333,50.3600005 281.556,50.264 C281.638667,50.1679995 281.722666,50.0546673 281.808,49.924 C281.893334,49.7933327 281.972,49.6493341 282.044,49.492 C282.116,49.3346659 282.168,49.1680009 282.2,48.992 C282.184,48.9973334 282.166667,49 282.148,49 L282.096,49 C281.818665,49 281.593334,48.9080009 281.42,48.724 C281.246666,48.5399991 281.16,48.3040014 281.16,48.016 C281.16,47.7653321 281.246666,47.5520009 281.42,47.376 C281.593334,47.1999991 281.823999,47.112 282.112,47.112 C282.272001,47.112 282.413333,47.141333 282.536,47.2 C282.658667,47.258667 282.761333,47.3399995 282.844,47.444 C282.926667,47.5480005 282.989333,47.6679993 283.032,47.804 C283.074667,47.9400007 283.096,48.0879992 283.096,48.248 C283.096,48.4880012 283.062667,48.737332 282.996,48.996 C282.929333,49.254668 282.830667,49.5106654 282.7,49.764 C282.569333,50.0173346 282.410668,50.2639988 282.224,50.504 C282.037332,50.7440012 281.824001,50.9653323 281.584,51.168 L281.344,50.936 Z M290.512,42.52 C290.768001,41.9653306 291.082665,41.5320016 291.456,41.22 C291.829335,40.9079984 292.285331,40.752 292.824,40.752 C292.994668,40.752 293.158666,40.7706665 293.316,40.808 C293.473334,40.8453335 293.613333,40.9039996 293.736,40.984 L293.632,42.048 C293.6,42.181334 293.520001,42.248 293.392,42.248 C293.317333,42.248 293.208001,42.2320002 293.064,42.2 C292.919999,42.1679998 292.757334,42.152 292.576,42.152 C292.319999,42.152 292.092001,42.189333 291.892,42.264 C291.691999,42.338667 291.513334,42.4493326 291.356,42.596 C291.198666,42.7426674 291.057334,42.9239989 290.932,43.14 C290.806666,43.3560011 290.693334,43.6026653 290.592,43.88 L290.592,49 L289.16,49 L289.16,40.896 L289.976,40.896 C290.130667,40.896 290.237333,40.925333 290.296,40.984 C290.354667,41.042667 290.394667,41.1439993 290.416,41.288 L290.512,42.52 Z M297.808,45.04 C298.096001,45.04 298.349332,45.0000004 298.568,44.92 C298.786668,44.8399996 298.970666,44.7280007 299.12,44.584 C299.269334,44.4399993 299.381333,44.268001 299.456,44.068 C299.530667,43.867999 299.568,43.6480012 299.568,43.408 C299.568,42.9119975 299.417335,42.5173348 299.116,42.224 C298.814665,41.9306652 298.37867,41.784 297.808,41.784 C297.231997,41.784 296.793335,41.9306652 296.492,42.224 C296.190665,42.5173348 296.04,42.9119975 296.04,43.408 C296.04,43.6480012 296.078666,43.867999 296.156,44.068 C296.233334,44.268001 296.346666,44.4399993 296.496,44.584 C296.645334,44.7280007 296.829332,44.8399996 297.048,44.92 C297.266668,45.0000004 297.519999,45.04 297.808,45.04 Z M300.376,49.44 C300.376,49.2426657 300.320001,49.0826673 300.208,48.96 C300.095999,48.8373327 299.945334,48.7413337 299.756,48.672 C299.566666,48.6026663 299.346668,48.5533335 299.096,48.524 C298.845332,48.4946665 298.580001,48.4720001 298.3,48.456 C298.019999,48.4399999 297.736001,48.4240001 297.448,48.408 C297.159999,48.3919999 296.882668,48.3653335 296.616,48.328 C296.317332,48.4666674 296.073334,48.6413323 295.884,48.852 C295.694666,49.0626677 295.6,49.3093319 295.6,49.592 C295.6,49.7733342 295.646666,49.9426659 295.74,50.1 C295.833334,50.2573341 295.975999,50.3933328 296.168,50.508 C296.360001,50.6226672 296.601332,50.713333 296.892,50.78 C297.182668,50.846667 297.525331,50.88 297.92,50.88 C298.304002,50.88 298.647998,50.8453337 298.952,50.776 C299.256002,50.7066663 299.513332,50.6080006 299.724,50.48 C299.934668,50.3519994 300.095999,50.2000009 300.208,50.024 C300.320001,49.8479991 300.376,49.6533344 300.376,49.44 Z M301.824,41.216 L301.824,41.744 C301.824,41.9200009 301.712001,42.0319998 301.488,42.08 L300.568,42.2 C300.749334,42.5520018 300.84,42.9413312 300.84,43.368 C300.84,43.7626686 300.764001,44.1213317 300.612,44.444 C300.459999,44.7666683 300.250668,45.0426655 299.984,45.272 C299.717332,45.5013345 299.397335,45.6773327 299.024,45.8 C298.650665,45.9226673 298.245336,45.984 297.808,45.984 C297.429331,45.984 297.072002,45.9386671 296.736,45.848 C296.565332,45.9546672 296.434667,46.0679994 296.344,46.188 C296.253333,46.3080006 296.208,46.4293327 296.208,46.552 C296.208,46.744001 296.286666,46.8893328 296.444,46.988 C296.601334,47.0866672 296.807999,47.1573331 297.064,47.2 C297.320001,47.2426669 297.611998,47.2693333 297.94,47.28 C298.268002,47.2906667 298.603998,47.3079999 298.948,47.332 C299.292002,47.3560001 299.627998,47.397333 299.956,47.456 C300.284002,47.514667 300.575999,47.610666 300.832,47.744 C301.088001,47.877334 301.294666,48.0613322 301.452,48.296 C301.609334,48.5306678 301.688,48.8346648 301.688,49.208 C301.688,49.5546684 301.601334,49.890665 301.428,50.216 C301.254666,50.541335 301.005335,50.8306654 300.68,51.084 C300.354665,51.3373346 299.956002,51.5399992 299.484,51.692 C299.011998,51.8440008 298.480003,51.92 297.888,51.92 C297.295997,51.92 296.778669,51.8613339 296.336,51.744 C295.893331,51.6266661 295.525335,51.4693343 295.232,51.272 C294.938665,51.0746657 294.718667,50.846668 294.572,50.588 C294.425333,50.329332 294.352,50.0586681 294.352,49.776 C294.352,49.375998 294.477332,49.0373347 294.728,48.76 C294.978668,48.4826653 295.322664,48.2613342 295.76,48.096 C295.519999,47.9893328 295.329334,47.8466676 295.188,47.668 C295.046666,47.4893324 294.976,47.2480015 294.976,46.944 C294.976,46.8266661 294.997333,46.705334 295.04,46.58 C295.082667,46.454666 295.148,46.329334 295.236,46.204 C295.324,46.078666 295.431999,45.9600006 295.56,45.848 C295.688001,45.7359994 295.837332,45.6373338 296.008,45.552 C295.607998,45.3279989 295.296001,45.0306685 295.072,44.66 C294.847999,44.2893315 294.736,43.8586691 294.736,43.368 C294.736,42.9733314 294.811999,42.6146683 294.964,42.292 C295.116001,41.9693317 295.327999,41.6946678 295.6,41.468 C295.872001,41.2413322 296.195998,41.0666673 296.572,40.944 C296.948002,40.8213327 297.359998,40.76 297.808,40.76 C298.160002,40.76 298.487998,40.7986663 298.792,40.876 C299.096002,40.9533337 299.373332,41.0666659 299.624,41.216 L301.824,41.216 Z M304.736,47.048 C304.997335,47.4000018 305.283998,47.6479993 305.596,47.792 C305.908002,47.9360007 306.250665,48.008 306.624,48.008 C307.38667,48.008 307.970665,47.7386694 308.376,47.2 C308.781335,46.6613306 308.984,45.858672 308.984,44.792 C308.984,43.799995 308.804002,43.070669 308.444,42.604 C308.083998,42.137331 307.57067,41.904 306.904,41.904 C306.439998,41.904 306.036002,42.0106656 305.692,42.224 C305.347998,42.4373344 305.029335,42.7386647 304.736,43.128 L304.736,47.048 Z M304.736,42.064 C305.077335,41.6693314 305.462665,41.3546678 305.892,41.12 C306.321335,40.8853322 306.815997,40.768 307.376,40.768 C307.850669,40.768 308.278665,40.8586658 308.66,41.04 C309.041335,41.2213342 309.365332,41.4839983 309.632,41.828 C309.898668,42.1720017 310.102666,42.5893309 310.244,43.08 C310.385334,43.5706691 310.456,44.1226636 310.456,44.736 C310.456,45.3920033 310.376001,45.9893306 310.216,46.528 C310.055999,47.0666694 309.825335,47.5266648 309.524,47.908 C309.222665,48.2893352 308.856002,48.5853323 308.424,48.796 C307.991998,49.0066677 307.506669,49.112 306.968,49.112 C306.434664,49.112 305.985335,49.012001 305.62,48.812 C305.254665,48.611999 304.936001,48.3280018 304.664,47.96 L304.592,48.696 C304.549333,48.8986677 304.426668,49 304.224,49 L303.304,49 L303.304,37.216 L304.736,37.216 L304.736,42.064 Z M312.176,50.936 C312.133333,50.8986665 312.104,50.8640002 312.088,50.832 C312.072,50.7999998 312.064,50.7600002 312.064,50.712 C312.064,50.6746665 312.076,50.6373335 312.1,50.6 C312.124,50.5626665 312.152,50.5280002 312.184,50.496 C312.237334,50.437333 312.305333,50.3600005 312.388,50.264 C312.470667,50.1679995 312.554666,50.0546673 312.64,49.924 C312.725334,49.7933327 312.804,49.6493341 312.876,49.492 C312.948,49.3346659 313,49.1680009 313.032,48.992 C313.016,48.9973334 312.998667,49 312.98,49 L312.928,49 C312.650665,49 312.425334,48.9080009 312.252,48.724 C312.078666,48.5399991 311.992,48.3040014 311.992,48.016 C311.992,47.7653321 312.078666,47.5520009 312.252,47.376 C312.425334,47.1999991 312.655999,47.112 312.944,47.112 C313.104001,47.112 313.245333,47.141333 313.368,47.2 C313.490667,47.258667 313.593333,47.3399995 313.676,47.444 C313.758667,47.5480005 313.821333,47.6679993 313.864,47.804 C313.906667,47.9400007 313.928,48.0879992 313.928,48.248 C313.928,48.4880012 313.894667,48.737332 313.828,48.996 C313.761333,49.254668 313.662667,49.5106654 313.532,49.764 C313.401333,50.0173346 313.242668,50.2639988 313.056,50.504 C312.869332,50.7440012 312.656001,50.9653323 312.416,51.168 L312.176,50.936 Z M326.192,39.328 C326.144,39.4080004 326.092,39.4679998 326.036,39.508 C325.98,39.5480002 325.912,39.568 325.832,39.568 C325.741333,39.568 325.634667,39.5226671 325.512,39.432 C325.389333,39.3413329 325.236001,39.2413339 325.052,39.132 C324.867999,39.0226661 324.646668,38.9226671 324.388,38.832 C324.129332,38.7413329 323.816002,38.696 323.448,38.696 C323.101332,38.696 322.796001,38.7426662 322.532,38.836 C322.267999,38.9293338 322.046668,39.0559992 321.868,39.216 C321.689332,39.3760008 321.554667,39.5639989 321.464,39.78 C321.373333,39.9960011 321.328,40.2293321 321.328,40.48 C321.328,40.8000016 321.406666,41.0653323 321.564,41.276 C321.721334,41.4866677 321.929332,41.6666659 322.188,41.816 C322.446668,41.9653341 322.739998,42.0946661 323.068,42.204 C323.396002,42.3133339 323.731998,42.4266661 324.076,42.544 C324.420002,42.6613339 324.755998,42.7933326 325.084,42.94 C325.412002,43.0866674 325.705332,43.2719989 325.964,43.496 C326.222668,43.7200011 326.430666,43.994665 326.588,44.32 C326.745334,44.645335 326.824,45.045331 326.824,45.52 C326.824,46.0213358 326.738668,46.4919978 326.568,46.932 C326.397332,47.3720022 326.148002,47.754665 325.82,48.08 C325.491998,48.405335 325.089336,48.6613324 324.612,48.848 C324.134664,49.0346676 323.592003,49.128 322.984,49.128 C322.23733,49.128 321.560003,48.9933347 320.952,48.724 C320.343997,48.4546653 319.824002,48.090669 319.392,47.632 L319.84,46.896 C319.882667,46.837333 319.934666,46.7880002 319.996,46.748 C320.057334,46.7079998 320.125333,46.688 320.2,46.688 C320.269334,46.688 320.348,46.7159997 320.436,46.772 C320.524,46.8280003 320.623999,46.8986662 320.736,46.984 C320.848001,47.0693338 320.975999,47.1626662 321.12,47.264 C321.264001,47.3653338 321.427999,47.4586662 321.612,47.544 C321.796001,47.6293338 322.005332,47.6999997 322.24,47.756 C322.474668,47.8120003 322.738665,47.84 323.032,47.84 C323.400002,47.84 323.727999,47.7893338 324.016,47.688 C324.304001,47.5866662 324.547999,47.4440009 324.748,47.26 C324.948001,47.0759991 325.101333,46.8560013 325.208,46.6 C325.314667,46.3439987 325.368,46.0586682 325.368,45.744 C325.368,45.3973316 325.289334,45.1133344 325.132,44.892 C324.974666,44.6706656 324.768001,44.4853341 324.512,44.336 C324.255999,44.1866659 323.962668,44.0600005 323.632,43.956 C323.301332,43.8519995 322.965335,43.7453339 322.624,43.636 C322.282665,43.5266661 321.946668,43.4000007 321.616,43.256 C321.285332,43.1119993 320.992001,42.9253345 320.736,42.696 C320.479999,42.4666655 320.273334,42.1800017 320.116,41.836 C319.958666,41.4919983 319.88,41.0666692 319.88,40.56 C319.88,40.1546646 319.958666,39.7626686 320.116,39.384 C320.273334,39.0053314 320.502665,38.6693348 320.804,38.376 C321.105335,38.0826652 321.475998,37.8480009 321.916,37.672 C322.356002,37.4959991 322.86133,37.408 323.432,37.408 C324.072003,37.408 324.654664,37.5093323 325.18,37.712 C325.705336,37.9146677 326.167998,38.2079981 326.568,38.592 L326.192,39.328 Z M339.848,40.896 L337.224,49 L336.096,49 C335.957333,49 335.861334,48.9093342 335.808,48.728 L334.016,43.232 C333.973333,43.1093327 333.938667,42.985334 333.912,42.86 C333.885333,42.734666 333.858667,42.6106673 333.832,42.488 C333.805333,42.6106673 333.778667,42.734666 333.752,42.86 C333.725333,42.985334 333.690667,43.1119994 333.648,43.24 L331.824,48.728 C331.776,48.9093342 331.669334,49 331.504,49 L330.432,49 L327.808,40.896 L328.928,40.896 C329.040001,40.896 329.134666,40.925333 329.212,40.984 C329.289334,41.042667 329.341333,41.1119996 329.368,41.192 L330.92,46.408 C331.010667,46.7920019 331.082666,47.154665 331.136,47.496 C331.184,47.3199991 331.233333,47.1413342 331.284,46.96 C331.334667,46.7786658 331.389333,46.5946676 331.448,46.408 L333.16,41.16 C333.186667,41.0799996 333.233333,41.0133336 333.3,40.96 C333.366667,40.9066664 333.448,40.88 333.544,40.88 L334.168,40.88 C334.274667,40.88 334.362666,40.9066664 334.432,40.96 C334.501334,41.0133336 334.549333,41.0799996 334.576,41.16 L336.248,46.408 C336.306667,46.5946676 336.36,46.7786658 336.408,46.96 C336.456,47.1413342 336.501333,47.3199991 336.544,47.496 C336.570667,47.3199991 336.604,47.1426676 336.644,46.964 C336.684,46.7853324 336.728,46.600001 336.776,46.408 L338.36,41.192 C338.386667,41.1066662 338.437333,41.0360003 338.512,40.98 C338.586667,40.9239997 338.674666,40.896 338.776,40.896 L339.848,40.896 Z M342.744,40.896 L342.744,49 L341.32,49 L341.32,40.896 L342.744,40.896 Z M343.048,38.352 C343.048,38.4906674 343.02,38.6199994 342.964,38.74 C342.908,38.8600006 342.833334,38.9666662 342.74,39.06 C342.646666,39.1533338 342.537334,39.2266664 342.412,39.28 C342.286666,39.3333336 342.154667,39.36 342.016,39.36 C341.877333,39.36 341.748001,39.3333336 341.628,39.28 C341.507999,39.2266664 341.402667,39.1533338 341.312,39.06 C341.221333,38.9666662 341.149334,38.8600006 341.096,38.74 C341.042666,38.6199994 341.016,38.4906674 341.016,38.352 C341.016,38.2133326 341.042666,38.081334 341.096,37.956 C341.149334,37.830666 341.221333,37.7213338 341.312,37.628 C341.402667,37.5346662 341.507999,37.4613336 341.628,37.408 C341.748001,37.3546664 341.877333,37.328 342.016,37.328 C342.154667,37.328 342.286666,37.3546664 342.412,37.408 C342.537334,37.4613336 342.646666,37.5346662 342.74,37.628 C342.833334,37.7213338 342.908,37.830666 342.964,37.956 C343.02,38.081334 343.048,38.2133326 343.048,38.352 Z M352.216,42.088 L352.216,46.952 C352.216,47.293335 352.298666,47.5466658 352.464,47.712 C352.629334,47.8773342 352.839999,47.96 353.096,47.96 C353.250667,47.96 353.382666,47.9400002 353.492,47.9 C353.601334,47.8599998 353.696,47.8160002 353.776,47.768 C353.856,47.7199998 353.922666,47.6760002 353.976,47.636 C354.029334,47.5959998 354.077333,47.576 354.12,47.576 C354.168,47.576 354.206667,47.5866666 354.236,47.608 C354.265333,47.6293334 354.296,47.6639998 354.328,47.712 L354.744,48.392 C354.498665,48.6213345 354.202668,48.8013327 353.856,48.932 C353.509332,49.0626673 353.149335,49.128 352.776,49.128 C352.14133,49.128 351.652002,48.9493351 351.308,48.592 C350.963998,48.2346649 350.792,47.7200034 350.792,47.048 L350.792,42.088 L347.04,42.088 L347.04,49 L345.608,49 L345.608,42.112 L344.712,42.008 C344.599999,41.9813332 344.508,41.9400003 344.436,41.884 C344.364,41.8279997 344.328,41.7466672 344.328,41.64 L344.328,41.056 L345.608,41.056 L345.608,40.272 C345.608,39.8079977 345.673333,39.3960018 345.804,39.036 C345.934667,38.6759982 346.121332,38.3720012 346.364,38.124 C346.606668,37.8759988 346.898665,37.6880006 347.24,37.56 C347.581335,37.4319994 347.965331,37.368 348.392,37.368 C348.754668,37.368 349.087998,37.4213328 349.392,37.528 L349.36,38.24 C349.349333,38.3680006 349.278667,38.4373333 349.148,38.448 C349.017333,38.4586667 348.842668,38.464 348.624,38.464 C348.378665,38.464 348.156001,38.4959997 347.956,38.56 C347.755999,38.6240003 347.584001,38.7279993 347.44,38.872 C347.295999,39.0160007 347.185334,39.2053322 347.108,39.44 C347.030666,39.6746678 346.992,39.9653316 346.992,40.312 L346.992,41.056 L350.84,41.056 L351.16,38.536 C351.181333,38.4559996 351.22,38.3906669 351.276,38.34 C351.332,38.2893331 351.405333,38.264 351.496,38.264 L352.216,38.264 L352.216,41.056 L354.552,41.056 L354.552,42.088 L352.216,42.088 Z M365.768,42.336 C365.725333,42.394667 365.682667,42.4399998 365.64,42.472 C365.597333,42.5040002 365.538667,42.52 365.464,42.52 C365.384,42.52 365.296,42.486667 365.2,42.42 C365.104,42.353333 364.985334,42.2800004 364.844,42.2 C364.702666,42.1199996 364.529334,42.046667 364.324,41.98 C364.118666,41.913333 363.866668,41.88 363.568,41.88 C363.167998,41.88 362.816002,41.950666 362.512,42.092 C362.207998,42.233334 361.953334,42.437332 361.748,42.704 C361.542666,42.970668 361.388001,43.2933314 361.284,43.672 C361.179999,44.0506686 361.128,44.4746643 361.128,44.944 C361.128,45.4346691 361.183999,45.8706648 361.296,46.252 C361.408001,46.6333352 361.566666,46.953332 361.772,47.212 C361.977334,47.470668 362.225332,47.6679993 362.516,47.804 C362.806668,47.9400007 363.133332,48.008 363.496,48.008 C363.842668,48.008 364.127999,47.9666671 364.352,47.884 C364.576001,47.8013329 364.761333,47.7093338 364.908,47.608 C365.054667,47.5066662 365.177333,47.4146671 365.276,47.332 C365.374667,47.2493329 365.472,47.208 365.568,47.208 C365.685334,47.208 365.776,47.2533329 365.84,47.344 L366.24,47.864 C366.063999,48.0826678 365.864001,48.2693326 365.64,48.424 C365.415999,48.5786674 365.174668,48.7079995 364.916,48.812 C364.657332,48.9160005 364.386668,48.9919998 364.104,49.04 C363.821332,49.0880002 363.533335,49.112 363.24,49.112 C362.733331,49.112 362.262669,49.0186676 361.828,48.832 C361.393331,48.6453324 361.016002,48.3746684 360.696,48.02 C360.375998,47.6653316 360.125334,47.2293359 359.944,46.712 C359.762666,46.1946641 359.672,45.6053366 359.672,44.944 C359.672,44.3413303 359.755999,43.7840026 359.924,43.272 C360.092001,42.7599974 360.337332,42.3186685 360.66,41.948 C360.982668,41.5773315 361.379998,41.288001 361.852,41.08 C362.324002,40.871999 362.866664,40.768 363.48,40.768 C364.05067,40.768 364.553331,40.8599991 364.988,41.044 C365.422669,41.2280009 365.807998,41.4879983 366.144,41.824 L365.768,42.336 Z M371.184,40.768 C371.776003,40.768 372.309331,40.8666657 372.784,41.064 C373.258669,41.2613343 373.663998,41.5413315 374,41.904 C374.336002,42.2666685 374.593332,42.7053308 374.772,43.22 C374.950668,43.7346692 375.04,44.3093302 375.04,44.944 C375.04,45.5840032 374.950668,46.1599974 374.772,46.672 C374.593332,47.1840026 374.336002,47.6213315 374,47.984 C373.663998,48.3466685 373.258669,48.6253324 372.784,48.82 C372.309331,49.0146676 371.776003,49.112 371.184,49.112 C370.586664,49.112 370.049336,49.0146676 369.572,48.82 C369.094664,48.6253324 368.688002,48.3466685 368.352,47.984 C368.015998,47.6213315 367.758668,47.1840026 367.58,46.672 C367.401332,46.1599974 367.312,45.5840032 367.312,44.944 C367.312,44.3093302 367.401332,43.7346692 367.58,43.22 C367.758668,42.7053308 368.015998,42.2666685 368.352,41.904 C368.688002,41.5413315 369.094664,41.2613343 369.572,41.064 C370.049336,40.8666657 370.586664,40.768 371.184,40.768 Z M371.184,48 C371.984004,48 372.581331,47.7320027 372.976,47.196 C373.370669,46.6599973 373.568,45.9120048 373.568,44.952 C373.568,43.9866618 373.370669,43.2346694 372.976,42.696 C372.581331,42.1573306 371.984004,41.888 371.184,41.888 C370.778665,41.888 370.425335,41.9573326 370.124,42.096 C369.822665,42.2346674 369.572001,42.4346654 369.372,42.696 C369.171999,42.9573346 369.022667,43.2786648 368.924,43.66 C368.825333,44.0413352 368.776,44.4719976 368.776,44.952 C368.776,45.9120048 368.974665,46.6599973 369.372,47.196 C369.769335,47.7320027 370.373329,48 371.184,48 Z M382.12,42.824 C381.853332,42.4666649 381.565335,42.217334 381.256,42.076 C380.946665,41.934666 380.600002,41.864 380.216,41.864 C379.463996,41.864 378.885335,42.1333306 378.48,42.672 C378.074665,43.2106694 377.872,43.9786617 377.872,44.976 C377.872,45.5040026 377.917333,45.9559981 378.008,46.332 C378.098667,46.7080019 378.231999,47.0173321 378.408,47.26 C378.584001,47.5026679 378.799999,47.6799994 379.056,47.792 C379.312001,47.9040006 379.602665,47.96 379.928,47.96 C380.397336,47.96 380.806665,47.8533344 381.156,47.64 C381.505335,47.4266656 381.826665,47.1253353 382.12,46.736 L382.12,42.824 Z M383.544,37.216 L383.544,49 L382.696,49 C382.493332,49 382.365334,48.9013343 382.312,48.704 L382.184,47.72 C381.837332,48.1360021 381.442669,48.4719987 381,48.728 C380.557331,48.9840013 380.045336,49.112 379.464,49.112 C378.999998,49.112 378.578669,49.0226676 378.2,48.844 C377.821331,48.6653324 377.498668,48.4026684 377.232,48.056 C376.965332,47.7093316 376.760001,47.2773359 376.616,46.76 C376.471999,46.2426641 376.4,45.6480034 376.4,44.976 C376.4,44.3786637 376.479999,43.8226692 376.64,43.308 C376.800001,42.7933308 377.029332,42.3466686 377.328,41.968 C377.626668,41.5893314 377.993331,41.2920011 378.428,41.076 C378.862669,40.8599989 379.351997,40.752 379.896,40.752 C380.392002,40.752 380.817332,40.8359992 381.172,41.004 C381.526668,41.1720008 381.842665,41.4053318 382.12,41.704 L382.12,37.216 L383.544,37.216 Z M391.224,44.064 C391.224,43.7333317 391.177334,43.430668 391.084,43.156 C390.990666,42.881332 390.854668,42.644001 390.676,42.444 C390.497332,42.243999 390.280001,42.0893339 390.024,41.98 C389.767999,41.8706661 389.477335,41.816 389.152,41.816 C388.46933,41.816 387.929335,42.0146647 387.532,42.412 C387.134665,42.8093353 386.888,43.3599965 386.792,44.064 L391.224,44.064 Z M392.376,47.864 C392.199999,48.0773344 391.989335,48.2626659 391.744,48.42 C391.498665,48.5773341 391.236001,48.7066662 390.956,48.808 C390.675999,48.9093338 390.386668,48.9853331 390.088,49.036 C389.789332,49.0866669 389.493335,49.112 389.2,49.112 C388.639997,49.112 388.124002,49.0173343 387.652,48.828 C387.179998,48.6386657 386.772002,48.3613352 386.428,47.996 C386.083998,47.6306648 385.816001,47.1786694 385.624,46.64 C385.431999,46.1013306 385.336,45.4826702 385.336,44.784 C385.336,44.2186638 385.422666,43.6906691 385.596,43.2 C385.769334,42.7093309 386.018665,42.2840018 386.344,41.924 C386.669335,41.5639982 387.066664,41.2813344 387.536,41.076 C388.005336,40.8706656 388.53333,40.768 389.12,40.768 C389.605336,40.768 390.054665,40.8493325 390.468,41.012 C390.881335,41.1746675 391.238665,41.4093318 391.54,41.716 C391.841335,42.0226682 392.077332,42.4013311 392.248,42.852 C392.418668,43.3026689 392.504,43.8159971 392.504,44.392 C392.504,44.6160011 392.48,44.765333 392.432,44.84 C392.384,44.914667 392.293334,44.952 392.16,44.952 L386.744,44.952 C386.76,45.4640026 386.830666,45.9093314 386.956,46.288 C387.081334,46.6666686 387.255999,46.9826654 387.48,47.236 C387.704001,47.4893346 387.970665,47.678666 388.28,47.804 C388.589335,47.929334 388.935998,47.992 389.32,47.992 C389.677335,47.992 389.985332,47.9506671 390.244,47.868 C390.502668,47.7853329 390.725332,47.6960005 390.912,47.6 C391.098668,47.5039995 391.254666,47.4146671 391.38,47.332 C391.505334,47.2493329 391.613333,47.208 391.704,47.208 C391.821334,47.208 391.912,47.2533329 391.976,47.344 L392.376,47.864 Z M394.16,50.936 C394.117333,50.8986665 394.088,50.8640002 394.072,50.832 C394.056,50.7999998 394.048,50.7600002 394.048,50.712 C394.048,50.6746665 394.06,50.6373335 394.084,50.6 C394.108,50.5626665 394.136,50.5280002 394.168,50.496 C394.221334,50.437333 394.289333,50.3600005 394.372,50.264 C394.454667,50.1679995 394.538666,50.0546673 394.624,49.924 C394.709334,49.7933327 394.788,49.6493341 394.86,49.492 C394.932,49.3346659 394.984,49.1680009 395.016,48.992 C395,48.9973334 394.982667,49 394.964,49 L394.912,49 C394.634665,49 394.409334,48.9080009 394.236,48.724 C394.062666,48.5399991 393.976,48.3040014 393.976,48.016 C393.976,47.7653321 394.062666,47.5520009 394.236,47.376 C394.409334,47.1999991 394.639999,47.112 394.928,47.112 C395.088001,47.112 395.229333,47.141333 395.352,47.2 C395.474667,47.258667 395.577333,47.3399995 395.66,47.444 C395.742667,47.5480005 395.805333,47.6679993 395.848,47.804 C395.890667,47.9400007 395.912,48.0879992 395.912,48.248 C395.912,48.4880012 395.878667,48.737332 395.812,48.996 C395.745333,49.254668 395.646667,49.5106654 395.516,49.764 C395.385333,50.0173346 395.226668,50.2639988 395.04,50.504 C394.853332,50.7440012 394.640001,50.9653323 394.4,51.168 L394.16,50.936 Z M85.52,64.352 C84.8639967,64.3733334 84.3053356,64.4253329 83.844,64.508 C83.3826644,64.5906671 83.0066681,64.698666 82.716,64.832 C82.4253319,64.965334 82.2146673,65.1226658 82.084,65.304 C81.9533327,65.4853342 81.888,65.6879989 81.888,65.912 C81.888,66.1253344 81.9226663,66.3093326 81.992,66.464 C82.0613337,66.6186674 82.1559994,66.7453328 82.276,66.844 C82.3960006,66.9426672 82.5373325,67.0146664 82.7,67.06 C82.8626675,67.1053336 83.0373324,67.128 83.224,67.128 C83.4746679,67.128 83.703999,67.1026669 83.912,67.052 C84.120001,67.0013331 84.3159991,66.9280005 84.5,66.832 C84.6840009,66.7359995 84.8599992,66.621334 85.028,66.488 C85.1960008,66.354666 85.3599992,66.2026675 85.52,66.032 L85.52,64.352 Z M80.92,61.04 C81.3680022,60.6079978 81.8506641,60.2853344 82.368,60.072 C82.8853359,59.8586656 83.4586635,59.752 84.088,59.752 C84.5413356,59.752 84.9439982,59.8266659 85.296,59.976 C85.6480018,60.1253341 85.9439988,60.333332 86.184,60.6 C86.4240012,60.866668 86.6053327,61.1893314 86.728,61.568 C86.8506673,61.9466686 86.912,62.3626644 86.912,62.816 L86.912,68 L86.28,68 C86.1413326,68 86.034667,67.9773336 85.96,67.932 C85.885333,67.8866664 85.8266669,67.797334 85.784,67.664 L85.624,66.896 C85.4106656,67.0933343 85.2026677,67.2679992 85,67.42 C84.7973323,67.5720008 84.5840011,67.6999995 84.36,67.804 C84.1359989,67.9080005 83.8973346,67.9879997 83.644,68.044 C83.3906654,68.1000003 83.1093349,68.128 82.8,68.128 C82.4853318,68.128 82.1893347,68.0840004 81.912,67.996 C81.6346653,67.9079996 81.3933344,67.7760009 81.188,67.6 C80.9826656,67.4239991 80.8200006,67.2013347 80.7,66.932 C80.5799994,66.6626653 80.52,66.3440018 80.52,65.976 C80.52,65.6559984 80.6079991,65.3480015 80.784,65.052 C80.9600009,64.7559985 81.2453314,64.4933345 81.64,64.264 C82.0346686,64.0346655 82.5493302,63.8466674 83.184,63.7 C83.8186698,63.5533326 84.5973287,63.4693334 85.52,63.448 L85.52,62.816 C85.52,62.1866635 85.3840014,61.7106683 85.112,61.388 C84.8399986,61.0653317 84.4426693,60.904 83.92,60.904 C83.5679982,60.904 83.2733345,60.9479996 83.036,61.036 C82.7986655,61.1240004 82.5933342,61.2226661 82.42,61.332 C82.2466658,61.4413339 82.097334,61.5399996 81.972,61.628 C81.846666,61.7160004 81.7226673,61.76 81.6,61.76 C81.5039995,61.76 81.4213337,61.7346669 81.352,61.684 C81.2826663,61.6333331 81.2240002,61.570667 81.176,61.496 L80.92,61.04 Z M90.424,61.072 C90.6000009,60.8746657 90.7866657,60.6960008 90.984,60.536 C91.1813343,60.3759992 91.3906656,60.2386672 91.612,60.124 C91.8333344,60.0093328 92.0679988,59.9213336 92.316,59.86 C92.5640012,59.7986664 92.8319986,59.768 93.12,59.768 C93.5626689,59.768 93.9533316,59.8413326 94.292,59.988 C94.6306684,60.1346674 94.9133322,60.3426653 95.14,60.612 C95.3666678,60.8813347 95.5386661,61.2053314 95.656,61.584 C95.7733339,61.9626686 95.832,62.381331 95.832,62.84 L95.832,68 L94.4,68 L94.4,62.84 C94.4,62.2266636 94.2600014,61.7506684 93.98,61.412 C93.6999986,61.0733316 93.2746695,60.904 92.704,60.904 C92.2826646,60.904 91.8893352,61.0053323 91.524,61.208 C91.1586648,61.4106677 90.8213349,61.6853316 90.512,62.032 L90.512,68 L89.08,68 L89.08,59.896 L89.936,59.896 C90.1386677,59.896 90.2639998,59.9946657 90.312,60.192 L90.424,61.072 Z M103.288,61.824 C103.021332,61.4666649 102.733335,61.217334 102.424,61.076 C102.114665,60.934666 101.768002,60.864 101.384,60.864 C100.631996,60.864 100.053335,61.1333306 99.648,61.672 C99.2426646,62.2106694 99.04,62.9786617 99.04,63.976 C99.04,64.5040026 99.0853329,64.9559981 99.176,65.332 C99.2666671,65.7080019 99.3999991,66.0173321 99.576,66.26 C99.7520009,66.5026679 99.9679987,66.6799994 100.224,66.792 C100.480001,66.9040006 100.770665,66.96 101.096,66.96 C101.565336,66.96 101.974665,66.8533344 102.324,66.64 C102.673335,66.4266656 102.994665,66.1253353 103.288,65.736 L103.288,61.824 Z M104.712,56.216 L104.712,68 L103.864,68 C103.661332,68 103.533334,67.9013343 103.48,67.704 L103.352,66.72 C103.005332,67.1360021 102.610669,67.4719987 102.168,67.728 C101.725331,67.9840013 101.213336,68.112 100.632,68.112 C100.167998,68.112 99.7466686,68.0226676 99.368,67.844 C98.9893314,67.6653324 98.666668,67.4026684 98.4,67.056 C98.133332,66.7093316 97.9280007,66.2773359 97.784,65.76 C97.6399993,65.2426641 97.568,64.6480034 97.568,63.976 C97.568,63.3786637 97.6479992,62.8226692 97.808,62.308 C97.9680008,61.7933308 98.1973318,61.3466686 98.496,60.968 C98.7946682,60.5893314 99.1613312,60.2920011 99.596,60.076 C100.030669,59.8599989 100.519997,59.752 101.064,59.752 C101.560002,59.752 101.985332,59.8359992 102.34,60.004 C102.694668,60.1720008 103.010665,60.4053318 103.288,60.704 L103.288,56.216 L104.712,56.216 Z M111.064,68 L111.064,59.896 L111.92,59.896 C112.122668,59.896 112.248,59.9946657 112.296,60.192 L112.4,61.024 C112.698668,60.6559982 113.034665,60.3546678 113.408,60.12 C113.781335,59.8853322 114.213331,59.768 114.704,59.768 C115.248003,59.768 115.689332,59.9199985 116.028,60.224 C116.366668,60.5280015 116.610666,60.9386641 116.76,61.456 C116.877334,61.1626652 117.027999,60.9093344 117.212,60.696 C117.396001,60.4826656 117.602666,60.3066674 117.832,60.168 C118.061334,60.0293326 118.305332,59.9280003 118.564,59.864 C118.822668,59.7999997 119.085332,59.768 119.352,59.768 C119.778669,59.768 120.158665,59.8359993 120.492,59.972 C120.825335,60.1080007 121.107999,60.3066654 121.34,60.568 C121.572001,60.8293346 121.749333,61.1506648 121.872,61.532 C121.994667,61.9133352 122.056,62.3493309 122.056,62.84 L122.056,68 L120.624,68 L120.624,62.84 C120.624,62.2053302 120.485335,61.7240016 120.208,61.396 C119.930665,61.0679984 119.530669,60.904 119.008,60.904 C118.773332,60.904 118.550668,60.9453329 118.34,61.028 C118.129332,61.1106671 117.944001,61.2319992 117.784,61.392 C117.623999,61.5520008 117.497334,61.7533321 117.404,61.996 C117.310666,62.2386679 117.264,62.5199984 117.264,62.84 L117.264,68 L115.832,68 L115.832,62.84 C115.832,62.1893301 115.701335,61.7040016 115.44,61.384 C115.178665,61.0639984 114.797336,60.904 114.296,60.904 C113.943998,60.904 113.618668,60.9986657 113.32,61.188 C113.021332,61.3773343 112.746668,61.634665 112.496,61.96 L112.496,68 L111.064,68 Z M127.64,59.768 C128.232003,59.768 128.765331,59.8666657 129.24,60.064 C129.714669,60.2613343 130.119998,60.5413315 130.456,60.904 C130.792002,61.2666685 131.049332,61.7053308 131.228,62.22 C131.406668,62.7346692 131.496,63.3093302 131.496,63.944 C131.496,64.5840032 131.406668,65.1599974 131.228,65.672 C131.049332,66.1840026 130.792002,66.6213315 130.456,66.984 C130.119998,67.3466685 129.714669,67.6253324 129.24,67.82 C128.765331,68.0146676 128.232003,68.112 127.64,68.112 C127.042664,68.112 126.505336,68.0146676 126.028,67.82 C125.550664,67.6253324 125.144002,67.3466685 124.808,66.984 C124.471998,66.6213315 124.214668,66.1840026 124.036,65.672 C123.857332,65.1599974 123.768,64.5840032 123.768,63.944 C123.768,63.3093302 123.857332,62.7346692 124.036,62.22 C124.214668,61.7053308 124.471998,61.2666685 124.808,60.904 C125.144002,60.5413315 125.550664,60.2613343 126.028,60.064 C126.505336,59.8666657 127.042664,59.768 127.64,59.768 Z M127.64,67 C128.440004,67 129.037331,66.7320027 129.432,66.196 C129.826669,65.6599973 130.024,64.9120048 130.024,63.952 C130.024,62.9866618 129.826669,62.2346694 129.432,61.696 C129.037331,61.1573306 128.440004,60.888 127.64,60.888 C127.234665,60.888 126.881335,60.9573326 126.58,61.096 C126.278665,61.2346674 126.028001,61.4346654 125.828,61.696 C125.627999,61.9573346 125.478667,62.2786648 125.38,62.66 C125.281333,63.0413352 125.232,63.4719976 125.232,63.952 C125.232,64.9120048 125.430665,65.6599973 125.828,66.196 C126.225335,66.7320027 126.829329,67 127.64,67 Z M134.648,61.52 C134.904001,60.9653306 135.218665,60.5320016 135.592,60.22 C135.965335,59.9079984 136.421331,59.752 136.96,59.752 C137.130668,59.752 137.294666,59.7706665 137.452,59.808 C137.609334,59.8453335 137.749333,59.9039996 137.872,59.984 L137.768,61.048 C137.736,61.181334 137.656001,61.248 137.528,61.248 C137.453333,61.248 137.344001,61.2320002 137.2,61.2 C137.055999,61.1679998 136.893334,61.152 136.712,61.152 C136.455999,61.152 136.228001,61.189333 136.028,61.264 C135.827999,61.338667 135.649334,61.4493326 135.492,61.596 C135.334666,61.7426674 135.193334,61.9239989 135.068,62.14 C134.942666,62.3560011 134.829334,62.6026653 134.728,62.88 L134.728,68 L133.296,68 L133.296,59.896 L134.112,59.896 C134.266667,59.896 134.373333,59.925333 134.432,59.984 C134.490667,60.042667 134.530667,60.1439993 134.552,60.288 L134.648,61.52 Z M144.544,63.064 C144.544,62.7333317 144.497334,62.430668 144.404,62.156 C144.310666,61.881332 144.174668,61.644001 143.996,61.444 C143.817332,61.243999 143.600001,61.0893339 143.344,60.98 C143.087999,60.8706661 142.797335,60.816 142.472,60.816 C141.78933,60.816 141.249335,61.0146647 140.852,61.412 C140.454665,61.8093353 140.208,62.3599965 140.112,63.064 L144.544,63.064 Z M145.696,66.864 C145.519999,67.0773344 145.309335,67.2626659 145.064,67.42 C144.818665,67.5773341 144.556001,67.7066662 144.276,67.808 C143.995999,67.9093338 143.706668,67.9853331 143.408,68.036 C143.109332,68.0866669 142.813335,68.112 142.52,68.112 C141.959997,68.112 141.444002,68.0173343 140.972,67.828 C140.499998,67.6386657 140.092002,67.3613352 139.748,66.996 C139.403998,66.6306648 139.136001,66.1786694 138.944,65.64 C138.751999,65.1013306 138.656,64.4826702 138.656,63.784 C138.656,63.2186638 138.742666,62.6906691 138.916,62.2 C139.089334,61.7093309 139.338665,61.2840018 139.664,60.924 C139.989335,60.5639982 140.386664,60.2813344 140.856,60.076 C141.325336,59.8706656 141.85333,59.768 142.44,59.768 C142.925336,59.768 143.374665,59.8493325 143.788,60.012 C144.201335,60.1746675 144.558665,60.4093318 144.86,60.716 C145.161335,61.0226682 145.397332,61.4013311 145.568,61.852 C145.738668,62.3026689 145.824,62.8159971 145.824,63.392 C145.824,63.6160011 145.8,63.765333 145.752,63.84 C145.704,63.914667 145.613334,63.952 145.48,63.952 L140.064,63.952 C140.08,64.4640026 140.150666,64.9093314 140.276,65.288 C140.401334,65.6666686 140.575999,65.9826654 140.8,66.236 C141.024001,66.4893346 141.290665,66.678666 141.6,66.804 C141.909335,66.929334 142.255998,66.992 142.64,66.992 C142.997335,66.992 143.305332,66.9506671 143.564,66.868 C143.822668,66.7853329 144.045332,66.6960005 144.232,66.6 C144.418668,66.5039995 144.574666,66.4146671 144.7,66.332 C144.825334,66.2493329 144.933333,66.208 145.024,66.208 C145.141334,66.208 145.232,66.2533329 145.296,66.344 L145.696,66.864 Z M149.28,56.536 L149.28,61.112 C149.28,61.3520012 149.274667,61.5866655 149.264,61.816 C149.253333,62.0453345 149.24,62.2759988 149.224,62.508 C149.208,62.7400012 149.188,62.9773321 149.164,63.22 C149.14,63.4626679 149.112,63.7226653 149.08,64 L148.12,64 C148.088,63.7226653 148.06,63.4626679 148.036,63.22 C148.012,62.9773321 147.992,62.7400012 147.976,62.508 C147.96,62.2759988 147.946667,62.0453345 147.936,61.816 C147.925333,61.5866655 147.92,61.3520012 147.92,61.112 L147.92,56.536 L149.28,56.536 Z M147.576,67.12 C147.576,66.9813326 147.601333,66.8506673 147.652,66.728 C147.702667,66.6053327 147.773333,66.4986671 147.864,66.408 C147.954667,66.3173329 148.059999,66.2453336 148.18,66.192 C148.300001,66.1386664 148.431999,66.112 148.576,66.112 C148.714667,66.112 148.843999,66.1386664 148.964,66.192 C149.084001,66.2453336 149.189333,66.3173329 149.28,66.408 C149.370667,66.4986671 149.442666,66.6053327 149.496,66.728 C149.549334,66.8506673 149.576,66.9813326 149.576,67.12 C149.576,67.2640007 149.549334,67.3959994 149.496,67.516 C149.442666,67.6360006 149.370667,67.7413329 149.28,67.832 C149.189333,67.9226671 149.084001,67.9933331 148.964,68.044 C148.843999,68.0946669 148.714667,68.12 148.576,68.12 C148.431999,68.12 148.300001,68.0946669 148.18,68.044 C148.059999,67.9933331 147.954667,67.9226671 147.864,67.832 C147.773333,67.7413329 147.702667,67.6360006 147.652,67.516 C147.601333,67.3959994 147.576,67.2640007 147.576,67.12 Z" id="Instantly-get-the-co" fill="#D2FFDA"></path>
                    <g id="Clipboard" transform="translate(0.000000, 1.000000)">
                        <rect id="Rectangle-2" fill="#4CE367" x="0" y="0" width="60" height="60" rx="8.35443038"></rect>
                        <path d="M37.3333333,18.4545455 L35.8981389,18.4545455 C35.3936667,17.0253864 34.0403611,16 32.4444444,16 L27.5555556,16 C25.9596389,16 24.6063333,17.0253864 24.1018611,18.4545455 L22.6666667,18.4545455 C20.6408333,18.4545455 19,20.1021591 19,22.1363636 L19,39.3181818 C19,41.3523864 20.6408333,43 22.6666667,43 L37.3333333,43 C39.3591667,43 41,41.3523864 41,39.3181818 L41,22.1363636 C41,20.1021591 39.3591667,18.4545455 37.3333333,18.4545455 Z M27.5555556,18.4545455 L32.4444444,18.4545455 C33.1194167,18.4545455 33.6666667,19.0040568 33.6666667,19.6818182 C33.6666667,20.3595795 33.1194167,20.9090909 32.4444444,20.9090909 L27.5555556,20.9090909 C26.8805833,20.9090909 26.3333333,20.3595795 26.3333333,19.6818182 C26.3333333,19.0040568 26.8805833,18.4545455 27.5555556,18.4545455 Z M38.5555556,39.3181818 C38.5555556,39.99625 38.0086111,40.5454545 37.3333333,40.5454545 L22.6666667,40.5454545 C21.9913889,40.5454545 21.4444444,39.99625 21.4444444,39.3181818 L21.4444444,22.1363636 C21.4444444,21.4582955 21.9913889,20.9090909 22.6666667,20.9090909 L24.1018611,20.9090909 C24.6054167,22.33825 25.9596389,23.3636364 27.5555556,23.3636364 L32.4444444,23.3636364 C34.0403611,23.3636364 35.3936667,22.33825 35.8981389,20.9090909 L37.3333333,20.9090909 C38.0086111,20.9090909 38.5555556,21.4582955 38.5555556,22.1363636 L38.5555556,39.3181818 Z" id="Shape" fill="#368C46" fill-rule="nonzero"></path>
                    </g>
                </g>
            </g>
        </g>
    </g>
</svg>