<?xml version="1.0" encoding="UTF-8"?>
<svg width="238px" height="389px" viewBox="0 0 238 389" version="1.1" xmlns="http://www.w3.org/2000/svg" xmlns:xlink="http://www.w3.org/1999/xlink">
    <!-- Generator: Sketch 42 (36781) - http://www.bohemiancoding.com/sketch -->
    <title>iPhone</title>
    <desc>Created with Sketch.</desc>
    <defs>
        <filter x="-50%" y="-50%" width="200%" height="200%" filterUnits="objectBoundingBox" id="filter-1">
            <feOffset dx="0" dy="28" in="SourceAlpha" result="shadowOffsetOuter1"></feOffset>
            <feGaussianBlur stdDeviation="17.5" in="shadowOffsetOuter1" result="shadowBlurOuter1"></feGaussianBlur>
            <feColorMatrix values="0 0 0 0 0   0 0 0 0 0   0 0 0 0 0  0 0 0 0.200000003 0" type="matrix" in="shadowBlurOuter1" result="shadowMatrixOuter1"></feColorMatrix>
            <feMerge>
                <feMergeNode in="shadowMatrixOuter1"></feMergeNode>
                <feMergeNode in="SourceGraphic"></feMergeNode>
            </feMerge>
        </filter>
        <linearGradient x1="50%" y1="0%" x2="50%" y2="100%" id="linearGradient-2">
            <stop stop-color="#ECEFF0" offset="0%"></stop>
            <stop stop-color="#EDEFF0" offset="100%"></stop>
        </linearGradient>
        <rect id="path-3" x="1.27956857" y="0" width="163.784777" height="338.949171" rx="18.6082231"></rect>
        <filter x="-50%" y="-50%" width="200%" height="200%" filterUnits="objectBoundingBox" id="filter-4">
            <feGaussianBlur stdDeviation="1" in="SourceAlpha" result="shadowBlurInner1"></feGaussianBlur>
            <feOffset dx="0" dy="0" in="shadowBlurInner1" result="shadowOffsetInner1"></feOffset>
            <feComposite in="shadowOffsetInner1" in2="SourceAlpha" operator="arithmetic" k2="-1" k3="1" result="shadowInnerInner1"></feComposite>
            <feColorMatrix values="0 0 0 0 0   0 0 0 0 0   0 0 0 0 0  0 0 0 0.200000003 0" type="matrix" in="shadowInnerInner1"></feColorMatrix>
        </filter>
        <rect id="path-5" x="3.83870571" y="2.55810695" width="158.666503" height="333.832957" rx="15.9100307"></rect>
        <rect id="path-6" x="5.11827428" y="3.83716043" width="156.107365" height="331.27485" rx="15.0726607"></rect>
        <filter x="-50%" y="-50%" width="200%" height="200%" filterUnits="objectBoundingBox" id="filter-7">
            <feGaussianBlur stdDeviation="0.5" in="SourceAlpha" result="shadowBlurInner1"></feGaussianBlur>
            <feOffset dx="0" dy="1" in="shadowBlurInner1" result="shadowOffsetInner1"></feOffset>
            <feComposite in="shadowOffsetInner1" in2="SourceAlpha" operator="arithmetic" k2="-1" k3="1" result="shadowInnerInner1"></feComposite>
            <feColorMatrix values="0 0 0 0 1   0 0 0 0 1   0 0 0 0 1  0 0 0 1 0" type="matrix" in="shadowInnerInner1"></feColorMatrix>
        </filter>
        <linearGradient x1="50%" y1="100%" x2="50%" y2="0%" id="linearGradient-8">
            <stop stop-color="#E0E2E3" stop-opacity="0" offset="0%"></stop>
            <stop stop-color="#DADEDF" offset="100%"></stop>
        </linearGradient>
        <linearGradient x1="50%" y1="50%" x2="50%" y2="72.2616838%" id="linearGradient-9">
            <stop stop-color="#FFFFFF" stop-opacity="0.5" offset="0%"></stop>
            <stop stop-color="#FFFFFF" offset="100%"></stop>
        </linearGradient>
        <ellipse id="path-10" cx="83.171957" cy="317.205262" rx="11.5161171" ry="11.5114813"></ellipse>
        <filter x="-50%" y="-50%" width="200%" height="200%" filterUnits="objectBoundingBox" id="filter-11">
            <feOffset dx="0" dy="1" in="SourceAlpha" result="shadowOffsetInner1"></feOffset>
            <feComposite in="shadowOffsetInner1" in2="SourceAlpha" operator="arithmetic" k2="-1" k3="1" result="shadowInnerInner1"></feComposite>
            <feColorMatrix values="0 0 0 0 0   0 0 0 0 0   0 0 0 0 0  0 0 0 0.02 0" type="matrix" in="shadowInnerInner1"></feColorMatrix>
        </filter>
        <linearGradient x1="50%" y1="100%" x2="50%" y2="0%" id="linearGradient-12">
            <stop stop-color="#E0E2E3" stop-opacity="0" offset="0%"></stop>
            <stop stop-color="#E6E9EB" offset="100%"></stop>
        </linearGradient>
        <path d="M70.4797658,20.4648556 L94.5845796,20.4648556 C95.3484256,20.4648556 95.9676427,21.0375061 95.9676427,21.7439091 C95.9676427,22.4503121 95.3484256,23.0229626 94.5845796,23.0229626 L70.4797658,23.0229626 C69.7159199,23.0229626 69.0967028,22.4503121 69.0967028,21.7439091 C69.0967028,21.0375061 69.7159199,20.4648556 70.4797658,20.4648556 L70.4797658,20.4648556 Z" id="path-13"></path>
        <filter x="-50%" y="-50%" width="200%" height="200%" filterUnits="objectBoundingBox" id="filter-14">
            <feOffset dx="0" dy="1" in="SourceAlpha" result="shadowOffsetInner1"></feOffset>
            <feComposite in="shadowOffsetInner1" in2="SourceAlpha" operator="arithmetic" k2="-1" k3="1" result="shadowInnerInner1"></feComposite>
            <feColorMatrix values="0 0 0 0 0   0 0 0 0 0   0 0 0 0 0  0 0 0 0.01 0" type="matrix" in="shadowInnerInner1"></feColorMatrix>
        </filter>
    </defs>
    <g id="Website" stroke="none" stroke-width="1" fill="none" fill-rule="evenodd">
        <g id="Desktop-HD" transform="translate(-666.000000, -511.000000)">
            <g id="Devices" transform="translate(50.000000, 376.000000)">
                <g id="iPhone" filter="url(#filter-1)" transform="translate(651.300402, 141.974936)">
                    <g id="buttons" transform="translate(0.000000, 43.208818)" fill="#DEDEDE">
                        <path d="M1.27956857,0.279000333 L1.27956857,0.279000333 C1.16491923,0.279000333 1.27956857,0.369045698 1.27956857,0.279000333 L1.27956857,14.3485886 C1.27956857,14.2585432 1.16491923,14.3485886 1.27956857,14.3485886 L1.27956857,14.3485886 C0.343692118,14.3485886 0,14.0786535 0,14.3485886 L0,0.279000333 C0,0.548935433 0.343692118,0.279000333 1.27956857,0.279000333 L1.27956857,0.279000333 Z" id="Shape"></path>
                        <path d="M166.343914,28.4181768 L167.623483,28.4181768 C167.408675,28.4181768 167.623483,28.6804316 167.623483,28.4181768 L167.623483,53.9992463 C167.623483,53.7369916 167.408675,53.9992463 167.623483,53.9992463 L166.343914,53.9992463 C166.41557,53.9992463 166.343914,53.911763 166.343914,53.9992463 L166.343914,28.4181768 C166.343914,28.5056602 166.41557,28.4181768 166.343914,28.4181768 L166.343914,28.4181768 Z" id="Shape"></path>
                        <path d="M0,60.3945137 L1.27956857,60.3945137 C1.21587449,60.3945137 1.27956857,60.4819971 1.27956857,60.3945137 L1.27956857,85.9755833 C1.27956857,85.8880999 1.21587449,85.9755833 1.27956857,85.9755833 L0,85.9755833 C0.190940065,85.9755833 0,85.7133285 0,85.9755833 L0,60.3945137 C0,60.6567685 0.190940065,60.3945137 0,60.3945137 L0,60.3945137 Z" id="Shape"></path>
                        <path d="M0,29.6972303 L1.27956857,29.6972303 C1.21587449,29.6972303 1.27956857,29.7847136 1.27956857,29.6972303 L1.27956857,55.2782998 C1.27956857,55.1908165 1.21587449,55.2782998 1.27956857,55.2782998 L0,55.2782998 C0.190940065,55.2782998 0,55.016045 0,55.2782998 L0,29.6972303 C0,29.9594851 0.190940065,29.6972303 0,29.6972303 L0,29.6972303 Z" id="Shape"></path>
                    </g>
                    <g id="base">
                        <use fill="url(#linearGradient-2)" fill-rule="evenodd" xlink:href="#path-3"></use>
                        <use fill-opacity="0.04" fill="#000000" fill-rule="evenodd" style="mix-blend-mode: multiply;" xlink:href="#path-3"></use>
                        <use fill="black" fill-opacity="1" filter="url(#filter-4)" xlink:href="#path-3"></use>
                    </g>
                    <g id="front">
                        <use fill="url(#linearGradient-2)" xlink:href="#path-5"></use>
                        <use fill-opacity="0.8" fill="#FFFFFF" style="mix-blend-mode: screen;" xlink:href="#path-5"></use>
                    </g>
                    <g id="inner">
                        <use fill="black" fill-opacity="1" filter="url(#filter-7)" xlink:href="#path-6"></use>
                        <use stroke-opacity="0.1" stroke="#000000" stroke-width="0.5" xlink:href="#path-6"></use>
                    </g>
                    <ellipse id="homeborder" fill="#E7E8E8" cx="83.171957" cy="317.205262" rx="12.7956857" ry="12.7905348"></ellipse>
                    <g id="homebutton">
                        <use fill="url(#linearGradient-8)" fill-rule="evenodd" xlink:href="#path-10"></use>
                        <use fill-opacity="0.3" fill="url(#linearGradient-9)" fill-rule="evenodd" style="mix-blend-mode: screen;" xlink:href="#path-10"></use>
                        <use fill="black" fill-opacity="1" filter="url(#filter-11)" xlink:href="#path-10"></use>
                    </g>
                    <path d="M70.4797658,20.4648556 L94.5845796,20.4648556 C95.3484256,20.4648556 95.9676427,21.0375061 95.9676427,21.7439091 C95.9676427,22.4503121 95.3484256,23.0229626 94.5845796,23.0229626 L70.4797658,23.0229626 C69.7159199,23.0229626 69.0967028,22.4503121 69.0967028,21.7439091 C69.0967028,21.0375061 69.7159199,20.4648556 70.4797658,20.4648556 L70.4797658,20.4648556 Z" id="earborder" fill="#E7E8E8"></path>
                    <g id="ear">
                        <use fill="url(#linearGradient-12)" fill-rule="evenodd" xlink:href="#path-13"></use>
                        <use fill="black" fill-opacity="1" filter="url(#filter-14)" xlink:href="#path-13"></use>
                    </g>
                    <ellipse id="circle" fill="#E7E8E8" cx="57.5805856" cy="21.7439091" rx="1.27956857" ry="1.27905348"></ellipse>
                    <ellipse id="circle" fill="#E7E8E8" opacity="0.4" cx="83.171957" cy="10.2324278" rx="1.27956857" ry="1.27905348"></ellipse>
                    <rect id="screen" fill="#323232" x="10.2365486" y="40.9297112" width="145.870817" height="258.368802" rx="0.558246692"></rect>
                </g>
            </g>
        </g>
    </g>
</svg>