<?xml version="1.0" encoding="UTF-8"?>
<svg width="430px" height="80px" viewBox="0 0 430 80" version="1.1" xmlns="http://www.w3.org/2000/svg" xmlns:xlink="http://www.w3.org/1999/xlink">
    <!-- Generator: Sketch 42 (36781) - http://www.bohemiancoding.com/sketch -->
    <title>Mac App</title>
    <desc>Created with Sketch.</desc>
    <defs></defs>
    <g id="Website" stroke="none" stroke-width="1" fill="none" fill-rule="evenodd">
        <g id="Plain" transform="translate(-940.000000, -175.000000)">
            <g id="Mac-App" transform="translate(940.000000, 175.000000)">
                <rect id="Rectangle-3" fill="#13AEA0" x="0" y="0" width="430" height="80" rx="40"></rect>
                <path d="M170.925,20.0875 L170.925,38 L168.8,38 L168.8,24.8375 C168.8,24.6624991 168.80625,24.475001 168.81875,24.275 C168.83125,24.074999 168.845833,23.8708344 168.8625,23.6625 L162.7125,34.8625 C162.520832,35.2375019 162.229169,35.425 161.8375,35.425 L161.4875,35.425 C161.095831,35.425 160.804168,35.2375019 160.6125,34.8625 L154.3375,23.6125 C154.3875,24.0541689 154.4125,24.4624981 154.4125,24.8375 L154.4125,38 L152.2875,38 L152.2875,20.0875 L154.075,20.0875 C154.291668,20.0875 154.458333,20.1083331 154.575,20.15 C154.691667,20.1916669 154.804166,20.3083324 154.9125,20.5 L161.1,31.525 C161.2,31.725001 161.297916,31.9333323 161.39375,32.15 C161.489584,32.3666678 161.579166,32.5874989 161.6625,32.8125 C161.745834,32.5874989 161.833333,32.3645844 161.925,32.14375 C162.016667,31.9229156 162.116666,31.712501 162.225,31.5125 L168.3,20.5 C168.4,20.3083324 168.510416,20.1916669 168.63125,20.15 C168.752084,20.1083331 168.920832,20.0875 169.1375,20.0875 L170.925,20.0875 Z M181.8375,32.3 C180.812495,32.3333335 179.939587,32.4145827 179.21875,32.54375 C178.497913,32.6729173 177.910419,32.8416656 177.45625,33.05 C177.002081,33.2583344 176.672918,33.5041653 176.46875,33.7875 C176.264582,34.0708348 176.1625,34.3874983 176.1625,34.7375 C176.1625,35.070835 176.216666,35.3583321 176.325,35.6 C176.433334,35.8416679 176.581249,36.0395826 176.76875,36.19375 C176.956251,36.3479174 177.177082,36.4604163 177.43125,36.53125 C177.685418,36.6020837 177.958332,36.6375 178.25,36.6375 C178.641669,36.6375 178.999998,36.5979171 179.325,36.51875 C179.650002,36.4395829 179.956249,36.3250008 180.24375,36.175 C180.531251,36.0249993 180.806249,35.8458344 181.06875,35.6375 C181.331251,35.4291656 181.587499,35.191668 181.8375,34.925 L181.8375,32.3 Z M174.65,27.125 C175.350003,26.4499966 176.104163,25.945835 176.9125,25.6125 C177.720837,25.279165 178.616662,25.1125 179.6,25.1125 C180.308337,25.1125 180.937497,25.2291655 181.4875,25.4625 C182.037503,25.6958345 182.499998,26.0208313 182.875,26.4375 C183.250002,26.8541688 183.533332,27.3583304 183.725,27.95 C183.916668,28.5416696 184.0125,29.1916631 184.0125,29.9 L184.0125,38 L183.025,38 C182.808332,38 182.641667,37.9645837 182.525,37.89375 C182.408333,37.8229163 182.316667,37.6833344 182.25,37.475 L182,36.275 C181.666665,36.5833349 181.341668,36.8562488 181.025,37.09375 C180.708332,37.3312512 180.375002,37.5312492 180.025,37.69375 C179.674998,37.8562508 179.302085,37.9812496 178.90625,38.06875 C178.510415,38.1562504 178.070836,38.2 177.5875,38.2 C177.095831,38.2 176.633335,38.1312507 176.2,37.99375 C175.766664,37.8562493 175.389585,37.6500014 175.06875,37.375 C174.747915,37.0999986 174.493751,36.7520854 174.30625,36.33125 C174.118749,35.9104146 174.025,35.4125029 174.025,34.8375 C174.025,34.3374975 174.162499,33.8562523 174.4375,33.39375 C174.712501,32.9312477 175.15833,32.5208351 175.775,32.1625 C176.39167,31.8041649 177.195828,31.5104178 178.1875,31.28125 C179.179172,31.0520822 180.395826,30.9208335 181.8375,30.8875 L181.8375,29.9 C181.8375,28.9166618 181.625002,28.1729192 181.2,27.66875 C180.774998,27.1645808 180.154171,26.9125 179.3375,26.9125 C178.787497,26.9125 178.327085,26.9812493 177.95625,27.11875 C177.585415,27.2562507 177.264585,27.4104158 176.99375,27.58125 C176.722915,27.7520842 176.489584,27.9062493 176.29375,28.04375 C176.097916,28.1812507 175.904168,28.25 175.7125,28.25 C175.562499,28.25 175.433334,28.2104171 175.325,28.13125 C175.216666,28.0520829 175.125,27.9541673 175.05,27.8375 L174.65,27.125 Z M196.2125,27.5875 C196.145833,27.6791671 196.079167,27.7499998 196.0125,27.8 C195.945833,27.8500003 195.854167,27.875 195.7375,27.875 C195.612499,27.875 195.475001,27.8229172 195.325,27.71875 C195.174999,27.6145828 194.989584,27.5000006 194.76875,27.375 C194.547916,27.2499994 194.277085,27.1354172 193.95625,27.03125 C193.635415,26.9270828 193.241669,26.875 192.775,26.875 C192.149997,26.875 191.600002,26.9854156 191.125,27.20625 C190.649998,27.4270844 190.252085,27.7458313 189.93125,28.1625 C189.610415,28.5791688 189.368751,29.0833304 189.20625,29.675 C189.043749,30.2666696 188.9625,30.929163 188.9625,31.6625 C188.9625,32.4291705 189.049999,33.1104137 189.225,33.70625 C189.400001,34.3020863 189.647915,34.8020813 189.96875,35.20625 C190.289585,35.6104187 190.677081,35.9187489 191.13125,36.13125 C191.585419,36.3437511 192.09583,36.45 192.6625,36.45 C193.204169,36.45 193.649998,36.3854173 194,36.25625 C194.350002,36.1270827 194.639582,35.9833341 194.86875,35.825 C195.097918,35.6666659 195.289583,35.5229173 195.44375,35.39375 C195.597917,35.2645827 195.749999,35.2 195.9,35.2 C196.083334,35.2 196.224999,35.2708326 196.325,35.4125 L196.95,36.225 C196.674999,36.5666684 196.362502,36.8583321 196.0125,37.1 C195.662498,37.3416679 195.285419,37.5437492 194.88125,37.70625 C194.477081,37.8687508 194.054169,37.9874996 193.6125,38.0625 C193.170831,38.1375004 192.720836,38.175 192.2625,38.175 C191.470829,38.175 190.73542,38.0291681 190.05625,37.7375 C189.37708,37.4458319 188.787502,37.0229194 188.2875,36.46875 C187.787497,35.9145806 187.395835,35.2333374 187.1125,34.425 C186.829165,33.6166626 186.6875,32.6958385 186.6875,31.6625 C186.6875,30.7208286 186.818749,29.850004 187.08125,29.05 C187.343751,28.249996 187.727081,27.5604196 188.23125,26.98125 C188.735419,26.4020804 189.356246,25.9500016 190.09375,25.625 C190.831254,25.2999984 191.679162,25.1375 192.6375,25.1375 C193.529171,25.1375 194.31458,25.2812486 194.99375,25.56875 C195.67292,25.8562514 196.274997,26.2624974 196.8,26.7875 L196.2125,27.5875 Z M215.775,31.35 L212.9625,24.0625 C212.879166,23.8458323 212.791667,23.5937514 212.7,23.30625 C212.608333,23.0187486 212.520834,22.7125016 212.4375,22.3875 C212.262499,23.0625034 212.083334,23.6249978 211.9,24.075 L209.0875,31.35 L215.775,31.35 Z M220.825,38 L218.95,38 C218.733332,38 218.558334,37.9458339 218.425,37.8375 C218.291666,37.7291661 218.191667,37.5916675 218.125,37.425 L216.45,33.1 L208.4125,33.1 L206.7375,37.425 C206.6875,37.5750008 206.591667,37.7083328 206.45,37.825 C206.308333,37.9416673 206.133334,38 205.925,38 L204.05,38 L211.2125,20.0875 L213.6625,20.0875 L220.825,38 Z M224.9,34.95 C225.308335,35.5000028 225.754164,35.8874989 226.2375,36.1125 C226.720836,36.3375011 227.262497,36.45 227.8625,36.45 C229.045839,36.45 229.954163,36.0291709 230.5875,35.1875 C231.220836,34.3458291 231.5375,33.1458411 231.5375,31.5875 C231.5375,30.7624959 231.464584,30.0541696 231.31875,29.4625 C231.172916,28.8708304 230.962501,28.3854186 230.6875,28.00625 C230.412499,27.6270814 230.075002,27.3500009 229.675,27.175 C229.274998,26.9999991 228.820836,26.9125 228.3125,26.9125 C227.587496,26.9125 226.952086,27.079165 226.40625,27.4125 C225.860414,27.745835 225.358336,28.2166636 224.9,28.825 L224.9,34.95 Z M224.7875,27.3 C225.320836,26.6416634 225.937496,26.112502 226.6375,25.7125 C227.337503,25.312498 228.137495,25.1125 229.0375,25.1125 C229.770837,25.1125 230.43333,25.2520819 231.025,25.53125 C231.61667,25.8104181 232.120831,26.2229139 232.5375,26.76875 C232.954169,27.3145861 233.274999,27.9916626 233.5,28.8 C233.725001,29.6083374 233.8375,30.5374948 233.8375,31.5875 C233.8375,32.520838 233.712501,33.3895793 233.4625,34.19375 C233.212499,34.9979207 232.852086,35.6937471 232.38125,36.28125 C231.910414,36.8687529 231.33542,37.3312483 230.65625,37.66875 C229.97708,38.0062517 229.212504,38.175 228.3625,38.175 C227.587496,38.175 226.922919,38.0437513 226.36875,37.78125 C225.814581,37.5187487 225.325002,37.154169 224.9,36.6875 L224.9,42.2875 L222.6625,42.2875 L222.6625,25.3375 L224,25.3375 C224.316668,25.3375 224.5125,25.4916651 224.5875,25.8 L224.7875,27.3 Z M238.9125,34.95 C239.320835,35.5000028 239.766664,35.8874989 240.25,36.1125 C240.733336,36.3375011 241.274997,36.45 241.875,36.45 C243.058339,36.45 243.966663,36.0291709 244.6,35.1875 C245.233336,34.3458291 245.55,33.1458411 245.55,31.5875 C245.55,30.7624959 245.477084,30.0541696 245.33125,29.4625 C245.185416,28.8708304 244.975001,28.3854186 244.7,28.00625 C244.424999,27.6270814 244.087502,27.3500009 243.6875,27.175 C243.287498,26.9999991 242.833336,26.9125 242.325,26.9125 C241.599996,26.9125 240.964586,27.079165 240.41875,27.4125 C239.872914,27.745835 239.370836,28.2166636 238.9125,28.825 L238.9125,34.95 Z M238.8,27.3 C239.333336,26.6416634 239.949996,26.112502 240.65,25.7125 C241.350003,25.312498 242.149995,25.1125 243.05,25.1125 C243.783337,25.1125 244.44583,25.2520819 245.0375,25.53125 C245.62917,25.8104181 246.133331,26.2229139 246.55,26.76875 C246.966669,27.3145861 247.287499,27.9916626 247.5125,28.8 C247.737501,29.6083374 247.85,30.5374948 247.85,31.5875 C247.85,32.520838 247.725001,33.3895793 247.475,34.19375 C247.224999,34.9979207 246.864586,35.6937471 246.39375,36.28125 C245.922914,36.8687529 245.34792,37.3312483 244.66875,37.66875 C243.98958,38.0062517 243.225004,38.175 242.375,38.175 C241.599996,38.175 240.935419,38.0437513 240.38125,37.78125 C239.827081,37.5187487 239.337502,37.154169 238.9125,36.6875 L238.9125,42.2875 L236.675,42.2875 L236.675,25.3375 L238.0125,25.3375 C238.329168,25.3375 238.525,25.4916651 238.6,25.8 L238.8,27.3 Z M160.1025,52.8325 L160.1025,56.9575 C159.562497,57.347502 158.986253,57.638749 158.37375,57.83125 C157.761247,58.023751 157.090004,58.12 156.36,58.12 C155.494996,58.12 154.715003,57.9862513 154.02,57.71875 C153.324997,57.4512487 152.731252,57.0762524 152.23875,56.59375 C151.746248,56.1112476 151.367501,55.5325034 151.1025,54.8575 C150.837499,54.1824966 150.705,53.4400041 150.705,52.63 C150.705,51.8099959 150.833749,51.0625034 151.09125,50.3875 C151.348751,49.7124966 151.714998,49.1337524 152.19,48.65125 C152.665002,48.1687476 153.242497,47.7950013 153.9225,47.53 C154.602503,47.2649987 155.362496,47.1325 156.2025,47.1325 C156.627502,47.1325 157.022498,47.1637497 157.3875,47.22625 C157.752502,47.2887503 158.089998,47.3787494 158.4,47.49625 C158.710002,47.6137506 158.997499,47.7562492 159.2625,47.92375 C159.527501,48.0912508 159.774999,48.279999 160.005,48.49 L159.5925,49.15 C159.5275,49.2500005 159.443751,49.3137499 159.34125,49.34125 C159.238749,49.3687501 159.125001,49.3450004 159,49.27 C158.879999,49.1999997 158.742501,49.1150005 158.5875,49.015 C158.432499,48.9149995 158.243751,48.8187505 158.02125,48.72625 C157.798749,48.6337495 157.536252,48.5550003 157.23375,48.49 C156.931248,48.4249997 156.572502,48.3925 156.1575,48.3925 C155.552497,48.3925 155.005002,48.491249 154.515,48.68875 C154.024998,48.886251 153.607502,49.1687482 153.2625,49.53625 C152.917498,49.9037518 152.652501,50.3487474 152.4675,50.87125 C152.282499,51.3937526 152.19,51.9799968 152.19,52.63 C152.19,53.3050034 152.286249,53.9087473 152.47875,54.44125 C152.671251,54.9737527 152.946248,55.4262481 153.30375,55.79875 C153.661252,56.1712519 154.094997,56.454999 154.605,56.65 C155.115003,56.845001 155.687497,56.9425 156.3225,56.9425 C156.822502,56.9425 157.266248,56.8862506 157.65375,56.77375 C158.041252,56.6612494 158.419998,56.505001 158.79,56.305 L158.79,53.9425 L157.1175,53.9425 C157.0225,53.9425 156.94625,53.9150003 156.88875,53.86 C156.83125,53.8049997 156.8025,53.7375004 156.8025,53.6575 L156.8025,52.8325 L160.1025,52.8325 Z M167.1,53.3725 C167.1,53.0624985 167.05625,52.7787513 166.96875,52.52125 C166.88125,52.2637487 166.753751,52.0412509 166.58625,51.85375 C166.418749,51.6662491 166.215001,51.5212505 165.975,51.41875 C165.734999,51.3162495 165.462502,51.265 165.1575,51.265 C164.517497,51.265 164.011252,51.4512481 163.63875,51.82375 C163.266248,52.1962519 163.035,52.7124967 162.945,53.3725 L167.1,53.3725 Z M168.18,56.935 C168.014999,57.135001 167.817501,57.3087493 167.5875,57.45625 C167.357499,57.6037507 167.111251,57.7249995 166.84875,57.82 C166.586249,57.9150005 166.315001,57.9862498 166.035,58.03375 C165.754999,58.0812502 165.477501,58.105 165.2025,58.105 C164.677497,58.105 164.193752,58.0162509 163.75125,57.83875 C163.308748,57.6612491 162.926252,57.4012517 162.60375,57.05875 C162.281248,56.7162483 162.030001,56.2925025 161.85,55.7875 C161.669999,55.2824975 161.58,54.7025033 161.58,54.0475 C161.58,53.5174974 161.661249,53.0225023 161.82375,52.5625 C161.986251,52.1024977 162.219998,51.7037517 162.525,51.36625 C162.830002,51.0287483 163.202498,50.763751 163.6425,50.57125 C164.082502,50.378749 164.577497,50.2825 165.1275,50.2825 C165.582502,50.2825 166.003748,50.3587492 166.39125,50.51125 C166.778752,50.6637508 167.113749,50.8837486 167.39625,51.17125 C167.678751,51.4587514 167.899999,51.8137479 168.06,52.23625 C168.220001,52.6587521 168.3,53.1399973 168.3,53.68 C168.3,53.8900011 168.2775,54.0299997 168.2325,54.1 C168.1875,54.1700004 168.102501,54.205 167.9775,54.205 L162.9,54.205 C162.915,54.6850024 162.981249,55.1024982 163.09875,55.4575 C163.216251,55.8125018 163.379999,56.1087488 163.59,56.34625 C163.800001,56.5837512 164.049999,56.7612494 164.34,56.87875 C164.630001,56.9962506 164.954998,57.055 165.315,57.055 C165.650002,57.055 165.938749,57.0162504 166.18125,56.93875 C166.423751,56.8612496 166.632499,56.7775005 166.8075,56.6875 C166.982501,56.5974996 167.128749,56.5137504 167.24625,56.43625 C167.363751,56.3587496 167.465,56.32 167.55,56.32 C167.660001,56.32 167.745,56.3624996 167.805,56.4475 L168.18,56.935 Z M172.2675,58.12 C171.667497,58.12 171.206252,57.9525017 170.88375,57.6175 C170.561248,57.2824983 170.4,56.8000032 170.4,56.17 L170.4,51.52 L169.485,51.52 C169.405,51.52 169.3375,51.4962502 169.2825,51.44875 C169.2275,51.4012498 169.2,51.3275005 169.2,51.2275 L169.2,50.695 L170.445,50.5375 L170.7525,48.19 C170.7675,48.1149996 170.80125,48.0537502 170.85375,48.00625 C170.90625,47.9587498 170.975,47.935 171.06,47.935 L171.735,47.935 L171.735,50.5525 L173.9325,50.5525 L173.9325,51.52 L171.735,51.52 L171.735,56.08 C171.735,56.4000016 171.812499,56.6374992 171.9675,56.7925 C172.122501,56.9475008 172.322499,57.025 172.5675,57.025 C172.707501,57.025 172.828749,57.0062502 172.93125,56.96875 C173.033751,56.9312498 173.1225,56.8900002 173.1975,56.845 C173.2725,56.7999998 173.33625,56.7587502 173.38875,56.72125 C173.44125,56.6837498 173.4875,56.665 173.5275,56.665 C173.5975,56.665 173.66,56.7074996 173.715,56.7925 L174.105,57.43 C173.874999,57.6450011 173.597502,57.8137494 173.2725,57.93625 C172.947498,58.0587506 172.612502,58.12 172.2675,58.12 Z M180.5625,50.4025 L180.5625,58 L179.2275,58 L179.2275,50.4025 L180.5625,50.4025 Z M180.8475,48.0175 C180.8475,48.1475007 180.82125,48.2687494 180.76875,48.38125 C180.71625,48.4937506 180.64625,48.5937496 180.55875,48.68125 C180.47125,48.7687504 180.368751,48.8374998 180.25125,48.8875 C180.133749,48.9375003 180.010001,48.9625 179.88,48.9625 C179.749999,48.9625 179.628751,48.9375003 179.51625,48.8875 C179.403749,48.8374998 179.305,48.7687504 179.22,48.68125 C179.135,48.5937496 179.0675,48.4937506 179.0175,48.38125 C178.9675,48.2687494 178.9425,48.1475007 178.9425,48.0175 C178.9425,47.8874994 178.9675,47.7637506 179.0175,47.64625 C179.0675,47.5287494 179.135,47.4262504 179.22,47.33875 C179.305,47.2512496 179.403749,47.1825003 179.51625,47.1325 C179.628751,47.0824998 179.749999,47.0575 179.88,47.0575 C180.010001,47.0575 180.133749,47.0824998 180.25125,47.1325 C180.368751,47.1825003 180.47125,47.2512496 180.55875,47.33875 C180.64625,47.4262504 180.71625,47.5287494 180.76875,47.64625 C180.82125,47.7637506 180.8475,47.8874994 180.8475,48.0175 Z M185.085,58.12 C184.484997,58.12 184.023752,57.9525017 183.70125,57.6175 C183.378748,57.2824983 183.2175,56.8000032 183.2175,56.17 L183.2175,51.52 L182.3025,51.52 C182.2225,51.52 182.155,51.4962502 182.1,51.44875 C182.045,51.4012498 182.0175,51.3275005 182.0175,51.2275 L182.0175,50.695 L183.2625,50.5375 L183.57,48.19 C183.585,48.1149996 183.61875,48.0537502 183.67125,48.00625 C183.72375,47.9587498 183.7925,47.935 183.8775,47.935 L184.5525,47.935 L184.5525,50.5525 L186.75,50.5525 L186.75,51.52 L184.5525,51.52 L184.5525,56.08 C184.5525,56.4000016 184.629999,56.6374992 184.785,56.7925 C184.940001,56.9475008 185.139999,57.025 185.385,57.025 C185.525001,57.025 185.646249,57.0062502 185.74875,56.96875 C185.851251,56.9312498 185.94,56.8900002 186.015,56.845 C186.09,56.7999998 186.15375,56.7587502 186.20625,56.72125 C186.25875,56.6837498 186.305,56.665 186.345,56.665 C186.415,56.665 186.4775,56.7074996 186.5325,56.7925 L186.9225,57.43 C186.692499,57.6450011 186.415002,57.8137494 186.09,57.93625 C185.764998,58.0587506 185.430002,58.12 185.085,58.12 Z M195.1725,50.2825 C195.727503,50.2825 196.227498,50.3749991 196.6725,50.56 C197.117502,50.7450009 197.497498,51.0074983 197.8125,51.3475 C198.127502,51.6875017 198.368749,52.0987476 198.53625,52.58125 C198.703751,53.0637524 198.7875,53.602497 198.7875,54.1975 C198.7875,54.797503 198.703751,55.3374976 198.53625,55.8175 C198.368749,56.2975024 198.127502,56.7074983 197.8125,57.0475 C197.497498,57.3875017 197.117502,57.6487491 196.6725,57.83125 C196.227498,58.0137509 195.727503,58.105 195.1725,58.105 C194.612497,58.105 194.108752,58.0137509 193.66125,57.83125 C193.213748,57.6487491 192.832502,57.3875017 192.5175,57.0475 C192.202498,56.7074983 191.961251,56.2975024 191.79375,55.8175 C191.626249,55.3374976 191.5425,54.797503 191.5425,54.1975 C191.5425,53.602497 191.626249,53.0637524 191.79375,52.58125 C191.961251,52.0987476 192.202498,51.6875017 192.5175,51.3475 C192.832502,51.0074983 193.213748,50.7450009 193.66125,50.56 C194.108752,50.3749991 194.612497,50.2825 195.1725,50.2825 Z M195.1725,57.0625 C195.922504,57.0625 196.482498,56.8112525 196.8525,56.30875 C197.222502,55.8062475 197.4075,55.1050045 197.4075,54.205 C197.4075,53.2999955 197.222502,52.5950025 196.8525,52.09 C196.482498,51.5849975 195.922504,51.3325 195.1725,51.3325 C194.792498,51.3325 194.461251,51.3974994 194.17875,51.5275 C193.896249,51.6575007 193.661251,51.8449988 193.47375,52.09 C193.286249,52.3350012 193.14625,52.6362482 193.05375,52.99375 C192.96125,53.3512518 192.915,53.7549978 192.915,54.205 C192.915,55.1050045 193.101248,55.8062475 193.47375,56.30875 C193.846252,56.8112525 194.412496,57.0625 195.1725,57.0625 Z M201.735,51.505 C201.900001,51.3199991 202.074999,51.1525008 202.26,51.0025 C202.445001,50.8524993 202.641249,50.7237505 202.84875,50.61625 C203.056251,50.5087495 203.276249,50.4262503 203.50875,50.36875 C203.741251,50.3112497 203.992499,50.2825 204.2625,50.2825 C204.677502,50.2825 205.043748,50.3512493 205.36125,50.48875 C205.678752,50.6262507 205.943749,50.8212487 206.15625,51.07375 C206.368751,51.3262513 206.529999,51.6299982 206.64,51.985 C206.750001,52.3400018 206.805,52.7324979 206.805,53.1625 L206.805,58 L205.4625,58 L205.4625,53.1625 C205.4625,52.5874971 205.331251,52.1412516 205.06875,51.82375 C204.806249,51.5062484 204.407503,51.3475 203.8725,51.3475 C203.477498,51.3475 203.108752,51.4424991 202.76625,51.6325 C202.423748,51.822501 202.107501,52.0799984 201.8175,52.405 L201.8175,58 L200.475,58 L200.475,50.4025 L201.2775,50.4025 C201.467501,50.4025 201.585,50.4949991 201.63,50.68 L201.735,51.505 Z M215.0175,58.12 C214.417497,58.12 213.956252,57.9525017 213.63375,57.6175 C213.311248,57.2824983 213.15,56.8000032 213.15,56.17 L213.15,51.52 L212.235,51.52 C212.155,51.52 212.0875,51.4962502 212.0325,51.44875 C211.9775,51.4012498 211.95,51.3275005 211.95,51.2275 L211.95,50.695 L213.195,50.5375 L213.5025,48.19 C213.5175,48.1149996 213.55125,48.0537502 213.60375,48.00625 C213.65625,47.9587498 213.725,47.935 213.81,47.935 L214.485,47.935 L214.485,50.5525 L216.6825,50.5525 L216.6825,51.52 L214.485,51.52 L214.485,56.08 C214.485,56.4000016 214.562499,56.6374992 214.7175,56.7925 C214.872501,56.9475008 215.072499,57.025 215.3175,57.025 C215.457501,57.025 215.578749,57.0062502 215.68125,56.96875 C215.783751,56.9312498 215.8725,56.8900002 215.9475,56.845 C216.0225,56.7999998 216.08625,56.7587502 216.13875,56.72125 C216.19125,56.6837498 216.2375,56.665 216.2775,56.665 C216.3475,56.665 216.41,56.7074996 216.465,56.7925 L216.855,57.43 C216.624999,57.6450011 216.347502,57.8137494 216.0225,57.93625 C215.697498,58.0587506 215.362502,58.12 215.0175,58.12 Z M219.405,51.415 C219.730002,51.0699983 220.089998,50.795001 220.485,50.59 C220.880002,50.384999 221.334997,50.2825 221.85,50.2825 C222.265002,50.2825 222.631248,50.3512493 222.94875,50.48875 C223.266252,50.6262507 223.531249,50.8212487 223.74375,51.07375 C223.956251,51.3262513 224.117499,51.6299982 224.2275,51.985 C224.337501,52.3400018 224.3925,52.7324979 224.3925,53.1625 L224.3925,58 L223.05,58 L223.05,53.1625 C223.05,52.5874971 222.918751,52.1412516 222.65625,51.82375 C222.393749,51.5062484 221.995003,51.3475 221.46,51.3475 C221.064998,51.3475 220.696252,51.4424991 220.35375,51.6325 C220.011248,51.822501 219.695001,52.0799984 219.405,52.405 L219.405,58 L218.0625,58 L218.0625,46.9525 L219.405,46.9525 L219.405,51.415 Z M231.5175,53.3725 C231.5175,53.0624985 231.47375,52.7787513 231.38625,52.52125 C231.29875,52.2637487 231.171251,52.0412509 231.00375,51.85375 C230.836249,51.6662491 230.632501,51.5212505 230.3925,51.41875 C230.152499,51.3162495 229.880002,51.265 229.575,51.265 C228.934997,51.265 228.428752,51.4512481 228.05625,51.82375 C227.683748,52.1962519 227.4525,52.7124967 227.3625,53.3725 L231.5175,53.3725 Z M232.5975,56.935 C232.432499,57.135001 232.235001,57.3087493 232.005,57.45625 C231.774999,57.6037507 231.528751,57.7249995 231.26625,57.82 C231.003749,57.9150005 230.732501,57.9862498 230.4525,58.03375 C230.172499,58.0812502 229.895001,58.105 229.62,58.105 C229.094997,58.105 228.611252,58.0162509 228.16875,57.83875 C227.726248,57.6612491 227.343752,57.4012517 227.02125,57.05875 C226.698748,56.7162483 226.447501,56.2925025 226.2675,55.7875 C226.087499,55.2824975 225.9975,54.7025033 225.9975,54.0475 C225.9975,53.5174974 226.078749,53.0225023 226.24125,52.5625 C226.403751,52.1024977 226.637498,51.7037517 226.9425,51.36625 C227.247502,51.0287483 227.619998,50.763751 228.06,50.57125 C228.500002,50.378749 228.994997,50.2825 229.545,50.2825 C230.000002,50.2825 230.421248,50.3587492 230.80875,50.51125 C231.196252,50.6637508 231.531249,50.8837486 231.81375,51.17125 C232.096251,51.4587514 232.317499,51.8137479 232.4775,52.23625 C232.637501,52.6587521 232.7175,53.1399973 232.7175,53.68 C232.7175,53.8900011 232.695,54.0299997 232.65,54.1 C232.605,54.1700004 232.520001,54.205 232.395,54.205 L227.3175,54.205 C227.3325,54.6850024 227.398749,55.1024982 227.51625,55.4575 C227.633751,55.8125018 227.797499,56.1087488 228.0075,56.34625 C228.217501,56.5837512 228.467499,56.7612494 228.7575,56.87875 C229.047501,56.9962506 229.372498,57.055 229.7325,57.055 C230.067502,57.055 230.356249,57.0162504 230.59875,56.93875 C230.841251,56.8612496 231.049999,56.7775005 231.225,56.6875 C231.400001,56.5974996 231.546249,56.5137504 231.66375,56.43625 C231.781251,56.3587496 231.8825,56.32 231.9675,56.32 C232.077501,56.32 232.1625,56.3624996 232.2225,56.4475 L232.5975,56.935 Z M244.215,54.01 L242.5275,49.6375 C242.4775,49.5074994 242.425,49.3562509 242.37,49.18375 C242.315,49.0112491 242.2625,48.827501 242.2125,48.6325 C242.107499,49.037502 242.000001,49.3749987 241.89,49.645 L240.2025,54.01 L244.215,54.01 Z M247.245,58 L246.12,58 C245.989999,58 245.885,57.9675003 245.805,57.9025 C245.725,57.8374997 245.665,57.7550005 245.625,57.655 L244.62,55.06 L239.7975,55.06 L238.7925,57.655 C238.7625,57.7450005 238.705,57.8249997 238.62,57.895 C238.535,57.9650004 238.430001,58 238.305,58 L237.18,58 L241.4775,47.2525 L242.9475,47.2525 L247.245,58 Z M249.69,56.17 C249.935001,56.5000017 250.202499,56.7324993 250.4925,56.8675 C250.782501,57.0025007 251.107498,57.07 251.4675,57.07 C252.177504,57.07 252.722498,56.8175025 253.1025,56.3125 C253.482502,55.8074975 253.6725,55.0875047 253.6725,54.1525 C253.6725,53.6574975 253.62875,53.2325018 253.54125,52.8775 C253.45375,52.5224982 253.327501,52.2312511 253.1625,52.00375 C252.997499,51.7762489 252.795001,51.6100005 252.555,51.505 C252.314999,51.3999995 252.042502,51.3475 251.7375,51.3475 C251.302498,51.3475 250.921252,51.447499 250.59375,51.6475 C250.266248,51.847501 249.965001,52.1299982 249.69,52.495 L249.69,56.17 Z M249.6225,51.58 C249.942502,51.184998 250.312498,50.8675012 250.7325,50.6275 C251.152502,50.3874988 251.632497,50.2675 252.1725,50.2675 C252.612502,50.2675 253.009998,50.3512492 253.365,50.51875 C253.720002,50.6862508 254.022499,50.9337484 254.2725,51.26125 C254.522501,51.5887516 254.714999,51.9949976 254.85,52.48 C254.985001,52.9650024 255.0525,53.5224969 255.0525,54.1525 C255.0525,54.7125028 254.977501,55.2337476 254.8275,55.71625 C254.677499,56.1987524 254.461251,56.6162482 254.17875,56.96875 C253.896249,57.3212518 253.551252,57.598749 253.14375,57.80125 C252.736248,58.003751 252.277503,58.105 251.7675,58.105 C251.302498,58.105 250.903752,58.0262508 250.57125,57.86875 C250.238748,57.7112492 249.945001,57.4925014 249.69,57.2125 L249.69,60.5725 L248.3475,60.5725 L248.3475,50.4025 L249.15,50.4025 C249.340001,50.4025 249.4575,50.4949991 249.5025,50.68 L249.6225,51.58 Z M258.0975,56.17 C258.342501,56.5000017 258.609999,56.7324993 258.9,56.8675 C259.190001,57.0025007 259.514998,57.07 259.875,57.07 C260.585004,57.07 261.129998,56.8175025 261.51,56.3125 C261.890002,55.8074975 262.08,55.0875047 262.08,54.1525 C262.08,53.6574975 262.03625,53.2325018 261.94875,52.8775 C261.86125,52.5224982 261.735001,52.2312511 261.57,52.00375 C261.404999,51.7762489 261.202501,51.6100005 260.9625,51.505 C260.722499,51.3999995 260.450002,51.3475 260.145,51.3475 C259.709998,51.3475 259.328752,51.447499 259.00125,51.6475 C258.673748,51.847501 258.372501,52.1299982 258.0975,52.495 L258.0975,56.17 Z M258.03,51.58 C258.350002,51.184998 258.719998,50.8675012 259.14,50.6275 C259.560002,50.3874988 260.039997,50.2675 260.58,50.2675 C261.020002,50.2675 261.417498,50.3512492 261.7725,50.51875 C262.127502,50.6862508 262.429999,50.9337484 262.68,51.26125 C262.930001,51.5887516 263.122499,51.9949976 263.2575,52.48 C263.392501,52.9650024 263.46,53.5224969 263.46,54.1525 C263.46,54.7125028 263.385001,55.2337476 263.235,55.71625 C263.084999,56.1987524 262.868751,56.6162482 262.58625,56.96875 C262.303749,57.3212518 261.958752,57.598749 261.55125,57.80125 C261.143748,58.003751 260.685003,58.105 260.175,58.105 C259.709998,58.105 259.311252,58.0262508 258.97875,57.86875 C258.646248,57.7112492 258.352501,57.4925014 258.0975,57.2125 L258.0975,60.5725 L256.755,60.5725 L256.755,50.4025 L257.5575,50.4025 C257.747501,50.4025 257.865,50.4949991 257.91,50.68 L258.03,51.58 Z M274.815,48.9325 C274.77,49.0075004 274.72125,49.0637498 274.66875,49.10125 C274.61625,49.1387502 274.5525,49.1575 274.4775,49.1575 C274.3925,49.1575 274.292501,49.1150004 274.1775,49.03 C274.062499,48.9449996 273.918751,48.8512505 273.74625,48.74875 C273.573749,48.6462495 273.366251,48.5525004 273.12375,48.4675 C272.881249,48.3824996 272.587502,48.34 272.2425,48.34 C271.917498,48.34 271.631251,48.3837496 271.38375,48.47125 C271.136249,48.5587504 270.928751,48.6774993 270.76125,48.8275 C270.593749,48.9775008 270.4675,49.153749 270.3825,49.35625 C270.2975,49.558751 270.255,49.7774988 270.255,50.0125 C270.255,50.3125015 270.328749,50.561249 270.47625,50.75875 C270.623751,50.956251 270.818749,51.1249993 271.06125,51.265 C271.303751,51.4050007 271.578748,51.5262495 271.88625,51.62875 C272.193752,51.7312505 272.508748,51.8374995 272.83125,51.9475 C273.153752,52.0575006 273.468748,52.1812493 273.77625,52.31875 C274.083752,52.4562507 274.358749,52.629999 274.60125,52.84 C274.843751,53.0500011 275.038749,53.3074985 275.18625,53.6125 C275.333751,53.9175015 275.4075,54.2924978 275.4075,54.7375 C275.4075,55.2075024 275.327501,55.6487479 275.1675,56.06125 C275.007499,56.4737521 274.773752,56.8324985 274.46625,57.1375 C274.158748,57.4425015 273.781252,57.6824991 273.33375,57.8575 C272.886248,58.0325009 272.377503,58.12 271.8075,58.12 C271.107496,58.12 270.472503,57.9937513 269.9025,57.74125 C269.332497,57.4887487 268.845002,57.1475022 268.44,56.7175 L268.86,56.0275 C268.9,55.9724997 268.94875,55.9262502 269.00625,55.88875 C269.06375,55.8512498 269.1275,55.8325 269.1975,55.8325 C269.2625,55.8325 269.33625,55.8587497 269.41875,55.91125 C269.50125,55.9637503 269.594999,56.0299996 269.7,56.11 C269.805001,56.1900004 269.924999,56.2774995 270.06,56.3725 C270.195001,56.4675005 270.348749,56.5549996 270.52125,56.635 C270.693751,56.7150004 270.889999,56.7812497 271.11,56.83375 C271.330001,56.8862503 271.577499,56.9125 271.8525,56.9125 C272.197502,56.9125 272.504999,56.8650005 272.775,56.77 C273.045001,56.6749995 273.273749,56.5412509 273.46125,56.36875 C273.648751,56.1962491 273.792499,55.9900012 273.8925,55.75 C273.9925,55.5099988 274.0425,55.2425015 274.0425,54.9475 C274.0425,54.6224984 273.968751,54.356251 273.82125,54.14875 C273.673749,53.941249 273.480001,53.7675007 273.24,53.6275 C272.999999,53.4874993 272.725002,53.3687505 272.415,53.27125 C272.104998,53.1737495 271.790002,53.0737505 271.47,52.97125 C271.149998,52.8687495 270.835002,52.7500007 270.525,52.615 C270.214998,52.4799993 269.940001,52.3050011 269.7,52.09 C269.459999,51.8749989 269.266251,51.6062516 269.11875,51.28375 C268.971249,50.9612484 268.8975,50.5625024 268.8975,50.0875 C268.8975,49.7074981 268.971249,49.3400018 269.11875,48.985 C269.266251,48.6299982 269.481249,48.3150014 269.76375,48.04 C270.046251,47.7649986 270.393748,47.5450008 270.80625,47.38 C271.218752,47.2149992 271.692497,47.1325 272.2275,47.1325 C272.827503,47.1325 273.373748,47.2274991 273.86625,47.4175 C274.358752,47.607501 274.792498,47.8824982 275.1675,48.2425 L274.815,48.9325 Z M279.4725,58.12 C278.872497,58.12 278.411252,57.9525017 278.08875,57.6175 C277.766248,57.2824983 277.605,56.8000032 277.605,56.17 L277.605,51.52 L276.69,51.52 C276.61,51.52 276.5425,51.4962502 276.4875,51.44875 C276.4325,51.4012498 276.405,51.3275005 276.405,51.2275 L276.405,50.695 L277.65,50.5375 L277.9575,48.19 C277.9725,48.1149996 278.00625,48.0537502 278.05875,48.00625 C278.11125,47.9587498 278.18,47.935 278.265,47.935 L278.94,47.935 L278.94,50.5525 L281.1375,50.5525 L281.1375,51.52 L278.94,51.52 L278.94,56.08 C278.94,56.4000016 279.017499,56.6374992 279.1725,56.7925 C279.327501,56.9475008 279.527499,57.025 279.7725,57.025 C279.912501,57.025 280.033749,57.0062502 280.13625,56.96875 C280.238751,56.9312498 280.3275,56.8900002 280.4025,56.845 C280.4775,56.7999998 280.54125,56.7587502 280.59375,56.72125 C280.64625,56.6837498 280.6925,56.665 280.7325,56.665 C280.8025,56.665 280.865,56.7074996 280.92,56.7925 L281.31,57.43 C281.079999,57.6450011 280.802502,57.8137494 280.4775,57.93625 C280.152498,58.0587506 279.817502,58.12 279.4725,58.12 Z M285.72,50.2825 C286.275003,50.2825 286.774998,50.3749991 287.22,50.56 C287.665002,50.7450009 288.044998,51.0074983 288.36,51.3475 C288.675002,51.6875017 288.916249,52.0987476 289.08375,52.58125 C289.251251,53.0637524 289.335,53.602497 289.335,54.1975 C289.335,54.797503 289.251251,55.3374976 289.08375,55.8175 C288.916249,56.2975024 288.675002,56.7074983 288.36,57.0475 C288.044998,57.3875017 287.665002,57.6487491 287.22,57.83125 C286.774998,58.0137509 286.275003,58.105 285.72,58.105 C285.159997,58.105 284.656252,58.0137509 284.20875,57.83125 C283.761248,57.6487491 283.380002,57.3875017 283.065,57.0475 C282.749998,56.7074983 282.508751,56.2975024 282.34125,55.8175 C282.173749,55.3374976 282.09,54.797503 282.09,54.1975 C282.09,53.602497 282.173749,53.0637524 282.34125,52.58125 C282.508751,52.0987476 282.749998,51.6875017 283.065,51.3475 C283.380002,51.0074983 283.761248,50.7450009 284.20875,50.56 C284.656252,50.3749991 285.159997,50.2825 285.72,50.2825 Z M285.72,57.0625 C286.470004,57.0625 287.029998,56.8112525 287.4,56.30875 C287.770002,55.8062475 287.955,55.1050045 287.955,54.205 C287.955,53.2999955 287.770002,52.5950025 287.4,52.09 C287.029998,51.5849975 286.470004,51.3325 285.72,51.3325 C285.339998,51.3325 285.008751,51.3974994 284.72625,51.5275 C284.443749,51.6575007 284.208751,51.8449988 284.02125,52.09 C283.833749,52.3350012 283.69375,52.6362482 283.60125,52.99375 C283.50875,53.3512518 283.4625,53.7549978 283.4625,54.205 C283.4625,55.1050045 283.648748,55.8062475 284.02125,56.30875 C284.393752,56.8112525 284.959996,57.0625 285.72,57.0625 Z M292.29,51.925 C292.530001,51.4049974 292.824998,50.9987515 293.175,50.70625 C293.525002,50.4137485 293.952497,50.2675 294.4575,50.2675 C294.617501,50.2675 294.771249,50.2849998 294.91875,50.32 C295.066251,50.3550002 295.197499,50.4099996 295.3125,50.485 L295.215,51.4825 C295.185,51.6075006 295.110001,51.67 294.99,51.67 C294.92,51.67 294.817501,51.6550002 294.6825,51.625 C294.547499,51.5949999 294.395001,51.58 294.225,51.58 C293.984999,51.58 293.771251,51.6149997 293.58375,51.685 C293.396249,51.7550004 293.228751,51.8587493 293.08125,51.99625 C292.933749,52.1337507 292.801251,52.303749 292.68375,52.50625 C292.566249,52.708751 292.46,52.9399987 292.365,53.2 L292.365,58 L291.0225,58 L291.0225,50.4025 L291.7875,50.4025 C291.932501,50.4025 292.0325,50.4299997 292.0875,50.485 C292.1425,50.5400003 292.18,50.6349993 292.2,50.77 L292.29,51.925 Z M301.5675,53.3725 C301.5675,53.0624985 301.52375,52.7787513 301.43625,52.52125 C301.34875,52.2637487 301.221251,52.0412509 301.05375,51.85375 C300.886249,51.6662491 300.682501,51.5212505 300.4425,51.41875 C300.202499,51.3162495 299.930002,51.265 299.625,51.265 C298.984997,51.265 298.478752,51.4512481 298.10625,51.82375 C297.733748,52.1962519 297.5025,52.7124967 297.4125,53.3725 L301.5675,53.3725 Z M302.6475,56.935 C302.482499,57.135001 302.285001,57.3087493 302.055,57.45625 C301.824999,57.6037507 301.578751,57.7249995 301.31625,57.82 C301.053749,57.9150005 300.782501,57.9862498 300.5025,58.03375 C300.222499,58.0812502 299.945001,58.105 299.67,58.105 C299.144997,58.105 298.661252,58.0162509 298.21875,57.83875 C297.776248,57.6612491 297.393752,57.4012517 297.07125,57.05875 C296.748748,56.7162483 296.497501,56.2925025 296.3175,55.7875 C296.137499,55.2824975 296.0475,54.7025033 296.0475,54.0475 C296.0475,53.5174974 296.128749,53.0225023 296.29125,52.5625 C296.453751,52.1024977 296.687498,51.7037517 296.9925,51.36625 C297.297502,51.0287483 297.669998,50.763751 298.11,50.57125 C298.550002,50.378749 299.044997,50.2825 299.595,50.2825 C300.050002,50.2825 300.471248,50.3587492 300.85875,50.51125 C301.246252,50.6637508 301.581249,50.8837486 301.86375,51.17125 C302.146251,51.4587514 302.367499,51.8137479 302.5275,52.23625 C302.687501,52.6587521 302.7675,53.1399973 302.7675,53.68 C302.7675,53.8900011 302.745,54.0299997 302.7,54.1 C302.655,54.1700004 302.570001,54.205 302.445,54.205 L297.3675,54.205 C297.3825,54.6850024 297.448749,55.1024982 297.56625,55.4575 C297.683751,55.8125018 297.847499,56.1087488 298.0575,56.34625 C298.267501,56.5837512 298.517499,56.7612494 298.8075,56.87875 C299.097501,56.9962506 299.422498,57.055 299.7825,57.055 C300.117502,57.055 300.406249,57.0162504 300.64875,56.93875 C300.891251,56.8612496 301.099999,56.7775005 301.275,56.6875 C301.450001,56.5974996 301.596249,56.5137504 301.71375,56.43625 C301.831251,56.3587496 301.9325,56.32 302.0175,56.32 C302.127501,56.32 302.2125,56.3624996 302.2725,56.4475 L302.6475,56.935 Z" id="Mac-App-Get-it-on-th" fill="#E8E8E8"></path>
                <g id="imac" transform="translate(60.000000, 15.000000)" fill-rule="nonzero" fill="#F5F5F5">
                    <path d="M52.25,0 L4.75,0 C2.130375,0 0,2.23095238 0,4.97261905 L0,40.2654762 C0,43.0083333 2.130375,45.2380952 4.75,45.2380952 L27.3125,45.2380952 L27.3125,47.6190476 L11.875,47.6190476 C11.2195,47.6190476 10.6875,48.152381 10.6875,48.8095238 C10.6875,49.4666667 11.2195,50 11.875,50 L45.125,50 C45.7805,50 46.3125,49.4666667 46.3125,48.8095238 C46.3125,48.152381 45.7805,47.6190476 45.125,47.6190476 L29.6875,47.6190476 L29.6875,45.2380952 L52.25,45.2380952 C54.869625,45.2380952 57,43.0083333 57,40.2654762 L57,4.97261905 C57,2.23095238 54.869625,0 52.25,0 Z M4.75,2.38095238 L52.25,2.38095238 C53.5598125,2.38095238 54.625,3.54404762 54.625,4.97261905 L54.625,33.3333333 L2.375,33.3333333 L2.375,4.97261905 C2.375,3.54404762 3.4401875,2.38095238 4.75,2.38095238 Z M52.25,42.8571429 L4.75,42.8571429 C3.4401875,42.8571429 2.375,41.6940476 2.375,40.2654762 L2.375,35.7142857 L54.625,35.7142857 L54.625,40.2654762 C54.625,41.6940476 53.5598125,42.8571429 52.25,42.8571429 Z" id="Shape"></path>
                    <ellipse id="Oval" cx="28.5" cy="39.2857143" rx="2.375" ry="2.38095238"></ellipse>
                </g>
            </g>
        </g>
    </g>
</svg>