<?xml version="1.0" encoding="UTF-8"?>
<svg width="30px" height="31px" viewBox="0 0 30 31" version="1.1" xmlns="http://www.w3.org/2000/svg" xmlns:xlink="http://www.w3.org/1999/xlink">
    <!-- Generator: Sketch 42 (36781) - http://www.bohemiancoding.com/sketch -->
    <title>Wifi</title>
    <desc>Created with Sketch.</desc>
    <defs>
        <rect id="path-1" x="0" y="0" width="30" height="30.0722892" rx="4.17721519"></rect>
        <mask id="mask-2" maskContentUnits="userSpaceOnUse" maskUnits="objectBoundingBox" x="0" y="0" width="30" height="30.0722892" fill="white">
            <use xlink:href="#path-1"></use>
        </mask>
    </defs>
    <g id="Website" stroke="none" stroke-width="1" fill="none" fill-rule="evenodd">
        <g id="Desktop-HD" transform="translate(-60.000000, -558.000000)">
            <g id="Information" transform="translate(60.000000, 554.000000)">
                <g id="Connect" transform="translate(0.000000, 0.561446)">
                    <g id="Wifi" transform="translate(0.000000, 3.508434)">
                        <use id="Rectangle-2" stroke="#EBEBEB" mask="url(#mask-2)" stroke-width="1.51898734" xlink:href="#path-1"></use>
                        <g id="wifi" transform="translate(7.000000, 8.019277)" fill-rule="nonzero" fill="#F1F1F1">
                            <path d="M13.2167236,5.37674744 C13.5642365,5.70250933 13.5989878,6.23401557 13.2688506,6.57692282 C13.0950942,6.76552181 12.8692108,6.85124862 12.6259518,6.85124862 C12.4174441,6.85124862 12.2089364,6.78266717 12.03518,6.62835891 C8.17778741,3.1478503 4.02500892,6.45690528 3.8512525,6.59406818 C3.48636401,6.90268471 2.93034346,6.85124862 2.63495754,6.49119601 C2.32219598,6.13114339 2.37432291,5.59963715 2.73921139,5.29102062 C4.6331564,3.73079263 9.22032594,1.75907593 13.2167236,5.37674744 Z M8.03878227,10.1431582 C7.60439121,10.1431582 7.17000016,10.3146119 6.87461424,10.6232284 C6.56185268,10.9318449 6.38809626,11.3433336 6.38809626,11.7719677 C6.38809626,12.2006018 6.56185268,12.6120905 6.87461424,12.920707 C7.1873758,13.2293235 7.60439121,13.4007771 8.03878227,13.4007771 C8.47317332,13.4007771 8.90756438,13.2293235 9.2029503,12.920707 C9.51571186,12.6120905 9.68946828,12.2006018 9.68946828,11.7719677 C9.68946828,11.3433336 9.51571186,10.9318449 9.2029503,10.6232284 C8.89018874,10.3146119 8.47317332,10.1431582 8.03878227,10.1431582 Z M15.6840648,3.04497812 C11.5660376,-0.50411194 7.58701557,-0.315512951 4.9632936,0.473173729 C2.1658152,1.3132965 0.34137277,2.95925131 0.271870201,3.04497812 C-0.0756426428,3.37074001 -0.093018285,3.90224625 0.237118917,4.2451535 C0.567256119,4.58806076 1.12327667,4.60520612 1.47078951,4.27944423 C1.48816516,4.26229887 3.0693486,2.82208841 5.48456286,2.10198318 C8.68168103,1.14184287 11.7224184,1.89623883 14.5546481,4.33088032 C14.7110289,4.46804322 14.9195366,4.53662467 15.1280443,4.53662467 C15.3713033,4.53662467 15.6145623,4.43375249 15.7883187,4.2451535 C16.0837046,3.90224625 16.0489533,3.35359465 15.6840648,3.04497812 Z M5.11967438,7.72566211 C4.73741025,8.01713328 4.68528332,8.54863952 4.98066924,8.9258375 C5.27605516,9.30303548 5.83207571,9.35447156 6.19696419,9.0630004 C6.26646676,9.01156431 8.10828484,7.60564458 9.67209264,9.04585504 C9.84584906,9.2001633 10.0543568,9.26874475 10.2628645,9.26874475 C10.4887478,9.26874475 10.7320068,9.18301794 10.9057632,8.99441895 C11.2359004,8.6515117 11.2185248,8.10286009 10.8536363,7.79424357 C8.7511836,5.87396295 6.17958855,6.91983007 5.11967438,7.72566211 Z" id="XMLID_2134_"></path>
                        </g>
                    </g>
                </g>
            </g>
        </g>
    </g>
</svg>