<?xml version="1.0" encoding="UTF-8" standalone="no"?>
<svg width="117px" height="94px" viewBox="0 0 117 94" version="1.1" xmlns="http://www.w3.org/2000/svg" xmlns:xlink="http://www.w3.org/1999/xlink" xmlns:sketch="http://www.bohemiancoding.com/sketch/ns">
    <!-- Generator: Sketch 3.4.4 (17249) - http://www.bohemiancoding.com/sketch -->
    <title>fbla</title>
    <desc>Created with Sketch.</desc>
    <defs></defs>
    <g id="Page-1" stroke="none" stroke-width="1" fill="none" fill-rule="evenodd" sketch:type="MSPage">
        <g id="PC" sketch:type="MSArtboardGroup" transform="translate(-171.000000, -2937.000000)">
            <g id="fbla" sketch:type="MSLayerGroup" transform="translate(171.000000, 2937.412506)">
                <g sketch:type="MSShapeGroup">
                    <g id="Flag" transform="translate(0.000000, 0.000000)">
                        <path d="M2.33838463,42.1780767 C2.33838463,42.1780767 16.2812919,32.3912239 23.1408051,28.2618862 C26.5971906,26.1811872 34.7570749,21.4313269 39.7499701,20.2178932 C43.0148125,19.2849703 43.8843852,21.5498021 43.8843852,21.5498021 C43.8843852,21.5498021 43.1559283,27.1605475 43.8843857,28.5915305 C44.612843,30.0225135 51.9402435,26.1468157 52.7105982,25.7925404 C66.1560302,19.6091753 90.2334824,0.234504457 90.2334824,0.234504457 C90.2334824,0.234504457 88.3446002,10.5995385 88.1936243,11.9022928 C88.0907132,12.7903015 66.9291308,27.6100531 57.2142404,32.2383484 C50.2738384,35.5448427 42.8114549,37.4103029 42.6760373,37.7988765 C42.6744194,37.803519 43.1559283,43.494829 43.1559283,43.494829 C43.1559283,43.494829 46.1391721,43.5299159 50.3694958,42.1767876 C53.6432334,41.1296368 57.8647143,38.8049004 60.7634227,37.7988765 C69.6630511,34.7101771 87.3059959,22.3190728 87.3059959,22.3190728 C87.3059959,22.3190728 84.7323886,31.6185384 85.0732852,32.2383487 C85.4866341,32.9898904 77.6860415,37.9239495 68.0981426,42.6716953 C61.5357696,45.921258 52.2175148,49.5777635 51.7377179,49.7845519 C48.3618863,51.2395068 43.5153738,52.6641144 40.9323092,52.6437762 C40.0108792,52.6365212 38.932891,51.3352506 38.932891,51.3352506 C38.6457916,49.4123312 39.6118464,48.0437017 39.3110339,45.1964884 C39.129844,43.481512 37.9121306,42.1767876 37.443077,42.1767876 C33.6219991,42.1767876 26.6051605,44.9880389 19.2578596,49.0883632 C10.3942478,54.0348983 0.104788779,61.7847021 0.104788779,61.7847021 C0.104788779,61.7847021 1.15764274,54.8245513 1.07452047,54.7357754 C0.574886798,54.2021585 25.8144603,39.3082376 30.9771252,37.3297482 C35.2295474,35.7000913 39.3970882,34.9154594 39.3110335,35.0806519 C39.0558442,35.5705188 40.0925435,30.2753571 39.7499701,29.486314 C39.4073967,28.6972708 38.8126335,28.2586691 36.4936964,28.59153 C34.6774273,28.8522379 31.7749793,30.4510518 29.4008091,31.8106203 C22.986082,35.4840138 1.56085929,49.0883635 1.56085929,49.0883635 L2.33838463,42.1780767 Z" id="Rectangle-3" fill="#E35453"></path>
                        <path d="M3.07424066,32.1129758 L17.0138941,32.1760094 L2.33838463,42.1780767 L3.07424066,32.1129758 Z" id="Rectangle-1" fill="#277BD7"></path>
                        <path d="M23.2281092,51.3352509 C27.0191895,49.2458449 30.8129602,48.3578676 30.8129602,48.3578676 L28.0012455,61.598812 L6.78819784,61.598812 C6.78819784,61.598812 19.0109353,53.659493 23.2281092,51.3352509 Z" id="Rectangle-2" fill="#277BD7"></path>
                    </g>
                    <path d="M87.407416,84.2044387 C89.9401021,83.4802579 106.384308,61.761615 106.384308,61.761615 L108.483604,61.761615 C108.483604,61.761615 112.730505,79.4416372 113.597823,83.0003072 C113.880998,84.1621994 115.450609,83.9106419 116.241046,84.4508308 C117.031484,84.9910198 116.753328,85.8457689 116.753328,85.8457689 L103.854319,86.0295319 C103.854319,86.0295319 103.73673,84.9240673 104.481478,84.5295561 C105.459915,84.0112536 107.445914,83.8683129 107.445914,83.8683129 L106.66927,78.2069865 L96.8233415,78.2069865 C96.8233415,78.2069865 93.102798,83.2084799 93.4132752,83.7614491 C93.7237523,84.3144183 95.2243031,84.0977007 95.9092292,84.5295561 C96.5941554,84.9614114 96.2611937,86.0295319 96.2611937,86.0295319 L87.0322505,86.0295319 L87.2699133,84.8035419 C86.8665387,86.6102472 86.7405671,87.7151662 86.9149076,89.222541 C86.9149076,89.222541 87.1842298,89.735029 87.7904147,89.7717905 C89.1877418,89.8565302 92.9254435,89.5870444 92.9254435,89.5870444 C96.4432029,89.9515479 99.2461666,83.0735826 99.2461666,83.0735826 L100.791888,83.7595182 L98.4949679,92.9062512 L79.4553852,92.5583986 L79.1938491,90.9938913 C79.1938491,90.9938913 81.191433,91.7478592 82.1484722,88.1492217 C83.1055114,84.5505842 86.1632964,69.2843175 86.9149079,64.5516118 C87.066156,63.5992408 84.1251532,63.5285083 84.1251532,63.5285083 L84.1251532,61.8582207 L95.079408,61.8582207 L95.079408,63.5285082 C95.079408,63.5285082 93.5109345,63.2306096 92.1661038,65.1576187 C91.3834715,66.4180842 89.5550982,75.2161235 88.4044849,80.0764054 C87.9928549,81.8151634 87.6592607,83.1315084 87.407416,84.2044387 Z M104.475486,68.3034503 L106.338362,75.9398878 L98.5735962,75.9398878 L104.475486,68.3034503 Z M60.3399764,83.1585322 C62.5414878,78.7374199 65.1867245,69.0277321 66.4698382,64.2484037 C66.6965141,63.4040836 63.0672486,63.4040836 63.0672486,63.4040836 L63.0672488,61.9508808 C70.0524351,62.2227299 82.0060648,59.6706043 83.4375612,66.3910034 C84.4286379,72.3356933 76.9545362,73.2779436 76.9545362,73.2779436 C76.9545362,73.2779436 80.3688319,73.037917 81.4978601,77.8713305 C82.3139796,87.1259551 65.3962974,86.4276298 57.717917,85.7218126 C57.4106502,85.6935678 57.5409186,84.6993475 57.5409186,84.6993475 C57.5409186,84.6993475 59.4690199,84.9076018 60.3399764,83.1585322 Z M68.4315874,74.0275285 C68.4315874,74.0275285 74.6988782,73.0458696 76.0208603,76.8950419 C76.5889603,84.742674 66.9592411,84.1264763 66.3558837,83.7710478 C65.7525263,83.4156193 65.6321451,83.0371212 65.573376,82.3701498 C65.5146069,81.7031783 68.4315874,74.0275285 68.4315874,74.0275285 Z M71.9656213,63.7602283 C71.9656213,63.7602283 77.1219906,62.3374508 78.4439728,66.1866231 C79.2895663,73.616101 69.0321966,72.2616382 69.0321966,72.2616382 L71.9656213,63.7602283 Z M41.9283706,62.0126998 L61.906057,62.0126998 L60.7634223,68.2126425 L59.1428764,68.2126425 C59.1428764,68.2126425 59.4131212,65.5965629 59.0352727,64.9678492 C58.6574242,64.3391354 57.4693792,64.2615381 56.4891786,64.2016653 C54.3263322,64.069554 49.7137355,64.2016653 49.7137355,64.2016653 L47.5291847,72.201949 C47.5291847,72.201949 52.2150382,72.1792657 52.777847,71.9135385 C53.3406559,71.6478114 54.919575,69.1279019 54.919575,69.1279019 L56.3728663,69.3822738 L53.4140264,78.3125873 L51.9226503,78.3125873 L51.9226503,74.552562 L47.0633492,74.3471708 C47.0633492,74.3471708 43.6801065,83.1855374 44.3723872,84.1200548 C45.0646678,85.0545722 47.0633492,84.9409654 47.0633492,84.9409654 L47.0633489,86.3830701 L36.4192865,86.3830701 L36.4192865,84.9409654 C36.4192865,84.9409654 38.589194,84.7170799 38.9792042,84.1200548 C39.3692145,83.5230297 45.5426574,64.3263054 44.7441818,63.6900825 C44.3222485,63.4477789 41.9283706,63.3745681 41.9283706,63.3745681 L41.9283706,62.0126998 Z" id="A" fill="#277BD7"></path>
                </g>
            </g>
        </g>
    </g>
</svg>