<?xml version="1.0" encoding="UTF-8" standalone="no"?>
<svg width="348px" height="400px" viewBox="0 0 348 400" version="1.1" xmlns="http://www.w3.org/2000/svg" xmlns:xlink="http://www.w3.org/1999/xlink" xmlns:sketch="http://www.bohemiancoding.com/sketch/ns">
    <!-- Generator: Sketch 3.4.4 (17249) - http://www.bohemiancoding.com/sketch -->
    <title>HS Hacks logo</title>
    <desc>Created with Sketch.</desc>
    <defs></defs>
    <g id="Page-1" stroke="none" stroke-width="1" fill="none" fill-rule="evenodd" sketch:type="MSPage">
        <g id="Images" sketch:type="MSArtboardGroup" transform="translate(-766.000000, -318.000000)">
            <g id="HS-Hacks-logo" sketch:type="MSLayerGroup" transform="translate(740.000000, 318.000000)">
                <polygon id="Polygon-1" stroke="#FFFFFF" stroke-width="9" fill="#156C92" sketch:type="MSShapeGroup" points="200 0 373.205081 100 373.205081 300 200 400 26.7949192 300 26.7949192 100 "></polygon>
                <polygon id="Polygon-1" stroke="#3A93B8" stroke-width="19" fill="#4CA4C9" sketch:type="MSShapeGroup" points="198.571429 51.4285714 328.475239 126.428571 328.475239 276.428571 198.571429 351.428571 68.667618 276.428571 68.667618 126.428571 "></polygon>
                <path d="M126.748971,130.041152 L161.316872,110.288066 L161.316872,181.069959 L233.744856,181.069959 L233.744856,110.288066 L268.312757,130.041152 L268.312757,181.069959 L268.312757,220.576132 L268.312757,273.251029 L233.744856,291.358025 L233.744856,220.576132 L161.316872,220.576132 L161.316872,291.358025 L126.748971,273.251029 L126.748971,130.041152 Z" id="Rectangle-1" fill="#FFFFFF" sketch:type="MSShapeGroup"></path>
            </g>
        </g>
    </g>
</svg>