<?xml version="1.0" encoding="UTF-8" standalone="no"?>
<svg width="140px" height="140px" viewBox="0 0 140 140" version="1.1" xmlns="http://www.w3.org/2000/svg" xmlns:xlink="http://www.w3.org/1999/xlink" xmlns:sketch="http://www.bohemiancoding.com/sketch/ns">
    <!-- Generator: Sketch 3.4.4 (17249) - http://www.bohemiancoding.com/sketch -->
    <title>Question</title>
    <desc>Created with Sketch.</desc>
    <defs></defs>
    <g id="Page-1" stroke="none" stroke-width="1" fill="none" fill-rule="evenodd" sketch:type="MSPage">
        <g id="PC" sketch:type="MSArtboardGroup" transform="translate(-187.000000, -1094.000000)" fill="#65FFA7">
            <g id="Question" sketch:type="MSLayerGroup" transform="translate(187.000000, 1094.000000)">
                <path d="M70,140 C31.5,140 0,108.5 0,70 C0,31.5 31.5,0 70,0 C108.5,0 140,31.5 140,70 C140,108.5 108.5,140 70,140 L70,140 Z M70,11.6666667 C37.9166667,11.6666667 11.6666667,37.9166667 11.6666667,70 C11.6666667,102.083333 37.9166667,128.333333 70,128.333333 C102.083333,128.333333 128.333333,102.083333 128.333333,70 C128.333333,37.9166667 102.083333,11.6666667 70,11.6666667 L70,11.6666667 Z" id="Shape" sketch:type="MSShapeGroup"></path>
                <path d="M70,93.3333333 C66.5,93.3333333 64.1666667,91 64.1666667,87.5 L64.1666667,83.4166667 C64.1666667,74.6666667 68.8333333,67.0833333 75.8333333,63 C80.5,60.6666667 82.8333333,55.4166667 81.6666667,50.75 C81.0833333,46.0833333 77,42 72.3333333,41.4166667 C68.8333333,40.8333333 65.3333333,41.4166667 62.4166667,43.75 C60.0833333,45.5 58.3333333,49 58.3333333,52.5 C58.3333333,56 56,58.3333333 52.5,58.3333333 C49,58.3333333 46.6666667,56 46.6666667,52.5 C46.6666667,45.5 49.5833333,39.0833333 54.8333333,34.4166667 C60.0833333,29.75 67.0833333,28 74.0833333,29.1666667 C83.4166667,30.9166667 91,38.5 92.75,47.8333333 C94.5,57.75 89.8333333,67.6666667 81.0833333,72.3333333 C77.5833333,74.0833333 75.8333333,78.1666667 75.8333333,82.8333333 L75.8333333,87.5 C75.8333333,91 73.5,93.3333333 70,93.3333333 L70,93.3333333 Z" id="Shape" sketch:type="MSShapeGroup"></path>
                <circle id="Oval" sketch:type="MSShapeGroup" cx="70" cy="105" r="5.83333333"></circle>
                <path d="M70,113.75 C65.3333333,113.75 61.25,109.666667 61.25,105 C61.25,100.333333 65.3333333,96.25 70,96.25 C74.6666667,96.25 78.75,100.333333 78.75,105 C78.75,109.666667 74.6666667,113.75 70,113.75 L70,113.75 Z M70,102.083333 C68.25,102.083333 67.0833333,103.25 67.0833333,105 C67.0833333,106.75 68.25,107.916667 70,107.916667 C71.75,107.916667 72.9166667,106.75 72.9166667,105 C72.9166667,103.25 71.75,102.083333 70,102.083333 L70,102.083333 Z" id="Shape" sketch:type="MSShapeGroup"></path>
            </g>
        </g>
    </g>
</svg>