<?xml version="1.0" encoding="UTF-8" standalone="no"?>
<svg width="140px" height="140px" viewBox="0 0 140 140" version="1.1" xmlns="http://www.w3.org/2000/svg" xmlns:xlink="http://www.w3.org/1999/xlink" xmlns:sketch="http://www.bohemiancoding.com/sketch/ns">
    <!-- Generator: Sketch 3.4.4 (17249) - http://www.bohemiancoding.com/sketch -->
    <title>Web</title>
    <desc>Created with Sketch.</desc>
    <defs></defs>
    <g id="Page-1" stroke="none" stroke-width="1" fill="none" fill-rule="evenodd" sketch:type="MSPage">
        <g id="Artboard-4" sketch:type="MSArtboardGroup" transform="translate(-275.000000, -75.000000)">
            <g id="Web" sketch:type="MSLayerGroup" transform="translate(275.000000, 75.000000)">
                <rect id="Rectangle-54" fill="#FE3D50" sketch:type="MSShapeGroup" x="0" y="0" width="140" height="140"></rect>
                <path d="M70.0658087,139.787965 C108.485617,139.787965 139.631026,108.642557 139.631026,70.2227478 C139.631026,31.8029391 108.485617,0.657530435 70.0658087,0.657530435 C31.646,0.657530435 0.500591304,31.8029391 0.500591304,70.2227478 C0.500591304,108.642557 31.646,139.787965 70.0658087,139.787965 Z" id="Oval" fill="#FE3D50" sketch:type="MSShapeGroup"></path>
                <circle id="Oval" fill="#F8E71C" sketch:type="MSShapeGroup" cx="70.0658087" cy="70.2227478" r="48.5952348"></circle>
                <path d="M122.725826,110.420191 L17.4057913,110.420191 C15.4848,110.420191 13.9275304,108.862896 13.9275304,106.94193 L13.9275304,33.5035304 C13.9275304,31.5825652 15.4848,30.0252696 17.4057913,30.0252696 L122.725826,30.0252696 C124.646843,30.0252696 126.204087,31.5825652 126.204087,33.5035304 L126.204087,106.94193 C126.204087,108.862887 124.646843,110.420191 122.725826,110.420191 L122.725826,110.420191 L122.725826,110.420191 Z" id="Shape" fill="#FFFFFF" sketch:type="MSShapeGroup"></path>
                <path d="M126.206957,99.116687 L126.206957,105.203643 C126.206957,107.125348 124.650452,108.681904 122.728696,108.681904 L17.4069304,108.681904 C15.4851739,108.681904 13.9286696,107.125348 13.9286696,105.203643 L13.9286696,99.116687 C13.9286696,101.038391 15.4851739,102.594948 17.4069304,102.594948 L122.728696,102.594948 C124.650452,102.594948 126.206957,101.038391 126.206957,99.116687 L126.206957,99.116687 L126.206957,99.116687 Z" id="Shape" fill="#F0F2F1" sketch:type="MSShapeGroup"></path>
                <path d="M126.206957,33.4992783 L126.206957,38.6210261 L13.9286696,38.6210261 L13.9286696,33.4992783 C13.9286696,31.5862261 15.4851739,30.0210174 17.4069304,30.0210174 L122.728696,30.0210174 C124.650452,30.0210174 126.206957,31.5862261 126.206957,33.4992783 L126.206957,33.4992783 L126.206957,33.4992783 Z" id="Shape" fill="#FFFFFF" sketch:type="MSShapeGroup"></path>
                <rect id="Rectangle-path" fill="#51E4C2" sketch:type="MSShapeGroup" x="22.6243217" y="87.3166783" width="31.5101391" height="23.0400783"></rect>
                <circle id="Oval" fill="#FE3D50" sketch:type="MSShapeGroup" cx="21.4705739" cy="34.3210261" r="1.47392174"></circle>
                <circle id="Oval" fill="#F8E71C" sketch:type="MSShapeGroup" cx="26.5792696" cy="34.3210261" r="1.47392174"></circle>
                <circle id="Oval" fill="#51E4C2" sketch:type="MSShapeGroup" cx="31.6879652" cy="34.3210261" r="1.47392174"></circle>
                <path d="M13.9286696,38.6210261 L126.204087,38.6210261" id="Shape" stroke="#E8EDEB" sketch:type="MSShapeGroup"></path>
                <rect id="Rectangle-path" fill="#E8EDEB" sketch:type="MSShapeGroup" x="61.2721565" y="47.3166783" width="16.1956522" height="2.39130435"></rect>
                <rect id="Rectangle-path" fill="#E8EDEB" sketch:type="MSShapeGroup" x="61.2721565" y="56.0123304" width="56.1956783" height="2.39130435"></rect>
                <rect id="Rectangle-path" fill="#E8EDEB" sketch:type="MSShapeGroup" x="61.2721565" y="64.7079826" width="56.1956783" height="2.39130435"></rect>
                <rect id="Rectangle-path" fill="#E8EDEB" sketch:type="MSShapeGroup" x="61.2721565" y="87.3166783" width="16.1956522" height="2.39130435"></rect>
                <rect id="Rectangle-path" fill="#E8EDEB" sketch:type="MSShapeGroup" x="61.2721565" y="96.0123304" width="56.1956783" height="2.39130435"></rect>
                <rect id="Rectangle-path" fill="#E8EDEB" sketch:type="MSShapeGroup" x="61.2721565" y="104.707983" width="56.1956783" height="2.39130435"></rect>
                <rect id="Rectangle-path" fill="#2283F6" sketch:type="MSShapeGroup" x="22.6243217" y="47.3166783" width="31.5101391" height="31.5101652"></rect>
                <rect id="Rectangle-path" opacity="0.3" fill="#252528" sketch:type="MSShapeGroup" x="22.6243217" y="76.139287" width="31.5101391" height="2.68756522"></rect>
                <path d="M88.3373739,73.5485826 L75.8736261,73.5485826 C74.4328783,73.5485826 73.2649304,74.7165304 73.2649304,76.1572783 L73.2649304,76.2181565 C73.2649304,77.6589043 74.4328783,78.8268522 75.8736261,78.8268522 L88.3373739,78.8268522 C89.7781217,78.8268522 90.9460696,77.6589043 90.9460696,76.2181565 L90.9460696,76.1572783 C90.9460696,74.7165304 89.7781217,73.5485826 88.3373739,73.5485826 L88.3373739,73.5485826 L88.3373739,73.5485826 Z" id="Shape" fill="#F8E71C" sketch:type="MSShapeGroup"></path>
                <path d="M114.42433,73.5485826 L101.960583,73.5485826 C100.519835,73.5485826 99.351887,74.7165304 99.351887,76.1572783 L99.351887,76.2181565 C99.351887,77.6589043 100.519835,78.8268522 101.960583,78.8268522 L114.42433,78.8268522 C115.865078,78.8268522 117.033026,77.6589043 117.033026,76.2181565 L117.033026,76.1572783 C117.033026,74.7165304 115.865078,73.5485826 114.42433,73.5485826 L114.42433,73.5485826 L114.42433,73.5485826 Z" id="Shape" fill="#FE3D50" sketch:type="MSShapeGroup"></path>
            </g>
        </g>
    </g>
</svg>