<?xml version="1.0" encoding="UTF-8"?>
<svg width="390px" height="390px" viewBox="0 0 390 390" version="1.1" xmlns="http://www.w3.org/2000/svg" xmlns:xlink="http://www.w3.org/1999/xlink" style="background: #252222;">
    <!-- Generator: Sketch 41.1 (35376) - http://www.bohemiancoding.com/sketch -->
    <title>Family</title>
    <desc>Created with Sketch.</desc>
    <defs></defs>
    <g id="Banner-Animation" stroke="none" stroke-width="1" fill="none" fill-rule="evenodd">
        <g id="Family">
            <circle id="Oval" fill="#FFFFFF" cx="195" cy="195" r="195"></circle>
            <g id="Group" transform="translate(103.000000, 75.000000)">
                <g id="Apple" fill="#3C3C3C">
                    <path d="M135.384627,145.109232 C135.384627,119.542069 156.222488,107.431308 156.894677,106.758488 C145.467463,89.2651663 127.318358,86.573886 120.596467,85.901066 C105.136119,84.5554258 90.3479597,96.6661871 82.281691,96.6661871 C74.2154223,96.6661871 62.1160193,85.901066 49.3444271,86.573886 C32.5397007,86.573886 17.0793523,97.3390071 8.34089453,112.813869 C-9.13602101,143.763592 3.63557111,189.515356 21.1124866,214.409699 C29.1787554,226.52046 39.2615912,240.649682 52.7053724,239.976862 C65.4769645,239.304041 70.182288,231.903021 84.9704473,231.903021 C100.430796,231.903021 104.46393,239.976862 117.907711,239.976862 C131.351492,239.976862 140.08995,227.19328 148.156219,215.082519 C157.566866,200.953298 161.6,186.824076 161.6,186.151256 C161.6,186.151256 135.384627,176.058955 135.384627,145.109232" id="Shape"></path>
                    <path d="M95.5413992,40.5902327 C97.0711464,42.0263734 97.2241211,44.3695505 95.7708613,45.8812776 C95.0059877,46.7127275 94.011652,47.0906593 92.940829,47.0906593 C92.0229807,47.0906593 91.1051324,46.7883139 90.3402588,46.1080367 C73.3600651,30.7640063 55.0795863,45.3521731 54.3147128,45.956864 C52.7084782,47.3174184 50.2608827,47.0906593 48.9605976,45.5033458 C47.5838252,43.9160323 47.8132873,41.5728553 49.4195218,40.2123009 C57.7566439,33.3339424 77.9493066,24.6415114 95.5413992,40.5902327 Z M72.7481662,61.6032398 C70.8359823,61.6032398 68.9237983,62.3591034 67.6235132,63.7196578 C66.2467407,65.0802122 65.4818672,66.8942848 65.4818672,68.7839437 C65.4818672,70.6736026 66.2467407,72.4876751 67.6235132,73.8482296 C69.0002857,75.208784 70.8359823,75.9646476 72.7481662,75.9646476 C74.6603502,75.9646476 76.5725342,75.208784 77.8728193,73.8482296 C79.2495918,72.4876751 80.0144653,70.6736026 80.0144653,68.7839437 C80.0144653,66.8942848 79.2495918,65.0802122 77.8728193,63.7196578 C76.4960468,62.3591034 74.6603502,61.6032398 72.7481662,61.6032398 Z M106.402604,30.3104882 C88.2751001,14.6641123 70.7594949,15.4955623 59.2099037,18.9725347 C46.8954389,22.6762661 38.8642663,29.9325564 38.5583168,30.3104882 C37.0285697,31.7466289 36.9520823,34.089806 38.4053421,35.6015331 C39.8586019,37.1132602 42.3061974,37.1888466 43.8359446,35.7527058 C43.912432,35.6771195 50.8727816,29.3278655 61.5045245,26.1532385 C75.5781985,21.9204026 88.9634863,25.2462023 101.430926,35.9794649 C102.119312,36.5841558 103.03716,36.8865012 103.955009,36.8865012 C105.025832,36.8865012 106.096655,36.432983 106.861528,35.6015331 C108.161813,34.089806 108.008839,31.6710426 106.402604,30.3104882 Z M59.89829,50.9455635 C58.2155681,52.2305316 57.986106,54.5737086 59.2863911,56.2366085 C60.5866762,57.8995083 63.0342717,58.1262674 64.6405062,56.8412993 C64.9464556,56.6145403 73.0541157,50.416459 79.937978,56.765713 C80.7028516,57.4459902 81.6206999,57.7483356 82.5385482,57.7483356 C83.5328838,57.7483356 84.6037069,57.3704038 85.3685805,56.5389539 C86.8218403,55.0272268 86.7453529,52.6084634 85.1391184,51.2479089 C75.884148,42.782237 64.5640188,47.3930047 59.89829,50.9455635 Z" id="wifi{:easeInQuad;0,16.69,7.26,31.35,26.34,313,1;}" transform="translate(72.547818, 46.425584) rotate(-47.000000) translate(-72.547818, -46.425584) "></path>
                </g>
                <g id="USB" transform="translate(114.400000, 86.400000)">
                    <g transform="translate(56.650616, 56.828299) rotate(-162.000000) translate(-56.650616, -56.828299) translate(11.850616, 12.028299)" id="Shape" fill="#3C3C3C">
                        <path d="M60.0115228,0.254346458 L41.6067769,18.6581569 L38.9676203,16.0190242 C38.6068447,15.6580597 38.0506969,15.6572913 37.6889607,16.0190242 L8.04830046,45.6594154 C2.60323897,51.1042354 2.15908916,59.6611495 6.79884097,65.6607675 L0.159262381,72.3002858 L2.06149915,74.2032737 L15.3542959,87.4953735 L17.2573011,89.3991298 L23.8834322,82.7730588 C29.8283543,87.4120001 38.4256884,86.9813016 43.8984132,81.5086265 L73.5394576,51.8682353 C73.9002333,51.5066945 73.9010017,50.9518965 73.5536735,50.6045714 L70.900301,47.9519914 L89.3050469,29.5474126 C89.6516067,29.2006638 89.6389277,28.6310738 89.2915995,28.2837487 L61.2753903,0.267793778 C60.9278699,-0.0795312941 60.3582747,-0.0922101961 60.0115228,0.254346458 Z M17.2430852,79.9118533 L9.64585661,72.3146936 L12.4615589,69.499209 L20.0593638,77.0961765 L17.2430852,79.9118533 Z M65.5534059,43.8261615 L45.7318759,24.0048114 L60.6350999,9.10172267 L80.4564378,28.9228806 L65.5534059,43.8261615 Z"></path>
                        <polygon points="58.3052345 18.0247881 58.304466 18.0247881 58.2825659 18.0023118 54.7691335 21.5157124 58.8379453 25.5852557 62.3513778 22.0716631 58.3133029 18.0330486"></polygon>
                        <polygon points="68.0425274 34.7887938 71.5559599 31.2755854 67.4873402 27.2068105 64.0031079 30.690819 63.9948473 30.6985032 63.9956157 30.6985032 63.9737156 30.720211"></polygon>
                    </g>
                    <path d="M101.6,35.2 C101.6,35.2 207.6,-27.4 231.6,16.1" id="Path-2" stroke="#000000" stroke-width="6.6912"></path>
                </g>
                <g id="electric" transform="translate(172.800000, 120.000000)" fill="#FFF867">
                    <polygon id="Shape" points="17.6 13.975 8.8 13.975 8.8 0 0 20.425 8.8 20.425 8.8 34.4"></polygon>
                </g>
            </g>
        </g>
    </g>
</svg>