<?xml version="1.0" encoding="UTF-8" standalone="no"?>
<svg width="92px" height="141px" viewBox="0 0 92 141" version="1.1" xmlns="http://www.w3.org/2000/svg" xmlns:xlink="http://www.w3.org/1999/xlink" xmlns:sketch="http://www.bohemiancoding.com/sketch/ns">
    <!-- Generator: Sketch 3.4.4 (17249) - http://www.bohemiancoding.com/sketch -->
    <title>158 gameboy</title>
    <desc>Created with Sketch.</desc>
    <defs></defs>
    <g id="Page-1" stroke="none" stroke-width="1" fill="none" fill-rule="evenodd" sketch:type="MSPage">
        <g id="PC" sketch:type="MSArtboardGroup" transform="translate(-231.000000, -2044.000000)">
            <g id="158-gameboy" sketch:type="MSLayerGroup" transform="translate(230.000000, 2044.399994)">
                <g id="158-Gameboy" sketch:type="MSShapeGroup">
                    <g id="Page-1">
                        <g id="Icons">
                            <g id="158-Gameboy" transform="translate(1.206897, 0.000000)">
                                <path d="M91.7241379,126.931724 C91.7241379,134.148966 85.8731034,140 78.6558621,140 L5.09793103,140 C2.28344828,140 0,137.716552 0,134.902069 L0,5.10034483 C0,2.28344828 2.28344828,0 5.09793103,0 L86.6262069,0 C89.4406897,0 91.7241379,2.28344828 91.7241379,5.10034483 L91.7241379,126.931724" id="Fill-3022" fill="#DFE4E8"></path>
                                <path d="M72.4137931,98.6444828 C72.4137931,101.977931 69.7127586,104.678966 66.3793103,104.678966 C63.0458621,104.678966 60.3448276,101.977931 60.3448276,98.6444828 C60.3448276,95.3134483 63.0458621,92.61 66.3793103,92.61 C69.7127586,92.61 72.4137931,95.3134483 72.4137931,98.6444828" id="Fill-3138" fill="#AF548A"></path>
                                <path d="M57.9310345,113.127241 C57.9310345,116.46069 55.23,119.161724 51.8965517,119.161724 C48.5631034,119.161724 45.862069,116.46069 45.862069,113.127241 C45.862069,109.796207 48.5631034,107.092759 51.8965517,107.092759 C55.23,107.092759 57.9310345,109.796207 57.9310345,113.127241" id="Fill-3139" fill="#AF548A"></path>
                                <path d="M79.6551724,65.4041379 C79.6551724,73.2755172 73.0437931,79.6551724 65.1724138,79.6551724 L12.0689655,79.6551724 L12.0689655,12.0689655 L79.6551724,12.0689655 L79.6551724,65.4041379" id="Fill-3140" fill="#85A43D"></path>
                                <path d="M67.0865517,134.144138 L61.052069,128.109655 L64.4651724,124.696552 L70.4996552,130.731034 L67.0865517,134.144138" id="Fill-3141" fill="#BDC3C7"></path>
                                <path d="M74.327931,126.902759 L68.2934483,120.868276 L71.7065517,117.455172 L77.7410345,123.489655 L74.327931,126.902759" id="Fill-3142" fill="#BDC3C7"></path>
                                <path d="M81.5693103,119.661379 L75.5348276,113.626897 L78.947931,110.213793 L84.9824138,116.248276 L81.5693103,119.661379" id="Fill-3143" fill="#BDC3C7"></path>
                                <path d="M21.7241379,33.7931034 C22.342069,33.7931034 22.96,33.5565517 23.4306897,33.0858621 L33.0858621,23.4306897 C34.0296552,22.4868966 34.0296552,20.9613793 33.0858621,20.0175862 C32.142069,19.0737931 30.6165517,19.0737931 29.6727586,20.0175862 L20.0175862,29.6727586 C19.0737931,30.6165517 19.0737931,32.1444828 20.0175862,33.0858621 C20.4882759,33.5565517 21.1062069,33.7931034 21.7241379,33.7931034" id="Fill-3144" fill="#B9D761"></path>
                                <path d="M24.8451724,36.9141379 L20.0175862,41.7417241 C19.0737931,42.6855172 19.0737931,44.2110345 20.0175862,45.1548276 C20.4882759,45.6255172 21.1062069,45.862069 21.7241379,45.862069 C22.342069,45.862069 22.96,45.6255172 23.4306897,45.1548276 L28.2582759,40.3272414 C29.202069,39.3858621 29.202069,37.857931 28.2582759,36.9141379 C27.3144828,35.9727586 25.7889655,35.9727586 24.8451724,36.9141379" id="Fill-3145" fill="#B9D761"></path>
                                <path d="M29.6655172,32.0793103 C29.2310345,32.537931 28.9655172,33.1389655 28.9655172,33.7931034 C28.9655172,34.4206897 29.2310345,35.0482759 29.6655172,35.5068966 C30.1241379,35.9413793 30.7517241,36.2068966 31.3793103,36.2068966 C32.0068966,36.2068966 32.6344828,35.9413793 33.0931034,35.5068966 C33.5275862,35.0482759 33.7931034,34.4206897 33.7931034,33.7931034 C33.7931034,33.1655172 33.5275862,32.537931 33.0931034,32.0793103 C32.2,31.1862069 30.5586207,31.1862069 29.6655172,32.0793103" id="Fill-3146" fill="#B9D761"></path>
                                <path d="M45.1548276,20.0175862 C44.2110345,19.0737931 42.6855172,19.0737931 41.7417241,20.0175862 L34.5003448,27.2589655 C33.5565517,28.2027586 33.5565517,29.7282759 34.5003448,30.672069 C34.9710345,31.1427586 35.5889655,31.3793103 36.2068966,31.3793103 C36.8248276,31.3793103 37.4427586,31.1427586 37.9134483,30.672069 L45.1548276,23.4306897 C46.0986207,22.4868966 46.0986207,20.9613793 45.1548276,20.0175862" id="Fill-3147" fill="#B9D761"></path>
                                <path d="M36.8972414,98.9655172 L28.9655172,98.9655172 L28.9655172,91.0337931 C28.9655172,90.0827586 28.1931034,89.3103448 27.242069,89.3103448 L21.0337931,89.3103448 C20.0827586,89.3103448 19.3103448,90.0827586 19.3103448,91.0337931 L19.3103448,98.9655172 L11.3786207,98.9655172 C10.4275862,98.9655172 9.65517241,99.737931 9.65517241,100.688966 L9.65517241,106.897241 C9.65517241,107.848276 10.4275862,108.62069 11.3786207,108.62069 L19.3103448,108.62069 L19.3103448,116.552414 C19.3103448,117.503448 20.0827586,118.275862 21.0337931,118.275862 L27.242069,118.275862 C28.1931034,118.275862 28.9655172,117.503448 28.9655172,116.552414 L28.9655172,108.62069 L36.8972414,108.62069 C37.8482759,108.62069 38.6206897,107.848276 38.6206897,106.897241 L38.6206897,100.688966 C38.6206897,99.737931 37.8482759,98.9655172 36.8972414,98.9655172" id="Fill-3148" fill="#354148"></path>
                            </g>
                        </g>
                    </g>
                </g>
            </g>
        </g>
    </g>
</svg>