<?xml version="1.0" encoding="UTF-8" standalone="no"?>
<svg width="139px" height="136px" viewBox="0 0 139 136" version="1.1" xmlns="http://www.w3.org/2000/svg" xmlns:xlink="http://www.w3.org/1999/xlink" xmlns:sketch="http://www.bohemiancoding.com/sketch/ns">
    <!-- Generator: Sketch 3.4.4 (17249) - http://www.bohemiancoding.com/sketch -->
    <title>Github</title>
    <desc>Created with Sketch.</desc>
    <defs></defs>
    <g id="Page-1" stroke="none" stroke-width="1" fill="none" fill-rule="evenodd" sketch:type="MSPage">
        <g id="PC" sketch:type="MSArtboardGroup" transform="translate(-187.000000, -908.000000)">
            <g id="Github" sketch:type="MSLayerGroup" transform="translate(187.000000, 908.000000)">
                <path d="M0.786032408,68 C0.786032408,30.4446352 31.6568732,0 69.7379893,0 C107.819105,0 138.689946,30.4446352 138.689946,68 C138.689946,105.555365 107.819105,136 69.7379893,136 C31.6568732,136 0.786032408,105.555365 0.786032408,68 L0.786032408,68 Z" id="Shape" fill="#333333" sketch:type="MSShapeGroup"></path>
                <path d="M62.5350336,82.6166392 C61.0309053,83.7228093 59.2241713,85.823023 58.9749667,88.2509909 C57.0836812,89.4369431 53.2810846,89.8272293 50.3240041,88.9237494 C46.1809761,87.6558585 44.5945213,79.7056655 38.3911048,80.8377107 C37.0471794,81.0835264 37.3141844,81.9417247 38.4756563,82.6705462 C40.3669418,83.8564986 42.1469752,85.340017 43.5198262,88.4989627 C44.574496,90.9247743 46.7906377,95.2588909 53.7995195,95.2588909 C56.5808217,95.2588909 58.5299584,94.9354494 58.5299584,94.9354494 C58.5299584,94.9354494 58.5833594,101.12612 58.5833594,103.532526 C58.5833594,106.307654 54.7184618,107.090382 54.7184618,108.425118 C54.7184618,108.953406 55.9978608,109.003 57.02583,109.003 C59.0572934,109.003 63.2848727,107.359917 63.2848727,104.474819 C63.2848727,102.182696 63.3226984,94.4761624 63.3226984,93.1284893 C63.3226984,90.1808588 64.9536541,89.2471909 64.9536541,89.2471909 C64.9536541,89.2471909 65.1561329,104.981544 64.5642719,107.090382 C63.8700587,109.570101 62.6173603,109.218628 62.6173603,110.324798 C62.6173603,111.970037 67.7060309,110.728022 69.3926125,107.116258 C70.6964871,104.304473 70.1268765,88.8698424 70.1268765,88.8698424 L71.5175275,88.8418107 C71.5175275,88.8418107 71.595404,95.9079303 71.5486782,99.138033 C71.4997273,102.482419 71.2660978,106.713034 73.3153613,108.70759 C74.6615116,110.018606 79.0270437,112.319354 79.0270437,110.216984 C79.0270437,108.994375 76.6351237,107.98955 76.6351237,104.681821 L76.6351237,89.4628185 C78.5442096,89.4628185 78.2571793,94.4675373 78.2571793,94.4675373 L78.397357,103.765403 C78.397357,103.765403 77.9768241,107.152914 82.1777031,108.571745 C83.6595808,109.074157 86.8324906,109.210003 86.9815683,108.366898 C87.130646,107.521638 83.1611714,106.264528 83.1255708,103.640339 C83.1033204,102.040382 83.1989971,101.106714 83.1989971,94.1527209 C83.1989971,87.1987279 82.2355541,84.6284457 78.877966,82.5799827 C89.2399859,81.5471259 95.6525564,79.0628792 98.7787401,72.4088242 C99.0228444,72.4165923 100.051348,69.3005549 99.9179617,69.3016293 C100.61885,66.7895667 100.997107,63.8182169 101.072758,60.2991732 C101.054958,50.7576478 96.3423194,47.3830743 95.4367274,45.7982108 C96.7717525,38.574683 95.2142231,35.2863608 94.4910845,34.1586279 C91.8210344,33.2378977 85.2015349,36.5262199 81.5858418,38.8442175 C75.6894811,37.173103 63.2292468,37.3348238 58.5566589,39.2754731 C49.9346216,33.2918045 45.373286,34.2082223 45.373286,34.2082223 C45.373286,34.2082223 42.4251056,39.3293799 44.5945213,46.8224422 C41.757593,50.3263922 39.6438032,52.8061108 39.6438032,59.3784427 C39.6438032,63.0807703 40.0932617,66.3949679 41.1078808,69.2886916 C40.9835013,69.2883944 42.4686484,72.3882161 42.5096571,72.3872616 C45.749318,78.0884578 51.9972354,81.6355332 62.5350336,82.6166392 Z" id="Path" fill="#FFFFFF" sketch:type="MSShapeGroup"></path>
                <path d="M138.689946,68 C138.689946,105.555365 107.819105,136 69.7379893,136 C55.6146052,136 42.4829892,131.812364 31.5504344,124.627624 L110.557618,13.190665 C127.618713,25.569474 138.689946,45.5096739 138.689946,68 L138.689946,68 Z" id="reflec" fill-opacity="0.08" fill="#000000" sketch:type="MSShapeGroup"></path>
            </g>
        </g>
    </g>
</svg>