<?xml version="1.0" encoding="UTF-8" standalone="no"?>
<svg width="140px" height="141px" viewBox="0 0 140 141" version="1.1" xmlns="http://www.w3.org/2000/svg" xmlns:xlink="http://www.w3.org/1999/xlink" xmlns:sketch="http://www.bohemiancoding.com/sketch/ns">
    <!-- Generator: Sketch 3.4.4 (17249) - http://www.bohemiancoding.com/sketch -->
    <title>gibson les paul guitar bass</title>
    <desc>Created with Sketch.</desc>
    <defs></defs>
    <g id="Page-1" stroke="none" stroke-width="1" fill="none" fill-rule="evenodd" sketch:type="MSPage">
        <g id="PC" sketch:type="MSArtboardGroup" transform="translate(-185.000000, -2044.000000)">
            <g id="gibson-les-paul-guitar-bass" sketch:type="MSLayerGroup" transform="translate(185.000000, 2044.399994)">
                <g id="Layer_1" sketch:type="MSShapeGroup">
                    <g id="Body_12_" transform="translate(0.000000, 61.250000)" fill="#ED7161">
                        <path d="M75.2478125,26.25 C71.815625,25.12125 73.3971875,20.02 74.1015625,18.17375 C74.27,17.801875 74.375,17.539375 74.375,17.5021875 C74.375,7.835625 66.539375,0 56.875,0 C49.49,0 43.185625,4.580625 40.6175,11.0534375 C36.7565625,17.85875 30.625,17.5021875 30.625,17.5021875 C13.71125,17.5021875 0,31.2134375 0,48.125 C0,61.210625 17.539375,78.7521875 30.625,78.7521875 C47.5365625,78.7521875 61.25,65.03875 61.25,48.125 C61.25,47.97625 61.2303125,47.831875 61.228125,47.683125 L61.25,47.6896875 C61.25,33.315625 73.2003125,35.179375 75.2478125,35 C77.665,35 79.6228125,33.0421875 79.6228125,30.6271875 C79.6228125,28.21 77.6671875,26.25 75.2478125,26.25 L75.2478125,26.25 Z" id="Shape"></path>
                    </g>
                    <g id="Body_Plate" transform="translate(30.625000, 70.000000)" fill="#9D5F57">
                        <path d="M30.59875,38.9309375 L30.625,38.9396875 C30.625,24.565625 42.5753125,26.429375 44.6228125,26.25 C47.04,26.25 48.9978125,24.2921875 48.9978125,21.8771875 C48.9978125,19.46 47.04,17.5 44.6228125,17.5 C41.190625,16.37125 42.7721875,11.274375 43.474375,9.4259375 C43.6471875,9.0453125 43.75,8.7915625 43.75,8.7521875 C43.75,6.1425 43.1615625,3.675 42.14,1.4503125 C34.2715625,8.53125 0,39.375 0,39.375 C0,39.375 16.1328125,56.546875 26.5146875,54.656875 C29.1134375,50.155 30.625,44.9465625 30.625,39.375 C30.625,39.22625 30.6009375,39.081875 30.59875,38.9309375 L30.59875,38.9309375 Z" id="Shape"></path>
                    </g>
                    <g id="Pickup" transform="translate(41.562500, 80.937500)" fill="#FFFFFF">
                        <path d="M14.1378125,8.68875 L8.68875,3.2375 C7.18375,1.7325 4.7446875,1.7325 3.2396875,3.2375 C1.7346875,4.7425 1.7346875,7.18375 3.2396875,8.68875 L8.68875,14.135625 C10.19375,15.640625 12.635,15.640625 14.1378125,14.135625 C15.6428125,12.630625 15.6428125,10.1915625 14.1378125,8.68875 L14.1378125,8.68875 Z" id="Shape"></path>
                    </g>
                    <g id="Pickup_1_" transform="translate(24.062500, 98.437500)" fill="#FFFFFF">
                        <path d="M14.1378125,8.68875 L8.68875,3.2396875 C7.18375,1.7346875 4.7446875,1.7346875 3.241875,3.2396875 C1.736875,4.7446875 1.736875,7.18375 3.241875,8.68875 L8.68875,14.135625 C10.19375,15.640625 12.635,15.640625 14.1378125,14.135625 C15.6428125,12.630625 15.6428125,10.1915625 14.1378125,8.68875 L14.1378125,8.68875 Z" id="Shape"></path>
                    </g>
                    <g id="Controlls" transform="translate(30.625000, 120.312500)" fill="#FFFFFF">
                        <path d="M2.1875,2.183125 C0.9778125,2.183125 0,3.163125 0,4.3728125 C0,5.5803125 0.9778125,6.558125 2.1875,6.558125 C3.395,6.558125 4.375,5.5803125 4.375,4.3728125 C4.375,3.163125 3.395,2.183125 2.1875,2.183125 L2.1875,2.183125 Z M10.9375,2.183125 C9.7278125,2.183125 8.75,3.163125 8.75,4.3728125 C8.75,5.5803125 9.7278125,6.558125 10.9375,6.558125 C12.145,6.558125 13.125,5.5803125 13.125,4.3728125 C13.125,3.163125 12.145,2.183125 10.9375,2.183125 L10.9375,2.183125 Z" id="Shape"></path>
                    </g>
                    <g id="Headstock" transform="translate(52.500000, 0.000000)" fill="#E8AD72">
                        <path d="M83.125,4.3771875 L83.125,4.3728125 L83.120625,4.3728125 L78.75,0 L74.375,0 L61.25,13.125 L63.4375,15.3125 L0,78.7478125 L8.75,87.4978125 L72.1853125,24.0625 L74.375,26.2521875 L87.5,13.125 L87.5,8.75 L83.125,4.3771875 Z" id="Shape"></path>
                    </g>
                    <g id="Head_4_" transform="translate(113.750000, 0.000000)" fill="#666666">
                        <path d="M21.875,4.3771875 L17.5,0 L13.125,0 L0,13.125 L0,17.5 L4.375,21.875 L8.75,26.2521875 L13.125,26.2521875 L26.25,13.125 L26.25,8.75 L21.875,4.3771875 Z" id="Shape"></path>
                    </g>
                </g>
            </g>
        </g>
    </g>
</svg>