<?xml version="1.0" encoding="UTF-8" standalone="no"?>
<svg width="114px" height="212px" viewBox="0 0 114 212" version="1.1" xmlns="http://www.w3.org/2000/svg" xmlns:xlink="http://www.w3.org/1999/xlink" xmlns:sketch="http://www.bohemiancoding.com/sketch/ns">
    <!-- Generator: Sketch 3.4.4 (17249) - http://www.bohemiancoding.com/sketch -->
    <title>java</title>
    <desc>Created with Sketch.</desc>
    <defs></defs>
    <g id="Page-1" stroke="none" stroke-width="1" fill="none" fill-rule="evenodd" sketch:type="MSPage">
        <g id="PC" sketch:type="MSArtboardGroup" transform="translate(-511.000000, -2264.000000)">
            <g id="java" sketch:type="MSLayerGroup" transform="translate(511.000000, 2264.000000)">
                <g id="Layer_1" sketch:type="MSShapeGroup">
                    <path d="M108.96526,166.996937 L108.169603,166.996937 L108.169603,166.551033 L110.311397,166.551033 L110.311397,166.996937 L109.521205,166.996937 L109.521205,169.221764 L108.96526,169.221764 L108.96526,166.996937 L108.96526,166.996937 Z M113.237137,167.113107 L113.224644,167.113107 L112.436404,169.222155 L112.075664,169.222155 L111.2925,167.113107 L111.28274,167.113107 L111.28274,169.222155 L110.758808,169.222155 L110.758808,166.551424 L111.52987,166.551424 L112.256034,168.442605 L112.979856,166.551424 L113.748185,166.551424 L113.748185,169.222155 L113.236747,169.222155 L113.236747,167.113107 L113.237137,167.113107 Z" id="Shape" fill="#E76F00"></path>
                    <path d="M37.7453219,112.385033 C37.7453219,112.385033 32.2100753,115.610015 41.6845685,116.701306 C53.1626507,118.013203 59.0289658,117.825063 71.6778904,115.426568 C71.6778904,115.426568 75.003411,117.515668 79.6477397,119.3251 C51.2921918,131.500627 15.4735479,118.619867 37.7453219,112.385033" id="Shape" fill="#5382A1"></path>
                    <path d="M34.2804247,96.4967675 C34.2804247,96.4967675 28.0721096,101.100923 37.5536301,102.083476 C49.8148767,103.350782 59.4978493,103.454435 76.2531164,100.222022 C76.2531164,100.222022 78.5705959,102.575926 82.2146918,103.863181 C47.9311438,113.906974 9.74543836,104.655247 34.2804247,96.4967675" id="Shape" fill="#5382A1"></path>
                    <path d="M63.4905822,69.5449963 C70.4773767,77.6041255 61.6548699,84.8563247 61.6548699,84.8563247 C61.6548699,84.8563247 79.3955342,75.6808708 71.2480479,64.1910185 C63.6385479,53.4760221 57.8030753,48.1521624 89.3939589,29.7961697 C89.3939589,29.7961697 39.8066918,42.2040369 63.4905822,69.5449963" id="Shape" fill="#E76F00"></path>
                    <path d="M100.993068,124.136952 C100.993068,124.136952 105.08926,127.518391 96.4818699,130.134362 C80.1146712,135.101889 28.3598425,136.601926 13.9825685,130.33228 C8.81430822,128.079683 18.5062603,124.953661 21.5549795,124.297712 C24.7344863,123.606952 26.5514589,123.735638 26.5514589,123.735638 C20.8038288,119.679085 -10.5988767,131.700893 10.6004384,135.143742 C68.4140548,144.537063 115.989144,130.913911 100.993068,124.136952" id="Shape" fill="#5382A1"></path>
                    <path d="M40.4071438,80.0346937 C40.4071438,80.0346937 14.0813425,86.2992546 31.0845205,88.5741476 C38.2637877,89.5371439 52.5754726,89.3192768 65.9064452,88.200214 C76.8012534,87.2794613 87.7409589,85.321786 87.7409589,85.321786 C87.7409589,85.321786 83.8993151,86.9700664 81.1199795,88.871417 C54.386589,95.9155277 2.74263699,92.638524 17.6102671,85.433262 C30.1838425,79.3439336 40.4071438,80.0346937 40.4071438,80.0346937" id="Shape" fill="#5382A1"></path>
                    <path d="M87.6324247,106.481498 C114.808151,92.3334317 102.243164,78.7372694 93.4729726,80.5689963 C91.3233699,81.0172472 90.364911,81.4056531 90.364911,81.4056531 C90.364911,81.4056531 91.162911,80.1532103 92.6870753,79.6110849 C110.037329,73.4998524 123.380795,97.6353875 87.0862397,107.194554 C87.0862397,107.194945 87.5067123,106.818273 87.6324247,106.481498" id="Shape" fill="#5382A1"></path>
                    <path d="M71.2480479,0.156066421 C71.2480479,0.156066421 86.2983904,15.2397491 56.9734521,38.4341919 C33.4578288,57.0401255 51.6111575,67.6487306 56.9636918,79.7694982 C43.2372329,67.361631 33.1638493,56.4389373 39.921863,46.273107 C49.8410342,31.3505756 77.3205,24.1155867 71.2480479,0.156066421" id="Shape" fill="#E76F00"></path>
                    <path d="M43.0775548,144.819469 C69.162863,146.492391 109.219808,143.891284 110.168507,131.525269 C110.168507,131.525269 108.344897,136.213129 88.6104041,139.936037 C66.3460479,144.133793 38.8861027,143.64369 22.5993288,140.953402 C22.5997192,140.953011 25.9334384,143.718007 43.0775548,144.819469" id="Shape" fill="#5382A1"></path>
                    <path d="M38.8025548,192.070435 C36.3417945,194.208819 33.7428288,195.40924 31.4105137,195.40924 C28.0814795,195.40924 26.2828562,193.409321 26.2828562,190.20155 C26.2828562,186.731712 28.2099247,184.194753 35.9412329,184.194753 L38.8021644,184.194753 L38.8021644,192.070435 L38.8025548,192.070435 Z M45.5925822,199.745852 L45.5925822,175.986989 C45.5925822,169.917609 42.1374452,165.912686 33.8068562,165.912686 C28.9435068,165.912686 24.6833425,167.115845 21.2207877,168.650303 L22.2202397,172.855882 C24.9464795,171.85338 28.4754041,170.920111 31.9391301,170.920111 C36.7380616,170.920111 38.8025548,172.855882 38.8025548,176.858066 L38.8025548,179.860878 L36.4073836,179.860878 C24.7477603,179.860878 19.4881438,184.39541 19.4881438,191.201705 C19.4881438,197.075513 22.9542123,200.414317 29.4803219,200.414317 C33.6752877,200.414317 36.806774,198.679203 39.7340753,196.139897 L40.2654247,199.746244 L45.5925822,199.746244 L45.5925822,199.745852 Z" id="Shape" fill="#E76F00"></path>
                    <path d="M68.2535959,199.745852 L59.7848014,199.745852 L49.5927329,166.514266 L56.9882877,166.514266 L63.3125548,186.931978 L64.7184247,193.072546 C67.9178425,184.194362 70.1806644,175.1871 71.3124658,166.514266 L78.5065685,166.514266 C76.5791096,177.457299 73.1106986,189.468546 68.2535959,199.745852" id="Shape" fill="#E76F00"></path>
                    <path d="M100.740863,192.070435 C98.2754178,194.208819 95.6717671,195.40924 93.3394521,195.40924 C90.016274,195.40924 88.2129658,193.409321 88.2129658,190.20155 C88.2129658,186.731712 90.1447192,184.194753 97.8752466,184.194753 L100.740863,184.194753 L100.740863,192.070435 L100.740863,192.070435 Z M107.53011,199.745852 L107.53011,175.986989 C107.53011,169.917609 104.066384,165.912686 95.7455548,165.912686 C90.8786918,165.912686 86.6169658,167.115845 83.1559726,168.650303 L84.153863,172.855882 C86.881274,171.85338 90.4168356,170.920111 93.8778288,170.920111 C98.6732466,170.920111 100.740863,172.855882 100.740863,176.858066 L100.740863,179.860878 L98.3417877,179.860878 C86.6786507,179.860878 81.4213767,184.39541 81.4213767,191.201705 C81.4213767,197.075513 84.8847123,200.414317 91.4096507,200.414317 C95.6069589,200.414317 98.737274,198.679203 101.669651,196.139897 L102.202952,199.746244 L107.53011,199.746244 L107.53011,199.745852 Z" id="Shape" fill="#E76F00"></path>
                    <path d="M12.0430068,205.389277 C10.1073493,208.220768 6.98093836,210.460849 3.55820548,211.728155 L0.205746575,207.775646 C2.8109589,206.436369 5.04528082,204.273343 6.08338356,202.258561 C6.98132877,200.466731 7.353,198.157417 7.353,192.634856 L7.353,154.695852 L14.5670137,154.695852 L14.5670137,192.115026 C14.5666233,199.498258 13.9774932,202.480731 12.0430068,205.389277" id="Shape" fill="#E76F00"></path>
                </g>
            </g>
        </g>
    </g>
</svg>