<?xml version="1.0" encoding="UTF-8" standalone="no"?>
<svg width="106px" height="106px" viewBox="0 0 106 106" version="1.1" xmlns="http://www.w3.org/2000/svg" xmlns:xlink="http://www.w3.org/1999/xlink" xmlns:sketch="http://www.bohemiancoding.com/sketch/ns">
    <!-- Generator: Sketch 3.4.4 (17249) - http://www.bohemiancoding.com/sketch -->
    <title>cup</title>
    <desc>Created with Sketch.</desc>
    <defs></defs>
    <g id="Elements" stroke="none" stroke-width="1" fill="none" fill-rule="evenodd" sketch:type="MSPage">
        <g id="180---iPhone-6-Plus" sketch:type="MSArtboardGroup" transform="translate(-37.000000, -37.000000)">
            <g id="cup" sketch:type="MSLayerGroup" transform="translate(37.000000, 37.000000)">
                <g id="Handles" transform="translate(0.000000, 6.625000)" fill="#E6B85C" sketch:type="MSShapeGroup">
                    <path d="M92.75,0 C81.15625,0 79.5,9.9375 79.5,13.25 C79.5,16.5625 79.5,19.875 82.8125,19.875 C86.125,19.875 86.125,16.5625 86.125,13.25 C86.125,9.9375 87.78125,6.625 92.75,6.625 C97.71875,6.625 99.375,9.9375 99.375,13.25 C99.375,29.8125 79.5,39.75 69.5625,39.75 L36.4375,39.75 C26.5,39.75 6.625,29.8125 6.625,13.25 C6.625,9.9375 8.28125,6.625 13.25,6.625 C18.21875,6.625 19.875,9.9375 19.875,13.25 C19.875,16.5625 19.875,19.875 23.1875,19.875 C26.5,19.875 26.5,16.5625 26.5,13.25 C26.5,9.9375 24.84375,0 13.25,0 C4.96875,0 0,6.625 0,13.25 C0,33.125 23.1875,46.375 36.4375,46.375 L69.5625,46.375 C82.8125,46.375 106,33.125 106,13.25 C106,6.625 101.03125,0 92.75,0 L92.75,0 Z" id="Shape"></path>
                </g>
                <g id="Cup" transform="translate(23.187500, 0.000000)" fill="#FFCC66" sketch:type="MSShapeGroup">
                    <path d="M59.625,6.625 C59.625,3.31084375 59.625,0 56.3125,0 L3.3125,0 C0,0 0,3.31084375 0,6.625 C0,62.9375 23.1875,56.3125 23.1875,62.9375 L23.1875,69.5625 C23.1875,76.1875 13.25,72.875 13.25,79.5 L46.375,79.5 C46.375,72.875 36.4375,76.1875 36.4375,69.5625 L36.4375,62.9375 C36.4375,56.3125 59.625,62.9375 59.625,6.625 L59.625,6.625 Z" id="Shape"></path>
                </g>
                <g id="Stand" transform="translate(19.875000, 86.125000)" fill="#666666" sketch:type="MSShapeGroup">
                    <path d="M62.9375,0 L3.3125,0 C1.484,0 0,1.48234375 0,3.3125 L0,16.5625 C0,18.391 1.484,19.875 3.3125,19.875 L62.9375,19.875 C64.766,19.875 66.25,18.391 66.25,16.5625 L66.25,3.3125 C66.25,1.48234375 64.766,0 62.9375,0 L62.9375,0 Z" id="Shape"></path>
                </g>
                <g id="Plate" transform="translate(36.437500, 92.750000)" fill="#E6E6E6" sketch:type="MSShapeGroup">
                    <rect id="Rectangle-path" x="0" y="0" width="33.125" height="6.625"></rect>
                </g>
                <g id="Base_1_" transform="translate(26.500000, 62.937500)" fill="#E6B85C" sketch:type="MSShapeGroup">
                    <path d="M43.0625,16.5625 L9.9375,16.5625 C9.9375,16.5625 0,16.5625 0,23.1875 L53,23.1875 C53,16.5625 43.0625,16.5625 43.0625,16.5625 L43.0625,16.5625 Z M19.875,6.625 L33.125,6.625 C34.9535,6.625 36.4375,5.141 36.4375,3.3125 C36.4375,1.48234375 34.9535,0 33.125,0 L19.875,0 C18.0465,0 16.5625,1.48234375 16.5625,3.3125 C16.5625,5.141 18.0465,6.625 19.875,6.625 L19.875,6.625 Z" id="Shape"></path>
                </g>
                <g id="Rectangle-311-+-Rectangle-310" transform="translate(46.000000, 10.000000)" fill="#FFDB94" sketch:type="MSShapeGroup">
                    <rect id="Rectangle-311" x="0" y="23" width="17" height="7" rx="40"></rect>
                    <rect id="Rectangle-310" x="0" y="0" width="7" height="30" rx="40"></rect>
                </g>
            </g>
        </g>
    </g>
</svg>