<?xml version="1.0" encoding="UTF-8" standalone="no"?>
<svg width="127px" height="117px" viewBox="0 0 127 117" version="1.1" xmlns="http://www.w3.org/2000/svg" xmlns:xlink="http://www.w3.org/1999/xlink" xmlns:sketch="http://www.bohemiancoding.com/sketch/ns">
    <!-- Generator: Sketch 3.4.4 (17249) - http://www.bohemiancoding.com/sketch -->
    <title>menu</title>
    <desc>Created with Sketch.</desc>
    <defs></defs>
    <g id="Page-1" stroke="none" stroke-width="1" fill="none" fill-rule="evenodd" sketch:type="MSPage">
        <path d="M117.184211,116.767857 L9.81578947,116.767857 C4.87684211,116.767857 0.868421053,112.751857 0.868421053,107.803571 C0.868421053,102.855286 4.87684211,98.8392857 9.81578947,98.8392857 L117.184211,98.8392857 C122.127632,98.8392857 126.131579,102.855286 126.131579,107.803571 C126.131579,112.751857 122.127632,116.767857 117.184211,116.767857 L117.184211,116.767857 L117.184211,116.767857 Z M117.184211,67.4642857 L9.81578947,67.4642857 C4.87684211,67.4642857 0.868421053,63.4482857 0.868421053,58.5 C0.868421053,53.5517143 4.87684211,49.5357143 9.81578947,49.5357143 L117.184211,49.5357143 C122.127632,49.5357143 126.131579,53.5517143 126.131579,58.5 C126.131579,63.4482857 122.127632,67.4642857 117.184211,67.4642857 L117.184211,67.4642857 L117.184211,67.4642857 Z M117.184211,18.1607143 L9.81578947,18.1607143 C4.87684211,18.1607143 0.868421053,14.1447143 0.868421053,9.19642857 C0.868421053,4.24814286 4.87684211,0.232142857 9.81578947,0.232142857 L117.184211,0.232142857 C122.127632,0.232142857 126.131579,4.24814286 126.131579,9.19642857 C126.131579,14.1447143 122.127632,18.1607143 117.184211,18.1607143 L117.184211,18.1607143 L117.184211,18.1607143 Z" id="menu" fill="#FFFFFF" sketch:type="MSShapeGroup"></path>
    </g>
</svg>