<?xml version="1.0" encoding="UTF-8" standalone="no"?>
<svg width="740px" height="632px" viewBox="0 0 740 632" version="1.1" xmlns="http://www.w3.org/2000/svg" xmlns:xlink="http://www.w3.org/1999/xlink" xmlns:sketch="http://www.bohemiancoding.com/sketch/ns">
    <!-- Generator: Sketch 3.5.1 (25234) - http://www.bohemiancoding.com/sketch -->
    <title>Logo</title>
    <desc>Created with Sketch.</desc>
    <defs></defs>
    <g id="Page-1" stroke="none" stroke-width="1" fill="none" fill-rule="evenodd" sketch:type="MSPage">
        <g id="Logo" sketch:type="MSLayerGroup">
            <g id="Rest">
                <path d="M321.772291,537.976197 L302.004058,533.0594 C302.004058,533.0594 295.613838,585.337171 251.68962,617.497693 C231.280314,632.441019 79.3341565,638.666527 46.3731445,619.315631 C13.4121324,599.964734 20.8444714,574.196167 20.8444714,574.196167 C20.8444714,574.196167 14.5471951,570.953199 7.22176574,552.439466 C-0.103663635,533.925733 -7.07149162,419.379154 18.4723548,378.9646 C44.0162013,338.550046 138.740706,344.354933 138.740706,344.354933 L185.493554,263.394288 C185.493554,263.394288 152.207406,249.258606 146.30053,235.017411 C145.025961,231.944486 137.325281,219.058784 138.7407,214.53093 C140.072051,210.272005 148.894006,212.049342 151.449685,207.612839 C165.066014,183.975716 185.493559,153.879323 185.493559,153.879323 C270.559462,-91.7728494 968.885939,-93.5626039 643.891391,547.616638 L599.242168,546.190779 C599.242168,546.190779 521.661032,599.321551 440.489576,605.156373 C347.331221,611.852845 321.772291,537.976197 321.772291,537.976197 Z" id="Full-BG" fill="#E0CC84" sketch:type="MSShapeGroup"></path>
                <path d="M315.278732,537.613037 C315.278732,537.613037 493.038652,535.136602 482.191864,504.565308 C477.027599,490.010005 471.620094,448.221209 453.560272,411.155499 C434.601624,372.245051 402.469177,338.035443 375.335098,324.181274 C322.353363,297.129761 238.856274,258.062622 238.856274,258.062622 C238.856274,258.062622 265.023027,196.640896 259.4674,187.18396 C245.748707,163.831637 179,153.516163 179,153.516163 C288.781326,-136.70847 1000.05011,-17.566986 637.397833,547.253478 L592.748609,545.827619 C592.748609,545.827619 515.167473,598.958391 433.996017,604.793213 C340.837662,611.489685 315.278732,537.613037 315.278732,537.613037 Z" id="Cap" fill="#864753" sketch:type="MSShapeGroup"></path>
                <g id="Back" transform="translate(202.000000, 278.000000)" fill="#C6B16D" sketch:type="MSShapeGroup">
                    <path d="M89.873048,25.0482843 C80.7920944,20.0397423 69.3237919,17.9928246 62.5071995,15.1652305 C44.836813,7.83536856 9.51133461,0.794456216 9.51133461,0.794456216 C9.51133461,0.794456216 48.604736,78.5527374 42.2656798,82.0635542 C35.9266235,85.5743711 16.7166175,95.9843786 2.08260873,95.9843805 C2.08260873,95.9843805 -6.14194247,159.687156 12.7619761,178.1044 C14.0268092,179.188832 14.7781023,179.667035 16.4242031,180.582618 C16.4242031,180.582618 100.107852,190.550018 104.087053,190.55001 C108.347777,190.550003 141.927532,100.28796 141.927532,100.28796 L120.97165,45.5658948 C120.97165,45.5658948 106.314035,34.1162058 89.873048,25.0482843 Z"></path>
                    <path d="M54.7998474,218.308051 C47.8371075,216.339362 39.6194492,206.960569 33.1940419,199.650142 C36.4400213,199.650142 97.8989685,205.436938 97.8989685,205.436938 L90.6866849,220.276739 C90.6866849,220.276739 61.7625874,220.27674 54.7998474,218.308051 Z" id="Back-2"></path>
                </g>
                <g id="Cap-Thing" transform="translate(397.000000, 441.000000)" sketch:type="MSShapeGroup">
                    <path d="M68.7503363,0.52715146 C68.7503363,0.52715146 81.9451571,44.4776249 80.0979674,44.4776252 C78.2507776,44.4776256 70.5778615,52.3257229 59.8529226,40.881575 C59.8529226,40.881575 20.502864,76.2015289 3.20108766,44.4776252 C-14.1006887,12.7537216 62.4712959,8.89499121 62.4712959,8.89499121 L68.7503363,0.52715146 Z" id="Path-16" fill="#C4B069"></path>
                    <ellipse id="Oval-1" fill="#E0CC84" cx="31.5" cy="34.5" rx="15.5" ry="13.5"></ellipse>
                </g>
                <path d="M243.72475,173.588344 C243.72475,173.588344 344.180634,-52.1669306 591.322596,40.5431897 C591.322596,40.5431897 378.038788,-98.2582152 214.187958,160.32467 L243.72475,173.588344 Z" id="Cap-Piece" fill="#783E4B" sketch:type="MSShapeGroup"></path>
                <path d="M512.643718,469.460505 C502.20803,464.382389 481.570782,456.91964 481.570782,456.91964 C481.570782,456.91964 478.025633,412.270733 538.225095,434.595187 C567.986484,446.408314 536.391617,483.596034 536.391617,483.596034 C536.391617,483.596034 520.481641,473.27452 512.643718,469.460505 Z" id="Cap-Piece" fill="#D2BE64" sketch:type="MSShapeGroup"></path>
                <path d="M354.23103,415.460606 C356.896317,406.143534 353.602964,403.180351 353.602964,403.900264 C353.602964,405.917812 321.948788,469.996397 325.59828,471.475865 C329.247772,472.955333 337.329772,460.587395 337.329772,460.587395 C337.329772,460.587395 349.426884,432.254513 354.23103,415.460606 Z" id="Path-40" fill="#C6B26D" sketch:type="MSShapeGroup"></path>
                <path d="M377.743379,348.490563 C377.743379,348.490563 427.994251,392.312213 427.994252,396.545368 C427.994253,400.778523 383.519343,412.30996 372.23563,428.789833 C360.951918,445.269707 337.087538,473.765942 334.6208,472.162562 C332.154062,470.559182 355.829288,407.542084 354.448979,404.763401 C353.06867,401.984719 377.743379,348.490563 377.743379,348.490563 Z" id="Path-39" fill="#F0DC95" sketch:type="MSShapeGroup"></path>
                <path d="M352.008942,363.516839 L360.750935,340.475983 C360.750935,340.475983 216.753888,252.694607 229.544252,281.425886 C229.544252,281.425886 340.187508,310.206315 352.008942,363.516839 Z" id="Path-41" fill="#F0DC95" sketch:type="MSShapeGroup"></path>
                <path d="M211.632995,279.077125 C206.130287,276.174794 195.467657,274.776415 195.467657,274.776415 L189.767526,292.325476 C189.767526,292.325476 214.425112,286.414228 214.425111,284.116327 C214.425111,283.473291 213.771198,280.204891 211.632995,279.077125 Z" id="Path-46" fill="#B88447" sketch:type="MSShapeGroup"></path>
                <path d="M238.813267,256.272059 C238.813267,256.272059 266.755298,195.802041 264.677465,189.320467 C263.72488,186.348982 248.813248,175.302877 230.785724,167.342834 C209.490586,157.939977 184.526934,151.699839 182.867728,151.699839 C179.803912,151.699839 152.768381,209.511359 148.963498,209.511358 C145.158615,209.511358 136.987911,208.269038 136.987911,213.624003 C136.987911,218.978968 141.731484,225.525408 143.10639,229.721529 C143.311517,230.347562 155.38102,250.221847 168.811722,256.272059 C192.055571,266.74286 230.207669,275.595665 230.785724,273.844752 L238.813267,256.272059 Z" id="Path-42" fill="#FFF3C6" sketch:type="MSShapeGroup"></path>
                <path id="Path-43" stroke="#979797" sketch:type="MSShapeGroup" d=""></path>
                <path d="M200.455131,258.551321 C200.455131,258.551321 201.948711,247.538706 203.474646,244.805115 C205.000581,242.071525 212.792781,245.198638 213.580579,243.941322 C214.368377,242.684006 224.156031,231.663114 224.156031,227.663178 C224.15603,223.663242 210.438417,212.919245 205.446774,214.403796 C200.455131,215.888348 195.83519,231.764693 192.841258,231.764692 C189.847325,231.764692 187.717939,229.290691 183.63373,231.236484 C179.549522,233.182277 180.471253,245.35063 180.471253,245.35063 L200.455131,258.551321 Z" id="Path-44" fill="#CCBE91" sketch:type="MSShapeGroup"></path>
                <path d="M164.260075,235.906087 C164.260075,235.906087 169.743134,226.674913 171.269069,223.941322 C172.795004,221.207731 181.792781,225.198638 182.580579,223.941322 C183.368377,222.684006 185.903824,213.066722 185.903823,209.066786 C185.903823,205.06685 172.634608,195.58017 167.642965,197.064721 C162.651322,198.549273 164.83519,211.764693 161.841258,211.764692 C158.847325,211.764692 156.717939,209.290691 152.63373,211.236484 C148.549522,213.182277 149.471253,225.35063 149.471253,225.35063 L164.260075,235.906087 Z" id="Path-44" fill="#CCBE91" sketch:type="MSShapeGroup"></path>
                <text id="4950" sketch:type="MSTextLayer" font-family="basic title font" font-size="165" font-style="condensed" font-weight="normal" letter-spacing="4.56318331" fill="#D8BE7E">
                    <tspan x="368" y="258">4950</tspan>
                </text>
            </g>
            <path d="M41.3671058,589.296549 L41.5732744,557.165543 C41.5732744,557.165543 33.2216057,567.941534 33.2216057,572.760724 C33.2216056,577.579914 41.3671058,589.296549 41.3671058,589.296549 Z M20.4409938,449.696483 C20.4409938,449.696483 19.0357372,550.574336 24.1741178,551.670779 C29.3124985,552.767222 40.5111383,528.568854 43.7085929,521.975139 C46.9060475,515.381424 51.5227497,469.124191 51.5227497,469.124191 L20.4409938,449.696483 Z M66.5031068,478.272922 C64.2714041,479.995036 63.1376036,502.201166 65.143228,504.556615 C67.1488524,506.912065 86.0423156,491.557487 85.7301688,488.058567 C85.4180219,484.559647 68.7348095,476.550808 66.5031068,478.272922 Z M31.1102184,431.855536 C37.0197126,442.41889 56.2038812,448.96937 56.2038812,448.96937 L66.0318643,431.855536 C66.0318643,431.855536 45.1611977,417.904181 38.8249734,417.904181 C32.4887491,417.904182 25.2007241,421.292183 31.1102184,431.855536 Z M82.9395296,439.062233 L72.6200553,458.740289 L110.188759,474.84721 L122.006637,455.356915 L82.9395296,439.062233 Z M61.0357078,527.817942 C59.117951,532.125955 59.0967864,602.28883 59.0967864,602.28883 C84.6857261,614.518755 204.705246,626.888177 232.209854,606.744722 C259.714462,586.601267 275.053455,568.892955 278.327182,531.512765 L107.682169,493.491785 C107.682169,493.491785 62.9534646,523.509928 61.0357078,527.817942 Z M137.302828,396.355858 L129.347633,437.377214 C129.347633,437.377214 72.1994097,424.663823 60.0937695,409.844505 C75.8728573,393.782979 137.302828,396.355858 137.302828,396.355858 Z M158.276806,398.846614 L146.370181,444.426032 L217.444591,458.032281 C213.300677,453.963978 200.401993,445.818903 202.96055,398.303025 L158.276806,398.846614 Z M321.557182,324.114534 C321.557182,324.114534 370.270398,352.952087 344.504669,374.929129 C336.116231,385.528266 279.82648,355.030479 321.557182,324.114534 Z M60.5116675,371.115057 C53.9886438,373.145226 39.6018336,381.586202 39.6018336,381.586202 C39.6018336,381.586202 37.9579907,387.209435 38.0898086,390.032309 C38.1968189,392.323929 40.3183181,396.929685 40.3183181,396.929685 C40.3183181,396.929685 55.0888638,390.893944 62.6907419,388.805027 C70.7332261,386.595037 87.2514053,384.032963 87.2514053,384.032963 C87.2514053,384.032963 87.3589457,376.705557 87.2514052,375.009179 C87.0009266,371.058051 86.1773481,367.090447 86.1773481,367.090447 C86.1773481,367.090447 69.5138153,368.313307 60.5116675,371.115057 Z M480.423722,456.349863 C482.145134,456.349863 537.265365,479.447421 537.265366,483.70032 C537.265366,487.953218 497.423638,499.892755 488.874997,493.393972 C480.326357,486.895188 478.702309,456.349863 480.423722,456.349863 Z M138.60689,460.466951 L126.952842,475.91671 C126.952842,475.91671 244.262777,513.323423 285.130172,509.590299 L292.493336,497.437397 C292.493336,497.437397 265.197044,496.656717 260.088615,494.724065 C254.980186,492.791414 234.613344,477.411432 234.613344,477.411432 C234.613344,477.411432 149.736312,471.852243 138.60689,460.466951 Z" id="Transparent" fill="antiquewhite" sketch:type="MSShapeGroup"></path>
        </g>
    </g>
</svg>