<?xml version="1.0" encoding="UTF-8" standalone="no"?>
<svg width="118px" height="119px" viewBox="0 0 118 119" version="1.1" xmlns="http://www.w3.org/2000/svg" xmlns:xlink="http://www.w3.org/1999/xlink" xmlns:sketch="http://www.bohemiancoding.com/sketch/ns">
    <!-- Generator: Sketch 3.4.4 (17249) - http://www.bohemiancoding.com/sketch -->
    <title>186 web app</title>
    <desc>Created with Sketch.</desc>
    <defs></defs>
    <g id="Page-1" stroke="none" stroke-width="1" fill="none" fill-rule="evenodd" sketch:type="MSPage">
        <g id="PC" sketch:type="MSArtboardGroup" transform="translate(-288.000000, -2311.000000)">
            <g id="186-web-app" sketch:type="MSLayerGroup" transform="translate(287.000000, 2311.399994)">
                <g id="186-Web-App" sketch:type="MSShapeGroup">
                    <g id="Page-1">
                        <g id="Icons">
                            <g id="186-Web-App" transform="translate(1.016949, 0.000000)">
                                <path d="M0,0 L117.966102,0 L117.966102,118 L0,118 L0,0 L0,0 Z" id="Fill-3484" fill="#ECF0F1"></path>
                                <path d="M0,0 L117.966102,0 L117.966102,24.4137931 L0,24.4137931 L0,0 L0,0 Z" id="Fill-3485" fill="#546A79"></path>
                                <path d="M18.3050847,12.2068966 C18.3050847,15.5780345 15.5735593,18.3103448 12.2033898,18.3103448 C8.83322034,18.3103448 6.10169492,15.5780345 6.10169492,12.2068966 C6.10169492,8.83575862 8.83322034,6.10344828 12.2033898,6.10344828 C15.5735593,6.10344828 18.3050847,8.83575862 18.3050847,12.2068966" id="Fill-3486" fill="#ED7161"></path>
                                <path d="M36.6101695,12.2068966 C36.6101695,15.5780345 33.8786441,18.3103448 30.5084746,18.3103448 C27.1383051,18.3103448 24.4067797,15.5780345 24.4067797,12.2068966 C24.4067797,8.83575862 27.1383051,6.10344828 30.5084746,6.10344828 C33.8786441,6.10344828 36.6101695,8.83575862 36.6101695,12.2068966" id="Fill-3487" fill="#F0C419"></path>
                                <path d="M54.9152542,12.2068966 C54.9152542,15.5780345 52.1837288,18.3103448 48.8135593,18.3103448 C45.4433898,18.3103448 42.7118644,15.5780345 42.7118644,12.2068966 C42.7118644,8.83575862 45.4433898,6.10344828 48.8135593,6.10344828 C52.1837288,6.10344828 54.9152542,8.83575862 54.9152542,12.2068966" id="Fill-3488" fill="#4FBA6F"></path>
                                <path d="M0,24.4137931 L24.4067797,24.4137931 L24.4067797,118 L0,118 L0,24.4137931 L0,24.4137931 Z" id="Fill-3522" fill="#556080"></path>
                                <path d="M8.13559322,38.6551724 L16.2711864,38.6551724 C17.3938983,38.6551724 18.3050847,37.7457586 18.3050847,36.6206897 C18.3050847,35.4956207 17.3938983,34.5862069 16.2711864,34.5862069 L8.13559322,34.5862069 C7.01288136,34.5862069 6.10169492,35.4956207 6.10169492,36.6206897 C6.10169492,37.7457586 7.01288136,38.6551724 8.13559322,38.6551724" id="Fill-3523" fill="#768E9B"></path>
                                <path d="M16.2711864,44.7586207 L8.13559322,44.7586207 C7.01288136,44.7586207 6.10169492,45.6680345 6.10169492,46.7931034 C6.10169492,47.9181724 7.01288136,48.8275862 8.13559322,48.8275862 L16.2711864,48.8275862 C17.3938983,48.8275862 18.3050847,47.9181724 18.3050847,46.7931034 C18.3050847,45.6680345 17.3938983,44.7586207 16.2711864,44.7586207" id="Fill-3524" fill="#768E9B"></path>
                                <path d="M16.2711864,54.9310345 L8.13559322,54.9310345 C7.01288136,54.9310345 6.10169492,55.8404483 6.10169492,56.9655172 C6.10169492,58.0905862 7.01288136,59 8.13559322,59 L16.2711864,59 C17.3938983,59 18.3050847,58.0905862 18.3050847,56.9655172 C18.3050847,55.8404483 17.3938983,54.9310345 16.2711864,54.9310345" id="Fill-3525" fill="#768E9B"></path>
                                <path d="M16.2711864,65.1034483 L8.13559322,65.1034483 C7.01288136,65.1034483 6.10169492,66.0128621 6.10169492,67.137931 C6.10169492,68.263 7.01288136,69.1724138 8.13559322,69.1724138 L16.2711864,69.1724138 C17.3938983,69.1724138 18.3050847,68.263 18.3050847,67.137931 C18.3050847,66.0128621 17.3938983,65.1034483 16.2711864,65.1034483" id="Fill-3526" fill="#768E9B"></path>
                                <path d="M16.2711864,75.2758621 L8.13559322,75.2758621 C7.01288136,75.2758621 6.10169492,76.1852759 6.10169492,77.3103448 C6.10169492,78.4354138 7.01288136,79.3448276 8.13559322,79.3448276 L16.2711864,79.3448276 C17.3938983,79.3448276 18.3050847,78.4354138 18.3050847,77.3103448 C18.3050847,76.1852759 17.3938983,75.2758621 16.2711864,75.2758621" id="Fill-3527" fill="#768E9B"></path>
                                <path d="M16.2711864,85.4482759 L8.13559322,85.4482759 C7.01288136,85.4482759 6.10169492,86.3576897 6.10169492,87.4827586 C6.10169492,88.6078276 7.01288136,89.5172414 8.13559322,89.5172414 L16.2711864,89.5172414 C17.3938983,89.5172414 18.3050847,88.6078276 18.3050847,87.4827586 C18.3050847,86.3576897 17.3938983,85.4482759 16.2711864,85.4482759" id="Fill-3528" fill="#768E9B"></path>
                                <path d="M16.2711864,95.6206897 L8.13559322,95.6206897 C7.01288136,95.6206897 6.10169492,96.5301034 6.10169492,97.6551724 C6.10169492,98.7802414 7.01288136,99.6896552 8.13559322,99.6896552 L16.2711864,99.6896552 C17.3938983,99.6896552 18.3050847,98.7802414 18.3050847,97.6551724 C18.3050847,96.5301034 17.3938983,95.6206897 16.2711864,95.6206897" id="Fill-3529" fill="#768E9B"></path>
                                <path d="M16.2711864,105.793103 L8.13559322,105.793103 C7.01288136,105.793103 6.10169492,106.702517 6.10169492,107.827586 C6.10169492,108.952655 7.01288136,109.862069 8.13559322,109.862069 L16.2711864,109.862069 C17.3938983,109.862069 18.3050847,108.952655 18.3050847,107.827586 C18.3050847,106.702517 17.3938983,105.793103 16.2711864,105.793103" id="Fill-3530" fill="#768E9B"></path>
                                <path d="M36.6101695,36.6206897 L65.0847458,36.6206897 L65.0847458,65.1034483 L36.6101695,65.1034483 L36.6101695,36.6206897 L36.6101695,36.6206897 Z" id="Fill-3542" fill="#9777A8"></path>
                                <path d="M77.2881356,36.6206897 L105.762712,36.6206897 L105.762712,65.1034483 L77.2881356,65.1034483 L77.2881356,36.6206897 L77.2881356,36.6206897 Z" id="Fill-3543" fill="#F29C1F"></path>
                                <path d="M36.6101695,77.3103448 L65.0847458,77.3103448 L65.0847458,105.793103 L36.6101695,105.793103 L36.6101695,77.3103448 L36.6101695,77.3103448 Z" id="Fill-3544" fill="#26B99A"></path>
                                <path d="M77.2881356,77.3103448 L105.762712,77.3103448 L105.762712,105.793103 L77.2881356,105.793103 L77.2881356,77.3103448 L77.2881356,77.3103448 Z" id="Fill-3545" fill="#ED7161"></path>
                            </g>
                        </g>
                    </g>
                </g>
            </g>
        </g>
    </g>
</svg>