<?xml version="1.0" encoding="UTF-8" standalone="no"?>
<svg width="178px" height="178px" viewBox="0 0 178 178" version="1.1" xmlns="http://www.w3.org/2000/svg" xmlns:xlink="http://www.w3.org/1999/xlink" xmlns:sketch="http://www.bohemiancoding.com/sketch/ns">
    <!-- Generator: Sketch 3.5.2 (25235) - http://www.bohemiancoding.com/sketch -->
    <title>Shape</title>
    <desc>Created with Sketch.</desc>
    <defs>
        <filter x="-50%" y="-50%" width="200%" height="200%" filterUnits="objectBoundingBox" id="filter-1">
            <feOffset dx="10" dy="10" in="SourceAlpha" result="shadowOffsetOuter1"></feOffset>
            <feGaussianBlur stdDeviation="0" in="shadowOffsetOuter1" result="shadowBlurOuter1"></feGaussianBlur>
            <feColorMatrix values="0 0 0 0 0   0 0 0 0 0   0 0 0 0 0  0 0 0 0.35 0" in="shadowBlurOuter1" type="matrix" result="shadowMatrixOuter1"></feColorMatrix>
            <feMerge>
                <feMergeNode in="shadowMatrixOuter1"></feMergeNode>
                <feMergeNode in="SourceGraphic"></feMergeNode>
            </feMerge>
        </filter>
    </defs>
    <g id="Page-1" stroke="none" stroke-width="1" fill="none" fill-rule="evenodd" sketch:type="MSPage">
        <g id="Logo" sketch:type="MSArtboardGroup" transform="translate(-60.000000, -37.000000)" filter="url(#filter-1)" fill="#6EA5FF">
            <path d="M144.255544,62.3439495 L171.778835,63.8577179 L171.413772,70.4564042 L114.217215,67.3064926 L72.1179747,65.5716716 L152.672911,89.6328084 L82.5949367,176.904387 L77.4450633,170.660093 L60,204.834829 L148.143291,133.114745 L166.506329,137.214653 L152.761519,151.572109 L148.209215,147.758686 L127.907443,177.512371 L210.001671,127.94176 L168.588962,116.478855 L204.109975,87.5764884 C204.51119,87.7391832 204.925165,87.8940968 205.350481,88.0079832 C213.617215,90.2178021 222.988354,82.0537095 226.283139,69.7815747 C229.578633,57.5105011 225.545924,45.7756126 217.278835,43.5650863 C209.011747,41.35456 199.640608,49.5076884 196.345114,61.7798232 C195.825165,63.7165979 195.493418,65.6413474 195.326127,67.5165811 L112.42238,37 L144.255544,62.3439495 Z" id="Shape" sketch:type="MSShapeGroup"></path>
        </g>
    </g>
</svg>