<?xml version="1.0" encoding="UTF-8" standalone="no"?>
<svg width="161px" height="161px" viewBox="0 0 161 161" version="1.1" xmlns="http://www.w3.org/2000/svg" xmlns:xlink="http://www.w3.org/1999/xlink" xmlns:sketch="http://www.bohemiancoding.com/sketch/ns">
    <!-- Generator: Sketch 3.4.4 (17249) - http://www.bohemiancoding.com/sketch -->
    <title>Web</title>
    <desc>Created with Sketch.</desc>
    <defs></defs>
    <g id="Page-1" stroke="none" stroke-width="1" fill="none" fill-rule="evenodd" sketch:type="MSPage">
        <g id="neon" sketch:type="MSLayerGroup" transform="translate(-229.000000, -654.000000)">
            <g id="Web" transform="translate(229.000000, 654.000000)" sketch:type="MSShapeGroup">
                <circle id="Oval" fill="#FE3D50" cx="80.57568" cy="80.75616" r="80"></circle>
                <circle id="Oval" fill="#F8E71C" cx="80.57568" cy="80.75616" r="55.88452"></circle>
                <path d="M141.1347,126.98322 L20.01666,126.98322 C17.80752,126.98322 16.01666,125.19233 16.01666,122.98322 L16.01666,38.52906 C16.01666,36.31995 17.80752,34.52906 20.01666,34.52906 L141.1347,34.52906 C143.34387,34.52906 145.1347,36.31995 145.1347,38.52906 L145.1347,122.98322 C145.1347,125.19232 143.34387,126.98322 141.1347,126.98322 L141.1347,126.98322 Z" id="Shape" fill="#FFFFFF"></path>
                <path d="M145.138,113.98419 L145.138,120.98419 C145.138,123.19415 143.34802,124.98419 141.138,124.98419 L20.01797,124.98419 C17.80795,124.98419 16.01797,123.19415 16.01797,120.98419 L16.01797,113.98419 C16.01797,116.19415 17.80795,117.98419 20.01797,117.98419 L141.138,117.98419 C143.34802,117.98419 145.138,116.19415 145.138,113.98419 L145.138,113.98419 Z" id="Shape" fill="#F0F2F1"></path>
                <path d="M145.138,38.52417 L145.138,44.41418 L16.01797,44.41418 L16.01797,38.52417 C16.01797,36.32416 17.80795,34.52417 20.01797,34.52417 L141.138,34.52417 C143.34802,34.52417 145.138,36.32416 145.138,38.52417 L145.138,38.52417 Z" id="Shape" fill="#FFFFFF"></path>
                <rect id="Rectangle-path" fill="#51E4C2" x="26.01797" y="100.41418" width="36.23666" height="26.49609"></rect>
                <circle id="Oval" fill="#FE3D50" cx="24.69116" cy="39.46918" r="1.69501"></circle>
                <circle id="Oval" fill="#F8E71C" cx="30.56616" cy="39.46918" r="1.69501"></circle>
                <circle id="Oval" fill="#51E4C2" cx="36.44116" cy="39.46918" r="1.69501"></circle>
                <path d="M16.01797,44.41418 L145.1347,44.41418" id="Shape" stroke="#E8EDEB"></path>
                <rect id="Rectangle-path" fill="#E8EDEB" x="70.46298" y="54.41418" width="18.625" height="2.75"></rect>
                <rect id="Rectangle-path" fill="#E8EDEB" x="70.46298" y="64.41418" width="64.62503" height="2.75"></rect>
                <rect id="Rectangle-path" fill="#E8EDEB" x="70.46298" y="74.41418" width="64.62503" height="2.75"></rect>
                <rect id="Rectangle-path" fill="#E8EDEB" x="70.46298" y="100.41418" width="18.625" height="2.75"></rect>
                <rect id="Rectangle-path" fill="#E8EDEB" x="70.46298" y="110.41418" width="64.62503" height="2.75"></rect>
                <rect id="Rectangle-path" fill="#E8EDEB" x="70.46298" y="120.41418" width="64.62503" height="2.75"></rect>
                <rect id="Rectangle-path" fill="#2283F6" x="26.01797" y="54.41418" width="36.23666" height="36.23669"></rect>
                <rect id="Rectangle-path" opacity="0.3" fill="#252528" x="26.01797" y="87.56018" width="36.23666" height="3.0907"></rect>
                <path d="M101.58798,84.58087 L87.25467,84.58087 C85.59781,84.58087 84.25467,85.92401 84.25467,87.58087 L84.25467,87.65088 C84.25467,89.30774 85.59781,90.65088 87.25467,90.65088 L101.58798,90.65088 C103.24484,90.65088 104.58798,89.30774 104.58798,87.65088 L104.58798,87.58087 C104.58798,85.92401 103.24484,84.58087 101.58798,84.58087 L101.58798,84.58087 Z" id="Shape" fill="#F8E71C"></path>
                <path d="M131.58798,84.58087 L117.25467,84.58087 C115.59781,84.58087 114.25467,85.92401 114.25467,87.58087 L114.25467,87.65088 C114.25467,89.30774 115.59781,90.65088 117.25467,90.65088 L131.58798,90.65088 C133.24484,90.65088 134.58798,89.30774 134.58798,87.65088 L134.58798,87.58087 C134.58798,85.92401 133.24484,84.58087 131.58798,84.58087 L131.58798,84.58087 Z" id="Shape" fill="#FE3D50"></path>
            </g>
        </g>
    </g>
</svg>