<?xml version="1.0" encoding="UTF-8" standalone="no"?>
<svg width="140px" height="140px" viewBox="0 0 140 140" version="1.1" xmlns="http://www.w3.org/2000/svg" xmlns:xlink="http://www.w3.org/1999/xlink" xmlns:sketch="http://www.bohemiancoding.com/sketch/ns">
    <!-- Generator: Sketch 3.4.4 (17249) - http://www.bohemiancoding.com/sketch -->
    <title>Web Development</title>
    <desc>Created with Sketch.</desc>
    <defs>
        <linearGradient x1="50%" y1="0%" x2="50%" y2="100%" id="linearGradient-1">
            <stop stop-color="#9EABFF" offset="0%"></stop>
            <stop stop-color="#6472FF" offset="100%"></stop>
        </linearGradient>
    </defs>
    <g id="Page-1" stroke="none" stroke-width="1" fill="none" fill-rule="evenodd" sketch:type="MSPage">
        <g id="PC" sketch:type="MSArtboardGroup" transform="translate(-184.000000, -1664.000000)">
            <g id="Web-Development" sketch:type="MSLayerGroup" transform="translate(184.000000, 1664.000000)">
                <path d="M0,70 C0,31.5 31.5,0 70,0 C108.5,0 140,31.5 140,70 C140,108.5 108.5,140 70,140 C31.5,140 0,108.5 0,70 Z M20,70.5 C20,98.275 42.725,121 70.5,121 C98.275,121 121,98.275 121,70.5 C121,42.725 98.275,20 70.5,20 C42.725,20 20,42.725 20,70.5 Z" id="Shape" fill="url(#linearGradient-1)" sketch:type="MSShapeGroup"></path>
                <g id="html-5" transform="translate(12.817204, 20.344086)" sketch:type="MSShapeGroup">
                    <g id="HTML5">
                        <g id="Page-1">
                            <g id="Colour">
                                <g id="Row-3">
                                    <g id="HTML5">
                                        <path d="M0.20586563,27.0491803 C0.20586563,12.1103298 12.3336959,0 27.2941344,0 C42.2545728,0 54.3824031,12.1103298 54.3824031,27.0491803 C54.3824031,41.9880308 42.2545728,54.0983607 27.2941344,54.0983607 C12.3336959,54.0983607 0.20586563,41.9880308 0.20586563,27.0491803 L0.20586563,27.0491803 Z" id="Shape" fill="#E24628"></path>
                                        <path d="M17.9113939,39.6729236 L27.4853568,42.3770492 L37.0845559,39.6688557 L39.2213115,15.3278689 L15.7786885,15.3278689 L17.9113939,39.6729236 L17.9113939,39.6729236 Z M23.3482035,23.2901543 L23.6157263,26.3477155 L34.3116548,26.3477155 L33.505711,35.5140593 L27.4994807,37.2092822 L21.4739859,35.5140593 L21.0629914,30.8250416 L24.0096371,30.8250416 L24.2186393,33.2085394 L27.4863953,34.1044378 L30.7631866,33.2044713 L31.1025231,29.3333216 L20.9317744,29.3333216 L20.1401104,20.304601 L34.8407808,20.304601 L34.5782949,23.2901543 L23.3482035,23.2901543 L23.3482035,23.2901543 Z" id="Shape" fill="#FFFFFF"></path>
                                        <path d="M54.3824031,27.0491803 C54.3824031,41.9880308 42.2545728,54.0983607 27.2941344,54.0983607 C21.7456621,54.0983607 16.586813,52.432594 12.2918808,49.5746336 L43.3304169,5.24700995 C50.0329901,10.1710781 54.3824031,18.102932 54.3824031,27.0491803 L54.3824031,27.0491803 Z" id="reflec" fill-opacity="0.08" fill="#000000"></path>
                                    </g>
                                </g>
                            </g>
                        </g>
                    </g>
                </g>
                <g id="CSS3" transform="translate(72.268817, 20.344086)" sketch:type="MSShapeGroup">
                    <path d="M0.102932816,27.0491803 C0.102932816,12.1103298 12.2307631,0 27.1912016,0 C42.15164,0 54.2794703,12.1103298 54.2794703,27.0491803 C54.2794703,41.9880308 42.15164,54.0983607 27.1912016,54.0983607 C12.2307631,54.0983607 0.102932816,41.9880308 0.102932816,27.0491803 L0.102932816,27.0491803 Z" id="Shape" fill="#0B6DBB"></path>
                    <path d="M18.958537,18.9465984 L18.1719271,22.9556134 L34.1913885,22.9556134 L33.6903941,25.5451993 L17.6608596,25.5451993 L16.8849638,29.5535613 L32.9030058,29.5535613 L32.0097136,34.1254325 L25.5535604,36.3038708 L19.9584655,34.1254325 L20.3414228,32.142401 L16.4061299,32.142401 L15.4698901,36.9541705 L24.7239112,40.5615984 L35.3923193,36.9541705 L36.8081255,29.7161829 L37.0944736,28.2646213 L38.9125131,18.9465984 L18.958537,18.9465984 L18.958537,18.9465984 L18.958537,18.9465984 Z" id="Shape" fill="#FFFFFF"></path>
                    <path d="M54.2794703,27.0491803 C54.2794703,41.9880308 42.15164,54.0983607 27.1912016,54.0983607 C21.6427293,54.0983607 16.4838801,52.432594 12.1889479,49.5746336 L43.2274842,5.24700995 C49.9300573,10.1710781 54.2794703,18.102932 54.2794703,27.0491803 L54.2794703,27.0491803 Z" id="reflec" fill-opacity="0.08" fill="#000000"></path>
                </g>
                <g id="JS" transform="translate(43.000000, 76.000000)" sketch:type="MSShapeGroup">
                    <path d="M0.102932816,27.0491803 C0.102932816,12.1103298 12.2307631,0 27.1912016,0 C42.15164,0 54.2794703,12.1103298 54.2794703,27.0491803 C54.2794703,41.9880308 42.15164,54.0983607 27.1912016,54.0983607 C12.2307631,54.0983607 0.102932816,41.9880308 0.102932816,27.0491803 L0.102932816,27.0491803 Z" id="Shape" fill="#FFCD2E"></path>
                    <path d="M27.1912016,54.0983607 C21.6427293,54.0983607 16.4838801,52.432594 12.1889479,49.5746336 L43.2274842,5.24700995 C49.9300573,10.1710781 54.2794703,18.102932 54.2794703,27.0491803 C54.2794703,41.9880308 42.15164,54.0983607 27.1912016,54.0983607 Z" id="reflec" fill-opacity="0.08" fill="#000000"></path>
                    <g id="Group" transform="translate(18.934426, 18.032787)">
                        <path d="M8.40365764,18.7764552 L8.38778277,18.7809111 L4.32381775,17.7190677 L4.06384236,14.9034759 L2.08928373,14.9034759 L0.400962616,14.9034759 L0.912192012,20.4466781 L8.38680284,22.4543207 L8.40365764,22.4496752 L8.40365764,18.7764552 Z" id="Shape" fill="#EBEBEB"></path>
                        <path d="M8.89519044,13.1364546 L8.89519044,9.60610944 L4.40182016,9.60610944 L4.92872844,4.06537225 L8.90528372,3.96288539 L8.89519044,0.291656374 L1.62959865,0.291656374 L1.35972597,2.89402616 L0.502091375,12.1884749 L0.413113746,13.1364546 L1.39647334,13.1364546 L8.89519044,13.1364546 Z" id="Shape" fill="#EBEBEB"></path>
                        <path d="M8.87049621,3.96781538 L8.88646907,3.96345424 L12.8719417,4.19563769 L13.2101155,7.84069985 L15.1847721,7.84069985 L16.8731912,7.84069985 L16.2348649,1.01968281 L8.88735101,0.290044647 L8.87049621,0.294595405 L8.87049621,3.96781538 Z" id="Shape" fill="#FFFFFF"></path>
                        <path d="M16.4969962,3.97862343 L16.1843006,0.291656374 L8.48175804,0.291656374 L8.48175804,2.58144599 L8.48175804,3.96942711 L8.48175804,3.97862343 L16.4969962,3.97862343" id="Shape" fill="#FFFFFF"></path>
                        <path d="M8.39101654,9.60781598 L8.39101654,13.1380663 L12.8843868,13.1380663 L12.4608611,17.7166975 L8.39101654,18.7795838 L8.39101654,22.4526142 L15.8718009,20.4466781 L15.926579,19.8502444 L16.7842136,10.5557957 L16.8731912,9.60781598 L15.8898316,9.60781598 L8.39101654,9.60781598 Z" id="Shape" fill="#FFFFFF"></path>
                    </g>
                </g>
            </g>
        </g>
    </g>
</svg>