<?xml version="1.0" encoding="UTF-8" standalone="no"?>
<svg width="117px" height="116px" viewBox="0 0 117 116" version="1.1" xmlns="http://www.w3.org/2000/svg" xmlns:xlink="http://www.w3.org/1999/xlink" xmlns:sketch="http://www.bohemiancoding.com/sketch/ns">
    <!-- Generator: Sketch 3.4.4 (17249) - http://www.bohemiancoding.com/sketch -->
    <title>x</title>
    <desc>Created with Sketch.</desc>
    <defs></defs>
    <g id="Page-1" stroke="none" stroke-width="1" fill="none" fill-rule="evenodd" sketch:type="MSPage">
        <path d="M58.1771858,73.4937796 L97.4481944,112.764788 C101.769534,117.086127 108.780248,117.075591 113.10584,112.75 C117.431432,108.424408 117.441968,101.413693 113.120628,97.0923542 L73.8496197,57.8213457 L112.76332,18.9076458 C117.084659,14.5863065 117.074123,7.57559205 112.748531,3.25000029 C108.422939,-1.07559146 101.412225,-1.08612739 97.0908857,3.23521188 L58.1771858,42.1489118 L19.2634859,3.23521188 C14.9460574,-1.08221667 7.93143218,-1.07559146 3.60584043,3.25000029 C-0.719751326,7.57559205 -0.726376536,14.5902172 3.59105201,18.9076458 L42.5047519,57.8213457 L3.23374338,97.0923542 C-1.08368517,101.409783 -1.07705996,108.424408 3.24853179,112.75 C7.57412355,117.075591 14.5887487,117.082217 18.9061773,112.764788 L58.1771858,73.4937796 Z" id="x" fill="#FFFFFF" sketch:type="MSShapeGroup"></path>
    </g>
</svg>