<?xml version="1.0" encoding="UTF-8"?>
<svg width="105px" height="105px" viewBox="0 0 105 105" version="1.1" xmlns="http://www.w3.org/2000/svg" xmlns:xlink="http://www.w3.org/1999/xlink">
    <!-- Generator: Sketch 53.2 (72643) - https://sketchapp.com -->
    <title>apple-family__logo</title>
    <desc>Created with Sketch.</desc>
    <defs>
        <circle id="path-1" cx="52.5" cy="52.5" r="52.5"></circle>
    </defs>
    <g id="Brainstorm" stroke="none" stroke-width="1" fill="none" fill-rule="evenodd">
        <g id="Artboard-Copy-40" transform="translate(-290.000000, -3573.000000)">
            <g id="Group-Copy-18" transform="translate(247.000000, 3515.000000)">
                <g id="apple-family__logo" transform="translate(43.000000, 58.000000)">
                    <mask id="mask-2" fill="white">
                        <use xlink:href="#path-1"></use>
                    </mask>
                    <use id="Mask" fill="#FFFFFF" fill-rule="nonzero" xlink:href="#path-1"></use>
                    <g id="Group" mask="url(#mask-2)">
                        <g transform="translate(27.730769, 20.192308)">
                            <g id="Apple">
                                <path d="M36.4497073,39.0678702 C36.4497073,32.1844032 42.0599006,28.9238137 42.2408746,28.7426698 C39.164317,24.0329294 34.2780195,23.3083539 32.4682796,23.1272101 C28.3058782,22.7649223 24.3244507,26.0255119 22.152763,26.0255119 C19.9810752,26.0255119 16.7235437,23.1272101 13.2850381,23.3083539 C8.76068865,23.3083539 4.59828716,26.2066558 2.24562545,30.3729647 C-2.45969796,38.7055825 0.978807607,51.0233651 5.68413101,57.7256882 C7.85581876,60.9862777 10.5704284,64.790299 14.189908,64.6091552 C17.6284135,64.428011 18.8952314,62.4354287 22.8766589,62.4354287 C27.0390605,62.4354287 28.1249042,64.6091552 31.7443837,64.6091552 C35.3638632,64.6091552 37.716525,61.1674215 39.8882128,57.906832 C42.4218485,54.102811 43.5076923,50.2987897 43.5076923,50.1176458 C43.5076923,50.1176458 36.4497073,47.4004879 36.4497073,39.0678702" id="Shape" fill="#3C3C3C" fill-rule="nonzero"></path>
                                <path d="M25.7226844,10.9281396 C26.1345394,11.3147929 26.1757249,11.9456483 25.7844626,12.3526517 C25.5785351,12.5765036 25.3108294,12.6782545 25.0225309,12.6782545 C24.7754179,12.6782545 24.5283049,12.5968538 24.3223773,12.4137023 C19.7507867,8.28261714 14.8291194,12.2102005 14.6231919,12.3730019 C14.1907441,12.739305 13.5317761,12.6782545 13.1816993,12.2509009 C12.8110298,11.8235472 12.8728081,11.1926919 13.3052558,10.8263888 C15.5498656,8.97452302 20.9863518,6.63425313 25.7226844,10.9281396 Z M19.5860447,16.5854877 C19.071226,16.5854877 18.5564072,16.7889894 18.2063305,17.1552925 C17.8356609,17.5215957 17.6297335,18.0099998 17.6297335,18.5187541 C17.6297335,19.0275085 17.8356609,19.5159126 18.2063305,19.8822157 C18.577,20.2485188 19.071226,20.4520206 19.5860447,20.4520206 C20.1008635,20.4520206 20.6156823,20.2485188 20.965759,19.8822157 C21.3364285,19.5159126 21.542356,19.0275085 21.542356,18.5187541 C21.542356,18.0099998 21.3364285,17.5215957 20.965759,17.1552925 C20.5950895,16.7889894 20.1008635,16.5854877 19.5860447,16.5854877 Z M28.6468549,8.16051612 C23.7663731,3.9480303 19.0506332,4.17188222 15.9411279,5.10799017 C12.6256951,6.10514863 10.4634563,8.05876525 10.3810853,8.16051612 C9.96923028,8.54716938 9.94863752,9.17802475 10.3398998,9.5850282 C10.731162,9.99203165 11.39013,10.0123818 11.8019851,9.62572855 C11.8225778,9.60537839 13.6965181,7.89596385 16.5589104,7.04125658 C20.3479765,5.90164692 23.9517078,6.79705453 27.3083262,9.68677907 C27.4936609,9.84958047 27.7407738,9.93098115 27.987887,9.93098115 C28.2761855,9.93098115 28.564484,9.8088801 28.7704114,9.5850282 C29.1204881,9.17802475 29.0793028,8.52681922 28.6468549,8.16051612 Z M16.1264627,13.7161133 C15.6734222,14.0620663 15.6116439,14.6929216 15.9617207,15.1406254 C16.3117974,15.5883292 16.9707654,15.6493797 17.4032132,15.3034268 C17.4855842,15.2423763 19.6684157,13.5736621 21.5217633,15.2830766 C21.7276908,15.4662282 21.9748038,15.5476289 22.2219168,15.5476289 C22.4896225,15.5476289 22.7779211,15.445878 22.9838486,15.2220261 C23.3751108,14.8150227 23.3545181,14.1638171 22.9220703,13.797514 C20.4303475,11.5182946 17.3826204,12.7596552 16.1264627,13.7161133 Z" id="wifi{:easeInQuad;0,16.69,7.26,31.35,26.34,313,1;}" fill="#3C3C3C" fill-rule="nonzero" transform="translate(19.532105, 12.499196) rotate(-47.000000) translate(-19.532105, -12.499196) "></path>
                            </g>
                            <g id="USB" transform="translate(30.530769, 22.992308)">
                                <g id="Shape" transform="translate(15.486748, 15.501307) rotate(-162.000000) translate(-15.486748, -15.501307) translate(3.371364, 3.385923)" fill="#3C3C3C" fill-rule="nonzero">
                                    <path d="M16.1569484,0.0684778925 L11.2018246,5.02334993 L10.4912824,4.31281421 C10.3941505,4.21563146 10.2444184,4.21542458 10.1470279,4.31281421 L2.16685012,12.2929195 C0.70087203,13.7588326 0.581293235,16.0626172 1.83045718,17.6778989 L0.0428783333,19.4654616 L0.555019002,19.9778045 L4.1338489,23.5564467 L4.64619645,24.0689965 L6.43015482,22.2850543 C8.03071077,23.534 10.3453776,23.4180427 11.8188036,21.9446302 L19.7990847,13.9645249 C19.8962167,13.867187 19.8964235,13.7178183 19.8029121,13.6243077 L19.0885426,12.9101515 L24.0436665,7.95507262 C24.136971,7.86171718 24.1335575,7.70836602 24.040046,7.61485542 L16.4972205,0.0720983248 C16.4036573,-0.0214122715 16.2503047,-0.024825822 16.1569484,0.0684778925 Z M4.64236909,21.5147297 L2.59696139,19.4693406 L3.35503509,18.7113255 L5.40059795,20.7566629 L4.64236909,21.5147297 Z M17.6489939,11.7993512 L12.3124281,6.46283384 L16.3248346,2.4504638 L21.6613486,7.78692939 L17.6489939,11.7993512 Z"></path>
                                    <polygon id="Path" points="15.6975631 4.85282757 15.6973562 4.85282757 15.69146 4.84677625 14.7455359 5.7926918 15.8409853 6.88833807 16.7869094 5.94237083 15.6997354 4.85505155"></polygon>
                                    <polygon id="Path" points="18.319142 9.36621372 19.2650661 8.42034992 18.1696685 7.32491052 17.231606 8.26291281 17.229382 8.26498163 17.2295888 8.26498163 17.2236927 8.27082604"></polygon>
                                </g>
                                <path d="M27.6230769,9.74615385 C27.6230769,9.74615385 56.1615385,-7.10769231 62.6230769,4.60384615" id="Path-2" stroke="#000000" stroke-width="1.80147692"></path>
                            </g>
                            <g id="electric" transform="translate(46.523077, 32.307692)">
                                <polygon id="Shape" fill="#FFF867" fill-rule="nonzero" points="4.73846154 3.7625 2.36923077 3.7625 2.36923077 0 0 5.49903846 2.36923077 5.49903846 2.36923077 9.26153846"></polygon>
                            </g>
                        </g>
                    </g>
                </g>
            </g>
        </g>
    </g>
</svg>