<?xml version="1.0" encoding="UTF-8"?>
<svg width="137px" height="162px" viewBox="0 0 137 162" version="1.1" xmlns="http://www.w3.org/2000/svg" xmlns:xlink="http://www.w3.org/1999/xlink">
    <!-- Generator: Sketch 53.2 (72643) - https://sketchapp.com -->
    <title>Shape</title>
    <desc>Created with Sketch.</desc>
    <g id="Redesign" stroke="none" stroke-width="1" fill="none" fill-rule="evenodd">
        <g id="Artboard-Copy-14" transform="translate(-1223.000000, -945.000000)" fill="#FFFFFF" fill-rule="nonzero">
            <path d="M1356.6,1071.251 C1354.15,1076.911 1351.25,1082.121 1347.89,1086.911 C1343.31,1093.441 1339.56,1097.961 1336.67,1100.471 C1332.19,1104.591 1327.39,1106.701 1322.25,1106.821 C1318.56,1106.821 1314.11,1105.771 1308.93,1103.641 C1303.733,1101.521 1298.957,1100.471 1294.59,1100.471 C1290.01,1100.471 1285.098,1101.521 1279.844,1103.641 C1274.582,1105.771 1270.343,1106.881 1267.102,1106.991 C1262.173,1107.201 1257.26,1105.031 1252.356,1100.471 C1249.226,1097.741 1245.311,1093.061 1240.621,1086.431 C1235.589,1079.351 1231.452,1071.141 1228.211,1061.781 C1224.74,1051.671 1223,1041.881 1223,1032.403 C1223,1021.546 1225.346,1012.182 1230.045,1004.335 C1233.738,998.032 1238.651,993.06 1244.8,989.41 C1250.949,985.76 1257.593,983.9 1264.748,983.781 C1268.663,983.781 1273.797,984.992 1280.177,987.372 C1286.539,989.76 1290.624,990.971 1292.415,990.971 C1293.754,990.971 1298.292,989.555 1305.985,986.732 C1313.26,984.114 1319.4,983.03 1324.43,983.457 C1338.06,984.557 1348.3,989.93 1355.11,999.61 C1342.92,1006.996 1336.89,1017.341 1337.01,1030.612 C1337.12,1040.949 1340.87,1049.551 1348.24,1056.381 C1351.58,1059.551 1355.31,1062.001 1359.46,1063.741 C1358.56,1066.351 1357.61,1068.851 1356.6,1071.251 L1356.6,1071.251 Z M1325.34,948.241 C1325.34,956.3431 1322.38,963.908 1316.48,970.91 C1309.36,979.234 1300.748,984.044 1291.409,983.285 C1291.29,982.313 1291.221,981.29 1291.221,980.215 C1291.221,972.437 1294.607,964.113 1300.62,957.307 C1303.622,953.861 1307.44,950.9957 1312.07,948.71 C1316.69,946.4584 1321.06,945.2132 1325.17,945 C1325.29,946.0831 1325.34,947.1663 1325.34,948.2409 L1325.34,948.241 Z" id="Shape"></path>
        </g>
    </g>
</svg>