<?xml version="1.0" encoding="UTF-8"?>
<svg width="103px" height="103px" viewBox="0 0 103 103" version="1.1" xmlns="http://www.w3.org/2000/svg" xmlns:xlink="http://www.w3.org/1999/xlink">
    <!-- Generator: Sketch 53.2 (72643) - https://sketchapp.com -->
    <title>github-logo</title>
    <desc>Created with Sketch.</desc>
    <defs>
        <circle id="path-1" cx="51.478474" cy="51.478474" r="51.478474"></circle>
    </defs>
    <g id="Brainstorm" stroke="none" stroke-width="1" fill="none" fill-rule="evenodd">
        <g id="Artboard-Copy-40" transform="translate(-292.000000, -3826.000000)">
            <g id="Group-Copy-19" transform="translate(248.000000, 3766.000000)">
                <g id="github-logo" transform="translate(44.000000, 60.000000)">
                    <mask id="mask-2" fill="white">
                        <use xlink:href="#path-1"></use>
                    </mask>
                    <use id="Mask" fill="#FFFFFF" xlink:href="#path-1"></use>
                    <path d="M96.8561731,24.2076651 C92.1663326,16.1721754 85.8048633,9.81046697 77.7700911,5.12110478 C69.734123,0.431503417 60.9612415,-1.91269932 51.4452278,-1.91269932 C41.93041,-1.91269932 33.1546583,0.432220957 25.1203645,5.12110478 C17.0848747,9.81022779 10.7236446,16.1721754 6.0338041,24.2076651 C1.34468109,32.2429157 -1,41.0174715 -1,50.5310934 C-1,61.9591116 2.33416856,72.2354784 9.00417995,81.3628246 C15.6734738,90.4908884 24.2892141,96.8071526 34.8506834,100.312335 C36.0800683,100.540513 37.4082688,122.045091 38,121.5 C38.5919704,120.954191 38.4694761,98.6055467 38.4694761,97.7870729 C38.4694761,97.6505011 38.4577563,96.4218337 38.4350342,94.0996355 C38.4115945,91.7774374 38.4005923,89.7515831 38.4005923,88.0230296 L36.8298975,88.294738 C35.828451,88.4781891 34.5651025,88.5559226 33.0398519,88.533918 C31.5153189,88.512631 29.9326651,88.3528588 28.2940433,88.0557973 C26.6547039,87.7613667 25.1299317,87.078508 23.7185308,86.008656 C22.3078474,84.9388041 21.3064009,83.5384055 20.7144305,81.8096128 L20.0315718,80.2382005 C19.5764123,79.1920273 18.8598292,78.0298519 17.8808656,76.7559795 C16.9019021,75.4809112 15.9119362,74.6165148 14.9104897,74.1613554 L14.432369,73.8190888 C14.1137813,73.5916287 13.8181549,73.3172893 13.5447722,72.9989408 C13.2716287,72.6805923 13.0671298,72.3620046 12.9305581,72.0429385 C12.7937472,71.7236333 12.9071185,71.4617312 13.2718679,71.2562756 C13.6366173,71.05082 14.2957973,70.951082 15.2522779,70.951082 L16.6175171,71.1551025 C17.5280752,71.3375968 18.6543736,71.8826879 19.9978474,72.7937244 C21.3406036,73.7040433 22.4444191,74.8875057 23.309533,76.3436333 C24.3571412,78.210672 25.6192938,79.6333144 27.0995786,80.6122779 C28.5786674,81.5912415 30.0699544,82.0798861 31.5720046,82.0798861 C33.0740547,82.0798861 34.3713667,81.9660364 35.4644191,81.739533 C36.5562756,81.5118337 37.5806834,81.1695672 38.537164,80.7146469 C38.9468793,77.6631891 40.0624146,75.3189863 41.8828132,73.6803645 C39.2881891,73.4076993 36.955467,72.9970273 34.883451,72.4509795 C32.812631,71.9042141 30.6726879,71.0168565 28.4650569,69.7865148 C26.2562301,68.5578474 24.4238724,67.0321185 22.9675057,65.211959 C21.5108998,63.3908428 20.3154784,61 19.3829157,58.0415831 C18.4498747,55.0819704 17.9832346,51.6679157 17.9832346,47.7984624 C17.9832346,42.2889522 19.7818679,37.6005467 23.3784169,33.730615 C21.6936333,29.5884966 21.8526879,24.9450569 23.8560592,19.8007745 C25.1763326,19.3905809 27.1342597,19.6984055 29.7288838,20.7223349 C32.3239863,21.7467426 34.2240319,22.6242938 35.4309339,23.3518793 C36.637836,24.0792255 37.6048405,24.6955923 38.3333827,25.1954784 C42.5680638,24.0122551 46.9381207,23.4205239 51.4447494,23.4205239 C55.9513781,23.4205239 60.3223918,24.0122551 64.5573121,25.1954784 L67.1521754,23.5573349 C68.9266515,22.4642825 71.0221071,21.4625968 73.4335194,20.5520387 C75.8463667,19.641959 77.6914009,19.3912984 78.9667084,19.801492 C81.0145672,24.9460137 81.1970615,29.5892141 79.5117995,33.7313326 C83.1081093,37.6012642 84.9074601,42.2908656 84.9074601,47.79918 C84.9074601,51.6686333 84.4391458,55.093451 83.5075399,58.0757859 C82.574738,61.0585991 81.3690319,63.4470501 79.8899431,65.2461617 C78.40918,67.0450342 76.5651025,68.5588041 74.3574715,69.7872323 C72.1493622,71.0166173 70.0087016,71.9039749 67.9378815,72.4507403 C65.8661048,72.9975057 63.5333827,73.4084169 60.9387585,73.6815604 C63.305205,75.7294191 64.4886674,78.9619362 64.4886674,83.3776765 L64.4886674,97.7851595 C64.4886674,98.6036333 63.9875854,130.453952 64.5573121,131 C65.1263212,131.545091 63.2592825,130.228417 64.4886674,130 C75.0515718,126.495296 87.218656,90.4889749 93.8877107,81.3609112 C100.556048,72.2335649 103.891412,61.9571982 103.891412,50.52918 C103.889021,41.016754 101.543144,32.2429157 96.8561731,24.2076651 Z" id="Path" fill="#000000" fill-rule="nonzero" mask="url(#mask-2)"></path>
                </g>
            </g>
        </g>
    </g>
</svg>