<?xml version="1.0" encoding="utf-8"?>
<!-- Generator: Adobe Illustrator 21.1.0, SVG Export Plug-In . SVG Version: 6.00 Build 0)  -->
<svg version="1.1" id="Layer_2" xmlns="http://www.w3.org/2000/svg" xmlns:xlink="http://www.w3.org/1999/xlink" x="0px" y="0px"
	 viewBox="0 0 186.7 186.7" style="enable-background:new 0 0 186.7 186.7;" xml:space="preserve">
<style type="text/css">
	.st0{fill:url(#SVGID_1_);}
	.st1{fill:#FFFFFF;}
</style>
<linearGradient id="SVGID_1_" gradientUnits="userSpaceOnUse" x1="93.3333" y1="186.6667" x2="93.3333" y2="5.456968e-12">
	<stop  offset="0" style="stop-color:#4780E8"/>
	<stop  offset="1" style="stop-color:#11C8F6"/>
</linearGradient>
<path class="st0" d="M149,186.7H37.7C16.9,186.7,0,169.7,0,149L0,37.7C0,16.9,16.9,0,37.7,0L149,0c20.7,0,37.7,16.9,37.7,37.7V149
	C186.7,169.7,169.7,186.7,149,186.7z"/>
<path class="st1" d="M100.2,107.8h-67c-4.7,0-8.5,3.8-8.5,8.5s3.8,8.5,8.5,8.5h77.2c0,0,4-4-0.3-10.5
	C105.7,107.8,100.2,107.8,100.2,107.8z"/>
<path class="st1" d="M96.8,36.3l-41.6,72c-2.3,4.1-1,9.3,3.1,11.6l0,0c4.1,2.3,9.3,1,11.6-3.1l41.6-72c2.3-4.1,1-9.3-3.1-11.6l0,0
	C104.3,30.8,99.1,32.2,96.8,36.3z"/>
<path class="st1" d="M147.7,139.2L105,65.1c0,0-6.2,4.8-6.2,14.3s3.9,15.9,3.9,15.9l30.3,52.5c2.3,4.1,7.5,5.5,11.6,3.1l0,0
	C148.6,148.5,150,143.3,147.7,139.2z"/>
<path class="st1" d="M152,107.8h-23.7c-4.7,0-8.5,3.8-8.5,8.5v0c0,4.7,3.8,8.5,8.5,8.5H152c4.7,0,8.5-3.8,8.5-8.5v0
	C160.5,111.7,156.7,107.8,152,107.8z"/>
<path class="st1" d="M97.3,51.9l-9-15.7c-2.3-4-7.6-5.4-11.6-3.1l0,0c-4,2.3-5.4,7.6-3.1,11.6l9,15.7c2.3,4,7.6,5.4,11.6,3.1l0,0
	C98.2,61.2,99.6,56,97.3,51.9z"/>
<path class="st1" d="M37.4,139.1l5.4-9.3c0,0,1.3-2.6,6.4-2.6c5.4,0,10.6,4.5,11,6.2l-8.1,14.2c-2.3,4.1-7.5,5.5-11.6,3.1l0,0
	C36.4,148.4,35.1,143.2,37.4,139.1z"/>
</svg>
