<?xml version="1.0" encoding="UTF-8"?>
<svg width="89px" height="89px" viewBox="0 0 89 89" version="1.1" xmlns="http://www.w3.org/2000/svg" xmlns:xlink="http://www.w3.org/1999/xlink">
    <!-- Generator: Sketch 53.2 (72643) - https://sketchapp.com -->
    <title>Logo</title>
    <desc>Created with Sketch.</desc>
    <defs>
        <linearGradient x1="49.9910552%" y1="99.9821639%" x2="49.9910552%" y2="2.92285378e-12%" id="linearGradient-1">
            <stop stop-color="#4780E8" offset="0%"></stop>
            <stop stop-color="#11C8F6" offset="100%"></stop>
        </linearGradient>
    </defs>
    <g id="Brainstorm" stroke="none" stroke-width="1" fill="none" fill-rule="evenodd">
        <g id="Artboard-Copy-38" transform="translate(-366.000000, -1839.000000)" fill-rule="nonzero">
            <g id="Skills-Section" transform="translate(341.000000, 1474.000000)">
                <g id="2-iOS" transform="translate(0.000000, 327.000000)">
                    <g id="Left">
                        <g id="Logo" transform="translate(25.000000, 38.000000)">
                            <path d="M70.4682353,88.2981176 L17.8298824,88.2981176 C7.99270588,88.2981176 0,80.2581176 0,70.4682353 L0,17.8298824 C0,7.99270588 7.99270588,0 17.8298824,0 L70.4682353,0 C80.2581176,0 88.2981176,7.99270588 88.2981176,17.8298824 L88.2981176,70.4682353 C88.2981176,80.2581176 80.2581176,88.2981176 70.4682353,88.2981176 Z" id="Path" fill="url(#linearGradient-1)"></path>
                            <path d="M47.3887059,50.9830588 L15.7016471,50.9830588 C13.4788235,50.9830588 11.6816471,52.7802353 11.6816471,55.0030588 C11.6816471,57.2258824 13.4788235,59.0230588 15.7016471,59.0230588 L52.2127059,59.0230588 C52.2127059,59.0230588 54.1044706,57.1312941 52.0708235,54.0571765 C49.9898824,50.9830588 47.3887059,50.9830588 47.3887059,50.9830588 Z" id="Path" fill="#FFFFFF"></path>
                            <path d="M45.7807059,17.1677647 L26.1063529,51.2195294 C25.0185882,53.1585882 25.6334118,55.6178824 27.5724706,56.7056471 L27.5724706,56.7056471 C29.5115294,57.7934118 31.9708235,57.1785882 33.0585882,55.2395294 L52.7329412,21.1877647 C53.8207059,19.2487059 53.2058824,16.7894118 51.2668235,15.7016471 L51.2668235,15.7016471 C49.3277647,14.5665882 46.8684706,15.2287059 45.7807059,17.1677647 Z" id="Path" fill="#FFFFFF"></path>
                            <path d="M69.8534118,65.8334118 L49.6588235,30.7884706 C49.6588235,30.7884706 46.7265882,33.0585882 46.7265882,37.5515294 C46.7265882,42.0444706 48.5710588,45.0712941 48.5710588,45.0712941 L62.9011765,69.9007059 C63.9889412,71.8397647 66.4482353,72.5018824 68.3872941,71.3668235 L68.3872941,71.3668235 C70.2790588,70.2317647 70.9411765,67.7724706 69.8534118,65.8334118 Z" id="Path" fill="#FFFFFF"></path>
                            <path d="M71.8870588,50.9830588 L60.6783529,50.9830588 C58.4555294,50.9830588 56.6583529,52.7802353 56.6583529,55.0030588 L56.6583529,55.0030588 C56.6583529,57.2258824 58.4555294,59.0230588 60.6783529,59.0230588 L71.8870588,59.0230588 C74.1098824,59.0230588 75.9070588,57.2258824 75.9070588,55.0030588 L75.9070588,55.0030588 C75.9070588,52.8275294 74.1098824,50.9830588 71.8870588,50.9830588 Z" id="Path" fill="#FFFFFF"></path>
                            <path d="M46.0171765,24.5456471 L41.7607059,17.1204706 C40.6729412,15.2287059 38.1663529,14.5665882 36.2745882,15.6543529 L36.2745882,15.6543529 C34.3828235,16.7421176 33.7207059,19.2487059 34.8084706,21.1404706 L39.0649412,28.5656471 C40.1527059,30.4574118 42.6592941,31.1195294 44.5510588,30.0317647 L44.5510588,30.0317647 C46.4428235,28.944 47.1049412,26.4847059 46.0171765,24.5456471 Z" id="Path" fill="#FFFFFF"></path>
                            <path d="M17.688,65.7861176 L20.2418824,61.3877647 C20.2418824,61.3877647 20.8567059,60.1581176 23.2687059,60.1581176 C25.8225882,60.1581176 28.2818824,62.2863529 28.4710588,63.0903529 L24.6402353,69.8061176 C23.5524706,71.7451765 21.0931765,72.4072941 19.1541176,71.2722353 L19.1541176,71.2722353 C17.2150588,70.1844706 16.6002353,67.7251765 17.688,65.7861176 Z" id="Path" fill="#FFFFFF"></path>
                        </g>
                    </g>
                </g>
            </g>
        </g>
    </g>
</svg>