<svg width="100" height="100" viewBox="0 0 100 100" fill="none" xmlns="http://www.w3.org/2000/svg">
<path d="M70.8327 8.3335H20.8327C19.7276 8.3335 18.6678 8.77248 17.8864 9.55388C17.105 10.3353 16.666 11.3951 16.666 12.5002V79.1668C16.666 80.2719 17.105 81.3317 17.8864 82.1131C18.6678 82.8945 19.7276 83.3335 20.8327 83.3335H24.9993V87.5002C24.9993 88.6052 25.4383 89.665 26.2197 90.4465C27.0011 91.2279 28.0609 91.6668 29.166 91.6668C30.2711 91.6668 31.3309 91.2279 32.1123 90.4465C32.8937 89.665 33.3327 88.6052 33.3327 87.5002V83.3335H70.8327C74.1479 83.3335 77.3273 82.0165 79.6715 79.6723C82.0157 77.3281 83.3327 74.1487 83.3327 70.8335V20.8335C83.3327 17.5183 82.0157 14.3389 79.6715 11.9947C77.3273 9.65046 74.1479 8.3335 70.8327 8.3335ZM58.3327 75.0002H24.9993V16.6668H58.3327V75.0002ZM74.9993 70.8335C74.9993 71.9386 74.5604 72.9984 73.779 73.7798C72.9976 74.5612 71.9377 75.0002 70.8327 75.0002H66.666V16.6668H70.8327C71.9377 16.6668 72.9976 17.1058 73.779 17.8872C74.5604 18.6686 74.9993 19.7284 74.9993 20.8335V70.8335Z" fill="white"/>
<path d="M50 66C30 66.0003 30 25.9999 50 26" stroke="white" stroke-width="5"/>
</svg>
