<?xml version="1.0" encoding="UTF-8"?>
<svg width="65px" height="83px" viewBox="0 0 65 83" version="1.1" xmlns="http://www.w3.org/2000/svg" xmlns:xlink="http://www.w3.org/1999/xlink">
    <!-- Generator: Sketch 53.2 (72643) - https://sketchapp.com -->
    <title>Logo</title>
    <desc>Created with Sketch.</desc>
    <g id="Brainstorm" stroke="none" stroke-width="1" fill="none" fill-rule="evenodd">
        <g id="Artboard-Copy-38" transform="translate(-380.000000, -2025.000000)">
            <g id="Skills-Section" transform="translate(341.000000, 1474.000000)">
                <g id="3-Music" transform="translate(0.000000, 511.000000)">
                    <g id="Left">
                        <g id="Logo" transform="translate(38.940000, 40.000000)">
                            <g id="path-5-link" fill="#000000" fill-rule="nonzero">
                                <path d="M64.0822849,52.0865627 C64.1028277,52.0320153 64.1267942,51.9876954 64.1541848,51.9399665 C64.1678803,51.769505 64.1815754,51.5956351 64.2055423,51.4217646 C64.1678803,51.3263063 64.1267942,51.2308485 64.0891322,51.1353902 C47.7848758,41.1020525 50.0925344,11.4145551 31.1416609,0.893698876 C30.5219486,0.542549113 29.9159318,0.416407894 29.3133387,0.37208802 C29.1044853,0.320949742 28.9059033,0.242537627 28.6765071,0.242537627 C27.1631759,0.242537627 25.930599,1.46985724 25.930599,2.98014219 L25.930599,62.5255979 C23.2292006,60.8141689 19.774561,59.7436734 15.9467243,59.7436734 C7.40085626,59.7436734 0.467609975,64.9052339 0.467609975,71.2668407 C0.467609975,77.6284474 7.39743242,82.7900079 15.9467243,82.7900079 C24.4960159,82.7900079 31.4258389,77.6284474 31.4258389,71.2668407 C31.4258389,71.2191118 31.4087197,71.1816099 31.4087197,71.133881 C31.4121433,71.0997887 31.4258389,71.075924 31.4258389,71.0452413 L31.4258389,24.751428 C40.4168039,30.3630058 40.6393528,45.8954175 52.787085,51.22403 C54.409978,51.9638307 57.3202298,52.478623 60.2818385,52.8809114 C60.6379163,52.8638653 60.9666034,52.829773 61.3261054,52.829773 C61.5315346,52.829773 61.7095738,52.8502282 61.9047316,52.8570467 C62.2060281,52.7990897 62.5347159,52.771816 62.8394361,52.7240871 C63.2400236,52.4956692 63.6577304,52.2842974 64.0822849,52.0865627 L64.0822849,52.0865627 Z" id="path-5"></path>
                            </g>
                            <g id="path-5-link" fill="#FFFFFF">
                                <path d="M64.0822849,52.0865627 C64.1028277,52.0320153 64.1267942,51.9876954 64.1541848,51.9399665 C64.1678803,51.769505 64.1815754,51.5956351 64.2055423,51.4217646 C64.1678803,51.3263063 64.1267942,51.2308485 64.0891322,51.1353902 C47.7848758,41.1020525 50.0925344,11.4145551 31.1416609,0.893698876 C30.5219486,0.542549113 29.9159318,0.416407894 29.3133387,0.37208802 C29.1044853,0.320949742 28.9059033,0.242537627 28.6765071,0.242537627 C27.1631759,0.242537627 25.930599,1.46985724 25.930599,2.98014219 L25.930599,62.5255979 C23.2292006,60.8141689 19.774561,59.7436734 15.9467243,59.7436734 C7.40085626,59.7436734 0.467609975,64.9052339 0.467609975,71.2668407 C0.467609975,77.6284474 7.39743242,82.7900079 15.9467243,82.7900079 C24.4960159,82.7900079 31.4258389,77.6284474 31.4258389,71.2668407 C31.4258389,71.2191118 31.4087197,71.1816099 31.4087197,71.133881 C31.4121433,71.0997887 31.4258389,71.075924 31.4258389,71.0452413 L31.4258389,24.751428 C40.4168039,30.3630058 40.6393528,45.8954175 52.787085,51.22403 C54.409978,51.9638307 57.3202298,52.478623 60.2818385,52.8809114 C60.6379163,52.8638653 60.9666034,52.829773 61.3261054,52.829773 C61.5315346,52.829773 61.7095738,52.8502282 61.9047316,52.8570467 C62.2060281,52.7990897 62.5347159,52.771816 62.8394361,52.7240871 C63.2400236,52.4956692 63.6577304,52.2842974 64.0822849,52.0865627 L64.0822849,52.0865627 Z" id="path-5"></path>
                            </g>
                        </g>
                    </g>
                </g>
            </g>
        </g>
    </g>
</svg>