<?xml version="1.0" encoding="UTF-8"?>
<svg width="93px" height="84px" viewBox="0 0 93 84" version="1.1" xmlns="http://www.w3.org/2000/svg" xmlns:xlink="http://www.w3.org/1999/xlink">
    <!-- Generator: Sketch 53.2 (72643) - https://sketchapp.com -->
    <title>programming</title>
    <desc>Created with Sketch.</desc>
    <g id="Redesign" stroke="none" stroke-width="1" fill="none" fill-rule="evenodd">
        <g id="Artboard-Copy-14" transform="translate(-558.000000, -1472.000000)" fill="#EEEEEE" fill-rule="nonzero">
            <g id="programming" transform="translate(558.000000, 1472.000000)">
                <path d="M83.8818182,0 L8.38818182,0 C3.76209955,0 0,3.76629364 0,8.38818182 L0,75.4936364 C0,80.1239127 3.76209955,83.8818182 8.38818182,83.8818182 L83.8818182,83.8818182 C88.5079005,83.8818182 92.27,80.1239127 92.27,75.4936364 L92.27,8.38818182 C92.27,3.76629364 88.5079005,0 83.8818182,0 Z M83.8818182,16.7763636 L50.3290909,16.7763636 L50.3290909,8.38818182 L83.8818182,8.38818182 L83.8818182,16.7763636 Z M29.3586364,16.7763636 L29.3586364,8.38818182 L41.9409091,8.38818182 L41.9409091,16.7763636 L29.3586364,16.7763636 Z M20.9704545,8.38818182 L20.9704545,16.7763636 L8.38818182,16.7763636 L8.38818182,8.38818182 L20.9704545,8.38818182 Z M8.38818182,75.4936364 L8.38818182,25.1645455 L83.8776241,25.1645455 L83.8692359,75.4936364 L8.38818182,75.4936364 Z" id="Shape"></path>
                <rect id="Rectangle" x="50.3290909" y="54.5231818" width="20.9704545" height="8.38818182"></rect>
                <polygon id="Path" points="22.1993232 40.7162345 31.8163736 50.3290909 22.1993232 59.9503355 28.1297677 65.88078 43.6772627 50.3290909 28.1297677 34.78579"></polygon>
            </g>
        </g>
    </g>
</svg>