<?xml version="1.0" encoding="UTF-8" standalone="no"?>
<svg width="554px" height="575px" viewBox="0 0 554 575" version="1.1" xmlns="http://www.w3.org/2000/svg" xmlns:xlink="http://www.w3.org/1999/xlink" xmlns:sketch="http://www.bohemiancoding.com/sketch/ns">
    <!-- Generator: Sketch 3.4.4 (17249) - http://www.bohemiancoding.com/sketch -->
    <title>Artboard 27</title>
    <desc>Created with Sketch.</desc>
    <defs>
        <radialGradient cx="50%" cy="0%" fx="50%" fy="0%" r="110.931813%" id="radialGradient-1">
            <stop stop-color="#93F1A9" offset="0%"></stop>
            <stop stop-color="#2EC887" offset="100%"></stop>
        </radialGradient>
    </defs>
    <g id="Page-1" stroke="none" stroke-width="1" fill="none" fill-rule="evenodd" sketch:type="MSPage">
        <g id="Artboard-27" sketch:type="MSArtboardGroup">
            <rect id="GradientBackground" fill="url(#radialGradient-1)" sketch:type="MSShapeGroup" x="0" y="0" width="554" height="575"></rect>
            <g id="LaunchImage" sketch:type="MSLayerGroup" transform="translate(17.000000, 67.000000)">
                <text id="WordQ" sketch:type="MSTextLayer" font-family="Intensa Fuente" font-size="392.238806" font-weight="normal" sketch:alignment="middle" fill="#2C3439">
                    <tspan x="109.123338" y="395.680597">Q</tspan>
                </text>
                <path d="M266.053769,0.360541866 L217.70761,53.5120988 L170.758692,18.2964928 L138.665538,67.4493487 L80.3952575,36.4957198 L114.841508,112.088656 L259.024557,86.665294 L266.053769,0.360541866 L266.053769,0.360541866 Z M177.125818,55.1245394 L195.137393,66.5948442 L183.231636,89.7523563 L164.123549,72.0634218 L177.125818,55.1245394 L177.125818,55.1245394 Z M126.189162,78.3860242 C131.511639,77.4475279 136.444436,80.9084958 137.385411,86.2450281 C138.32561,91.5771657 134.871545,96.498838 129.547815,97.4375552 C124.223458,98.376383 119.293135,94.9331047 118.352824,89.6003393 C117.412514,84.2675739 120.864916,79.3254797 126.188646,78.3867625 L126.189162,78.3860242 Z M236.303973,58.9299896 C241.62645,57.9914934 246.559247,61.4524612 247.500222,66.7889936 C248.440422,72.1211312 244.986356,77.0428035 239.662626,77.9815207 C234.33827,78.9203484 229.407946,75.4770702 228.467635,70.1443048 C227.527325,64.8115394 230.979728,59.8694452 236.303458,58.9307279 L236.303973,58.9299896 Z" id="Crown" stroke="#2C3439" stroke-width="2" fill="#FEBA2C" sketch:type="MSShapeGroup"></path>
                <text id="WordUEST" sketch:type="MSTextLayer" font-family="Intensa Fuente" font-size="118.979104" font-weight="normal" fill="#2C3439">
                    <tspan x="296.79403" y="299.061194">uest</tspan>
                </text>
            </g>
        </g>
    </g>
</svg>