<?xml version="1.0" encoding="UTF-8" standalone="no"?>
<svg width="32px" height="32px" viewBox="0 0 32 32" version="1.1" xmlns="http://www.w3.org/2000/svg" xmlns:xlink="http://www.w3.org/1999/xlink" xmlns:sketch="http://www.bohemiancoding.com/sketch/ns">
    <!-- Generator: Sketch 3.4.4 (17249) - http://www.bohemiancoding.com/sketch -->
    <title>arrow-left-circle</title>
    <desc>Created with Sketch.</desc>
    <defs></defs>
    <g id="Page-1" stroke="none" stroke-width="1" fill="none" fill-rule="evenodd" sketch:type="MSPage">
        <g id="Artboard-1" sketch:type="MSArtboardGroup" transform="translate(-282.000000, -320.000000)" fill="#FFFFFF">
            <path d="M305,335 L294.414,335 L298.536,330.88 C298.926,330.49 298.926,329.86 298.536,329.46 C298.145,329.07 297.512,329.07 297.121,329.46 L291.464,335.12 C291.225,335.36 291.15,335.69 291.205,336 C291.15,336.31 291.225,336.64 291.464,336.88 L297.121,342.54 C297.512,342.93 298.145,342.93 298.536,342.54 C298.926,342.15 298.926,341.51 298.536,341.12 L294.414,337 L305,337 C305.552,337 306,336.55 306,336 C306,335.45 305.552,335 305,335 L305,335 L305,335 Z M298,350 C290.268,350 284,343.73 284,336 C284,328.27 290.268,322 298,322 C305.732,322 312,328.27 312,336 C312,343.73 305.732,350 298,350 L298,350 L298,350 Z M298,320 C289.164,320 282,327.16 282,336 C282,344.84 289.164,352 298,352 C306.836,352 314,344.84 314,336 C314,327.16 306.836,320 298,320 L298,320 L298,320 Z" id="arrow-left-circle" sketch:type="MSShapeGroup" transform="translate(298.000000, 336.000000) rotate(-90.000000) translate(-298.000000, -336.000000) "></path>
        </g>
    </g>
</svg>