<?xml version="1.0" encoding="utf-8"?>
<!-- Generator: Adobe Illustrator 16.0.3, SVG Export Plug-In . SVG Version: 6.00 Build 0)  -->
<!DOCTYPE svg PUBLIC "-//W3C//DTD SVG 1.1//EN" "http://www.w3.org/Graphics/SVG/1.1/DTD/svg11.dtd">
<svg version="1.1" id="Layer_1" xmlns="http://www.w3.org/2000/svg" xmlns:xlink="http://www.w3.org/1999/xlink" x="0px" y="0px"
	 width="128px" height="128px" viewBox="0 0 128 128" enable-background="new 0 0 128 128" xml:space="preserve">
<g>
	<circle fill="#FFC400" cx="64" cy="64" r="64"/>
</g>
<g>
	<g>
		<g>
			<path fill="#616161" d="M26.6,27.5l0,72c0,2,1.6,3.5,3.6,3.5h40.6c-2.1-1-3.7-2.9-3.7-5.4V92H28.5H28v0.2V35.5v-0.3
				c0-0.2,0.3-0.2,0.5-0.2h51.2c0.2,0,0.3,0,0.3,0.2V46h2.2l0-18.5c0-1.9-1.6-3.5-3.6-3.5H30.1C28.2,24,26.6,25.6,26.6,27.5z"/>
		</g>
		<g>
			<path fill="#E0F2F1" d="M28,36v56h38V51.5c0-3.2,4.1-5.5,7.6-5.5H78V36H28z"/>
		</g>
		<g>
			<path fill="#BCAAA4" d="M28.2,92.2v0.3h0.3C28.3,92.5,28.2,92.3,28.2,92.2z"/>
		</g>
		<g>
			<path fill="#EEEEEE" d="M96,46H73.6c-3.2,0-5.6,2.7-5.6,5.5V90v7.7c0,3,2.3,5.6,5.1,5.7c0.1,0,22.7,0,22.7,0
				c2.8,0,5.1-2.6,5.1-5.7V51.7C101,48.7,98.9,46,96,46z M98,94.1c0,0.2,0.4-0.1,0.2-0.1L98,94.1L70.7,94H70v0.1V80V55.7
				c0-0.2,0.5-0.7,0.7-0.7h27.5c0.2,0-0.2,0.5-0.2,0.7V94.1z"/>
		</g>
		<g>
			<path fill="#BCAAA4" d="M70.4,94.1v0.3h0.3C70.5,94.4,70.4,94.3,70.4,94.1z"/>
		</g>
		<g>
			<rect x="70" y="56" fill="#E0F2F1" width="27" height="38"/>
		</g>
		<g>
			<path fill="#9E9E9E" d="M54.1,100.5c1.6,0,2.9-1.3,2.9-2.9s-1.3-2.9-2.9-2.9c-1.6,0-2.9,1.3-2.9,2.9S52.5,100.5,54.1,100.5z"/>
		</g>
		<g>
			<path fill="#BCAAA4" d="M84.8,96.1c-1.4,0-2.6,1.1-2.6,2.6c0,1.4,1.1,2.6,2.6,2.6c1.4,0,2.6-1.1,2.6-2.6
				C87.4,97.2,86.2,96.1,84.8,96.1z"/>
		</g>
	</g>
	<g>
		<g>
			<path d="M67,93H29c-0.6,0-1-0.4-1-1V35c0-0.6,0.4-1,1-1h42c0.6,0,1,0.4,1,1s-0.4,1-1,1H30v55h37c0.6,0,1,0.4,1,1S67.6,93,67,93z"
				/>
		</g>
		<g>
			<path d="M79,47c-0.6,0-1-0.4-1-1V36h-1c-0.6,0-1-0.4-1-1s0.4-1,1-1h2c0.6,0,1,0.4,1,1v11C80,46.6,79.6,47,79,47z"/>
		</g>
		<g>
			<path d="M78,105H30.1c-2.6,0-4.9-2.4-4.9-5.2l0-72.1c0-2.7,2.1-4.7,4.9-4.7h48.5c2.8,0,4.9,2,4.9,4.6l-0.3,18.7c0,0.6-0.5,1-1,1
				c-0.6,0-1-0.5-1-1l0.3-18.7c0-1.7-1.5-2.6-2.9-2.6H30.1c-1.6,0-2.9,1.2-2.9,2.7l0,72.1c0,1.7,1.4,3.2,2.9,3.2H78c0.6,0,1,0.4,1,1
				S78.6,105,78,105z"/>
		</g>
		<g>
			<path d="M54.1,101.8c-0.8,0-1.5-0.2-2.2-0.6c-1-0.6-1.6-1.5-1.9-2.6c-0.3-1.1-0.1-2.2,0.5-3.2c0.6-1,1.5-1.6,2.6-1.9
				c0.6-0.1,1.2-0.2,1.8,0c0.5,0.1,0.9,0.6,0.8,1.2c-0.1,0.5-0.6,0.9-1.2,0.8c-0.3-0.1-0.6-0.1-1,0c-0.6,0.1-1.1,0.5-1.4,1
				s-0.4,1.1-0.3,1.7c0.1,0.6,0.5,1.1,1,1.4c0.5,0.3,1.1,0.4,1.7,0.3s1-0.5,1.4-1c0.3-0.5,0.4-1.1,0.3-1.7c-0.1-0.5,0.2-1.1,0.7-1.2
				c0.5-0.1,1.1,0.2,1.2,0.7c0.3,1.1,0.1,2.2-0.5,3.2c-0.6,1-1.5,1.6-2.6,1.9C54.8,101.8,54.4,101.8,54.1,101.8z"/>
		</g>
		<g>
			<path d="M59,31h-9c-0.6,0-1-0.4-1-1s0.4-1,1-1h9c0.6,0,1,0.4,1,1S59.6,31,59,31z"/>
		</g>
		<g>
			<path d="M47.3,30.1c-0.3,0-0.5-0.1-0.7-0.3c-0.2-0.2-0.3-0.5-0.3-0.7s0.1-0.5,0.3-0.7c0.4-0.4,1-0.4,1.4,0
				c0.2,0.2,0.3,0.5,0.3,0.7s-0.1,0.5-0.3,0.7C47.9,30,47.6,30.1,47.3,30.1z"/>
		</g>
		<g>
			<path d="M51.2,57.6c-0.3,0-0.5-0.1-0.7-0.3L28.9,35.8c-0.4-0.4-0.4-1,0-1.4s1-0.4,1.4,0l21.5,21.5c0.4,0.4,0.4,1,0,1.4
				C51.7,57.5,51.4,57.6,51.2,57.6z"/>
		</g>
		<g>
			<path d="M60.8,67.2c-0.3,0-0.5-0.1-0.7-0.3l-6.4-6.4c-0.4-0.4-0.4-1,0-1.4s1-0.4,1.4,0l6.4,6.4c0.4,0.4,0.4,1,0,1.4
				C61.3,67.1,61,67.2,60.8,67.2z"/>
		</g>
		<g>
			<path d="M67.4,80.2c-0.2,0-0.5-0.1-0.7-0.3L47.3,61.1c-0.4-0.4-0.4-1,0-1.4c0.4-0.4,1-0.4,1.4,0l19.4,18.8c0.4,0.4,0.4,1,0,1.4
				C67.9,80.1,67.6,80.2,67.4,80.2z"/>
		</g>
		<g>
			<path d="M96,105H73.4c-3.7,0-7.4-3.6-7.4-7.4V51.5c0-3.8,4-6.5,7.6-6.5H96c3.7,0,6.7,3.1,6.7,6.8l0,46.1
				C102.7,101.7,99.6,105,96,105z M73.6,47C71,47,68,49,68,51.5v46.1c0,2.6,2.8,5.4,5.4,5.4H96c2.5,0,4.7-2.4,4.7-5.1l0-46.1
				c0-2.6-2.2-4.8-4.7-4.8H73.6z"/>
		</g>
		<g>
			<path d="M98,95H70c-0.6,0-1-0.4-1-1V55c0-0.6,0.4-1,1-1h22c0.6,0,1,0.4,1,1s-0.4,1-1,1H71v37h26V56h-1c-0.6,0-1-0.4-1-1
				s0.4-1,1-1h2c0.6,0,1,0.4,1,1v39C99,94.6,98.6,95,98,95z"/>
		</g>
		<g>
			<path d="M87,52h-5c-0.6,0-1-0.4-1-1s0.4-1,1-1h5c0.6,0,1,0.4,1,1S87.6,52,87,52z"/>
		</g>
		<g>
			<path d="M78.7,51.3c-0.3,0-0.5-0.1-0.7-0.3c-0.2-0.2-0.3-0.4-0.3-0.7c0-0.3,0.1-0.5,0.3-0.7c0.4-0.4,1-0.4,1.4,0
				c0.2,0.2,0.3,0.5,0.3,0.7c0,0.3-0.1,0.5-0.3,0.7C79.2,51.2,79,51.3,78.7,51.3z"/>
		</g>
		<g>
			<path d="M82.8,67.1c-0.3,0-0.5-0.1-0.7-0.3L71.2,56c-0.4-0.4-0.4-1,0-1.4s1-0.4,1.4,0l10.8,10.8c0.4,0.4,0.4,1,0,1.4
				C83.3,67,83,67.1,82.8,67.1z"/>
		</g>
		<g>
			<path d="M89.7,73.4c-0.3,0-0.5-0.1-0.7-0.3l-3.8-3.8c-0.4-0.4-0.4-1,0-1.4s1-0.4,1.4,0l3.8,3.8c0.4,0.4,0.4,1,0,1.4
				C90.2,73.3,90,73.4,89.7,73.4z"/>
		</g>
		<g>
			<path d="M92.7,83.9c-0.3,0-0.5-0.1-0.7-0.3L78.5,70.2c-0.4-0.4-0.4-1,0-1.4s1-0.4,1.4,0l13.5,13.5c0.4,0.4,0.4,1,0,1.4
				C93.2,83.8,92.9,83.9,92.7,83.9z"/>
		</g>
		<g>
			<path d="M97.9,89.2c-0.3,0-0.5-0.1-0.7-0.3l-2.4-2.4c-0.4-0.4-0.4-1,0-1.4s1-0.4,1.4,0l2.4,2.4c0.4,0.4,0.4,1,0,1.4
				C98.4,89.1,98.2,89.2,97.9,89.2z"/>
		</g>
		<g>
			<path d="M84.8,102.5c-2.1,0-3.9-1.7-3.9-3.9c0-2.1,1.7-3.9,3.9-3.9c0.4,0,0.8,0.1,1.1,0.2c0.5,0.2,0.8,0.7,0.7,1.3
				c-0.2,0.5-0.7,0.8-1.3,0.7c-0.2-0.1-0.4-0.1-0.6-0.1c-1,0-1.9,0.8-1.9,1.9s0.8,1.9,1.9,1.9c1,0,1.9-0.8,1.9-1.9
				c0-0.2,0-0.4-0.1-0.5c-0.2-0.5,0.1-1.1,0.7-1.2c0.5-0.2,1.1,0.1,1.2,0.7c0.1,0.3,0.2,0.7,0.2,1.1
				C88.7,100.7,86.9,102.5,84.8,102.5z"/>
		</g>
	</g>
</g>
</svg>
