<svg height="437" viewBox="0 0 492 437" width="492" xmlns="http://www.w3.org/2000/svg"><path d="m491.3 218.5c0 32.4-40.5 63.2-102.5 82.3 14.5 63.4 8.2 113.9-19.9 130.1-6.6 3.8-14.2 5.6-22.6 5.6-27.5 0-63.5-19.4-99.9-53.2-36.4 34-72.4 53.6-99.9 53.6-8.4 0-16-1.8-22.5-5.6-28.2-16.2-34.6-66.8-20.2-130.4-62.4-19.1-103.1-49.9-103.1-82.4 0-32.4 40.5-63.1 102.7-82.3-14.5-63.4-8.2-113.9 19.9-130.1 6.6-3.8 14.2-5.6 22.6-5.6v22.3c-4.6 0-8.5.8-11.5 2.6-13.5 7.9-19.3 37.6-14.6 75.8 1.2 9.3 2.9 19 5.2 29 19.6-4.9 41-8.6 63.6-11 13.3-18.5 27.3-35.2 41.3-49.9-32.6-30.1-63.3-46.6-84-46.6v-22.3c27.5 0 63.5 19.4 99.9 53.2 36.4-34 72.4-53.6 99.9-53.6v22.3c-20.8 0-51.4 16.6-84 46.9 14.1 14.7 28.1 31.5 41.6 50 22.5 2.4 43.9 6.1 63.5 10.9 2.2-10.1 4-20 5.1-29.4 4.6-38.2-1.3-67.9-14.9-75.7-3.1-1.7-6.8-2.6-11.4-2.6v-22.3c8.3 0 15.9 1.8 22.4 5.6 28.2 16.2 34.6 66.8 20.2 130.4 62.4 19.1 103.1 49.9 103.1 82.4zm-130.2-66.7c-13.1-3.2-26.8-5.8-41-7.9 4.9 7.6 9.8 15.4 14.4 23.4 4.7 8 9 16 13.1 24 5.2-13.3 9.8-26.6 13.5-39.5zm-45.8 106.5c7.5-13.1 14.4-26.5 20.7-39.9-6.3-13.4-13.2-26.7-20.8-39.8-7.8-13.4-15.9-26.1-24.2-38-14.8-1.2-29.9-1.9-45-1.9-15.2 0-30.3.7-45.2 2-8.3 11.9-16.3 24.7-24.1 38.2-7.5 13.1-14.5 26.5-20.7 39.9 6.3 13.4 13.2 26.7 20.8 39.8 7.8 13.4 15.9 26.1 24.2 38 14.8 1.2 29.9 1.9 45 1.9 15.2 0 30.3-.7 45.2-2 8.3-11.9 16.3-24.7 24.1-38.2zm32.3-13c-4.1 8-8.4 16.1-13 24.1-4.6 8.1-9.5 16-14.4 23.7 14.3-2.1 28.1-4.8 41.2-8-3.8-13-8.4-26.4-13.8-39.8zm-101.4 106.7c9.2-9.6 18.5-20.3 27.5-32-9.1.5-18.4.7-27.8.7-9.3 0-18.5-.3-27.5-.7 9.2 11.7 18.5 22.4 27.8 32zm-74.4-58.9c-4.9-7.6-9.7-15.4-14.4-23.4s-9-16-13.1-24c-5.2 13.3-9.8 26.6-13.5 39.5 13.1 3.2 26.8 5.8 41 7.9zm73.9-208.1c-9.2 9.6-18.5 20.3-27.5 32 9.1-.5 18.4-.7 27.8-.7 9.3 0 18.5.3 27.5.7-9.2-11.7-18.5-22.4-27.8-32zm-74 58.9c-14.3 2.1-28.1 4.8-41.2 7.9 3.8 13 8.4 26.4 13.8 39.8 4.1-8 8.4-16 13-24 4.6-8.1 9.5-16 14.4-23.7zm-90.5 125.2c8.7 3.7 18.1 7.1 28 10.2 5.6-19.5 13-39.8 22.2-60.6-9.3-20.9-16.8-41.3-22.5-60.9-9.7 3.1-19.1 6.4-27.7 10.1-35.4 15-58.3 34.9-58.3 50.6s22.9 35.5 58.3 50.6zm53.8 142.9c3 1.7 6.8 2.6 11.3 2.7 20.8 0 51.4-16.6 84-46.9-14.1-14.7-28.1-31.5-41.6-50-22.5-2.4-43.9-6.1-63.5-10.9-2.2 10.1-4 20-5.1 29.4-4.6 38.2 1.3 67.9 14.9 75.7zm237.2-76.2c-1.1-9.3-2.9-19-5.2-29.1-19.6 4.9-41 8.6-63.6 11-13.3 18.5-27.3 35.2-41.3 49.9 32.6 30.1 63.3 46.6 84 46.6 4.6 0 8.5-.8 11.5-2.6 13.5-7.9 19.3-37.6 14.6-75.8zm38.5-66.7c35.4-15 58.3-34.9 58.4-50.6 0-15.7-22.9-35.5-58.3-50.6-8.8-3.7-18.2-7.1-28.1-10.2-5.6 19.5-13 39.8-22.2 60.6 9.3 20.9 16.8 41.3 22.5 60.9 9.7-3.1 19.1-6.4 27.7-10.1zm-164.8-4.9c-25.239413 0-45.7-20.460587-45.7-45.7s20.460587-45.7 45.7-45.7 45.7 20.460587 45.7 45.7-20.460587 45.7-45.7 45.7z" fill="#61dafb"/></svg>